<svg width="100" height="100" viewBox="0 0 100 100" fill="none" xmlns="http://www.w3.org/2000/svg">
<path d="M50 100C77.6142 100 100 86.1029 100 68.96C100 51.8171 77.6142 37.92 50 37.92C22.3858 37.92 0 51.8171 0 68.96C0 86.1029 22.3858 100 50 100Z" fill="#F0F0F0"/>
<path d="M78.6605 88.1285C82.7586 88.1285 86.0808 86.0662 86.0808 83.5222C86.0808 80.9782 82.7586 78.9158 78.6605 78.9158C74.5624 78.9158 71.2402 80.9782 71.2402 83.5222C71.2402 86.0662 74.5624 88.1285 78.6605 88.1285Z" fill="#E0E0E0"/>
<path d="M11.3133 78.3909L3.01166 73.2391C2.71789 73.0573 2.71789 72.7619 3.01166 72.5801L48.7509 44.1785C48.9149 44.0899 49.0958 44.0438 49.2793 44.0438C49.4628 44.0438 49.6437 44.0899 49.8077 44.1785L58.1072 49.3302C58.3988 49.512 58.3988 49.8074 58.1072 49.9892L12.37 78.3909C12.2062 78.4798 12.0252 78.5261 11.8417 78.5261C11.6581 78.5261 11.4772 78.4798 11.3133 78.3909Z" fill="#E0E0E0"/>
<path d="M40.0964 70.3235L46.7791 66.1694C47.4681 65.7399 47.8126 65.1809 47.8126 64.6196C47.8126 64.0582 47.8126 63.6197 47.8126 63.6197L39.7751 58.7224C39.5817 58.586 39.4206 58.4027 39.305 58.1872C39.1894 57.9717 39.1224 57.73 39.1094 57.4817V48.6189L27.4368 55.8705V64.7332C27.4501 64.9812 27.5173 65.2224 27.6329 65.4374C27.7485 65.6525 27.9093 65.8355 28.1025 65.9717L35.1086 70.3212C36.4866 71.178 38.7205 71.178 40.0964 70.3235Z" fill="#2F80ED"/>
<g opacity="0.5">
<path d="M40.0964 70.3235L46.7791 66.1694C47.4681 65.7399 47.8126 65.1809 47.8126 64.6196C47.8126 64.0582 47.8126 63.6197 47.8126 63.6197L39.7751 58.7224C39.5817 58.586 39.4206 58.4027 39.305 58.1872C39.1894 57.9717 39.1224 57.73 39.1094 57.4817V48.6189L27.4368 55.8705V64.7332C27.4501 64.9812 27.5173 65.2224 27.6329 65.4374C27.7485 65.6525 27.9093 65.8355 28.1025 65.9717L35.1086 70.3212C36.4866 71.178 38.7205 71.178 40.0964 70.3235Z" fill="black"/>
</g>
<path d="M30.2392 66.3035V67.2988L28.1004 65.974C27.907 65.8375 27.7459 65.6542 27.6303 65.4387C27.5147 65.2232 27.4477 64.9816 27.4347 64.7332V55.8705L29.6602 54.4911C29.7045 55.0978 29.7553 55.725 29.8018 56.3363L28.242 57.3067V64.2287C28.254 64.4768 28.3203 64.7183 28.4356 64.9336C28.551 65.1488 28.712 65.3317 28.9057 65.4672L30.2392 66.3035Z" fill="#2F80ED"/>
<path opacity="0.7" d="M30.2392 66.3035V67.2988L28.1004 65.974C27.907 65.8375 27.7459 65.6542 27.6303 65.4387C27.5147 65.2232 27.4477 64.9816 27.4347 64.7332V55.8705L29.6602 54.4911C29.7045 55.0978 29.7553 55.725 29.8018 56.3363L28.242 57.3067V64.2287C28.254 64.4768 28.3203 64.7183 28.4356 64.9336C28.551 65.1488 28.712 65.3317 28.9057 65.4672L30.2392 66.3035Z" fill="black"/>
<path d="M28.242 64.2355C28.2544 64.4838 28.3211 64.7253 28.4368 64.9406C28.5525 65.1558 28.7139 65.3386 28.9078 65.474L35.1065 69.3236C36.4845 70.1803 38.7184 70.1803 40.0964 69.3236L46.7833 65.1695C48.1613 64.315 48.1613 62.9288 46.7833 62.0744L40.5804 58.2225C40.3865 58.0871 40.2251 57.9043 40.1094 57.6891C39.9937 57.4738 39.9269 57.2322 39.9146 56.984V50.062L28.242 57.3135V64.2355Z" fill="#2F80ED"/>
<path opacity="0.3" d="M28.242 64.2355C28.2544 64.4838 28.3211 64.7253 28.4368 64.9406C28.5525 65.1558 28.7139 65.3386 28.9078 65.474L35.1065 69.3236C36.4845 70.1803 38.7184 70.1803 40.0964 69.3236L46.7833 65.1695C48.1613 64.315 48.1613 62.9288 46.7833 62.0744L40.5804 58.2225C40.3865 58.0871 40.2251 57.9043 40.1094 57.6891C39.9937 57.4738 39.9269 57.2322 39.9146 56.984V50.062L28.242 57.3135V64.2355Z" fill="black"/>
<path opacity="0.7" d="M41.9351 59.0656L40.5804 58.2248C40.3865 58.0893 40.2251 57.9066 40.1094 57.6913C39.9937 57.4761 39.927 57.2345 39.9146 56.9862V50.062L28.242 57.3135V64.2355C28.2544 64.4838 28.3211 64.7253 28.4368 64.9406C28.5525 65.1558 28.7139 65.3386 28.9078 65.474L30.2392 66.3012L41.9351 59.0656Z" fill="#2F80ED"/>
<path opacity="0.6" d="M41.9351 59.0656L40.5804 58.2248C40.3865 58.0893 40.2251 57.9066 40.1094 57.6913C39.9937 57.4761 39.927 57.2345 39.9146 56.9862V50.062L28.242 57.3135V64.2355C28.2544 64.4838 28.3211 64.7253 28.4368 64.9406C28.5525 65.1558 28.7139 65.3386 28.9078 65.474L30.2392 66.3012L41.9351 59.0656Z" fill="black"/>
<path d="M47.8147 63.6219V64.6309C47.8147 65.1922 47.4681 65.749 46.7812 66.1785L40.0985 70.3122C39.3661 70.734 38.5474 70.9527 37.7166 70.9484V69.9531C38.5474 69.9573 39.3661 69.7386 40.0985 69.3168L46.7812 65.1604C47.4681 64.7445 47.8147 64.1764 47.8147 63.6219Z" fill="#2F80ED"/>
<path opacity="0.2" d="M47.8147 63.6219V64.6309C47.8147 65.1922 47.4681 65.749 46.7812 66.1785L40.0985 70.3122C39.3661 70.734 38.5474 70.9527 37.7166 70.9484V69.9531C38.5474 69.9573 39.3661 69.7386 40.0985 69.3168L46.7812 65.1604C47.4681 64.7445 47.8147 64.1764 47.8147 63.6219Z" fill="black"/>
<path d="M9.49988 73.7936C9.75215 73.9247 10.0296 73.9901 10.3097 73.9846C10.5898 73.9791 10.8648 73.9027 11.1124 73.7618L56.2515 45.7397C56.4933 45.5695 56.6944 45.3405 56.8387 45.0713C56.983 44.802 57.0663 44.5001 57.0821 44.1898V1.70786C57.0723 1.40702 56.9966 1.11292 56.861 0.849521C56.7255 0.58612 56.534 0.360864 56.3022 0.192104C56.0505 0.0605082 55.7733 -0.00520702 55.4935 0.000322146C55.2136 0.00585131 54.9389 0.0824689 54.6918 0.223919L9.55271 28.246C9.31077 28.4155 9.10944 28.644 8.96511 28.9129C8.82079 29.1818 8.73753 29.4836 8.72213 29.7936V72.2892C8.7343 72.5877 8.81091 72.879 8.9459 73.1401C9.0809 73.4012 9.27056 73.6249 9.49988 73.7936Z" fill="#2F80ED"/>
<path opacity="0.3" d="M9.49988 73.7936C9.75215 73.9247 10.0296 73.9901 10.3097 73.9846C10.5898 73.9791 10.8648 73.9027 11.1124 73.7618L56.2515 45.7397C56.4933 45.5695 56.6944 45.3405 56.8387 45.0713C56.983 44.802 57.0663 44.5001 57.0821 44.1898V1.70786C57.0723 1.40702 56.9966 1.11292 56.861 0.849521C56.7255 0.58612 56.534 0.360864 56.3022 0.192104C56.0505 0.0605082 55.7733 -0.00520702 55.4935 0.000322146C55.2136 0.00585131 54.9389 0.0824689 54.6918 0.223919L9.55271 28.246C9.31077 28.4155 9.10944 28.644 8.96511 28.9129C8.82079 29.1818 8.73753 29.4836 8.72213 29.7936V72.2892C8.7343 72.5877 8.81091 72.879 8.9459 73.1401C9.0809 73.4012 9.27056 73.6249 9.49988 73.7936Z" fill="black"/>
<path d="M11.1125 73.7595L56.2516 45.7374C56.4938 45.5681 56.6955 45.3397 56.8401 45.0708C56.9848 44.8019 57.0685 44.5 57.0843 44.1898V1.70559C57.0843 1.13519 56.7102 0.905671 56.2516 1.18973L11.1125 29.2118C10.8696 29.383 10.6678 29.6134 10.5235 29.8843C10.3791 30.1552 10.2964 30.4589 10.2819 30.7708V73.2437C10.2819 73.8141 10.6539 74.0459 11.1125 73.7595Z" fill="#2F80ED"/>
<path d="M11.1125 73.7595L56.2516 45.7374C56.4938 45.5681 56.6955 45.3397 56.8401 45.0708C56.9848 44.8019 57.0685 44.5 57.0843 44.1898V1.70559C57.0843 1.13519 56.7102 0.905671 56.2516 1.18973L11.1125 29.2118C10.8696 29.383 10.6678 29.6134 10.5235 29.8843C10.3791 30.1552 10.2964 30.4589 10.2819 30.7708V73.2437C10.2819 73.8141 10.6539 74.0459 11.1125 73.7595Z" fill="#2F80ED"/>
<path opacity="0.5" d="M11.1125 73.7595L56.2516 45.7374C56.4938 45.5681 56.6955 45.3397 56.8401 45.0708C56.9848 44.8019 57.0685 44.5 57.0843 44.1898V1.70559C57.0843 1.13519 56.7102 0.905671 56.2516 1.18973L11.1125 29.2118C10.8696 29.383 10.6678 29.6134 10.5235 29.8843C10.3791 30.1552 10.2964 30.4589 10.2819 30.7708V73.2437C10.2819 73.8141 10.6539 74.0459 11.1125 73.7595Z" fill="black"/>
<path d="M10.9899 73.8277C10.7553 73.9356 10.5019 73.9884 10.2468 73.9825C9.99163 73.9766 9.74061 73.9122 9.51048 73.7936C9.27862 73.6244 9.08716 73.3987 8.95165 73.1349C8.81615 72.8712 8.74042 72.5767 8.73062 72.2756V67.5034L10.2903 68.4737V73.2459C10.2798 73.7663 10.5862 74.0004 10.9899 73.8277Z" fill="#2F80ED"/>
<path opacity="0.7" d="M10.9899 73.8277C10.7553 73.9356 10.5019 73.9884 10.2468 73.9825C9.99163 73.9766 9.74061 73.9122 9.51048 73.7936C9.27862 73.6244 9.08716 73.3987 8.95165 73.1349C8.81615 72.8712 8.74042 72.5767 8.73062 72.2756V67.5034L10.2903 68.4737V73.2459C10.2798 73.7663 10.5862 74.0004 10.9899 73.8277Z" fill="black"/>
<path d="M10.2819 68.4669V73.2391C10.2819 73.8095 10.6539 74.0413 11.1125 73.755L56.2516 45.7374C56.4938 45.5681 56.6955 45.3397 56.8401 45.0708C56.9848 44.8019 57.0685 44.5 57.0843 44.1898V39.4062L10.2819 68.4669Z" fill="#2F80ED"/>
<g opacity="0.5">
<path d="M10.2819 68.4669V73.2391C10.2819 73.8095 10.6539 74.0413 11.1125 73.755L56.2516 45.7374C56.4938 45.5681 56.6955 45.3397 56.8401 45.0708C56.9848 44.8019 57.0685 44.5 57.0843 44.1898V39.4062L10.2819 68.4669Z" fill="black"/>
</g>
<path d="M11.8417 64.9422V31.3093C11.8505 31.123 11.9003 30.9417 11.987 30.7801C12.0738 30.6185 12.1949 30.4814 12.3404 30.3799L55.0321 3.88035C55.3069 3.70991 55.5309 3.84853 55.5309 4.19168V37.8155C55.5215 38.0017 55.4715 38.1828 55.3848 38.3443C55.2982 38.5058 55.1773 38.6431 55.0321 38.7449L12.3404 65.2422C12.0636 65.4217 11.8417 65.2831 11.8417 64.9422Z" fill="#FAFAFA"/>
<path d="M33.6821 55.8773C33.4549 56.0362 33.2658 56.2505 33.1303 56.5029C32.9948 56.7552 32.9166 57.0384 32.9022 57.3294C32.9022 57.8634 33.2509 58.0816 33.6821 57.8134C33.909 57.6543 34.0979 57.4399 34.2334 57.1876C34.3689 56.9353 34.4472 56.6522 34.4619 56.3613C34.4619 55.825 34.1132 55.6091 33.6821 55.8773Z" fill="#2F80ED"/>
<path opacity="0.5" d="M33.6821 55.8773C33.4549 56.0362 33.2658 56.2505 33.1303 56.5029C32.9948 56.7552 32.9166 57.0384 32.9022 57.3294C32.9022 57.8634 33.2509 58.0816 33.6821 57.8134C33.909 57.6543 34.0979 57.4399 34.2334 57.1876C34.3689 56.9353 34.4472 56.6522 34.4619 56.3613C34.4619 55.825 34.1132 55.6091 33.6821 55.8773Z" fill="white"/>
<path d="M10.525 29.8754C10.3755 30.1474 10.2913 30.4551 10.2798 30.7708V68.4669L8.72009 67.4965V29.7936C8.73224 29.4816 8.8165 29.1778 8.96525 28.9096L10.525 29.8754Z" fill="#2F80ED"/>
<path opacity="0.7" d="M10.525 29.8754C10.3755 30.1474 10.2913 30.4551 10.2798 30.7708V68.4669L8.72009 67.4965V29.7936C8.73224 29.4816 8.8165 29.1778 8.96525 28.9096L10.525 29.8754Z" fill="black"/>
<path d="M26.7203 83.479L37.9977 90.501C38.1941 90.6087 38.4113 90.6649 38.6318 90.6649C38.8522 90.6649 39.0695 90.6087 39.2658 90.501L72.5822 69.8577C72.933 69.6304 72.933 69.2895 72.5822 69.0714L61.3027 62.0494C61.1064 61.9416 60.8891 61.8855 60.6687 61.8855C60.4483 61.8855 60.231 61.9416 60.0347 62.0494L26.7203 82.695C26.3716 82.9109 26.3695 83.2654 26.7203 83.479Z" fill="#E0E0E0"/>
<path d="M71.8996 67.8124C71.8922 67.7278 71.8641 67.6468 71.818 67.5777C71.772 67.5086 71.7097 67.4539 71.6375 67.4193L61.0428 60.8449C60.8464 60.7372 60.6292 60.681 60.4087 60.681C60.1883 60.681 59.971 60.7372 59.7747 60.8449L27.4389 80.9474C27.3673 80.9826 27.3055 81.0375 27.2599 81.1065C27.2143 81.1755 27.1863 81.2562 27.179 81.3406V82.5359C27.186 82.6203 27.2141 82.7012 27.2602 82.7699C27.3063 82.8387 27.3688 82.8929 27.441 82.9268L38.0315 89.5034C38.228 89.6106 38.4452 89.6664 38.6656 89.6664C38.8859 89.6664 39.1031 89.6106 39.2996 89.5034L71.6354 69.4304C71.7074 69.3961 71.7696 69.3419 71.8157 69.2732C71.8617 69.2045 71.89 69.1238 71.8975 69.0396L71.8996 67.8124Z" fill="#2F80ED"/>
<path opacity="0.5" d="M71.8996 67.8124C71.8922 67.7278 71.8641 67.6468 71.818 67.5777C71.772 67.5086 71.7097 67.4539 71.6375 67.4193L61.0428 60.8449C60.8464 60.7372 60.6292 60.681 60.4087 60.681C60.1883 60.681 59.971 60.7372 59.7747 60.8449L27.4389 80.9474C27.3673 80.9826 27.3055 81.0375 27.2599 81.1065C27.2143 81.1755 27.1863 81.2562 27.179 81.3406V82.5359C27.186 82.6203 27.2141 82.7012 27.2602 82.7699C27.3063 82.8387 27.3688 82.8929 27.441 82.9268L38.0315 89.5034C38.228 89.6106 38.4452 89.6664 38.6656 89.6664C38.8859 89.6664 39.1031 89.6106 39.2996 89.5034L71.6354 69.4304C71.7074 69.3961 71.7696 69.3419 71.8157 69.2732C71.8617 69.2045 71.89 69.1238 71.8975 69.0396L71.8996 67.8124Z" fill="black"/>
<path d="M38.0379 88.2808L27.4474 81.7337C27.0986 81.5178 27.0965 81.1678 27.4474 80.9497L59.7831 60.8472C59.9795 60.7395 60.1968 60.6833 60.4172 60.6833C60.6376 60.6833 60.8549 60.7395 61.0512 60.8472L71.6459 67.4238C71.9947 67.6511 71.9947 67.9919 71.6459 68.2101L39.3101 88.283C39.113 88.3906 38.8949 88.4465 38.6737 88.4461C38.4526 88.4457 38.2347 88.3891 38.0379 88.2808Z" fill="#2F80ED"/>
<path opacity="0.3" d="M38.0379 88.2808L27.4474 81.7337C27.0986 81.5178 27.0965 81.1678 27.4474 80.9497L59.7831 60.8472C59.9795 60.7395 60.1968 60.6833 60.4172 60.6833C60.6376 60.6833 60.8549 60.7395 61.0512 60.8472L71.6459 67.4238C71.9947 67.6511 71.9947 67.9919 71.6459 68.2101L39.3101 88.283C39.113 88.3906 38.8949 88.4465 38.6737 88.4461C38.4526 88.4457 38.2347 88.3891 38.0379 88.2808Z" fill="black"/>
<path d="M38.6296 88.4421V89.6647C38.4231 89.6621 38.2199 89.6085 38.0357 89.5079L27.4495 82.9313C27.3769 82.8969 27.3142 82.8424 27.2677 82.7733C27.2213 82.7042 27.1928 82.623 27.1853 82.5382V81.3406C27.1935 81.4252 27.2222 81.5061 27.2685 81.5751C27.3149 81.6441 27.3773 81.6988 27.4495 81.7337L38.0357 88.283C38.219 88.3864 38.4227 88.4409 38.6296 88.4421Z" fill="#2F80ED"/>
<path opacity="0.7" d="M38.6296 88.4421V89.6647C38.4231 89.6621 38.2199 89.6085 38.0357 89.5079L27.4495 82.9313C27.3769 82.8969 27.3142 82.8424 27.2677 82.7733C27.2213 82.7042 27.1928 82.623 27.1853 82.5382V81.3406C27.1935 81.4252 27.2222 81.5061 27.2685 81.5751C27.3149 81.6441 27.3773 81.6988 27.4495 81.7337L38.0357 88.283C38.219 88.3864 38.4227 88.4409 38.6296 88.4421Z" fill="black"/>
<path d="M52.1536 69.3123L53.3604 70.0622C53.3845 70.0758 53.4113 70.0829 53.4386 70.0826L54.5502 69.4168L53.2526 68.6305L52.1536 69.3123Z" fill="#37474F"/>
<path d="M53.6055 68.4123L54.8187 69.1645C54.841 69.1762 54.8657 69.1816 54.8905 69.1804H54.9349L56.0022 68.5169L54.7045 67.7329L53.6055 68.4123Z" fill="#37474F"/>
<path d="M49.7083 70.8325L50.9193 71.5847C50.9418 71.5961 50.9664 71.6016 50.9912 71.6007L52.7919 70.5076L51.4942 69.7236L49.7083 70.8325Z" fill="#37474F"/>
<path d="M48.2564 71.7347L49.4653 72.4846C49.4883 72.4968 49.5136 72.503 49.5393 72.5028L50.6531 71.837L49.3554 71.053L48.2564 71.7347Z" fill="#37474F"/>
<path d="M41.6202 83.5335L42.7339 82.8677L41.4363 82.0837L40.3373 82.7654L41.5483 83.5199C41.5713 83.5292 41.5956 83.5338 41.6202 83.5335Z" fill="#37474F"/>
<path d="M46.8024 72.6346L48.0091 73.3845C48.033 73.3989 48.06 73.406 48.0873 73.405L49.199 72.7392L47.9013 71.9529L46.8024 72.6346Z" fill="#37474F"/>
<path d="M54.8948 69.6508L53.7958 70.3326L55.0047 71.0825C55.0273 71.0957 55.0529 71.102 55.0786 71.1007L56.1924 70.4349L54.8948 69.6508Z" fill="#37474F"/>
<path d="M50.8348 75.7661L51.9486 75.1003L50.6488 74.3163L49.5498 74.998L50.7608 75.7502C50.7839 75.7618 50.8093 75.7673 50.8348 75.7661Z" fill="#37474F"/>
<path d="M56.5411 70.2008L57.6528 69.535L56.3551 68.7487L55.2561 69.4304L56.4693 70.1826C56.4914 70.195 56.5161 70.2013 56.5411 70.2008Z" fill="#37474F"/>
<path d="M49.3829 76.6751L50.4946 76.0093L49.1969 75.223L48.0979 75.9048L49.3047 76.6547C49.3285 76.669 49.3556 76.6761 49.3829 76.6751Z" fill="#37474F"/>
<path d="M47.9309 77.5841L49.0426 76.9183L47.7449 76.132L46.646 76.8138L47.857 77.566C47.88 77.5781 47.9053 77.5843 47.9309 77.5841Z" fill="#37474F"/>
<path d="M53.7387 73.9709L56.0741 72.546L53.1364 70.7417L51.8915 71.5188L53.428 72.471C53.4404 72.4771 53.4511 72.4866 53.4589 72.4986C53.4667 72.5106 53.4714 72.5246 53.4724 72.5392C53.4717 72.5521 53.4678 72.5647 53.4611 72.5754C53.4545 72.5862 53.4452 72.5949 53.4344 72.6006L52.4643 73.2028L53.669 73.9504C53.6904 73.9631 53.7143 73.9701 53.7387 73.9709Z" fill="#37474F"/>
<path d="M43.8985 74.439L45.1095 75.1912C45.1318 75.2028 45.1565 75.2083 45.1813 75.2071L46.2951 74.5413L44.9953 73.7572L43.8985 74.439Z" fill="#37474F"/>
<path d="M52.2868 74.873L53.4005 74.2072L52.1029 73.4232L51.0039 74.1049L52.2064 74.8503C52.2308 74.8655 52.2586 74.8734 52.2868 74.873Z" fill="#37474F"/>
<path d="M35.7384 83.1086L36.8522 82.4427L35.5525 81.6564L34.4535 82.3382L35.6602 83.0858C35.6841 83.1003 35.711 83.1081 35.7384 83.1086Z" fill="#37474F"/>
<path d="M32.2787 81.6519L33.4918 82.4064C33.5138 82.4167 33.5376 82.4221 33.5616 82.4223H33.606L34.6754 81.7587L33.3756 80.9747L32.2787 81.6519Z" fill="#37474F"/>
<path d="M37.7631 83.8903H37.8075L38.8642 83.2267L37.5666 82.4427L36.4676 83.1245L37.6807 83.8767C37.7068 83.888 37.735 83.8927 37.7631 83.8903Z" fill="#37474F"/>
<path d="M38.7163 85.3356L39.8301 84.6698L38.5303 83.8858L37.4313 84.5675L38.6381 85.3152C38.6618 85.33 38.6889 85.3371 38.7163 85.3356Z" fill="#37474F"/>
<path d="M33.7307 80.7497L34.9417 81.5042C34.9645 81.5142 34.9889 81.5196 35.0135 81.5201L36.1273 80.8542L34.8275 80.0702L33.7307 80.7497Z" fill="#37474F"/>
<path d="M40.1682 84.4357L41.2799 83.7676L39.9823 82.9836L38.8854 83.6653L40.0964 84.4175C40.1186 84.4296 40.1433 84.4359 40.1682 84.4357Z" fill="#37474F"/>
<path d="M38.0886 78.0386L39.2975 78.7908C39.3207 78.8022 39.346 78.8076 39.3715 78.8067L40.4852 78.1432L39.1855 77.3569L38.0886 78.0386Z" fill="#37474F"/>
<path d="M39.5405 77.1433L40.7473 77.8932C40.7705 77.9071 40.7968 77.9142 40.8234 77.9136L41.9372 77.2478L40.6395 76.4615L39.5405 77.1433Z" fill="#37474F"/>
<path d="M40.9925 76.2411L42.1971 76.991C42.2212 77.0049 42.2481 77.0119 42.2753 77.0115L43.3891 76.3456L42.0915 75.5616L40.9925 76.2411Z" fill="#37474F"/>
<path d="M36.6345 78.9476L37.8413 79.6953C37.8644 79.7098 37.8906 79.7176 37.9174 79.718L39.0333 79.0499L37.7314 78.2659L36.6345 78.9476Z" fill="#37474F"/>
<path d="M42.4465 75.3412L43.6575 76.0934C43.6802 76.1041 43.7047 76.1095 43.7294 76.1093L44.8432 75.4434L43.5434 74.6594L42.4465 75.3412Z" fill="#37474F"/>
<path d="M35.1826 79.8566L36.3936 80.6065C36.4166 80.6187 36.4419 80.6249 36.4676 80.6247L37.5793 79.9589L36.2816 79.1749L35.1826 79.8566Z" fill="#37474F"/>
<path d="M45.3504 73.5368L46.5635 74.2913C46.5855 74.3016 46.6093 74.307 46.6333 74.3072L47.7471 73.6414L46.4494 72.8551L45.3504 73.5368Z" fill="#37474F"/>
<path d="M48.9792 73.3232L50.186 74.0709C50.2099 74.085 50.2369 74.0921 50.2642 74.0913H50.3086L51.3759 73.4277L50.0782 72.6437L48.9792 73.3232Z" fill="#37474F"/>
<path d="M56.818 66.4194L58.0248 67.167C58.0481 67.1806 58.0743 67.1876 58.1009 67.1875L59.2146 66.5216L57.9149 65.7376L56.818 66.4194Z" fill="#37474F"/>
<path d="M58.2699 65.5172L59.4767 66.2648C59.4999 66.2788 59.5262 66.2858 59.5528 66.2853L60.6666 65.6194L59.3689 64.8354L58.2699 65.5172Z" fill="#37474F"/>
<path d="M47.5273 74.2231L48.734 74.973C48.7574 74.9866 48.7836 74.9936 48.8101 74.9935L49.9239 74.3277L48.6263 73.5414L47.5273 74.2231Z" fill="#37474F"/>
<path d="M59.7219 64.615L60.9286 65.3649C60.9521 65.3783 60.9782 65.3853 61.0047 65.3854L62.1185 64.7173L60.8209 63.9333L59.7219 64.615Z" fill="#37474F"/>
<path d="M51.7161 73.1891H51.7605L52.8278 72.5256L51.5301 71.7415L50.4311 72.4233L51.6379 73.1709C51.6621 73.184 51.689 73.1903 51.7161 73.1891Z" fill="#37474F"/>
<path d="M58.458 67.4374L59.6627 68.1851C59.6873 68.1996 59.7149 68.2073 59.743 68.2078L60.8547 67.542L59.557 66.7557L58.458 67.4374Z" fill="#37474F"/>
<path d="M61.364 65.6331L62.5687 66.3807C62.5924 66.3957 62.6194 66.4035 62.6469 66.4035L63.7607 65.7376L62.4588 64.9536L61.364 65.6331Z" fill="#37474F"/>
<path d="M61.1907 67.3056L62.3045 66.6398L61.0047 65.8535L59.9057 66.5353L61.1167 67.2875C61.1398 67.2996 61.1651 67.3058 61.1907 67.3056Z" fill="#37474F"/>
<path d="M65.6733 66.5057C65.6947 66.5158 65.7177 66.5212 65.741 66.5216H65.7875L66.8548 65.8603L63.915 64.056L62.816 64.7377L65.6733 66.5057Z" fill="#37474F"/>
<path d="M46.0732 75.1253L47.2821 75.8752C47.3053 75.8893 47.3316 75.8963 47.3582 75.8957H47.4026L48.472 75.2344L47.1722 74.4481L46.0732 75.1253Z" fill="#37474F"/>
<path d="M62.8371 68.3237H62.8815L63.9488 67.6602L62.6511 66.8761L61.5521 67.5579L62.7589 68.3055C62.7831 68.3186 62.81 68.3249 62.8371 68.3237Z" fill="#37474F"/>
<path d="M64.289 67.4215L65.4028 66.7557L64.1031 65.9717L63.0041 66.6534L64.2087 67.4011C64.2335 67.415 64.2611 67.422 64.289 67.4215Z" fill="#37474F"/>
<path d="M38.8114 79.6294L40.0182 80.377C40.042 80.3917 40.0689 80.3995 40.0964 80.3997L41.208 79.7339L39.9104 78.9476L38.8114 79.6294Z" fill="#37474F"/>
<path d="M35.9075 81.4474L37.1122 82.195C37.1361 82.2091 37.1631 82.2162 37.1904 82.2155H37.2348L38.3042 81.5519L37.0044 80.7656L35.9075 81.4474Z" fill="#37474F"/>
<path d="M40.667 82.0882L41.7808 81.4224L40.4789 80.6361L39.382 81.3178L40.5951 82.07C40.6172 82.0827 40.642 82.089 40.667 82.0882Z" fill="#37474F"/>
<path d="M39.2108 82.9881L40.3246 82.3223L39.0249 81.5383L37.9259 82.22L39.139 82.9722C39.1613 82.9838 39.186 82.9893 39.2108 82.9881Z" fill="#37474F"/>
<path d="M42.1189 81.186H42.1654L43.2327 80.5247L41.9351 79.7384L40.8361 80.4202L42.0407 81.1678C42.0649 81.1812 42.0918 81.1875 42.1189 81.186Z" fill="#37474F"/>
<path d="M44.6213 76.0275L45.8302 76.7774C45.8538 76.79 45.8799 76.7962 45.9063 76.7956H45.9506L47.0179 76.132L45.7203 75.348L44.6213 76.0275Z" fill="#37474F"/>
<path d="M45.0249 79.3817L46.1387 78.7158L44.839 77.9318L43.74 78.6136L44.9467 79.3612C44.9708 79.3749 44.9977 79.3819 45.0249 79.3817Z" fill="#37474F"/>
<path d="M43.573 80.2839L44.6847 79.6294L43.387 78.8454L42.288 79.5271L43.5011 80.2816C43.5247 80.2873 43.5491 80.2881 43.573 80.2839Z" fill="#37474F"/>
<path d="M41.7174 77.8318L42.9221 78.5795C42.946 78.5936 42.973 78.6007 43.0003 78.5999L44.114 77.9341L42.8164 77.1501L41.7174 77.8318Z" fill="#37474F"/>
<path d="M37.3595 80.5384L38.5641 81.286C38.5888 81.3001 38.6165 81.3072 38.6444 81.3065L39.7561 80.6406L38.4584 79.8566L37.3595 80.5384Z" fill="#37474F"/>
<path d="M43.1693 76.9296L44.3761 77.6773C44.4 77.6914 44.427 77.6985 44.4543 77.6977L45.566 77.0319L44.2683 76.2479L43.1693 76.9296Z" fill="#37474F"/>
<path d="M40.2676 78.7317L41.4722 79.4817C41.4962 79.4958 41.5231 79.5029 41.5504 79.5021H41.5948L42.6642 78.8408L41.3644 78.0545L40.2676 78.7317Z" fill="#37474F"/>
<path d="M46.4769 78.4795L47.5907 77.8136L46.2909 77.0296L45.194 77.7114L46.4029 78.4613C46.4256 78.4745 46.4511 78.4808 46.4769 78.4795Z" fill="#37474F"/>
<path d="M55.0617 67.5102L56.2727 68.2624C56.2952 68.2735 56.3198 68.2789 56.3446 68.2783L57.4584 67.6124L56.1586 66.8284L55.0617 67.5102Z" fill="#37474F"/>
<path d="M31.9237 81.8723L30.8247 82.5541L32.0378 83.3063C32.0601 83.3179 32.0848 83.3233 32.1096 83.3222H32.154L33.2234 82.6586L31.9237 81.8723Z" fill="#37474F"/>
<path d="M34.1005 82.5586L32.4668 83.5721L33.6799 84.3266C33.7019 84.3369 33.7257 84.3423 33.7497 84.3425H33.7962L35.3982 83.3472L34.1005 82.5586Z" fill="#37474F"/>
<path d="M30.161 80.4929L28.8317 81.3178L30.0406 82.0655C30.0638 82.0795 30.09 82.0866 30.1167 82.0859L31.4587 81.2792L30.161 80.4929Z" fill="#37474F"/>
<path d="M37.0784 84.7879L35.7511 85.6128L36.9558 86.3605C36.9799 86.3742 37.0067 86.3812 37.034 86.3809L38.376 85.5719L37.0784 84.7879Z" fill="#37474F"/>
<path d="M36.1231 83.3426L34.109 84.5925L35.32 85.3447C35.3425 85.3558 35.3671 85.3612 35.3918 85.3606H35.4362L37.4229 84.1289L36.1231 83.3426Z" fill="#37474F"/>
<path d="M32.4309 80.6497L33.5426 79.9839L32.2365 79.1999L31.1375 79.8816L32.3442 80.6315C32.3709 80.6465 32.401 80.6529 32.4309 80.6497Z" fill="#37474F"/>
<path d="M37.3912 86.6309L38.5979 87.3808C38.6217 87.393 38.6477 87.3992 38.674 87.399L40.3225 86.4014L39.0249 85.6174L37.3912 86.6309Z" fill="#37474F"/>
<path d="M33.8828 79.7475L34.9966 79.0817L33.6969 78.2977L32.6 78.9794L33.811 79.7316C33.8335 79.7428 33.8581 79.7482 33.8828 79.7475Z" fill="#37474F"/>
<path d="M40.3246 75.7502H40.369L41.4384 75.0867L40.1386 74.3026L39.0418 74.9844L40.2485 75.7343C40.2722 75.7467 40.2984 75.7522 40.3246 75.7502Z" fill="#37474F"/>
<path d="M41.7766 74.8571L42.8903 74.1913L41.5927 73.405L40.4937 74.0867L41.7026 74.8367C41.7251 74.8504 41.7507 74.8575 41.7766 74.8571Z" fill="#37474F"/>
<path d="M38.8727 76.6501H38.9171L39.9738 75.9866L38.6761 75.2025L37.5771 75.8843L38.7881 76.6297C38.814 76.6447 38.8433 76.6518 38.8727 76.6501Z" fill="#37474F"/>
<path d="M36.7867 77.9455H36.8332L37.9005 77.2842L36.6028 76.4979L35.5038 77.1796L36.7127 77.9295C36.7355 77.9422 36.7612 77.9477 36.7867 77.9455Z" fill="#37474F"/>
<path d="M35.3348 78.8476L36.4486 78.1818L35.1509 77.3955L34.0519 78.0773L35.2629 78.8295C35.2851 78.8418 35.3098 78.8481 35.3348 78.8476Z" fill="#37474F"/>
<path d="M66.2905 68.6919L67.5036 69.4463C67.5257 69.4559 67.5495 69.4605 67.5733 69.46H67.6177L68.6744 68.7964L67.3768 68.0124L66.2905 68.6919Z" fill="#37474F"/>
<path d="M58.7201 73.3891L59.9248 74.1368C59.9483 74.1522 59.9754 74.1601 60.003 74.1595L61.1167 73.4936L59.8191 72.7074L58.7201 73.3891Z" fill="#37474F"/>
<path d="M63.3845 70.4962L64.5913 71.2439C64.6146 71.2574 64.6408 71.2645 64.6674 71.2643H64.7117L67.2331 69.6986L65.9354 68.9146L63.3845 70.4962Z" fill="#37474F"/>
<path d="M60.172 72.4892L61.3767 73.2346C61.4009 73.2501 61.4288 73.258 61.457 73.2573L62.5708 72.5915L61.271 71.8074L60.172 72.4892Z" fill="#37474F"/>
<path d="M61.6261 71.587L62.8265 72.3301C62.8508 72.3477 62.8797 72.3564 62.909 72.3551L64.0228 71.6893L62.723 70.9053L61.6261 71.587Z" fill="#37474F"/>
<path d="M43.2264 73.9481H43.2729L44.3402 73.2846L43.0425 72.4983L41.9435 73.18L43.1482 73.9277C43.1722 73.9415 43.1991 73.9486 43.2264 73.9481Z" fill="#37474F"/>
<path d="M67.1993 66.0876L66.1003 66.7693L68.9555 68.5419C68.9775 68.5522 69.0013 68.5576 69.0253 68.5578H69.0697L70.137 67.8942L67.1993 66.0876Z" fill="#37474F"/>
<path d="M41.0622 84.3539L42.2669 85.1015C42.291 85.1152 42.3178 85.1222 42.3451 85.122L43.6871 84.313L42.381 83.529L41.0622 84.3539Z" fill="#37474F"/>
<path d="M42.7424 83.3085L43.9471 84.0562C43.9716 84.0711 43.9992 84.0789 44.0274 84.0789H44.0718L52.3269 78.9476L51.0271 78.1613L42.7424 83.3085Z" fill="#37474F"/>
<path d="M43.0721 82.6313L44.1859 81.9655L42.8882 81.1815L41.7892 81.8632L43.0003 82.6132C43.0226 82.6251 43.0472 82.6313 43.0721 82.6313Z" fill="#37474F"/>
<path d="M39.3799 85.397L40.5846 86.1446C40.6085 86.159 40.6354 86.1668 40.6628 86.1673L42.0048 85.3583L40.7072 84.572L39.3799 85.397Z" fill="#37474F"/>
<path d="M51.3822 77.9454L52.589 78.6954C52.6126 78.7084 52.6386 78.7153 52.6651 78.7158H52.7116L54.0071 77.9114L52.7094 77.1296L51.3822 77.9454Z" fill="#37474F"/>
<path d="M54.7447 75.857L55.9557 76.6092C55.9786 76.6218 56.004 76.6281 56.0297 76.6274H56.0741L57.3717 75.8229L56.0741 75.0367L54.7447 75.857Z" fill="#37474F"/>
<path d="M53.0624 76.9024L54.2755 77.6546C54.298 77.6657 54.3226 77.6711 54.3474 77.6705L55.6894 76.8615L54.3917 76.0775L53.0624 76.9024Z" fill="#37474F"/>
<path d="M56.427 74.814L57.6338 75.5616C57.6577 75.5757 57.6847 75.5828 57.712 75.5821H57.7564L59.3584 74.5867L58.0607 73.8027L56.427 74.814Z" fill="#37474F"/>
<path d="M57.9846 69.2986H58.029L59.0984 68.6373L57.8092 67.8465L56.7102 68.5282L57.9212 69.2804C57.9409 69.2912 57.9625 69.2974 57.9846 69.2986Z" fill="#37474F"/>
<path d="M59.8149 72.2392H59.8592L60.9286 71.5757L59.631 70.7916L58.532 71.4734L59.7409 72.2256C59.7642 72.2364 59.7895 72.2411 59.8149 72.2392Z" fill="#37474F"/>
<path d="M54.694 75.4184L57.7183 73.5641L56.4186 72.7801L53.409 74.6481L54.6221 75.4003C54.6442 75.4129 54.669 75.4191 54.694 75.4184Z" fill="#37474F"/>
<path d="M63.0252 70.244H63.0717L64.139 69.5804L62.8413 68.7964L61.7423 69.4781L62.9533 70.2303C62.976 70.2407 63.0006 70.2453 63.0252 70.244Z" fill="#37474F"/>
<path d="M64.4792 69.3441H64.5236L65.5909 68.6828L64.2933 67.8965L63.1943 68.5782L64.4032 69.3304C64.4272 69.3413 64.4532 69.346 64.4792 69.3441Z" fill="#37474F"/>
<path d="M53.2399 76.3206L54.3537 75.6548L53.0561 74.8685L51.9571 75.5502L53.1638 76.3002C53.1874 76.3133 53.2134 76.3203 53.2399 76.3206Z" fill="#37474F"/>
<path d="M61.3852 69.2259H61.4295L62.4968 68.5623L61.1907 67.776L60.0917 68.4578L61.2964 69.2032C61.3229 69.2209 61.3541 69.2289 61.3852 69.2259Z" fill="#37474F"/>
<path d="M45.9739 80.827L47.0877 80.1611L45.7879 79.3771L44.691 80.0589L45.902 80.8111C45.9244 80.8227 45.9491 80.8281 45.9739 80.827Z" fill="#37474F"/>
<path d="M51.788 77.2205L52.9018 76.5547L51.602 75.7661L50.5051 76.4479L51.7182 77.2023C51.7402 77.2131 51.7639 77.2192 51.788 77.2205Z" fill="#37474F"/>
<path d="M44.5262 81.7291H44.5705L45.6273 81.0656L44.3296 80.2816L43.2306 80.9633L44.4437 81.7155C44.4695 81.7283 44.498 81.7331 44.5262 81.7291Z" fill="#37474F"/>
<path d="M47.43 79.9271L48.5438 79.2612L47.242 78.4749L46.143 79.1567L47.3582 79.9112C47.3806 79.9227 47.4052 79.9281 47.43 79.9271Z" fill="#37474F"/>
<path d="M48.8841 79.0249H48.9327L50 78.3613L48.6981 77.5841L47.5991 78.2659L48.8059 79.0158C48.8307 79.0262 48.8577 79.0294 48.8841 79.0249Z" fill="#37474F"/>
<path d="M50.336 78.1227H50.3804L51.4498 77.4591L50.15 76.6751L49.0511 77.3569L50.2642 78.1091C50.287 78.1188 50.3115 78.1234 50.336 78.1227Z" fill="#37474F"/>
<path d="M46.7664 71.7506L47.876 71.0848L46.5762 70.2985L45.4772 70.9803L46.684 71.7279C46.7086 71.7445 46.7374 71.7525 46.7664 71.7506Z" fill="#37474F"/>
<path d="M65.9312 68.4419H65.9756L67.045 67.7806L65.7452 66.9943L64.6462 67.6761L65.8593 68.4305C65.8823 68.4395 65.9068 68.4433 65.9312 68.4419Z" fill="#37474F"/>
<path d="M49.6724 69.9463L50.7841 69.2804L49.4864 68.4942L48.3874 69.1759L49.5921 69.9236C49.6166 69.9385 49.6443 69.9463 49.6724 69.9463Z" fill="#37474F"/>
<path d="M52.8975 67.9442L54.0113 67.2784L52.7116 66.4921L51.6147 67.1738L52.8214 67.9237C52.8446 67.9378 52.8709 67.9449 52.8975 67.9442Z" fill="#37474F"/>
<path d="M51.4456 68.8464L52.5573 68.1805L51.2575 67.3943L50.1585 68.076L51.3653 68.8259C51.3899 68.8401 51.4176 68.8472 51.4456 68.8464Z" fill="#37474F"/>
<path d="M45.3145 72.6528L46.4283 71.9847L45.1285 71.2007L44.0316 71.8824L45.2384 72.6324C45.262 72.6453 45.288 72.6523 45.3145 72.6528Z" fill="#37474F"/>
<path d="M48.2184 70.8485H48.2649L49.3216 70.1849L48.0345 69.4032L46.9355 70.0849L48.1402 70.8326C48.1646 70.8448 48.1915 70.8503 48.2184 70.8485Z" fill="#37474F"/>
<path d="M54.3495 67.042L55.4633 66.3762L54.1656 65.5922L53.0666 66.2739L54.2734 67.0216C54.2966 67.0356 54.3229 67.0427 54.3495 67.042Z" fill="#37474F"/>
<path d="M60.0452 62.9834L61.1569 62.3175L60.451 61.9039L59.352 62.5857L59.9692 62.9606C59.9926 62.9743 60.0186 62.9821 60.0452 62.9834Z" fill="#37474F"/>
<path d="M62.4588 64.4832L63.5726 63.8174L62.2728 63.0402L61.1738 63.7219L62.3806 64.4718C62.4054 64.4824 62.4323 64.4863 62.4588 64.4832Z" fill="#37474F"/>
<path d="M55.6957 65.6899H55.7401L56.8074 65.0263L56.1015 64.6173L55.0025 65.299L55.6175 65.674C55.6423 65.6852 55.6689 65.6907 55.6957 65.6899Z" fill="#37474F"/>
<path d="M57.1392 64.7877H57.1836L58.2403 64.1264L57.5471 63.7219L56.4481 64.4037L57.0674 64.7786C57.0904 64.7874 57.1149 64.7905 57.1392 64.7877Z" fill="#37474F"/>
<path d="M58.5912 63.8855L59.705 63.2197L58.9991 62.8129L57.9001 63.4947L58.5214 63.8719C58.5436 63.8815 58.5673 63.8861 58.5912 63.8855Z" fill="#37474F"/>
<g opacity="0.8">
<path d="M60.2439 5.03708V38.7722C60.2318 39.0153 60.1665 39.2519 60.0534 39.4627C59.9403 39.6736 59.7825 39.8528 59.5929 39.9858L17.3049 66.2876C17.2413 66.33 17.1684 66.3536 17.0936 66.3558C17.0662 66.3591 17.0385 66.3591 17.0111 66.3558C16.9921 66.3513 16.9737 66.3445 16.9562 66.3353L16.9203 66.3126L16.8822 66.2853C16.8693 66.2752 16.8573 66.2638 16.8463 66.2512C16.7952 66.199 16.7543 66.1365 16.7258 66.0672C16.6807 65.9553 16.6577 65.8346 16.6582 65.7126V32.1343C16.6709 31.8908 16.7366 31.6539 16.85 31.4427C16.9634 31.2316 17.1214 31.052 17.3113 30.9185L59.5929 4.63712C59.656 4.59003 59.7287 4.56005 59.8049 4.54976C59.8811 4.53947 59.9585 4.54917 60.0304 4.57804C60.0503 4.58764 60.0694 4.59904 60.0875 4.61212C60.1042 4.62513 60.1185 4.6413 60.1297 4.65985C60.1372 4.66712 60.1436 4.67554 60.1488 4.68484C60.1577 4.69554 60.1649 4.70784 60.1699 4.7212C60.1868 4.74843 60.1996 4.77833 60.2079 4.80983C60.2153 4.83029 60.2203 4.85167 60.2227 4.87346C60.2237 4.87559 60.2242 4.87792 60.2242 4.88028C60.2242 4.88264 60.2237 4.88496 60.2227 4.8871C60.2285 4.90781 60.232 4.92915 60.2333 4.95073C60.2418 4.97572 60.2439 5.00526 60.2439 5.03708Z" fill="#455A64"/>
<path d="M59.8825 4.76436C59.9043 4.76448 59.9258 4.7691 59.9459 4.77799H59.9586L59.9755 4.80299L59.9924 4.82799C59.9924 4.82799 59.9924 4.82799 59.9924 4.83935L60.0114 4.90525C60.0111 4.91055 60.0111 4.91586 60.0114 4.92116C60.0114 4.94389 60.0114 4.96661 60.0114 4.99161V38.7722C59.9998 38.9757 59.9445 39.1734 59.8499 39.3501C59.7553 39.5267 59.624 39.6774 59.4661 39.7903L17.1993 66.0921C17.1665 66.1149 17.1284 66.1275 17.0894 66.1285H17.045H17.0302L17.0027 66.108V66.0967C16.9724 66.0671 16.9486 66.0306 16.933 65.9899C16.8988 65.9069 16.8815 65.817 16.8822 65.7263V32.1343C16.8938 31.9305 16.9493 31.7325 17.0443 31.5558C17.1393 31.3791 17.2712 31.2286 17.4296 31.1162L59.6965 4.82799C59.7528 4.79099 59.8166 4.76916 59.8825 4.76436ZM59.8825 4.53711C59.7801 4.54049 59.6803 4.57261 59.593 4.63028L17.3049 30.9208C17.1154 31.054 16.9576 31.2332 16.8442 31.444C16.7307 31.6547 16.6649 31.8912 16.6519 32.1343V65.699C16.6514 65.8209 16.6744 65.9416 16.7195 66.0535C16.7479 66.1228 16.7889 66.1854 16.84 66.2376C16.8509 66.2501 16.863 66.2615 16.8759 66.2717L16.9139 66.2989L16.9499 66.3217C16.9674 66.3308 16.9858 66.3377 17.0048 66.3421C17.0322 66.3454 17.0599 66.3454 17.0872 66.3421H17.0978C17.1726 66.3399 17.2456 66.3164 17.3092 66.2739L59.593 39.9857C59.7826 39.8528 59.9403 39.6736 60.0534 39.4627C60.1665 39.2519 60.2318 39.0153 60.2439 38.7722V5.03706C60.2439 5.00524 60.2439 4.9757 60.2439 4.94843C60.2426 4.92686 60.2391 4.90551 60.2333 4.8848C60.2343 4.88267 60.2348 4.88034 60.2348 4.87798C60.2348 4.87563 60.2343 4.8733 60.2333 4.87117C60.2309 4.84937 60.2259 4.82799 60.2185 4.80754C60.2102 4.77604 60.1974 4.74613 60.1805 4.71891C60.1755 4.70555 60.1683 4.69324 60.1594 4.68255C60.1542 4.67325 60.1478 4.66482 60.1403 4.65755C60.1291 4.63901 60.1147 4.62283 60.0981 4.60983C60.08 4.59675 60.0609 4.58534 60.041 4.57574C59.9947 4.55273 59.9441 4.54109 59.8931 4.54165L59.8825 4.53711Z" fill="#455A64"/>
<g opacity="0.7">
<path d="M60.2439 5.03708V38.7722C60.2318 39.0153 60.1665 39.2519 60.0534 39.4627C59.9403 39.6736 59.7825 39.8528 59.5929 39.9858L17.3049 66.2876C17.2413 66.33 17.1684 66.3536 17.0936 66.3558C17.0662 66.3591 17.0385 66.3591 17.0111 66.3558C16.9921 66.3513 16.9737 66.3445 16.9562 66.3353L16.9203 66.3126L16.8822 66.2853C16.8693 66.2752 16.8573 66.2638 16.8463 66.2512C16.7952 66.199 16.7543 66.1365 16.7258 66.0672C16.6807 65.9553 16.6577 65.8346 16.6582 65.7126V32.1343C16.6709 31.8908 16.7366 31.6539 16.85 31.4427C16.9634 31.2316 17.1214 31.052 17.3113 30.9185L59.5929 4.63712C59.656 4.59003 59.7287 4.56005 59.8049 4.54976C59.8811 4.53947 59.9585 4.54917 60.0304 4.57804C60.0503 4.58764 60.0694 4.59904 60.0875 4.61212C60.1042 4.62513 60.1185 4.6413 60.1297 4.65985C60.1372 4.66712 60.1436 4.67554 60.1488 4.68484C60.1577 4.69554 60.1649 4.70784 60.1699 4.7212C60.1868 4.74843 60.1996 4.77833 60.2079 4.80983C60.2153 4.83029 60.2203 4.85167 60.2227 4.87346C60.2237 4.87559 60.2242 4.87792 60.2242 4.88028C60.2242 4.88264 60.2237 4.88496 60.2227 4.8871C60.2285 4.90781 60.232 4.92915 60.2333 4.95073C60.2418 4.97572 60.2439 5.00526 60.2439 5.03708Z" fill="#455A64"/>
</g>
</g>
<path d="M60.0305 4.57129C59.9585 4.54243 59.8812 4.53273 59.805 4.54302C59.7288 4.5533 59.6561 4.58328 59.593 4.63037L17.305 30.9208C17.1154 31.0541 16.9576 31.2333 16.8442 31.4441C16.7308 31.6548 16.6649 31.8913 16.6519 32.1344V34.425L15.8192 33.9001V31.6276C15.8316 31.3849 15.897 31.1488 16.0101 30.9384C16.1232 30.7279 16.2808 30.5491 16.4702 30.4164L58.7603 4.12588C58.8278 4.07229 58.9079 4.04006 58.9916 4.03284C59.0752 4.02561 59.1591 4.04367 59.2337 4.08498C59.3499 4.15997 59.891 4.49402 60.0305 4.57129Z" fill="#2F80ED"/>
<path d="M60.2439 5.03023C60.2439 4.58937 59.9501 4.40984 59.593 4.63254L17.3028 30.923C17.1135 31.0558 16.9559 31.2346 16.8428 31.445C16.7297 31.6555 16.6643 31.8916 16.6519 32.1343V34.4249L60.2439 7.32999V5.03023Z" fill="#2F80ED"/>
<g opacity="0.4">
<path d="M59.5929 4.6371L17.3049 30.923C17.1118 31.0536 16.9537 31.2361 16.8463 31.4525L16.0178 30.9389C16.1257 30.7293 16.2813 30.5526 16.4701 30.4254L58.7602 4.12579C58.8279 4.07256 58.9078 4.04038 58.9913 4.03276C59.0748 4.02515 59.1587 4.04239 59.2337 4.08262C59.3499 4.15988 59.8909 4.49166 60.0283 4.5712C59.9564 4.54231 59.8789 4.5332 59.8028 4.54471C59.7268 4.55622 59.6547 4.58798 59.5929 4.6371Z" fill="white"/>
</g>
<path opacity="0.15" d="M15.8192 33.9045V31.6321C15.8283 31.3842 15.8967 31.1432 16.0179 30.9321L16.8485 31.4434C16.727 31.6533 16.6592 31.894 16.6519 32.1411V34.4318L15.8192 33.9045Z" fill="black"/>
<path d="M56.3298 7.63906C56.2127 7.73913 56.1187 7.8668 56.0549 8.01222C55.9912 8.15763 55.9594 8.31687 55.962 8.47761C55.962 8.81394 56.1269 8.98438 56.3298 8.85939C56.4468 8.75933 56.5408 8.63165 56.6046 8.48624C56.6684 8.34083 56.7002 8.18158 56.6975 8.02084C56.6869 7.68451 56.5221 7.51408 56.3298 7.63906Z" fill="#455A64"/>
<path d="M57.6443 6.81641C57.5272 6.91589 57.4331 7.04314 57.3693 7.18821C57.3055 7.33328 57.2738 7.49225 57.2766 7.65269C57.2766 7.98902 57.4414 8.15946 57.6443 8.03447C57.7629 7.93534 57.8586 7.80806 57.9238 7.6626C57.9891 7.51714 58.0222 7.35742 58.0205 7.19592C58.0205 6.85959 57.8472 6.68234 57.6443 6.81641Z" fill="#455A64"/>
<path d="M58.9695 6.00059C58.8521 6.1003 58.7578 6.22792 58.694 6.37341C58.6302 6.5189 58.5986 6.67832 58.6017 6.83914C58.6017 7.17547 58.7666 7.34591 58.9695 7.21865C59.0869 7.11894 59.1812 6.99133 59.245 6.84583C59.3088 6.70034 59.3404 6.54092 59.3372 6.3801C59.3372 6.03468 59.1724 5.86424 58.9695 6.00059Z" fill="#455A64"/>
<path opacity="0.9" d="M16.8907 66.2899L16.8104 66.2399C16.7512 66.2012 16.6815 66.1603 16.599 66.1194L16.4891 66.0535L16.3179 65.949C16.263 65.9126 16.2144 65.8831 16.1742 65.8604C16.1341 65.8376 16.1066 65.8195 16.0939 65.8126C16.0507 65.7888 16.0125 65.7555 15.9819 65.7149C15.9461 65.6733 15.9169 65.6257 15.8953 65.574C15.8443 65.4583 15.8183 65.3317 15.8192 65.2036V33.9023L16.6519 34.4272V65.7013C16.6552 65.8228 16.6781 65.9427 16.7195 66.0558C16.7479 66.1251 16.7889 66.1877 16.84 66.2399C16.8494 66.254 16.8617 66.2657 16.8759 66.2739L16.8907 66.2899Z" fill="#37474F"/>
<path d="M30.7887 46.1033C30.7887 46.1033 29.2501 45.0329 29.0515 45.0261L24.6766 44.8784L26.416 45.8738V45.9556L30.7887 46.1033Z" fill="#263238"/>
<path d="M23.2902 49.3279V46.3737L30.7887 36.3497V40.2584L26.416 45.8647V45.9465L30.7887 46.0942V50.0029L23.2902 49.3279Z" fill="#FAFAFA"/>
<path d="M30.7887 36.3588L29.0515 35.2817L21.5508 45.3056L23.2902 46.3828L30.7887 36.3588Z" fill="#455A64"/>
<path d="M21.5508 45.3056V48.2508L23.2902 49.3279V46.3828L21.5508 45.3056Z" fill="#37474F"/>
<path d="M35.3284 48.0758L33.0036 49.5211L38.8072 26.6485L41.0516 25.2554L35.3284 48.0758Z" fill="#FAFAFA"/>
<path d="M41.0495 25.2554L39.3102 24.1783L37.0657 25.5713L38.8029 26.6485L41.0495 25.2554Z" fill="#455A64"/>
<path d="M37.0657 25.5713L38.803 26.6485L33.0015 49.5211L31.2622 48.4439L37.0657 25.5713Z" fill="#37474F"/>
<path d="M41.5229 37.2838L43.2602 38.3609L47.6329 32.7024L45.8957 31.6252L41.5229 37.2838Z" fill="#263238"/>
<path d="M47.6329 32.7024L43.2602 32.5251V28.6165L50.7587 29.33V32.2843L43.2602 42.2832V38.3609L47.6329 32.7842V32.7024Z" fill="#FAFAFA"/>
<path d="M41.5229 27.5393L43.2602 28.6164L50.7608 29.33L49.0215 28.2528L41.5229 27.5393Z" fill="#455A64"/>
<path d="M43.2602 28.6164V32.5251L41.5229 31.448V27.5393" fill="#37474F"/>
<path d="M41.5229 37.2838L43.2602 38.3609V42.2696L41.5229 41.1924V37.2838Z" fill="#37474F"/>
<g opacity="0.8">
<path d="M73.8989 10.8548V44.5899C73.8867 44.8335 73.8212 45.0706 73.7077 45.2819C73.5943 45.4931 73.436 45.6726 73.2458 45.8057L55.2202 56.9864C55.1571 57.03 55.0839 57.0536 55.0089 57.0545C54.9811 57.0541 54.9534 57.0503 54.9265 57.0432L54.8694 57.0227L54.8356 57L54.7975 56.9727C54.7846 56.9626 54.7726 56.9512 54.7616 56.9386C54.7098 56.8871 54.6688 56.8244 54.6411 56.7546C54.596 56.6427 54.573 56.522 54.5735 56.4001V22.8353C54.5858 22.592 54.6511 22.3552 54.7642 22.144C54.8772 21.9328 55.0349 21.7532 55.2244 21.6196L73.2374 10.4503C73.3005 10.4024 73.3735 10.3718 73.4501 10.3611C73.5267 10.3504 73.6046 10.36 73.677 10.3889C73.6965 10.3988 73.7149 10.411 73.7319 10.4253C73.748 10.4382 73.7622 10.4535 73.7742 10.4707C73.7817 10.478 73.7881 10.4864 73.7932 10.4957C73.8022 10.5064 73.8094 10.5187 73.8144 10.5321C73.8323 10.5598 73.8459 10.5905 73.8545 10.623C73.8619 10.6426 73.8669 10.6633 73.8693 10.6843C73.8702 10.6865 73.8707 10.6888 73.8707 10.6911C73.8707 10.6935 73.8702 10.6958 73.8693 10.698C73.875 10.7187 73.8786 10.74 73.8799 10.7616C73.8968 10.7957 73.8989 10.8252 73.8989 10.8548Z" fill="#455A64"/>
<path d="M73.5353 10.582C73.5573 10.5815 73.5791 10.587 73.5987 10.5979H73.6114L73.6304 10.6229L73.6452 10.6501L73.6663 10.716C73.6674 10.7213 73.6674 10.7267 73.6663 10.7319C73.6675 10.7546 73.6675 10.7774 73.6663 10.8001V44.5898C73.6543 44.7934 73.5986 44.9912 73.5037 45.1679C73.4087 45.3445 73.277 45.4951 73.119 45.6079L55.1166 56.7908C55.0838 56.8136 55.0457 56.8262 55.0067 56.8272H54.9623H54.9475L54.92 56.809C54.8911 56.7786 54.8681 56.7423 54.8524 56.7022C54.8182 56.6192 54.8009 56.5293 54.8017 56.4386V22.8352C54.8133 22.6318 54.8686 22.434 54.9632 22.2574C55.0578 22.0808 55.1892 21.9301 55.347 21.8172L73.3726 10.6479C73.4276 10.6094 73.4909 10.5867 73.5564 10.582M73.5564 10.3547C73.4539 10.3593 73.3542 10.3922 73.2669 10.4502L55.2413 21.6195C55.0517 21.7531 54.8941 21.9327 54.781 22.1439C54.6679 22.3551 54.6026 22.5919 54.5903 22.8352V56.4C54.5898 56.5219 54.6129 56.6426 54.658 56.7545C54.6856 56.8243 54.7267 56.887 54.7784 56.9385C54.7894 56.9511 54.8014 56.9625 54.8144 56.9726L54.8524 56.9999L54.8862 57.0226L54.9433 57.0431C54.9703 57.0502 54.9979 57.054 55.0257 57.0544C55.1007 57.0533 55.1739 57.0296 55.2371 56.9863L73.2373 45.8056C73.4272 45.6722 73.5853 45.4927 73.6988 45.2815C73.8122 45.0703 73.8779 44.8333 73.8904 44.5898V10.8547C73.8904 10.8251 73.8904 10.7956 73.8904 10.766C73.8891 10.7445 73.8855 10.7231 73.8798 10.7024C73.8807 10.7003 73.8812 10.6979 73.8812 10.6956C73.8812 10.6932 73.8807 10.6909 73.8798 10.6888C73.8774 10.6677 73.8724 10.6471 73.865 10.6274C73.8564 10.5949 73.8428 10.5642 73.8249 10.5365C73.8198 10.5231 73.8127 10.5108 73.8037 10.5001C73.7986 10.4908 73.7922 10.4824 73.7847 10.4751C73.7727 10.4579 73.7585 10.4426 73.7424 10.4297C73.7254 10.4155 73.707 10.4033 73.6875 10.3933C73.6404 10.3703 73.5892 10.3586 73.5374 10.3593L73.5564 10.3547Z" fill="#455A64"/>
<g opacity="0.8">
<path d="M73.8989 10.8548V44.5899C73.8867 44.8335 73.8212 45.0706 73.7077 45.2819C73.5943 45.4931 73.436 45.6726 73.2458 45.8057L55.2202 56.9864C55.1571 57.03 55.0839 57.0536 55.0089 57.0545C54.9811 57.0541 54.9534 57.0503 54.9265 57.0432L54.8694 57.0227L54.8356 57L54.7975 56.9727C54.7846 56.9626 54.7726 56.9512 54.7616 56.9386C54.7098 56.8871 54.6688 56.8244 54.6411 56.7546C54.596 56.6427 54.573 56.522 54.5735 56.4001V22.8353C54.5858 22.592 54.6511 22.3552 54.7642 22.144C54.8772 21.9328 55.0349 21.7532 55.2244 21.6196L73.2374 10.4503C73.3005 10.4024 73.3735 10.3718 73.4501 10.3611C73.5267 10.3504 73.6046 10.36 73.677 10.3889C73.6965 10.3988 73.7149 10.411 73.7319 10.4253C73.748 10.4382 73.7622 10.4535 73.7742 10.4707C73.7817 10.478 73.7881 10.4864 73.7932 10.4957C73.8022 10.5064 73.8094 10.5187 73.8144 10.5321C73.8323 10.5598 73.8459 10.5905 73.8545 10.623C73.8619 10.6426 73.8669 10.6633 73.8693 10.6843C73.8702 10.6865 73.8707 10.6888 73.8707 10.6911C73.8707 10.6935 73.8702 10.6958 73.8693 10.698C73.875 10.7187 73.8786 10.74 73.8799 10.7616C73.8968 10.7957 73.8989 10.8252 73.8989 10.8548Z" fill="#455A64"/>
</g>
</g>
<path d="M73.6854 10.3888C73.613 10.3598 73.5352 10.3503 73.4586 10.361C73.382 10.3717 73.309 10.4023 73.2458 10.4501L55.2202 21.6194C55.0307 21.753 54.873 21.9327 54.7599 22.1439C54.6469 22.3551 54.5816 22.5919 54.5693 22.8352V25.1259L53.7366 24.601V22.3285C53.749 22.0858 53.8144 21.8497 53.9275 21.6392C54.0406 21.4288 54.1982 21.25 54.3875 21.1172L72.4153 9.94564C72.4829 9.89321 72.5625 9.86168 72.6456 9.85447C72.7287 9.84726 72.812 9.86464 72.8866 9.90474C73.0049 9.97746 73.5459 10.3183 73.6854 10.3888Z" fill="#2F80ED"/>
<path d="M73.8968 10.8501C73.8968 10.3956 73.6051 10.2274 73.2458 10.4502L55.2202 21.6217C55.0306 21.7547 54.8728 21.9339 54.7597 22.1447C54.6466 22.3556 54.5814 22.5922 54.5693 22.8352V25.1259L73.8968 13.1499V10.8501Z" fill="#2F80ED"/>
<g opacity="0.4">
<path d="M73.2374 10.4501L55.2139 21.6217C55.0219 21.7496 54.8634 21.9279 54.7531 22.1398L53.9268 21.6263C54.0341 21.4168 54.1899 21.2407 54.3791 21.1149L72.4131 9.94337C72.4811 9.89074 72.5611 9.85911 72.6445 9.8519C72.728 9.84469 72.8117 9.86217 72.8865 9.90247C73.0049 9.97973 73.5438 10.3092 73.6812 10.3888C73.6084 10.3583 73.5296 10.3479 73.452 10.3586C73.3745 10.3693 73.3007 10.4008 73.2374 10.4501Z" fill="white"/>
</g>
<path opacity="0.15" d="M53.7366 24.6032V22.3307C53.746 22.083 53.8144 21.842 53.9353 21.6308L54.7637 22.1421C54.6438 22.3526 54.5768 22.593 54.5693 22.8398V25.1304L53.7366 24.6032Z" fill="black"/>
<path d="M69.9721 13.4589C69.855 13.5584 69.7609 13.6856 69.6971 13.8307C69.6333 13.9758 69.6015 14.1347 69.6044 14.2952C69.6044 14.6315 69.7692 14.8019 69.9721 14.677C70.0891 14.5769 70.1832 14.4492 70.2469 14.3038C70.3107 14.1584 70.3425 13.9991 70.3398 13.8384C70.3398 13.4998 70.175 13.3316 69.9721 13.4589Z" fill="#455A64"/>
<path d="M71.2972 12.634C71.1801 12.734 71.086 12.8616 71.0222 13.0071C70.9584 13.1525 70.9267 13.3118 70.9295 13.4726C70.9295 13.8089 71.0943 13.9793 71.2972 13.8521C71.415 13.7527 71.5096 13.6252 71.5734 13.4796C71.6373 13.334 71.6686 13.1744 71.665 13.0135C71.665 12.6772 71.5022 12.5068 71.2972 12.634Z" fill="#455A64"/>
<path d="M72.6224 11.8091C72.5053 11.9092 72.4113 12.0369 72.3475 12.1823C72.2838 12.3277 72.252 12.4869 72.2546 12.6477C72.2546 12.984 72.4195 13.1544 72.6224 13.0272C72.7401 12.9282 72.8348 12.8011 72.899 12.6559C72.9632 12.5108 72.9951 12.3516 72.9922 12.1909C72.9922 11.8546 72.8274 11.6818 72.6224 11.8091Z" fill="#455A64"/>
<path opacity="0.9" d="M54.8081 56.9885L54.7278 56.9385L54.527 56.8181L54.4171 56.7499L54.2459 56.6454C54.191 56.609 54.1403 56.5795 54.1022 56.5567C54.0642 56.534 54.0346 56.5158 54.0219 56.509C53.9786 56.4852 53.9405 56.4519 53.9099 56.4113C53.8741 56.3697 53.8449 56.3221 53.8232 56.2704C53.7723 56.1547 53.7463 56.028 53.7472 55.9V24.601L54.5799 25.1259V56.3999C54.5832 56.5214 54.6061 56.6414 54.6475 56.7545C54.6751 56.8242 54.7162 56.887 54.7679 56.9385C54.7773 56.9527 54.7896 56.9644 54.8039 56.9726C54.8045 56.9781 54.8059 56.9835 54.8081 56.9885Z" fill="#37474F"/>
<path d="M56.1692 27.028C56.171 26.9826 56.1826 26.9383 56.203 26.8984L56.6722 25.8554C56.6764 25.8435 56.6837 25.8333 56.6933 25.8258V25.8145C56.6988 25.81 56.7055 25.8076 56.7123 25.8076C56.7192 25.8076 56.7258 25.81 56.7313 25.8145C56.737 25.8212 56.7412 25.8291 56.7437 25.8377C56.7463 25.8464 56.7471 25.8555 56.7461 25.8645V26.2258C56.75 26.262 56.75 26.2986 56.7461 26.3349C56.7372 26.3676 56.7259 26.3995 56.7123 26.4303L56.465 26.9803L56.7123 27.2257C56.7268 27.2404 56.7383 27.2582 56.7461 27.278C56.7505 27.3104 56.7505 27.3433 56.7461 27.3757V27.7256C56.7463 27.75 56.7412 27.7741 56.7313 27.7961C56.7233 27.8157 56.7101 27.8323 56.6933 27.8438C56.69 27.8454 56.6864 27.8463 56.6827 27.8463C56.6791 27.8463 56.6755 27.8454 56.6722 27.8438L56.203 27.3893C56.1913 27.3784 56.1822 27.3647 56.1763 27.3493C56.1704 27.3339 56.168 27.3173 56.1692 27.3007V27.028Z" fill="#2F80ED"/>
<path d="M57.8832 24.4078C57.8914 24.3723 57.9035 24.338 57.9191 24.3055C57.9336 24.2715 57.9581 24.2435 57.9888 24.226L58.1642 24.1169C58.1666 24.1144 58.1694 24.1123 58.1725 24.111C58.1756 24.1096 58.1789 24.1089 58.1822 24.1089C58.1856 24.1089 58.1889 24.1096 58.1919 24.111C58.195 24.1123 58.1978 24.1144 58.2002 24.1169C58.2062 24.1234 58.2108 24.1313 58.2137 24.1399C58.2166 24.1485 58.2178 24.1578 58.2171 24.1669C58.2189 24.1797 58.2189 24.1927 58.2171 24.2055L57.414 27.887C57.4068 27.9217 57.3954 27.9553 57.3802 27.987C57.3659 28.0223 57.3415 28.0518 57.3104 28.071L57.1413 28.1756C57.1363 28.1802 57.13 28.1828 57.1234 28.1828C57.1168 28.1828 57.1104 28.1802 57.1054 28.1756C57.0936 28.1612 57.0875 28.1425 57.0885 28.1233C57.0877 28.1105 57.0877 28.0975 57.0885 28.0847L57.8832 24.4078Z" fill="#2F80ED"/>
<path d="M59.1259 25.4532C59.1251 25.4984 59.1142 25.5428 59.0942 25.5827L58.625 26.6258C58.6193 26.6373 58.6122 26.648 58.6039 26.6576H58.5912C58.586 26.6618 58.5797 26.6641 58.5732 26.6641C58.5667 26.6641 58.5604 26.6618 58.5552 26.6576C58.5442 26.6429 58.5389 26.6241 58.5405 26.6053V26.2553C58.5366 26.2191 58.5366 26.1825 58.5405 26.1463C58.5485 26.1132 58.5598 26.0812 58.5743 26.0508L58.8215 25.5009L58.5743 25.2577C58.5594 25.2424 58.5479 25.2238 58.5405 25.2032C58.5361 25.1708 58.5361 25.1379 58.5405 25.1055V24.7555C58.5405 24.7311 58.5456 24.7071 58.5552 24.6851C58.5633 24.6661 58.5756 24.6497 58.5912 24.6373H58.6039C58.6039 24.6373 58.6165 24.6373 58.625 24.6373L59.0942 25.0918C59.1056 25.1033 59.1145 25.1175 59.12 25.1333C59.1255 25.149 59.1275 25.166 59.1259 25.1827V25.4532Z" fill="#2F80ED"/>
<path d="M60.4278 25.21C60.4344 25.2044 60.4426 25.2014 60.451 25.2014C60.4594 25.2014 60.4676 25.2044 60.4742 25.21C60.4812 25.2187 60.4865 25.2288 60.4897 25.2397C60.493 25.2507 60.4942 25.2622 60.4933 25.2736V25.6577C60.4933 25.6876 60.4867 25.7172 60.4742 25.744C60.4652 25.7693 60.4489 25.7907 60.4278 25.8054L60.2164 25.9417C60.2105 25.948 60.2025 25.9515 60.1942 25.9515C60.1859 25.9515 60.178 25.948 60.172 25.9417C60.1649 25.9336 60.1595 25.9239 60.1563 25.9133C60.153 25.9027 60.1519 25.8915 60.153 25.8804V25.494C60.1533 25.4641 60.1598 25.4346 60.172 25.4077C60.181 25.3837 60.1965 25.3631 60.2164 25.3486L60.4278 25.21Z" fill="#2F80ED"/>
<path d="M61.1675 24.7532C61.174 24.7473 61.1822 24.744 61.1907 24.744C61.1992 24.744 61.2075 24.7473 61.214 24.7532C61.2209 24.7619 61.2262 24.772 61.2294 24.783C61.2327 24.7939 61.2339 24.8054 61.233 24.8168V25.2009C61.233 25.2309 61.2264 25.2604 61.214 25.2872C61.2049 25.3125 61.1886 25.334 61.1675 25.3486L60.9561 25.4849C60.9495 25.4905 60.9413 25.4935 60.9329 25.4935C60.9245 25.4935 60.9163 25.4905 60.9096 25.4849C60.9027 25.4762 60.8974 25.4661 60.8942 25.4552C60.8909 25.4443 60.8897 25.4327 60.8906 25.4213V25.035C60.8911 25.0051 60.8976 24.9756 60.9096 24.9486C60.9187 24.924 60.935 24.9032 60.9561 24.8895L61.1675 24.7532Z" fill="#2F80ED"/>
<path d="M61.9072 24.2942C61.9131 24.2879 61.9211 24.2844 61.9294 24.2844C61.9377 24.2844 61.9456 24.2879 61.9516 24.2942C61.9585 24.3029 61.9638 24.313 61.967 24.3239C61.9703 24.3348 61.9715 24.3464 61.9706 24.3578V24.7418C61.9704 24.7725 61.9639 24.8028 61.9516 24.8305C61.942 24.8541 61.9267 24.8745 61.9072 24.8896L61.6853 25.0259C61.6791 25.0317 61.6712 25.0348 61.6631 25.0348C61.6549 25.0348 61.647 25.0317 61.6409 25.0259C61.6339 25.0172 61.6287 25.0071 61.6254 24.9962C61.6222 24.9852 61.6209 24.9737 61.6219 24.9623V24.576C61.6224 24.546 61.6289 24.5166 61.6409 24.4896C61.6505 24.466 61.6658 24.4456 61.6853 24.4305L61.9072 24.2942Z" fill="#2F80ED"/>
<path d="M56.3678 29.839L67.1971 23.117C67.3261 23.0375 67.4296 23.0943 67.4296 23.242C67.424 23.3258 67.4 23.4069 67.3596 23.4788C67.3192 23.5507 67.2635 23.6113 67.1971 23.6556L56.3678 30.3799C56.2389 30.4594 56.1353 30.4026 56.1353 30.2526C56.1411 30.1689 56.1652 30.0878 56.2056 30.0159C56.246 29.9441 56.3016 29.8835 56.3678 29.839Z" fill="#2F80ED"/>
<path d="M59.8423 34.1545L70.6717 27.4302C70.8006 27.3507 70.9041 27.4075 70.9041 27.5575C70.8984 27.6412 70.8743 27.7223 70.8339 27.7942C70.7935 27.866 70.7379 27.9266 70.6717 27.9711L59.8423 34.6931C59.7134 34.7726 59.6099 34.7158 59.6099 34.5681C59.6155 34.4843 59.6395 34.4032 59.6799 34.3313C59.7203 34.2594 59.776 34.1988 59.8423 34.1545Z" fill="#E0E0E0"/>
<path d="M59.8423 36.3111L65.0266 33.0955C65.1534 33.016 65.257 33.0728 65.257 33.2228C65.2515 33.306 65.2277 33.3867 65.1877 33.4581C65.1476 33.5296 65.0925 33.5899 65.0266 33.6341L59.8423 36.852C59.7134 36.9292 59.6099 36.8747 59.6099 36.7247C59.6156 36.641 59.6397 36.5599 59.6801 36.488C59.7205 36.4161 59.7761 36.3555 59.8423 36.3111Z" fill="#E0E0E0"/>
<path d="M59.8423 38.4677L65.0266 35.2521C65.1534 35.1749 65.257 35.2294 65.257 35.3794C65.2511 35.4628 65.2272 35.5437 65.1873 35.6155C65.1473 35.6873 65.0923 35.748 65.0266 35.793L59.8423 39.0086C59.7134 39.0881 59.6099 39.0313 59.6099 38.8813C59.6156 38.7976 59.6397 38.7165 59.6801 38.6446C59.7205 38.5728 59.7761 38.5121 59.8423 38.4677Z" fill="#E0E0E0"/>
<path d="M68.0954 22.5602L72.4089 19.8628C72.5378 19.7833 72.6414 19.8401 72.6414 19.9878C72.6358 20.0716 72.6118 20.1527 72.5714 20.2246C72.531 20.2965 72.4753 20.3571 72.4089 20.4014L68.0954 23.0897C67.9664 23.1693 67.8629 23.1125 67.8629 22.9648C67.8698 22.8826 67.8944 22.8032 67.9347 22.733C67.9751 22.6628 68.0301 22.6036 68.0954 22.5602Z" fill="#2F80ED"/>
<path d="M56.3678 53.5662L67.1971 46.8441C67.3261 46.7646 67.4296 46.8214 67.4296 46.9691C67.424 47.0529 67.4 47.1341 67.3596 47.2059C67.3192 47.2778 67.2635 47.3384 67.1971 47.3827L56.3678 54.107C56.2389 54.1843 56.1353 54.1297 56.1353 53.9798C56.1411 53.896 56.1652 53.8149 56.2056 53.7431C56.246 53.6712 56.3016 53.6106 56.3678 53.5662Z" fill="#2F80ED"/>
<path d="M68.0954 46.2851L72.4089 43.5967C72.5378 43.5172 72.6414 43.574 72.6414 43.724C72.6356 43.8077 72.6115 43.8888 72.5712 43.9607C72.5308 44.0326 72.4752 44.0932 72.4089 44.1376L68.0954 46.826C67.9664 46.9055 67.8629 46.8487 67.8629 46.6987C67.8687 46.615 67.8927 46.5339 67.9331 46.462C67.9735 46.3901 68.0291 46.3295 68.0954 46.2851Z" fill="#2F80ED"/>
<path d="M68.0954 39.8267L72.4089 37.1338C72.5378 37.0542 72.6414 37.111 72.6414 37.2588C72.6358 37.3425 72.6118 37.4237 72.5714 37.4956C72.531 37.5675 72.4753 37.628 72.4089 37.6723L68.0954 40.3607C67.9664 40.4402 67.8629 40.3834 67.8629 40.2357C67.8691 40.1527 67.8934 40.0725 67.9338 40.0014C67.9742 39.9304 68.0295 39.8705 68.0954 39.8267Z" fill="#2F80ED"/>
<path d="M68.0954 41.9833L72.4089 39.2949C72.5378 39.2154 72.6414 39.2722 72.6414 39.4199C72.6358 39.5037 72.6118 39.5848 72.5714 39.6567C72.531 39.7286 72.4753 39.7892 72.4089 39.8335L68.0954 42.5218C67.9664 42.6014 67.8629 42.5446 67.8629 42.3969C67.8685 42.3131 67.8925 42.2319 67.9329 42.16C67.9733 42.0881 68.029 42.0276 68.0954 41.9833Z" fill="#2F80ED"/>
<path d="M56.3678 51.4118L67.1971 44.6875C67.3261 44.6103 67.4296 44.6648 67.4296 44.8148C67.4238 44.8985 67.3998 44.9796 67.3594 45.0515C67.319 45.1233 67.2634 45.184 67.1971 45.2284L56.3678 51.9504C56.2389 52.03 56.1353 51.9731 56.1353 51.8254C56.141 51.7416 56.165 51.6605 56.2054 51.5886C56.2458 51.5167 56.3014 51.4561 56.3678 51.4118Z" fill="#F5F5F5"/>
<path d="M64.4158 42.1037L66.84 40.5993C66.9668 40.5198 67.0703 40.5766 67.0703 40.7243C67.0648 40.8078 67.041 40.8888 67.001 40.9606C66.961 41.0325 66.9058 41.0932 66.84 41.1379L64.4158 42.6423C64.2869 42.7218 64.1834 42.6673 64.1834 42.5173C64.189 42.4335 64.213 42.3524 64.2534 42.2805C64.2938 42.2086 64.3495 42.148 64.4158 42.1037Z" fill="#2F80ED"/>
<path d="M56.3678 32.0025L62.6849 28.0779C62.8117 27.9983 62.9153 28.0551 62.9153 28.2028C62.9097 28.2864 62.886 28.3673 62.846 28.4392C62.806 28.511 62.7508 28.5717 62.6849 28.6164L56.3678 32.541C56.2389 32.6206 56.1353 32.5638 56.1353 32.416C56.141 32.3323 56.165 32.2511 56.2054 32.1792C56.2458 32.1073 56.3014 32.0467 56.3678 32.0025Z" fill="#2F80ED"/>
<path opacity="0.6" d="M56.3678 32.0025L62.6849 28.0779C62.8117 27.9983 62.9153 28.0551 62.9153 28.2028C62.9097 28.2864 62.886 28.3673 62.846 28.4392C62.806 28.511 62.7508 28.5717 62.6849 28.6164L56.3678 32.541C56.2389 32.6206 56.1353 32.5638 56.1353 32.416C56.141 32.3323 56.165 32.2511 56.2054 32.1792C56.2458 32.1073 56.3014 32.0467 56.3678 32.0025Z" fill="white"/>
<path d="M56.3678 34.1545L58.5109 32.816C58.6377 32.7365 58.7412 32.7933 58.7412 32.9433C58.7354 33.0267 58.7115 33.1075 58.6715 33.1793C58.6315 33.2511 58.5765 33.3119 58.5109 33.3569L56.3678 34.6885C56.2389 34.7681 56.1353 34.7113 56.1353 34.5613C56.1421 34.4787 56.1666 34.399 56.207 34.3284C56.2473 34.2578 56.3024 34.1983 56.3678 34.1545Z" fill="#2F80ED"/>
<path opacity="0.6" d="M56.3678 34.1545L58.5109 32.816C58.6377 32.7365 58.7412 32.7933 58.7412 32.9433C58.7354 33.0267 58.7115 33.1075 58.6715 33.1793C58.6315 33.2511 58.5765 33.3119 58.5109 33.3569L56.3678 34.6885C56.2389 34.7681 56.1353 34.7113 56.1353 34.5613C56.1421 34.4787 56.1666 34.399 56.207 34.3284C56.2473 34.2578 56.3024 34.1983 56.3678 34.1545Z" fill="white"/>
<path d="M56.3678 36.3134L58.5109 34.9794C58.6377 34.8999 58.7412 34.9567 58.7412 35.1067C58.7354 35.1901 58.7115 35.271 58.6715 35.3428C58.6315 35.4145 58.5765 35.4753 58.5109 35.5203L56.3678 36.852C56.2389 36.9315 56.1353 36.8747 56.1353 36.7247C56.1409 36.6412 56.165 36.5604 56.2054 36.4889C56.2458 36.4173 56.3015 36.3572 56.3678 36.3134Z" fill="#2F80ED"/>
<path opacity="0.6" d="M56.3678 36.3134L58.5109 34.9794C58.6377 34.8999 58.7412 34.9567 58.7412 35.1067C58.7354 35.1901 58.7115 35.271 58.6715 35.3428C58.6315 35.4145 58.5765 35.4753 58.5109 35.5203L56.3678 36.852C56.2389 36.9315 56.1353 36.8747 56.1353 36.7247C56.1409 36.6412 56.165 36.5604 56.2054 36.4889C56.2458 36.4173 56.3015 36.3572 56.3678 36.3134Z" fill="white"/>
<path d="M56.3678 38.47L58.5109 37.1338C58.6377 37.0542 58.7412 37.1088 58.7412 37.2587C58.7357 37.3423 58.7119 37.4232 58.6719 37.4951C58.6319 37.5669 58.5767 37.6276 58.5109 37.6723L56.3678 39.004C56.2389 39.0836 56.1353 39.0267 56.1353 38.879C56.1416 38.796 56.1659 38.7158 56.2063 38.6447C56.2467 38.5737 56.302 38.5138 56.3678 38.47Z" fill="#2F80ED"/>
<path opacity="0.6" d="M56.3678 38.47L58.5109 37.1338C58.6377 37.0542 58.7412 37.1088 58.7412 37.2587C58.7357 37.3423 58.7119 37.4232 58.6719 37.4951C58.6319 37.5669 58.5767 37.6276 58.5109 37.6723L56.3678 39.004C56.2389 39.0836 56.1353 39.0267 56.1353 38.879C56.1416 38.796 56.1659 38.7158 56.2063 38.6447C56.2467 38.5737 56.302 38.5138 56.3678 38.47Z" fill="white"/>
<path d="M56.3678 40.6266L58.5109 39.2949C58.6377 39.2154 58.7412 39.2722 58.7412 39.4199C58.7357 39.5034 58.7119 39.5844 58.6719 39.6562C58.6319 39.7281 58.5767 39.7888 58.5109 39.8335L56.3678 41.1652C56.2389 41.2447 56.1353 41.1879 56.1353 41.0402C56.141 40.9564 56.165 40.8752 56.2054 40.8033C56.2458 40.7314 56.3014 40.6709 56.3678 40.6266Z" fill="#2F80ED"/>
<path opacity="0.6" d="M56.3678 40.6266L58.5109 39.2949C58.6377 39.2154 58.7412 39.2722 58.7412 39.4199C58.7357 39.5034 58.7119 39.5844 58.6719 39.6562C58.6319 39.7281 58.5767 39.7888 58.5109 39.8335L56.3678 41.1652C56.2389 41.2447 56.1353 41.1879 56.1353 41.0402C56.141 40.9564 56.165 40.8752 56.2054 40.8033C56.2458 40.7314 56.3014 40.6709 56.3678 40.6266Z" fill="white"/>
<path d="M63.581 27.5211L66.3285 25.8213C66.4553 25.7417 66.561 25.7985 66.561 25.9463C66.555 26.0299 66.5309 26.111 66.4905 26.1828C66.4502 26.2546 66.3947 26.3153 66.3285 26.3598L63.581 28.0597C63.4542 28.1392 63.3507 28.0824 63.3507 27.9347C63.3562 27.8512 63.38 27.7702 63.42 27.6983C63.46 27.6265 63.5152 27.5658 63.581 27.5211Z" fill="#2F80ED"/>
<path opacity="0.6" d="M63.581 27.5211L66.3285 25.8213C66.4553 25.7417 66.561 25.7985 66.561 25.9463C66.555 26.0299 66.5309 26.111 66.4905 26.1828C66.4502 26.2546 66.3947 26.3153 66.3285 26.3598L63.581 28.0597C63.4542 28.1392 63.3507 28.0824 63.3507 27.9347C63.3562 27.8512 63.38 27.7702 63.42 27.6983C63.46 27.6265 63.5152 27.5658 63.581 27.5211Z" fill="white"/>
<path d="M62.4588 39.004L68.7653 35.0885C68.8921 35.009 68.9957 35.0658 68.9957 35.2158C68.9898 35.2992 68.9659 35.38 68.9259 35.4518C68.886 35.5236 68.831 35.5844 68.7653 35.6294L62.4588 39.5449C62.332 39.6244 62.2263 39.5676 62.2263 39.4176C62.2321 39.3339 62.2562 39.2528 62.2965 39.1809C62.3369 39.109 62.3925 39.0484 62.4588 39.004Z" fill="#F5F5F5"/>
<path d="M66.0918 38.9086L72.4089 34.984C72.5378 34.9044 72.6414 34.9613 72.6414 35.109C72.6358 35.1928 72.6118 35.2739 72.5714 35.3458C72.531 35.4177 72.4753 35.4783 72.4089 35.5226L66.0918 39.4472C65.965 39.5267 65.8615 39.4699 65.8615 39.3222C65.867 39.2386 65.8907 39.1577 65.9308 39.0858C65.9708 39.014 66.0259 38.9533 66.0918 38.9086Z" fill="#F5F5F5"/>
<path d="M69.6635 34.5226L72.411 32.8228C72.5399 32.7433 72.6435 32.8001 72.6435 32.9501C72.6377 33.0338 72.6137 33.1149 72.5733 33.1868C72.5329 33.2586 72.4773 33.3192 72.411 33.3637L69.6635 35.0635C69.5346 35.1408 69.4311 35.0862 69.4311 34.9362C69.4368 34.8525 69.4609 34.7714 69.5013 34.6995C69.5417 34.6277 69.5973 34.5671 69.6635 34.5226Z" fill="#F5F5F5"/>
<path d="M59.8423 31.9979L66.1594 28.0733C66.2863 27.9938 66.3898 28.0506 66.3898 28.2006C66.3839 28.284 66.3601 28.3649 66.3201 28.4367C66.2801 28.5084 66.2251 28.5692 66.1594 28.6142L59.8423 32.5365C59.7134 32.616 59.6099 32.5615 59.6099 32.4115C59.6156 32.3278 59.6397 32.2467 59.6801 32.1748C59.7205 32.103 59.7761 32.0424 59.8423 31.9979Z" fill="#2F80ED"/>
<path opacity="0.6" d="M59.8423 31.9979L66.1594 28.0733C66.2863 27.9938 66.3898 28.0506 66.3898 28.2006C66.3839 28.284 66.3601 28.3649 66.3201 28.4367C66.2801 28.5084 66.2251 28.5692 66.1594 28.6142L59.8423 32.5365C59.7134 32.616 59.6099 32.5615 59.6099 32.4115C59.6156 32.3278 59.6397 32.2467 59.6801 32.1748C59.7205 32.103 59.7761 32.0424 59.8423 31.9979Z" fill="white"/>
<path d="M67.0555 27.5166L69.803 25.8167C69.9319 25.7372 70.0355 25.794 70.0355 25.9417C70.0299 26.0255 70.0059 26.1067 69.9655 26.1786C69.9251 26.2505 69.8694 26.311 69.803 26.3553L67.0555 28.0552C66.9287 28.1347 66.8252 28.0779 66.8252 27.9302C66.8307 27.8466 66.8545 27.7657 66.8945 27.6938C66.9345 27.622 66.9897 27.5613 67.0555 27.5166Z" fill="#2F80ED"/>
<path opacity="0.6" d="M67.0555 27.5166L69.803 25.8167C69.9319 25.7372 70.0355 25.794 70.0355 25.9417C70.0299 26.0255 70.0059 26.1067 69.9655 26.1786C69.9251 26.2505 69.8694 26.311 69.803 26.3553L67.0555 28.0552C66.9287 28.1347 66.8252 28.0779 66.8252 27.9302C66.8307 27.8466 66.8545 27.7657 66.8945 27.6938C66.9345 27.622 66.9897 27.5613 67.0555 27.5166Z" fill="white"/>
<path d="M87.2305 12.4613V9.86382L85.1995 9.6752C85.1702 9.67026 85.1402 9.67671 85.115 9.69338C85.0347 9.73883 83.1114 10.9228 83.0882 10.9387C83.069 10.9507 83.0527 10.9672 83.0403 10.9869C83.0279 11.0067 83.0198 11.0291 83.0165 11.0527C83.0133 11.0763 83.015 11.1003 83.0215 11.123C83.0281 11.1458 83.0393 11.1667 83.0544 11.1841L85.208 13.6952L87.2305 12.4613Z" fill="#2F80ED"/>
<path d="M85.2079 13.7043L83.0543 11.1932C83.0345 11.1693 83.0218 11.1395 83.0178 11.1077C83.0138 11.076 83.0187 11.0436 83.0318 11.0149C83.045 10.9861 83.0658 10.9622 83.0916 10.9462C83.1175 10.9302 83.1472 10.9228 83.1769 10.9251L85.2079 11.116V13.7043Z" fill="#2F80ED"/>
<path d="M87.2284 9.86382L85.208 11.1091L83.1706 10.9251C83.1468 10.9203 83.1225 10.9203 83.0987 10.9251C83.2615 10.8228 85.0347 9.73201 85.1065 9.69111C85.1327 9.6748 85.1632 9.6684 85.1932 9.67293L87.2284 9.86382Z" fill="#2F80ED"/>
<path opacity="0.5" d="M87.2284 9.86382L85.208 11.1091L83.1706 10.9251C83.1468 10.9203 83.1225 10.9203 83.0987 10.9251C83.2615 10.8228 85.0347 9.73201 85.1065 9.69111C85.1327 9.6748 85.1632 9.6684 85.1932 9.67293L87.2284 9.86382Z" fill="white"/>
<path d="M85.2122 8.1981C85.2264 7.92517 85.3 7.65963 85.427 7.42282C85.554 7.18601 85.7309 6.98454 85.9434 6.8346L86.5394 6.4551C86.7662 6.33079 87.0172 6.26599 87.2717 6.26599C87.5263 6.26599 87.7773 6.33079 88.0041 6.4551L94.3592 10.4092C94.5728 10.5583 94.7505 10.7595 94.878 10.9964C95.0054 11.2334 95.0789 11.4994 95.0926 11.7727V19.6674C95.0788 19.9407 95.0052 20.2066 94.8777 20.4435C94.7503 20.6805 94.5726 20.8817 94.3592 21.0309L93.7632 21.4013C93.5361 21.5245 93.2853 21.5887 93.0309 21.5887C92.7765 21.5887 92.5257 21.5245 92.2986 21.4013L90.424 20.2355L87.985 18.7266L85.9434 17.4585C85.7304 17.3091 85.5531 17.1078 85.4261 16.8708C85.299 16.6339 85.2257 16.3681 85.2122 16.095V8.1981Z" fill="#2F80ED"/>
<path opacity="0.2" d="M95.0926 19.6673C95.0788 19.9407 95.0052 20.2066 94.8777 20.4435C94.7503 20.6805 94.5726 20.8817 94.3592 21.0308L93.7632 21.4013C93.5566 21.5127 93.3305 21.5759 93.0996 21.5869C92.8687 21.5978 92.6382 21.5563 92.4233 21.4649C92.7699 21.6035 93.032 21.3944 93.032 20.9468V13.0453C93.0244 12.7711 92.9516 12.5035 92.8206 12.2681L94.877 11.0001C95.008 11.2355 95.0808 11.503 95.0883 11.7773L95.0926 19.6673Z" fill="black"/>
<path opacity="0.5" d="M85.2354 7.9731C85.3221 7.63904 85.6053 7.53224 85.9434 7.74585L92.3007 11.6818C92.5172 11.8265 92.695 12.0293 92.8164 12.2704L94.8749 11.0001C94.7534 10.7597 94.5757 10.5576 94.3592 10.4138L88.0062 6.45508C87.7804 6.33368 87.5315 6.27048 87.2791 6.27048C87.0268 6.27048 86.7778 6.33368 86.5521 6.45508L85.954 6.82549C85.7677 6.95391 85.6079 7.12199 85.4843 7.31936C85.3607 7.51672 85.276 7.73921 85.2354 7.9731Z" fill="white"/>
<path d="M89.1221 11.0796L86.7022 10.716L87.0403 15.5178L89.1221 18.4243V11.0796Z" fill="#455A64"/>
<path d="M89.1221 11.0796L91.542 13.7225L91.2017 18.1016L89.1221 18.4243V11.0796Z" fill="#37474F"/>
<path d="M90.1175 17.3267L90.6733 17.6721L89.1263 11.8113L87.5814 15.7518L88.1351 16.0973L88.469 15.2428L89.7836 16.0586L90.1175 17.3267ZM88.6656 14.7269L89.1221 13.5589L89.5786 15.2951L88.6656 14.7269Z" fill="#FAFAFA"/>
<path d="M87.2305 27.1961V24.61L85.1995 24.4191C85.1703 24.4166 85.141 24.4229 85.115 24.4373C85.0347 24.4828 83.1114 25.6667 83.0882 25.6826C83.069 25.6949 83.0526 25.7116 83.0402 25.7315C83.0278 25.7515 83.0197 25.7741 83.0165 25.7978C83.0132 25.8216 83.0149 25.8458 83.0215 25.8687C83.0281 25.8916 83.0393 25.9127 83.0544 25.9303L85.208 28.4301L87.2305 27.1961Z" fill="#2F80ED"/>
<path d="M85.208 28.4392L83.0544 25.9394C83.0334 25.9159 83.0197 25.886 83.0151 25.8537C83.0104 25.8215 83.0151 25.7885 83.0285 25.7593C83.0419 25.73 83.0633 25.7059 83.0898 25.6901C83.1164 25.6744 83.1468 25.6678 83.177 25.6713L85.208 25.8622V28.4392Z" fill="#EBEBEB"/>
<path d="M87.2284 24.6077L85.208 25.8531L83.1769 25.6622C83.1533 25.6563 83.1287 25.6563 83.1051 25.6622C83.2678 25.5576 85.041 24.4691 85.1129 24.4259C85.1394 24.4107 85.1696 24.4043 85.1995 24.4078L87.2284 24.6077Z" fill="#2F80ED"/>
<path d="M87.2284 24.6077L85.208 25.8531L83.1769 25.6622C83.1533 25.6563 83.1287 25.6563 83.1051 25.6622C83.2678 25.5576 85.041 24.4691 85.1129 24.4259C85.1394 24.4107 85.1696 24.4043 85.1995 24.4078L87.2284 24.6077Z" fill="#F5F5F5"/>
<path d="M85.2122 22.9329C85.2257 22.6598 85.299 22.394 85.4261 22.1571C85.5531 21.9202 85.7304 21.7188 85.9434 21.5694L86.5394 21.199C86.7662 21.0747 87.0172 21.0099 87.2717 21.0099C87.5263 21.0099 87.7773 21.0747 88.0041 21.199L94.3592 25.1441C94.5726 25.2932 94.7503 25.4945 94.8777 25.7314C95.0052 25.9683 95.0788 26.2343 95.0926 26.5076V34.4068C95.0789 34.6801 95.0054 34.9461 94.878 35.1831C94.7505 35.42 94.5728 35.6212 94.3592 35.7703L93.7632 36.1407C93.5364 36.265 93.2855 36.3298 93.0309 36.3298C92.7763 36.3298 92.5254 36.265 92.2986 36.1407L90.424 34.9772L87.985 33.4614L85.9434 32.1956C85.7306 32.0459 85.5536 31.8445 85.4265 31.6077C85.2995 31.3708 85.2261 31.1051 85.2122 30.8321V22.9329Z" fill="#EBEBEB"/>
<path d="M95.0926 34.4067C95.0789 34.6801 95.0054 34.9461 94.878 35.1831C94.7505 35.42 94.5728 35.6212 94.3592 35.7702L93.7632 36.1407C93.5568 36.2526 93.3306 36.3162 93.0996 36.3271C92.8686 36.3381 92.6381 36.2962 92.4233 36.2043C92.7699 36.3452 93.032 36.1361 93.032 35.6862V27.787C93.0247 27.5134 92.9519 27.2465 92.8206 27.0121L94.8812 25.7326C95.0125 25.9671 95.0853 26.234 95.0926 26.5076V34.4067Z" fill="#E0E0E0"/>
<path d="M85.2354 22.7079C85.3221 22.3739 85.6053 22.2671 85.9434 22.4807L92.3007 26.4257C92.5172 26.5704 92.695 26.7733 92.8164 27.0143L94.8749 25.7372C94.7535 25.4961 94.5757 25.2933 94.3592 25.1486L88.0062 21.2013C87.7791 21.078 87.5282 21.0138 87.2739 21.0138C87.0195 21.0138 86.7686 21.078 86.5415 21.2013L85.9434 21.5717C85.7603 21.7 85.6031 21.8668 85.4815 22.062C85.3598 22.2573 85.2761 22.477 85.2354 22.7079Z" fill="#F5F5F5"/>
<path d="M89.1221 27.7597L89.6547 26.678L91.542 27.8506L89.1221 32.7433L86.7022 24.8441L88.5874 26.0144L89.1221 27.7597Z" fill="#2F80ED"/>
<path opacity="0.15" d="M89.1221 27.7597L89.6547 26.678L91.542 27.8506L89.1221 32.7433L86.7022 24.8441L88.5874 26.0144L89.1221 27.7597Z" fill="black"/>
<path d="M89.1221 27.7597L88.5874 26.0167L87.742 25.494C88.4162 27.6961 89.1178 29.9822 89.1178 29.9822L90.4916 27.2007L89.6462 26.678L89.1221 27.7597Z" fill="#37474F"/>
<path d="M87.2305 41.9333V39.3449L85.1995 39.154C85.1703 39.1514 85.141 39.1577 85.115 39.1722L83.0882 40.4175C83.069 40.4298 83.0526 40.4465 83.0402 40.4664C83.0278 40.4863 83.0197 40.509 83.0165 40.5327C83.0132 40.5564 83.0149 40.5806 83.0215 40.6036C83.0281 40.6265 83.0393 40.6475 83.0544 40.6652L85.208 43.165L87.2305 41.9333Z" fill="#2F80ED"/>
<path d="M85.208 43.174L83.0544 40.6743C83.0334 40.6507 83.0197 40.6208 83.0151 40.5886C83.0104 40.5564 83.0151 40.5234 83.0285 40.4941C83.0419 40.4649 83.0633 40.4408 83.0898 40.425C83.1164 40.4093 83.1468 40.4027 83.177 40.4061L85.208 40.597V43.174Z" fill="#37474F"/>
<path d="M87.2284 39.3449L85.208 40.5879L83.1769 40.397C83.1533 40.3912 83.1287 40.3912 83.1051 40.397L85.1129 39.1608C85.1397 39.1465 85.1696 39.1402 85.1995 39.1426L87.2284 39.3449Z" fill="#2F80ED"/>
<path d="M87.2284 39.3449L85.208 40.5879L83.1769 40.397C83.1533 40.3912 83.1287 40.3912 83.1051 40.397L85.1129 39.1608C85.1397 39.1465 85.1696 39.1402 85.1995 39.1426L87.2284 39.3449Z" fill="#455A64"/>
<path d="M85.2122 37.6678C85.2261 37.3948 85.2995 37.1291 85.4265 36.8922C85.5536 36.6554 85.7306 36.454 85.9434 36.3043L86.5394 35.9339C86.7665 35.8106 87.0174 35.7464 87.2717 35.7464C87.5261 35.7464 87.777 35.8106 88.0041 35.9339L94.3592 39.8789C94.5724 40.0284 94.7499 40.2296 94.8773 40.4665C95.0047 40.7034 95.0784 40.9692 95.0926 41.2424V49.1348C95.0789 49.4081 95.0054 49.6741 94.878 49.9111C94.7505 50.1481 94.5728 50.3493 94.3592 50.4983L93.7632 50.8687C93.5364 50.993 93.2855 51.0578 93.0309 51.0578C92.7763 51.0578 92.5254 50.993 92.2986 50.8687L90.424 49.7052L87.985 48.1894L85.9434 46.9237C85.7304 46.7743 85.5531 46.5729 85.4261 46.336C85.299 46.0991 85.2257 45.8333 85.2122 45.5602V37.6678Z" fill="#37474F"/>
<path d="M95.0926 49.1371C95.0789 49.4104 95.0054 49.6764 94.878 49.9134C94.7505 50.1503 94.5728 50.3515 94.3592 50.5006L93.7632 50.871C93.5568 50.9829 93.3306 51.0465 93.0996 51.0575C92.8686 51.0684 92.6381 51.0266 92.4233 50.9346C92.7699 51.0755 93.032 50.8664 93.032 50.4165V42.5241C93.0244 42.2499 92.9516 41.9823 92.8206 41.7469L94.8812 40.4675C95.0122 40.7029 95.085 40.9705 95.0926 41.2447V49.1371Z" fill="#263238"/>
<path d="M85.2354 37.4451C85.3221 37.111 85.6053 37.0042 85.9434 37.2178L92.3007 41.1651C92.5172 41.3089 92.6949 41.511 92.8164 41.7514L94.8749 40.4743C94.7535 40.2332 94.5757 40.0304 94.3592 39.8857L88.0062 35.9384C87.7791 35.8152 87.5282 35.7509 87.2739 35.7509C87.0195 35.7509 86.7686 35.8152 86.5415 35.9384L85.9434 36.3111C85.7603 36.4388 85.6031 36.6052 85.4814 36.8001C85.3597 36.995 85.276 37.2144 85.2354 37.4451Z" fill="#455A64"/>
<path d="M90.536 43.699C90.686 42.8809 90.6247 42.1287 90.3246 41.7015C90.2603 41.6012 90.1745 41.5191 90.0745 41.4621C89.9744 41.4052 89.863 41.375 89.7498 41.3742H89.6969C89.4948 41.3955 89.3016 41.4739 89.1369 41.6015C88.7142 40.7425 88.2915 40.2152 87.9892 40.2152H87.9449C87.9043 40.2237 87.8661 40.242 87.8331 40.2688C87.8001 40.2955 87.7733 40.3301 87.7547 40.3698C87.6088 40.6311 87.6004 41.197 87.7103 41.9401C87.4482 41.8609 87.1686 41.8826 86.9198 42.0014C86.8403 42.0514 86.7752 42.1242 86.7319 42.2117C86.6886 42.2992 86.6688 42.3979 86.6747 42.4968C86.6747 42.99 87.0784 43.6672 87.706 44.3148C87.556 45.1329 87.6173 45.8851 87.9174 46.3123C87.9824 46.4042 88.0635 46.4814 88.1562 46.5396C88.2576 46.6029 88.3729 46.6358 88.4901 46.635C88.5659 46.6345 88.6413 46.6231 88.7142 46.6009C88.8596 46.55 88.996 46.4732 89.1178 46.3737C89.4581 47.0554 89.7984 47.5486 90.071 47.719C90.1346 47.7615 90.2075 47.785 90.2823 47.7872C90.2964 47.7894 90.3106 47.7894 90.3246 47.7872C90.3655 47.7788 90.404 47.7605 90.4373 47.7337C90.4706 47.7069 90.4979 47.6724 90.5169 47.6327C90.6628 47.3713 90.6691 46.8055 90.5592 46.0578C90.67 46.0803 90.7825 46.0924 90.8952 46.0942C91.0457 46.1007 91.1951 46.0647 91.3285 45.9896C91.4079 45.9395 91.4729 45.8666 91.5162 45.7792C91.5594 45.6917 91.5793 45.5931 91.5737 45.4942C91.5673 45.0216 91.1637 44.3444 90.536 43.699ZM89.811 45.0147C89.7402 45.1516 89.6626 45.2844 89.5786 45.4124C89.4391 45.3397 89.2911 45.2579 89.1347 45.1602C88.9783 45.0625 88.8283 44.9625 88.6867 44.8579C88.6043 44.6307 88.5218 44.3898 88.4436 44.1398C88.3654 43.8899 88.2978 43.6581 88.2323 43.4308C88.2915 43.2899 88.3549 43.149 88.4267 43.0104C88.4986 42.8718 88.5789 42.7354 88.6571 42.6127C88.7987 42.6854 88.9466 42.7673 89.103 42.865C89.2594 42.9627 89.4243 43.074 89.5743 43.1831C89.6568 43.4104 89.7371 43.6376 89.8174 43.899C89.8977 44.1603 89.9548 44.3535 90.0118 44.5671C89.9569 44.7148 89.8871 44.8602 89.811 45.0147ZM90.0224 43.8535C89.9759 43.7035 89.9273 43.5558 89.8787 43.4126C90.0203 43.5263 90.1534 43.6399 90.2781 43.7626C90.2401 43.9194 90.1957 44.0808 90.1407 44.2421C90.0985 44.1148 90.0604 43.9853 90.0182 43.8535H90.0224ZM89.139 42.5718C89.0305 42.5052 88.9248 42.4438 88.8219 42.3877C88.9133 42.2657 89.0137 42.1517 89.1221 42.0469C89.2214 42.2628 89.3228 42.5014 89.4243 42.7582C89.3271 42.6945 89.232 42.6309 89.1347 42.5718H89.139ZM88.2408 42.7718C88.2027 42.8468 88.1647 42.9218 88.1309 42.999C88.0738 42.7604 88.0252 42.5445 87.9871 42.3287C88.1307 42.3723 88.2718 42.4247 88.4098 42.4855C88.3422 42.5877 88.2872 42.6718 88.2429 42.7718H88.2408ZM88.2408 44.1853C88.2894 44.3375 88.338 44.4853 88.3887 44.6398C88.2386 44.5193 88.097 44.3944 87.966 44.2694C88.0072 44.0963 88.0566 43.9257 88.1139 43.7581C88.1562 43.8944 88.1985 44.0376 88.2429 44.1785L88.2408 44.1853ZM89.103 45.4533C89.2108 45.5192 89.3144 45.5783 89.4179 45.6351C89.3309 45.7528 89.2355 45.8629 89.1326 45.9646C89.0354 45.7556 88.9382 45.5283 88.8431 45.2829C88.9318 45.3397 89.0185 45.3988 89.1073 45.4533H89.103ZM90.0013 45.2534C90.0456 45.1693 90.0858 45.0852 90.1238 44.9988C90.1851 45.2488 90.2358 45.4852 90.276 45.7033C90.128 45.6581 89.9826 45.6035 89.8406 45.5397C89.8998 45.4488 89.9548 45.3533 90.0055 45.2534H90.0013ZM89.7138 42.9809C89.5722 42.5923 89.4243 42.2355 89.2763 41.9151C89.3827 41.8297 89.5021 41.765 89.6293 41.7242C89.6878 41.7065 89.7482 41.6974 89.8089 41.6969C89.894 41.6947 89.9781 41.7174 90.052 41.7628C90.1076 41.7988 90.1564 41.8459 90.1957 41.9014C90.3965 42.1878 90.4514 42.79 90.3246 43.4922C90.1321 43.3093 89.9311 43.1372 89.7223 42.9763L89.7138 42.9809ZM88.5451 42.2559C88.3445 42.1587 88.1375 42.0774 87.9258 42.0128C87.8202 41.3083 87.8329 40.8243 87.9385 40.6357C87.9459 40.6132 87.9582 40.593 87.9744 40.5768C87.9906 40.5606 88.0102 40.5488 88.0315 40.5425H88.0505C88.0913 40.5449 88.1307 40.559 88.1647 40.5834C88.3654 40.7084 88.655 41.1129 88.9699 41.7446C88.8129 41.8965 88.6719 42.0665 88.5493 42.2514L88.5451 42.2559ZM87.9914 43.3172C87.8959 43.559 87.8174 43.8081 87.7568 44.0626C87.2157 43.499 86.8924 42.9536 86.8924 42.6195C86.8901 42.5577 86.9039 42.4965 86.9323 42.4426C86.9607 42.3888 87.0025 42.3446 87.053 42.315C87.1644 42.2554 87.288 42.2273 87.4123 42.2332C87.5289 42.2349 87.645 42.2493 87.7589 42.2764C87.8202 42.5877 87.8984 42.9422 87.9956 43.3126L87.9914 43.3172ZM88.543 45.0716C88.6825 45.4442 88.8262 45.7919 88.9657 46.1101C88.8194 46.2348 88.6438 46.3134 88.4584 46.3373C88.3777 46.346 88.2963 46.3319 88.2222 46.2964C88.1481 46.261 88.0838 46.2054 88.0357 46.1351C87.835 45.8465 87.78 45.2443 87.9068 44.5443C88.1111 44.7312 88.3249 44.9057 88.5472 45.067L88.543 45.0716ZM89.6885 45.7783C89.8935 45.8792 90.1054 45.9628 90.3225 46.0283C90.4303 46.735 90.4176 47.2213 90.3119 47.4122C90.3025 47.4324 90.2891 47.4502 90.2727 47.4643C90.2563 47.4784 90.2372 47.4886 90.2168 47.494C90.0245 47.5304 89.6631 47.0691 89.2679 46.2669C89.4263 46.1185 89.5687 45.9516 89.6927 45.7692L89.6885 45.7783ZM90.2549 44.6875C90.3407 44.4545 90.4113 44.2153 90.4662 43.9717C91.0073 44.5352 91.3306 45.0806 91.3306 45.4147C91.3324 45.4764 91.3184 45.5375 91.2901 45.5912C91.2617 45.6449 91.2202 45.6892 91.17 45.7192C90.9526 45.8151 90.7116 45.8303 90.4852 45.7624C90.4409 45.4261 90.3563 45.0647 90.2591 44.683L90.2549 44.6875Z" fill="#2F80ED"/>
<path d="M89.5511 44.2785C89.5511 44.6193 89.3588 44.7761 89.1284 44.6284C88.9986 44.5268 88.8928 44.394 88.8193 44.2404C88.7459 44.0869 88.707 43.917 88.7057 43.7444C88.7057 43.4058 88.898 43.249 89.1284 43.3967C89.2579 43.4981 89.3636 43.6306 89.437 43.7837C89.5104 43.9368 89.5495 44.1062 89.5511 44.2785Z" fill="#2F80ED"/>
<g opacity="0.65">
<path d="M90.536 43.699C90.686 42.8809 90.6247 42.1287 90.3246 41.7015C90.2603 41.6012 90.1745 41.5191 90.0745 41.4621C89.9744 41.4052 89.863 41.375 89.7498 41.3742H89.6969C89.4948 41.3955 89.3016 41.4739 89.1369 41.6015C88.7142 40.7425 88.2915 40.2152 87.9892 40.2152H87.9449C87.9043 40.2237 87.8661 40.242 87.8331 40.2688C87.8001 40.2955 87.7733 40.3301 87.7547 40.3698C87.6088 40.6311 87.6004 41.197 87.7103 41.9401C87.4482 41.8609 87.1686 41.8826 86.9198 42.0014C86.8403 42.0514 86.7752 42.1242 86.7319 42.2117C86.6886 42.2992 86.6688 42.3979 86.6747 42.4968C86.6747 42.99 87.0784 43.6672 87.706 44.3148C87.556 45.1329 87.6173 45.8851 87.9174 46.3123C87.9824 46.4042 88.0635 46.4814 88.1562 46.5396C88.2576 46.6029 88.3729 46.6358 88.4901 46.635C88.5659 46.6345 88.6413 46.6231 88.7142 46.6009C88.8596 46.55 88.996 46.4732 89.1178 46.3737C89.4581 47.0554 89.7984 47.5486 90.071 47.719C90.1346 47.7615 90.2075 47.785 90.2823 47.7872C90.2964 47.7894 90.3106 47.7894 90.3246 47.7872C90.3655 47.7788 90.404 47.7605 90.4373 47.7337C90.4706 47.7069 90.4979 47.6724 90.5169 47.6327C90.6628 47.3713 90.6691 46.8055 90.5592 46.0578C90.67 46.0803 90.7825 46.0924 90.8952 46.0942C91.0457 46.1007 91.1951 46.0647 91.3285 45.9896C91.4079 45.9395 91.4729 45.8666 91.5162 45.7792C91.5594 45.6917 91.5793 45.5931 91.5737 45.4942C91.5673 45.0216 91.1637 44.3444 90.536 43.699ZM89.811 45.0147C89.7402 45.1516 89.6626 45.2844 89.5786 45.4124C89.4391 45.3397 89.2911 45.2579 89.1347 45.1602C88.9783 45.0625 88.8283 44.9625 88.6867 44.8579C88.6043 44.6307 88.5218 44.3898 88.4436 44.1398C88.3654 43.8899 88.2978 43.6581 88.2323 43.4308C88.2915 43.2899 88.3549 43.149 88.4267 43.0104C88.4986 42.8718 88.5789 42.7354 88.6571 42.6127C88.7987 42.6854 88.9466 42.7673 89.103 42.865C89.2594 42.9627 89.4243 43.074 89.5743 43.1831C89.6568 43.4104 89.7371 43.6376 89.8174 43.899C89.8977 44.1603 89.9548 44.3535 90.0118 44.5671C89.9569 44.7148 89.8871 44.8602 89.811 45.0147ZM90.0224 43.8535C89.9759 43.7035 89.9273 43.5558 89.8787 43.4126C90.0203 43.5263 90.1534 43.6399 90.2781 43.7626C90.2401 43.9194 90.1957 44.0808 90.1407 44.2421C90.0985 44.1148 90.0604 43.9853 90.0182 43.8535H90.0224ZM89.139 42.5718C89.0305 42.5052 88.9248 42.4438 88.8219 42.3877C88.9133 42.2657 89.0137 42.1517 89.1221 42.0469C89.2214 42.2628 89.3228 42.5014 89.4243 42.7582C89.3271 42.6945 89.232 42.6309 89.1347 42.5718H89.139ZM88.2408 42.7718C88.2027 42.8468 88.1647 42.9218 88.1309 42.999C88.0738 42.7604 88.0252 42.5445 87.9871 42.3287C88.1307 42.3723 88.2718 42.4247 88.4098 42.4855C88.3422 42.5877 88.2872 42.6718 88.2429 42.7718H88.2408ZM88.2408 44.1853C88.2894 44.3375 88.338 44.4853 88.3887 44.6398C88.2386 44.5193 88.097 44.3944 87.966 44.2694C88.0072 44.0963 88.0566 43.9257 88.1139 43.7581C88.1562 43.8944 88.1985 44.0376 88.2429 44.1785L88.2408 44.1853ZM89.103 45.4533C89.2108 45.5192 89.3144 45.5783 89.4179 45.6351C89.3309 45.7528 89.2355 45.8629 89.1326 45.9646C89.0354 45.7556 88.9382 45.5283 88.8431 45.2829C88.9318 45.3397 89.0185 45.3988 89.1073 45.4533H89.103ZM90.0013 45.2534C90.0456 45.1693 90.0858 45.0852 90.1238 44.9988C90.1851 45.2488 90.2358 45.4852 90.276 45.7033C90.128 45.6581 89.9826 45.6035 89.8406 45.5397C89.8998 45.4488 89.9548 45.3533 90.0055 45.2534H90.0013ZM89.7138 42.9809C89.5722 42.5923 89.4243 42.2355 89.2763 41.9151C89.3827 41.8297 89.5021 41.765 89.6293 41.7242C89.6878 41.7065 89.7482 41.6974 89.8089 41.6969C89.894 41.6947 89.9781 41.7174 90.052 41.7628C90.1076 41.7988 90.1564 41.8459 90.1957 41.9014C90.3965 42.1878 90.4514 42.79 90.3246 43.4922C90.1321 43.3093 89.9311 43.1372 89.7223 42.9763L89.7138 42.9809ZM88.5451 42.2559C88.3445 42.1587 88.1375 42.0774 87.9258 42.0128C87.8202 41.3083 87.8329 40.8243 87.9385 40.6357C87.9459 40.6132 87.9582 40.593 87.9744 40.5768C87.9906 40.5606 88.0102 40.5488 88.0315 40.5425H88.0505C88.0913 40.5449 88.1307 40.559 88.1647 40.5834C88.3654 40.7084 88.655 41.1129 88.9699 41.7446C88.8129 41.8965 88.6719 42.0665 88.5493 42.2514L88.5451 42.2559ZM87.9914 43.3172C87.8959 43.559 87.8174 43.8081 87.7568 44.0626C87.2157 43.499 86.8924 42.9536 86.8924 42.6195C86.8901 42.5577 86.9039 42.4965 86.9323 42.4426C86.9607 42.3888 87.0025 42.3446 87.053 42.315C87.1644 42.2554 87.288 42.2273 87.4123 42.2332C87.5289 42.2349 87.645 42.2493 87.7589 42.2764C87.8202 42.5877 87.8984 42.9422 87.9956 43.3126L87.9914 43.3172ZM88.543 45.0716C88.6825 45.4442 88.8262 45.7919 88.9657 46.1101C88.8194 46.2348 88.6438 46.3134 88.4584 46.3373C88.3777 46.346 88.2963 46.3319 88.2222 46.2964C88.1481 46.261 88.0838 46.2054 88.0357 46.1351C87.835 45.8465 87.78 45.2443 87.9068 44.5443C88.1111 44.7312 88.3249 44.9057 88.5472 45.067L88.543 45.0716ZM89.6885 45.7783C89.8935 45.8792 90.1054 45.9628 90.3225 46.0283C90.4303 46.735 90.4176 47.2213 90.3119 47.4122C90.3025 47.4324 90.2891 47.4502 90.2727 47.4643C90.2563 47.4784 90.2372 47.4886 90.2168 47.494C90.0245 47.5304 89.6631 47.0691 89.2679 46.2669C89.4263 46.1185 89.5687 45.9516 89.6927 45.7692L89.6885 45.7783ZM90.2549 44.6875C90.3407 44.4545 90.4113 44.2153 90.4662 43.9717C91.0073 44.5352 91.3306 45.0806 91.3306 45.4147C91.3324 45.4764 91.3184 45.5375 91.2901 45.5912C91.2617 45.6449 91.2202 45.6892 91.17 45.7192C90.9526 45.8151 90.7116 45.8303 90.4852 45.7624C90.4409 45.4261 90.3563 45.0647 90.2591 44.683L90.2549 44.6875Z" fill="white"/>
<path d="M89.5511 44.2785C89.5511 44.6193 89.3588 44.7761 89.1284 44.6284C88.9986 44.5268 88.8928 44.394 88.8193 44.2404C88.7459 44.0869 88.707 43.917 88.7057 43.7444C88.7057 43.4058 88.898 43.249 89.1284 43.3967C89.2579 43.4981 89.3636 43.6306 89.437 43.7837C89.5104 43.9368 89.5495 44.1062 89.5511 44.2785Z" fill="white"/>
</g>
<path d="M80.4464 53.0912C81.2727 53.2639 81.6489 53.5662 82.1181 54.7978C82.5873 56.0295 83.4263 59.0292 83.6208 59.8541C83.7095 60.2223 81.539 63.5219 81.632 63.4719C81.6595 63.4583 80.7866 61.8812 80.7866 61.8812L81.8539 59.6905L81.0952 57.6953L80.4464 53.0912Z" fill="#FFA8A7"/>
<path d="M80.1674 53.1094C80.1674 53.1094 80.9198 52.9639 81.4185 53.4094C81.9173 53.8548 81.9934 54.1525 82.3316 55.066C82.6697 55.9795 83.2234 57.8839 83.2234 57.8839C83.2234 57.8839 83.0628 58.9065 81.5137 59.1088L80.1864 55.8932C80.1864 55.8932 79.7236 53.9502 80.1674 53.1094Z" fill="#2F80ED"/>
<path d="M78.6119 79.4953C78.5655 79.7841 78.5821 80.0805 78.6605 80.3611C78.7977 80.7036 79.0236 80.9962 79.3114 81.2042C79.5199 81.4124 79.7018 81.6492 79.8525 81.9087C79.9997 82.1939 80.1904 82.4505 80.4168 82.6677C80.5922 82.8313 81.0889 82.8472 81.3277 82.7381C81.5665 82.6291 81.6489 82.5336 81.6341 82.1223C81.6193 81.711 80.459 81.5701 80.459 81.5701L78.6119 79.4953Z" fill="#455A64"/>
<path d="M81.4798 80.8974C81.5771 80.9361 81.6024 81.1383 81.6172 81.5428C81.6299 81.8473 81.7483 82.2927 81.3573 82.4836C81.1839 82.5584 80.9939 82.5767 80.8109 82.5363C80.6279 82.4959 80.46 82.3985 80.328 82.2564C80.0617 81.8973 79.8821 81.5746 79.5038 81.1451C79.1741 80.7656 78.8338 80.6384 78.6859 79.8794C78.5929 79.393 78.6668 79.1976 78.9712 79.0499C79.3939 78.859 80.0511 79.4862 80.3787 79.5839C80.6662 79.6635 81.3847 80.8565 81.4798 80.8974Z" fill="#2F80ED"/>
<path opacity="0.2" d="M81.4798 80.8974C81.5771 80.9361 81.6024 81.1383 81.6172 81.5428C81.6299 81.8473 81.7483 82.2927 81.3573 82.4836C81.1839 82.5584 80.9939 82.5767 80.8109 82.5363C80.6279 82.4959 80.46 82.3985 80.328 82.2564C80.0617 81.8973 79.8821 81.5746 79.5038 81.1451C79.1741 80.7656 78.8338 80.6384 78.6859 79.8794C78.5929 79.393 78.6668 79.1976 78.9712 79.0499C79.3939 78.859 80.0511 79.4862 80.3787 79.5839C80.6662 79.6635 81.3847 80.8565 81.4798 80.8974Z" fill="black"/>
<path d="M80.383 79.5771L80.328 79.5567C80.1374 79.5676 79.9528 79.6326 79.7932 79.7452C79.6336 79.8578 79.5045 80.0138 79.4192 80.1975C79.3643 80.3316 79.5355 80.4247 79.6306 80.3316C79.7215 80.1534 79.8518 80.0021 80.0099 79.8907C80.1679 79.7794 80.349 79.7115 80.5373 79.693C80.4933 79.6439 80.4409 79.6046 80.383 79.5771Z" fill="#FAFAFA"/>
<path d="M80.6535 79.8066C80.4743 79.828 80.3029 79.8975 80.1552 80.0087C80.0075 80.1199 79.8881 80.2692 79.8081 80.4429C79.7532 80.5747 79.9243 80.6702 80.0195 80.5747C80.0966 80.4202 80.2043 80.2858 80.335 80.1809C80.4658 80.0761 80.6163 80.0034 80.7761 79.968C80.7423 79.9112 80.6979 79.8566 80.6535 79.8066Z" fill="#FAFAFA"/>
<path d="M73.3388 85.7242C73.2754 86.0651 73.3896 86.2423 73.7996 86.4968C74.3377 86.7825 74.9586 86.829 75.5284 86.6264C76.2047 86.415 76.528 86.0992 76.8091 86.0219C77.0902 85.9446 77.7855 85.9401 78.0624 85.8537C78.3393 85.7674 78.335 85.6128 78.335 85.2538L73.3388 85.7242Z" fill="#455A64"/>
<path d="M78.0624 83.5222C78.0624 83.5222 78.1934 83.9539 78.2737 84.3289C78.3308 84.6289 78.4111 85.1265 78.3139 85.3515C78.2167 85.5765 77.8363 85.7219 77.2572 85.7174C76.8767 85.7174 76.2808 85.9924 75.875 86.2355C75.4661 86.453 75.0027 86.5223 74.5541 86.4332C74.0299 86.3673 73.4973 86.0401 73.4044 85.8083C73.3114 85.5765 73.2966 85.3992 74.5308 84.8334C74.5435 84.8334 75.9637 84.2653 76.5597 83.5562L78.0624 83.5222Z" fill="#2F80ED"/>
<g opacity="0.2">
<path d="M78.0624 83.5222C78.0624 83.5222 78.1934 83.9539 78.2737 84.3289C78.3308 84.6289 78.4111 85.1265 78.3139 85.3515C78.2167 85.5765 77.8363 85.7219 77.2572 85.7174C76.8767 85.7174 76.2808 85.9924 75.875 86.2355C75.4661 86.453 75.0027 86.5223 74.5541 86.4332C74.0299 86.3673 73.4973 86.0401 73.4044 85.8083C73.3114 85.5765 73.2966 85.3992 74.5308 84.8334C74.5435 84.8334 75.9637 84.2653 76.5597 83.5562L78.0624 83.5222Z" fill="black"/>
</g>
<path d="M75.689 86.3241C75.689 86.3241 75.5833 85.1879 74.7232 84.8584C73.9433 84.563 73.2649 85.1833 73.3388 85.7242C73.3896 86.0855 74.3385 86.9013 75.689 86.3241Z" fill="#FAFAFA"/>
<path d="M74.9408 84.6448C75.1602 84.6667 75.3667 84.7657 75.5284 84.9266C75.7778 85.1538 75.7841 85.2992 75.7841 85.2992C75.8032 85.3205 75.8281 85.3347 75.8552 85.3398C75.8823 85.345 75.9102 85.3409 75.9349 85.3281C75.9597 85.3153 75.9801 85.2944 75.9933 85.2684C76.0064 85.2424 76.0116 85.2127 76.0081 85.1833C76.0081 85.1833 75.9511 84.6084 75.2473 84.5016C75.1887 84.4878 75.1275 84.4942 75.0725 84.5199C75.0175 84.5456 74.9714 84.5893 74.9408 84.6448Z" fill="#FAFAFA"/>
<path d="M75.4333 84.4016C75.6539 84.4033 75.8659 84.4942 76.0272 84.6561C76.2744 84.8834 76.2765 85.0584 76.2765 85.0584C76.2957 85.0796 76.3206 85.0938 76.3476 85.099C76.3747 85.1041 76.4026 85.1 76.4274 85.0872C76.4522 85.0744 76.4726 85.0535 76.4857 85.0275C76.4988 85.0016 76.504 84.9718 76.5006 84.9425C76.5006 84.9425 76.4435 84.3675 75.7397 84.2494C75.6802 84.2364 75.6184 84.2441 75.5633 84.2715C75.5082 84.2989 75.4626 84.3445 75.4333 84.4016Z" fill="#FAFAFA"/>
<path d="M75.9215 84.0903C76.1418 84.0761 76.3591 84.1515 76.5301 84.3016C76.7922 84.5061 76.8049 84.6834 76.8049 84.6834C76.8255 84.7011 76.8506 84.7118 76.877 84.7139C76.9033 84.716 76.9297 84.7095 76.9525 84.6953C76.9754 84.681 76.9937 84.6597 77.0051 84.634C77.0164 84.6084 77.0203 84.5797 77.0162 84.5516C77.0162 84.5516 76.9211 83.9812 76.211 83.9153C76.1518 83.9087 76.0922 83.9219 76.0403 83.9533C75.9885 83.9846 75.947 84.0325 75.9215 84.0903Z" fill="#FAFAFA"/>
<path d="M81.4798 80.2452V81.0179C81.3073 81.1367 81.1079 81.2026 80.903 81.2086C80.6982 81.2147 80.4958 81.1605 80.3174 81.0519C80.2963 81.0042 80.2392 80.2452 80.2392 80.2452H81.4798Z" fill="#FFA8A7"/>
<path d="M78.0624 82.9881C78.0624 82.9881 78.0624 83.3563 78.0624 83.5653C78.0624 83.7744 77.8341 84.088 77.2381 84.0653C76.8155 84.0494 76.528 83.9267 76.5428 83.5563V83.0222L78.0624 82.9881Z" fill="#FFA8A7"/>
<path d="M82.2576 73.6868C82.2195 72.0551 81.9089 71.3393 81.9089 71.3393C81.9089 71.3393 82.023 69.3259 82.2766 66.8602C82.6591 63.1083 82.488 62.3811 81.7947 60.6904C81.7947 60.6904 75.9172 60.0518 75.7397 62.6766C75.5157 65.9467 75.4903 72.5983 75.5706 73.7527C75.6509 74.9071 75.6488 73.8413 75.9109 76.1797C76.1222 78.0295 76.5449 83.0222 76.5449 83.0222C76.7814 83.1509 77.0437 83.2151 77.3087 83.2091C77.5737 83.2032 77.8332 83.1273 78.0645 82.9881C78.0645 82.9881 78.5443 76.8796 78.4872 75.5457C78.4812 74.8612 78.4325 74.1779 78.3414 73.5004C78.3414 73.5004 79.0282 68.2305 79.1339 67.3829C79.1339 67.3829 79.229 68.9009 79.3114 70.0553C79.3939 71.2098 79.3854 72.1415 79.6116 74.5299C79.7891 76.4047 80.2181 80.452 80.2181 80.452C80.4248 80.5422 80.6482 80.58 80.8707 80.5622C81.0932 80.5445 81.3089 80.4718 81.501 80.3497C81.501 80.3497 82.2893 75.0048 82.2576 73.6868Z" fill="#455A64"/>
<path d="M78.8845 80.4338C78.8845 80.4338 78.9162 79.5248 80.0512 79.4067L80.1167 79.4453C79.9889 79.2253 79.7903 79.0635 79.5587 78.9908C79.4053 78.9308 79.2382 78.9246 79.0813 78.9732C78.9245 79.0218 78.786 79.1227 78.6859 79.2612C78.4872 79.5271 78.688 80.2589 78.8845 80.4338Z" fill="#FAFAFA"/>
<path d="M77.4368 52.2413L77.7137 54.6819L79.7088 54.4888L79.4826 51.7777L77.4368 52.2413Z" fill="#FFA8A7"/>
<path d="M81.6574 54.2706C81.446 53.6298 80.9346 52.9571 80.178 53.1094C79.9666 53.1503 79.8018 53.1798 79.6137 53.2207C79.5968 53.7843 78.6098 54.0752 77.6291 53.7343C77.3333 53.8252 77.0627 53.9184 76.8176 54.0116C76.1138 54.282 75.8327 55.5364 75.8158 57.6475C75.7989 59.7587 75.5157 63.9492 75.5157 63.9492C75.5157 63.9492 76.9951 64.7923 79.7574 64.2537C82.5197 63.7151 82.4753 62.7038 82.4753 62.7038C82.4753 62.7038 82.4203 61.4722 81.1734 59.4042C82.2322 56.3795 81.9828 55.2251 81.6574 54.2706Z" fill="#37474F"/>
<path d="M75.9532 49.1393C75.833 48.8473 75.7839 48.5272 75.8105 48.2092C75.8371 47.8911 75.9386 47.5856 76.1053 47.3213C76.7753 46.1851 78.0666 45.9965 79.5968 46.4396C80.1307 46.6157 80.6011 46.9647 80.9438 47.4389C81.2865 47.9131 81.4848 48.4895 81.5115 49.0893C81.5855 50.296 78.4555 51.1868 78.5252 52.014L75.9532 49.1393Z" fill="#263238"/>
<path d="M75.8877 49.5984C75.8877 49.5984 75.465 50.3301 75.522 50.4051C75.6271 50.4759 75.743 50.5259 75.8644 50.5528L75.8877 49.5984Z" fill="#F28F8F"/>
<path d="M77.1832 47.2782C76.7605 47.5281 76.025 47.9917 75.8771 49.7029C75.7249 51.4595 76.1011 52.0572 76.3294 52.2799C76.4837 52.4299 77.2572 52.464 77.6566 52.3186C78.1575 52.1345 79.2354 51.5232 79.7257 50.6051C80.3027 49.5234 80.3914 48.1053 79.6813 47.569C79.3219 47.2971 78.9041 47.1277 78.4672 47.0769C78.0302 47.026 77.5884 47.0952 77.1832 47.2782Z" fill="#FFA8A7"/>
<path d="M77.2043 49.3439C76.9293 49.2335 76.6874 49.0446 76.5045 48.7976C76.3217 48.5506 76.2049 48.2547 76.1666 47.9417C76.0081 46.8259 77.3016 46.351 77.3016 46.351L77.2043 49.3439Z" fill="#263238"/>
<path d="M77.0564 47.36C77.0564 47.36 76.7225 48.9689 77.198 49.9643C77.198 49.9643 77.4453 49.3348 77.9462 49.4984C78.4471 49.662 78.4259 50.3847 78.0392 50.7619C77.9414 50.8704 77.817 50.9467 77.6804 50.9821C77.5438 51.0175 77.4007 51.0105 77.2677 50.9619C77.4363 51.4172 77.6902 51.8303 78.0138 52.1754C78.0138 52.1754 79.4932 52.889 80.7909 51.3255C81.9596 49.9052 81.7419 47.4304 79.9455 46.8464C78.1491 46.2624 77.0564 47.36 77.0564 47.36Z" fill="#263238"/>
<path d="M83.2234 53.6525C82.6846 53.6525 82.1678 53.4225 81.7865 53.013C81.4053 52.6035 81.1909 52.0481 81.1903 51.4686V47.8145C81.7292 47.8145 82.246 48.0445 82.6272 48.454C83.0084 48.8635 83.2229 49.4189 83.2234 49.9983V53.6525Z" fill="#263238"/>
<path d="M81.4164 47.335C81.3726 47.3502 81.3319 47.3745 81.2968 47.4066C81.2617 47.4388 81.2329 47.478 81.2119 47.5221C81.1909 47.5662 81.1782 47.6143 81.1745 47.6637C81.1708 47.7131 81.1761 47.7628 81.1903 47.8099L81.8582 47.5827C81.8444 47.5351 81.8221 47.4909 81.7924 47.4527C81.7628 47.4145 81.7263 47.3829 81.6853 47.3599C81.6442 47.3369 81.5993 47.3228 81.5532 47.3185C81.507 47.3143 81.4606 47.3198 81.4164 47.335Z" fill="#263238"/>
<path d="M71.758 57.8793C71.4684 57.5226 71.4198 56.7431 71.0352 56.1954C70.6505 55.6477 70.7182 55.1092 70.4772 55.3523C70.2363 55.5955 70.4159 56.4886 70.4159 56.4886C70.4159 56.4886 69.9658 57.3862 69.9277 57.8521C69.8897 58.3179 71.0183 59.4633 71.0183 59.4633L71.758 57.8793Z" fill="#FFA8A7"/>
<path d="M70.473 56.4204C70.473 56.4204 70.0144 57.1022 67.9538 56.2113C67.3852 55.9614 67.7699 57.2771 68.4673 57.8225C69.114 58.327 69.9214 58.4838 70.5681 58.9588C70.5702 58.8861 70.473 56.4204 70.473 56.4204Z" fill="#FFA8A7"/>
<path d="M76.9803 53.9502C76.3949 54.1774 75.8813 54.4229 75.3318 55.5296C74.628 56.9522 73.3494 59.7382 73.3494 59.7382L71.758 57.8793C71.758 57.8793 71.5255 57.5271 71.0944 58.2952C70.6632 59.0633 70.8534 59.2746 70.8534 59.2746C70.8534 59.2746 72.709 61.9471 73.0493 62.2857C73.3896 62.6243 73.9496 62.363 74.3174 61.8312C74.6851 61.2994 76.5703 57.6203 76.5703 57.6203C76.5703 57.6203 77.8109 55.291 76.9803 53.9502Z" fill="#FFA8A7"/>
<path d="M77.2656 53.8479C76.8918 53.8831 76.5322 54.0187 76.2198 54.2422C75.9073 54.4658 75.6522 54.7701 75.4776 55.1273C74.776 56.4908 74.0363 58.0293 74.0363 58.0293C74.0363 58.0293 74.5456 59.3496 75.8412 59.4496C75.8412 59.3133 76.8979 57.2908 77.3016 56.4249C77.7052 55.5591 77.6629 54.2365 77.2656 53.8479Z" fill="#2F80ED"/>
<path d="M79.1382 67.3875L79.2502 66.1103C79.8893 66.0082 80.5005 65.7594 81.0424 65.3808C81.0424 65.3808 80.6598 66.0376 79.6137 66.3376L79.377 67.5852L79.3157 70.0622L79.1382 67.3875Z" fill="#37474F"/>
</svg>
