<svg width="100" height="100" viewBox="0 0 100 100" fill="none" xmlns="http://www.w3.org/2000/svg">
<path d="M91.7129 85.7435H3.52951V90.4514H91.7129V85.7435Z" fill="#2F80ED"/>
<path opacity="0.5" d="M91.7129 85.7435H3.52951V90.4514H91.7129V85.7435Z" fill="white"/>
<path d="M24.325 35.1069C23.8936 35.29 23.4702 35.5031 23.0565 35.7454C23.2826 35.5306 23.5087 35.307 23.7348 35.0804C24.7415 34.0268 25.6996 32.8969 26.6042 31.6966C25.5427 33.0384 24.4093 34.2803 23.2125 35.4129C23.3775 35.0399 23.5225 34.6525 23.6466 34.2536C23.8727 33.5209 23.9134 32.7824 23.3776 32.391C22.715 31.9085 21.9146 32.6293 22.1249 33.8622C22.2532 34.5505 22.5033 35.1904 22.8552 35.7307C22.0742 36.4343 21.2584 37.0702 20.4132 37.6344L20.3341 37.6874C20.5128 37.2847 20.6706 36.8669 20.8067 36.4369C21.0192 35.7071 21.0735 34.9657 20.5353 34.5772C19.8728 34.0917 19.0724 34.8156 19.2849 36.0485C19.4111 36.7275 19.6556 37.3598 19.9994 37.8963C18.9842 38.5466 17.9351 39.0998 16.8904 39.7L16.7389 39.7883C16.9428 39.5034 17.1324 39.2016 17.3065 38.885C17.6456 38.2376 17.8288 37.5373 17.3766 36.993C16.8203 36.3221 15.9091 36.7811 15.8955 38.0523C15.8961 38.7538 16.0215 39.4457 16.2618 40.0737C15.2843 40.6681 14.3555 41.3897 13.4897 42.2276L13.4626 42.257C13.5797 42.0155 13.6869 41.766 13.7837 41.5096C14.0392 40.8005 14.1341 40.0708 13.6186 39.6265C13.5138 39.5327 13.3941 39.4711 13.2684 39.4462C13.1427 39.4214 13.0143 39.4339 12.8929 39.4829C12.7715 39.5319 12.6601 39.6161 12.5673 39.7291C12.4745 39.8421 12.4025 39.9811 12.3569 40.1355C12.2889 39.9975 12.1967 39.8825 12.0878 39.8001C11.57 39.4117 11.0613 39.8325 10.6249 40.4268C10.5118 40.5828 10.3988 40.7505 10.3015 40.9153C10.6382 39.6994 11.0613 38.5272 11.5655 37.4138C12.0456 37.6867 12.5633 37.8298 13.0872 37.8345C14.1183 37.8345 14.5524 36.7164 14.0459 36.022C13.6344 35.46 13.0556 35.6748 12.5084 36.0867C12.3282 36.2234 12.1538 36.3727 11.9861 36.534C12.5102 35.5066 13.1051 34.5434 13.7633 33.6563C14.1946 34.1103 14.6958 34.4384 15.233 34.6184C16.2347 34.9392 16.8633 33.9946 16.5015 33.1619C16.2076 32.4852 15.5971 32.5117 14.9979 32.7382C14.7111 32.8499 14.4301 32.9855 14.1567 33.1443C14.4303 32.7971 14.713 32.4646 15.0001 32.135C15.3755 31.7172 15.7644 31.3141 16.1601 30.9198C16.5855 31.3616 17.0779 31.6815 17.6049 31.8584C18.6066 32.1792 19.2352 31.2346 18.8734 30.4019C18.5795 29.7252 17.969 29.7516 17.3675 29.9782C17.2273 30.0312 17.0849 30.0959 16.9469 30.1636C17.4693 29.6781 17.9984 29.2043 18.5297 28.7336L19.0204 28.2951C19.4625 28.7771 19.9816 29.1249 20.5399 29.3132C21.5415 29.6339 22.1724 28.6894 21.8106 27.8567C21.5144 27.1799 20.9062 27.2064 20.3047 27.433C20.068 27.5272 19.8351 27.636 19.606 27.7596L19.909 27.4654C20.0944 27.2918 20.2798 27.1152 20.4607 26.9298C20.6868 26.7092 20.9016 26.4649 21.121 26.2295C21.2476 26.1001 21.3674 25.9618 21.4873 25.8205C21.9312 26.3076 22.4536 26.6586 23.0158 26.8474C24.0175 27.1682 24.646 26.2237 24.2843 25.3909C23.9903 24.7142 23.3798 24.7407 22.7806 24.9672C22.4446 25.1023 22.1153 25.2645 21.7948 25.4527C22.204 24.9584 22.5997 24.4435 22.9751 23.9079C22.9999 23.8697 23.0226 23.8314 23.0497 23.7961C23.2102 23.5637 23.3685 23.3283 23.5223 23.0841C23.676 22.8398 23.875 22.5191 24.0423 22.2249C24.7294 21.0512 25.295 19.7651 25.7246 18.3997C25.2744 19.7489 24.6898 21.0152 23.9858 22.166C23.2895 23.3216 22.5121 24.3904 21.6636 25.3586L21.5709 25.4616C21.7637 25.0344 21.9344 24.5911 22.0819 24.1345C22.2967 23.4048 22.3487 22.6633 21.8106 22.2749C21.1504 21.7894 20.3477 22.5132 20.5602 23.7461C20.6967 24.4762 20.9693 25.1512 21.3539 25.7117L21.1549 25.9353L20.9288 26.1883C20.7976 26.3266 20.662 26.459 20.5263 26.5915C20.4539 26.6621 20.3838 26.7356 20.3002 26.8063C20.108 26.9916 19.9135 27.1711 19.7168 27.3477L19.4342 27.5978L19.1131 27.892C19.3008 27.4752 19.4655 27.0416 19.606 26.5944C19.8208 25.8617 19.8728 25.1232 19.3369 24.7348C18.6744 24.2493 17.8717 24.9731 18.0843 26.206C18.2154 26.9142 18.4751 27.5711 18.8418 28.1215L18.6157 28.3216L17.7361 29.0719L17.562 29.2191L17.0713 29.6457L16.8588 29.8311C16.6327 30.0341 16.4065 30.2401 16.1804 30.4519C16.3621 30.0285 16.5208 29.589 16.6553 29.1367C16.8814 28.4069 16.9221 27.6654 16.3862 27.277C15.7237 26.7915 14.9233 27.5154 15.1358 28.7483C15.2686 29.4659 15.5341 30.1306 15.9091 30.6844C15.5247 31.0522 15.1448 31.4288 14.7785 31.8231C14.5095 32.1174 14.2449 32.4116 13.9849 32.7294C14.0982 32.4567 14.1993 32.1757 14.2879 31.8879C14.5004 31.1552 14.5547 30.4166 14.0165 30.0282C13.354 29.5427 12.5536 30.2666 12.7662 31.4995C12.8923 32.1785 13.1368 32.8108 13.4807 33.3473C12.7483 34.2943 12.0887 35.332 11.5112 36.4457C11.5768 36.1245 11.6266 35.7982 11.6605 35.4688C11.7328 34.692 11.6469 33.9623 11.0522 33.7504C10.3196 33.4885 9.67747 34.4419 10.1139 35.5777C10.3649 36.2029 10.724 36.7438 11.163 37.1578C10.5934 38.3684 10.1178 39.6498 9.74304 40.9829C9.73326 40.7041 9.71213 40.4262 9.67973 40.1502C9.57798 39.3764 9.3383 38.7084 8.72102 38.7232C7.96129 38.7437 7.55202 39.9001 8.21905 40.8241C8.57478 41.3067 9.00896 41.6797 9.4898 41.9157C9.23264 42.9449 9.02349 43.9933 8.86347 45.0553C8.83634 45.223 8.81599 45.3907 8.79111 45.5584C8.76398 45.5908 8.73685 45.6232 8.71198 45.6585C8.68484 45.5143 8.65319 45.3642 8.61701 45.226C8.42707 44.4845 8.11052 43.8695 7.50228 44.0107C6.75611 44.1814 6.48704 45.3996 7.25582 46.1852C7.64653 46.5733 8.09691 46.8473 8.57631 46.9885C8.57631 47.0179 8.5944 47.0444 8.6057 47.0738C8.52204 47.8712 8.45873 48.6745 8.42029 49.4807C8.3909 50.0692 8.37507 50.6842 8.36602 51.2874C7.71935 51.2874 7.2626 52.2113 7.70804 53.2118C7.89601 53.6266 8.13686 53.9967 8.42029 54.3063C8.47456 55.4392 8.56048 56.572 8.6758 57.696C8.58436 57.586 8.47246 57.5088 8.35113 57.4722C8.2298 57.4356 8.10323 57.4407 7.9839 57.4871C7.5769 57.6313 7.39375 58.058 7.32817 58.5817C7.18334 58.7767 7.10229 59.0373 7.10206 59.3085C6.79907 58.72 6.51191 58.1315 6.2338 57.5107C6.65835 57.0871 7.01029 56.553 7.26713 55.9423C7.75326 54.7654 7.20381 53.7326 6.49608 53.9827C5.91724 54.1886 5.79062 54.9537 5.81775 55.7746C5.82679 56.086 5.84944 56.3964 5.88558 56.7044L5.58712 56.0218C5.3384 55.4333 5.13489 54.8448 4.89069 54.2563C4.83191 54.1121 4.7799 53.9621 4.73242 53.8149C5.20878 53.5026 5.62999 53.0647 5.96924 52.5291C6.61818 51.4875 6.22701 50.3429 5.49441 50.4164C4.89748 50.4782 4.66006 51.1991 4.56057 52.0112C4.5218 52.3653 4.49765 52.7219 4.48822 53.0793L4.27567 52.4408C3.82298 50.9923 3.45046 49.5036 3.16094 47.986C3.70014 47.7373 4.18989 47.3352 4.59449 46.809C5.32031 45.8527 5.01958 44.6669 4.28472 44.6434C3.68778 44.6257 3.3961 45.3113 3.2333 46.1146C3.15351 46.541 3.09385 46.9734 3.05467 47.4092C2.89639 46.5383 2.76073 45.6556 2.64767 44.761C2.57079 44.2138 2.52105 43.6576 2.46904 43.1045C3.0486 42.955 3.59447 42.636 4.06539 42.1717C4.87939 41.3478 4.70076 40.112 3.97268 39.9737C3.38253 39.8531 3.02528 40.4857 2.7856 41.2478C2.64527 41.7284 2.52748 42.2198 2.43286 42.719C2.38764 42.0775 2.33564 41.4331 2.31303 40.7887C2.24519 39.4583 2.24519 38.1234 2.31303 36.7929C2.20981 38.1223 2.17431 39.4591 2.20675 40.7946C2.20675 41.4096 2.24745 42.0216 2.27685 42.6366C2.14767 42.2185 1.99658 41.8125 1.82463 41.4214C1.51711 40.7476 1.10559 40.2444 0.53579 40.5386C-0.167416 40.9153 -0.228466 42.1805 0.653368 42.7337C1.17058 43.0429 1.73793 43.1833 2.30624 43.1427C2.34694 43.6929 2.38312 44.2402 2.44643 44.7846C2.53461 45.6673 2.64767 46.5147 2.78108 47.371C2.63638 47.0429 2.4755 46.7274 2.29946 46.4265C1.92637 45.8115 1.46963 45.376 0.94279 45.7733C0.284807 46.2646 0.348118 47.5387 1.27744 47.9301C1.8033 48.1427 2.36026 48.1911 2.90318 48.0713C3.16115 49.6055 3.50037 51.1147 3.91842 52.588L4.05182 53.0293C3.93219 52.8232 3.80307 52.6266 3.66517 52.4408C3.24687 51.8759 2.76073 51.5022 2.2565 51.97C1.63921 52.5585 1.80428 53.7943 2.75394 54.0709C3.27806 54.209 3.81952 54.1889 4.33672 54.0121C4.3842 54.1622 4.43169 54.3063 4.48822 54.4593C4.71433 55.0655 4.91557 55.6863 5.15298 56.2807L5.3497 56.7956C5.23212 56.6632 5.11002 56.5367 4.9834 56.419C4.49048 55.9688 3.95685 55.7217 3.53177 56.3013C3.00719 57.0163 3.34635 58.2051 4.32315 58.2433C4.83169 58.2588 5.33658 58.1281 5.80192 57.8608C6.0823 58.5199 6.36946 59.1702 6.6815 59.8087C6.79681 60.0529 6.90761 60.2942 7.03875 60.5355C6.86137 60.3244 6.67409 60.1279 6.478 59.947C5.98507 59.4968 5.45145 59.2496 5.0241 59.8293C4.50178 60.5443 4.84095 61.7331 5.81775 61.7713C6.37604 61.7801 6.9279 61.6156 7.42766 61.2917C7.59046 61.5859 7.75779 61.8802 7.92963 62.1744C7.56559 62.7247 7.68543 63.6456 8.42481 64.0664C8.78392 64.2612 9.16667 64.3718 9.55537 64.393C9.60059 64.4401 9.64582 64.4872 9.69556 64.5313L9.71817 64.5549C10.1855 66.8264 10.7394 69.0647 11.3801 71.2695C11.6514 72.2082 11.9431 73.138 12.2438 74.0619H9.5305V87.9855H17.822V74.0501H13.4083C13.0307 72.9761 12.6667 71.8904 12.3275 70.7929C11.7735 68.9921 11.2716 67.1619 10.8352 65.3052C10.9094 65.3336 10.9849 65.3562 11.0613 65.3729C11.1617 65.3994 11.2647 65.4053 11.3665 65.3905L11.2489 64.4225H11.1698C11.1226 64.4138 11.0759 64.402 11.0296 64.3871C10.9252 64.3482 10.8231 64.299 10.7244 64.24L10.6068 64.1694C11.0432 63.9715 11.4484 63.6725 11.8029 63.2867C12.5875 62.4039 12.3659 61.1975 11.6333 61.0946C11.0409 61.0092 10.7063 61.6624 10.5028 62.4363C10.4417 62.657 10.392 62.8865 10.349 63.1101C10.3061 62.9042 10.2631 62.6982 10.2224 62.4922C10.1026 61.8831 9.99629 61.2682 9.88775 60.6532C10.3613 60.461 10.8015 60.1501 11.1834 59.7381C11.968 58.8554 11.7441 57.6519 11.0138 57.5489C10.4191 57.4636 10.0867 58.1168 9.88323 58.8907C9.82218 59.1143 9.77018 59.3467 9.72495 59.5763C9.65712 59.129 9.59155 58.6788 9.5305 58.2286C9.48754 57.8961 9.44684 57.5607 9.4084 57.2252C9.39483 56.7486 9.38805 56.2719 9.39257 55.7923C9.39257 55.5304 9.39257 55.2685 9.41066 55.0066C9.85397 55.1889 10.3189 55.2657 10.7832 55.2332C11.8142 55.1449 12.1941 53.9974 11.6559 53.3471C11.2173 52.8145 10.6497 53.0793 10.1229 53.5325C9.88665 53.7414 9.66014 53.9683 9.44458 54.2122C9.50807 53.0923 9.63886 51.9806 9.83575 50.8872C9.95113 50.2432 10.0953 49.6085 10.2676 48.9864C10.7404 49.1985 11.2403 49.2894 11.7396 49.2542C12.7707 49.1688 13.1505 48.0213 12.6124 47.368C12.176 46.8384 11.6062 47.1003 11.0794 47.5564C10.8955 47.7208 10.7188 47.8986 10.5503 48.089C10.7491 47.4803 10.9803 46.8903 11.2422 46.3235C11.7615 45.1798 12.4128 44.1468 13.1732 43.2604C13.5672 43.7334 14.0333 44.0933 14.5411 44.3167C15.5224 44.7346 16.203 43.8518 15.8978 42.9868C15.6423 42.2835 15.0408 42.2511 14.4213 42.4189C14.1825 42.4852 13.947 42.5697 13.7158 42.6719L13.7316 42.6543C14.5754 41.7975 15.4846 41.0561 16.445 40.4415C16.7838 41.0188 17.2141 41.4945 17.7067 41.8363C18.6247 42.4512 19.4048 41.7215 19.2013 40.8035C19.0362 40.0561 18.4461 39.9001 17.8152 39.9207C17.5674 39.9382 17.3206 39.9736 17.0758 40.0267C18.0956 39.3999 19.1357 38.8085 20.1396 38.117H20.1623C20.6117 38.6219 21.145 38.9845 21.7202 39.1763C22.7218 39.5 23.3504 38.5525 22.9886 37.7051C22.6947 37.0283 22.0842 37.0577 21.485 37.2814C21.3154 37.3461 21.1458 37.4255 20.9808 37.5079C21.6512 37.0008 22.301 36.4489 22.9276 35.8543L22.9796 35.9278V35.8896C23.4335 36.399 23.9711 36.7664 24.5511 36.9636C25.5505 37.2843 26.1813 36.3398 25.8196 35.4923C25.5347 34.8538 24.9332 34.8803 24.325 35.1069ZM8.51526 61.7684C8.3095 61.4565 8.11504 61.1299 7.92511 60.8003C7.97033 60.7473 8.02007 60.6885 8.06982 60.6238C8.35237 60.7383 8.64481 60.8065 8.94035 60.8268V60.8886L9.07828 60.8503C9.15063 61.3152 9.22525 61.7772 9.30439 62.2392C9.2125 62.0826 9.0925 61.9579 8.95491 61.8758C8.81732 61.7937 8.66636 61.7568 8.51526 61.7684ZM9.25238 50.6901C9.18229 51.0373 9.1235 51.3845 9.06697 51.7346L9.03305 51.6728C9.03305 50.9549 9.04134 50.2389 9.05793 49.5249C9.07375 49.0247 9.10089 48.5274 9.1348 48.0272C9.32084 48.2738 9.52536 48.4956 9.74531 48.6892C9.55393 49.3441 9.39013 50.012 9.25464 50.6901H9.25238ZM10.1794 47.3945C10.193 47.2651 10.2043 47.1327 10.2088 47.0032V46.806C10.2902 46.7737 10.3739 46.7354 10.4553 46.6913C10.3649 46.9237 10.2699 47.1591 10.1817 47.3945H10.1794ZM11.3575 44.9082C11.3184 44.7918 11.2616 44.6869 11.1905 44.5999C11.1193 44.5129 11.0354 44.4456 10.9437 44.4021C10.3852 44.1078 9.93298 44.6375 9.57346 45.3142L9.55537 45.3466H9.51919C9.48128 45.3354 9.4427 45.3285 9.40388 45.326C9.4012 45.2847 9.40664 45.2432 9.4197 45.2054C9.56286 44.1424 9.75618 43.0919 9.99855 42.0599C10.5176 42.1456 11.0447 42.0926 11.5474 41.9039C11.858 41.7978 12.1282 41.5477 12.3071 41.2007C12.4067 41.794 12.5966 42.3553 12.8656 42.8514C12.3094 43.4671 11.8046 44.1575 11.3597 44.9111L11.3575 44.9082Z" fill="#2F80ED"/>
<path opacity="0.3" d="M24.325 35.1069C23.8936 35.29 23.4702 35.5031 23.0565 35.7454C23.2826 35.5306 23.5087 35.307 23.7348 35.0804C24.7415 34.0268 25.6996 32.8969 26.6042 31.6966C25.5427 33.0384 24.4093 34.2803 23.2125 35.4129C23.3775 35.0399 23.5225 34.6525 23.6466 34.2536C23.8727 33.5209 23.9134 32.7824 23.3776 32.391C22.715 31.9085 21.9146 32.6293 22.1249 33.8622C22.2532 34.5505 22.5033 35.1904 22.8552 35.7307C22.0742 36.4343 21.2584 37.0702 20.4132 37.6344L20.3341 37.6874C20.5128 37.2847 20.6706 36.8669 20.8067 36.4369C21.0192 35.7071 21.0735 34.9657 20.5353 34.5772C19.8728 34.0917 19.0724 34.8156 19.2849 36.0485C19.4111 36.7275 19.6556 37.3598 19.9994 37.8963C18.9842 38.5466 17.9351 39.0998 16.8904 39.7L16.7389 39.7883C16.9428 39.5034 17.1324 39.2016 17.3065 38.885C17.6456 38.2376 17.8288 37.5373 17.3766 36.993C16.8203 36.3221 15.9091 36.7811 15.8955 38.0523C15.8961 38.7538 16.0215 39.4457 16.2618 40.0737C15.2843 40.6681 14.3555 41.3897 13.4897 42.2276L13.4626 42.257C13.5797 42.0155 13.6869 41.766 13.7837 41.5096C14.0392 40.8005 14.1341 40.0708 13.6186 39.6265C13.5138 39.5327 13.3941 39.4711 13.2684 39.4462C13.1427 39.4214 13.0143 39.4339 12.8929 39.4829C12.7715 39.5319 12.6601 39.6161 12.5673 39.7291C12.4745 39.8421 12.4025 39.9811 12.3569 40.1355C12.2889 39.9975 12.1967 39.8825 12.0878 39.8001C11.57 39.4117 11.0613 39.8325 10.6249 40.4268C10.5118 40.5828 10.3988 40.7505 10.3015 40.9153C10.6382 39.6994 11.0613 38.5272 11.5655 37.4138C12.0456 37.6867 12.5633 37.8298 13.0872 37.8345C14.1183 37.8345 14.5524 36.7164 14.0459 36.022C13.6344 35.46 13.0556 35.6748 12.5084 36.0867C12.3282 36.2234 12.1538 36.3727 11.9861 36.534C12.5102 35.5066 13.1051 34.5434 13.7633 33.6563C14.1946 34.1103 14.6958 34.4384 15.233 34.6184C16.2347 34.9392 16.8633 33.9946 16.5015 33.1619C16.2076 32.4852 15.5971 32.5117 14.9979 32.7382C14.7111 32.8499 14.4301 32.9855 14.1567 33.1443C14.4303 32.7971 14.713 32.4646 15.0001 32.135C15.3755 31.7172 15.7644 31.3141 16.1601 30.9198C16.5855 31.3616 17.0779 31.6815 17.6049 31.8584C18.6066 32.1792 19.2352 31.2346 18.8734 30.4019C18.5795 29.7252 17.969 29.7516 17.3675 29.9782C17.2273 30.0312 17.0849 30.0959 16.9469 30.1636C17.4693 29.6781 17.9984 29.2043 18.5297 28.7336L19.0204 28.2951C19.4625 28.7771 19.9816 29.1249 20.5399 29.3132C21.5415 29.6339 22.1724 28.6894 21.8106 27.8567C21.5144 27.1799 20.9062 27.2064 20.3047 27.433C20.068 27.5272 19.8351 27.636 19.606 27.7596L19.909 27.4654C20.0944 27.2918 20.2798 27.1152 20.4607 26.9298C20.6868 26.7092 20.9016 26.4649 21.121 26.2295C21.2476 26.1001 21.3674 25.9618 21.4873 25.8205C21.9312 26.3076 22.4536 26.6586 23.0158 26.8474C24.0175 27.1682 24.646 26.2237 24.2843 25.3909C23.9903 24.7142 23.3798 24.7407 22.7806 24.9672C22.4446 25.1023 22.1153 25.2645 21.7948 25.4527C22.204 24.9584 22.5997 24.4435 22.9751 23.9079C22.9999 23.8697 23.0226 23.8314 23.0497 23.7961C23.2102 23.5637 23.3685 23.3283 23.5223 23.0841C23.676 22.8398 23.875 22.5191 24.0423 22.2249C24.7294 21.0512 25.295 19.7651 25.7246 18.3997C25.2744 19.7489 24.6898 21.0152 23.9858 22.166C23.2895 23.3216 22.5121 24.3904 21.6636 25.3586L21.5709 25.4616C21.7637 25.0344 21.9344 24.5911 22.0819 24.1345C22.2967 23.4048 22.3487 22.6633 21.8106 22.2749C21.1504 21.7894 20.3477 22.5132 20.5602 23.7461C20.6967 24.4762 20.9693 25.1512 21.3539 25.7117L21.1549 25.9353L20.9288 26.1883C20.7976 26.3266 20.662 26.459 20.5263 26.5915C20.4539 26.6621 20.3838 26.7356 20.3002 26.8063C20.108 26.9916 19.9135 27.1711 19.7168 27.3477L19.4342 27.5978L19.1131 27.892C19.3008 27.4752 19.4655 27.0416 19.606 26.5944C19.8208 25.8617 19.8728 25.1232 19.3369 24.7348C18.6744 24.2493 17.8717 24.9731 18.0843 26.206C18.2154 26.9142 18.4751 27.5711 18.8418 28.1215L18.6157 28.3216L17.7361 29.0719L17.562 29.2191L17.0713 29.6457L16.8588 29.8311C16.6327 30.0341 16.4065 30.2401 16.1804 30.4519C16.3621 30.0285 16.5208 29.589 16.6553 29.1367C16.8814 28.4069 16.9221 27.6654 16.3862 27.277C15.7237 26.7915 14.9233 27.5154 15.1358 28.7483C15.2686 29.4659 15.5341 30.1306 15.9091 30.6844C15.5247 31.0522 15.1448 31.4288 14.7785 31.8231C14.5095 32.1174 14.2449 32.4116 13.9849 32.7294C14.0982 32.4567 14.1993 32.1757 14.2879 31.8879C14.5004 31.1552 14.5547 30.4166 14.0165 30.0282C13.354 29.5427 12.5536 30.2666 12.7662 31.4995C12.8923 32.1785 13.1368 32.8108 13.4807 33.3473C12.7483 34.2943 12.0887 35.332 11.5112 36.4457C11.5768 36.1245 11.6266 35.7982 11.6605 35.4688C11.7328 34.692 11.6469 33.9623 11.0522 33.7504C10.3196 33.4885 9.67747 34.4419 10.1139 35.5777C10.3649 36.2029 10.724 36.7438 11.163 37.1578C10.5934 38.3684 10.1178 39.6498 9.74304 40.9829C9.73326 40.7041 9.71213 40.4262 9.67973 40.1502C9.57798 39.3764 9.3383 38.7084 8.72102 38.7232C7.96129 38.7437 7.55202 39.9001 8.21905 40.8241C8.57478 41.3067 9.00896 41.6797 9.4898 41.9157C9.23264 42.9449 9.02349 43.9933 8.86347 45.0553C8.83634 45.223 8.81599 45.3907 8.79111 45.5584C8.76398 45.5908 8.73685 45.6232 8.71198 45.6585C8.68484 45.5143 8.65319 45.3642 8.61701 45.226C8.42707 44.4845 8.11052 43.8695 7.50228 44.0107C6.75611 44.1814 6.48704 45.3996 7.25582 46.1852C7.64653 46.5733 8.09691 46.8473 8.57631 46.9885C8.57631 47.0179 8.5944 47.0444 8.6057 47.0738C8.52204 47.8712 8.45873 48.6745 8.42029 49.4807C8.3909 50.0692 8.37507 50.6842 8.36602 51.2874C7.71935 51.2874 7.2626 52.2113 7.70804 53.2118C7.89601 53.6266 8.13686 53.9967 8.42029 54.3063C8.47456 55.4392 8.56048 56.572 8.6758 57.696C8.58436 57.586 8.47246 57.5088 8.35113 57.4722C8.2298 57.4356 8.10323 57.4407 7.9839 57.4871C7.5769 57.6313 7.39375 58.058 7.32817 58.5817C7.18334 58.7767 7.10229 59.0373 7.10206 59.3085C6.79907 58.72 6.51191 58.1315 6.2338 57.5107C6.65835 57.0871 7.01029 56.553 7.26713 55.9423C7.75326 54.7654 7.20381 53.7326 6.49608 53.9827C5.91724 54.1886 5.79062 54.9537 5.81775 55.7746C5.82679 56.086 5.84944 56.3964 5.88558 56.7044L5.58712 56.0218C5.3384 55.4333 5.13489 54.8448 4.89069 54.2563C4.83191 54.1121 4.7799 53.9621 4.73242 53.8149C5.20878 53.5026 5.62999 53.0647 5.96924 52.5291C6.61818 51.4875 6.22701 50.3429 5.49441 50.4164C4.89748 50.4782 4.66006 51.1991 4.56057 52.0112C4.5218 52.3653 4.49765 52.7219 4.48822 53.0793L4.27567 52.4408C3.82298 50.9923 3.45046 49.5036 3.16094 47.986C3.70014 47.7373 4.18989 47.3352 4.59449 46.809C5.32031 45.8527 5.01958 44.6669 4.28472 44.6434C3.68778 44.6257 3.3961 45.3113 3.2333 46.1146C3.15351 46.541 3.09385 46.9734 3.05467 47.4092C2.89639 46.5383 2.76073 45.6556 2.64767 44.761C2.57079 44.2138 2.52105 43.6576 2.46904 43.1045C3.0486 42.955 3.59447 42.636 4.06539 42.1717C4.87939 41.3478 4.70076 40.112 3.97268 39.9737C3.38253 39.8531 3.02528 40.4857 2.7856 41.2478C2.64527 41.7284 2.52748 42.2198 2.43286 42.719C2.38764 42.0775 2.33564 41.4331 2.31303 40.7887C2.24519 39.4583 2.24519 38.1234 2.31303 36.7929C2.20981 38.1223 2.17431 39.4591 2.20675 40.7946C2.20675 41.4096 2.24745 42.0216 2.27685 42.6366C2.14767 42.2185 1.99658 41.8125 1.82463 41.4214C1.51711 40.7476 1.10559 40.2444 0.53579 40.5386C-0.167416 40.9153 -0.228466 42.1805 0.653368 42.7337C1.17058 43.0429 1.73793 43.1833 2.30624 43.1427C2.34694 43.6929 2.38312 44.2402 2.44643 44.7846C2.53461 45.6673 2.64767 46.5147 2.78108 47.371C2.63638 47.0429 2.4755 46.7274 2.29946 46.4265C1.92637 45.8115 1.46963 45.376 0.94279 45.7733C0.284807 46.2646 0.348118 47.5387 1.27744 47.9301C1.8033 48.1427 2.36026 48.1911 2.90318 48.0713C3.16115 49.6055 3.50037 51.1147 3.91842 52.588L4.05182 53.0293C3.93219 52.8232 3.80307 52.6266 3.66517 52.4408C3.24687 51.8759 2.76073 51.5022 2.2565 51.97C1.63921 52.5585 1.80428 53.7943 2.75394 54.0709C3.27806 54.209 3.81952 54.1889 4.33672 54.0121C4.3842 54.1622 4.43169 54.3063 4.48822 54.4593C4.71433 55.0655 4.91557 55.6863 5.15298 56.2807L5.3497 56.7956C5.23212 56.6632 5.11002 56.5367 4.9834 56.419C4.49048 55.9688 3.95685 55.7217 3.53177 56.3013C3.00719 57.0163 3.34635 58.2051 4.32315 58.2433C4.83169 58.2588 5.33658 58.1281 5.80192 57.8608C6.0823 58.5199 6.36946 59.1702 6.6815 59.8087C6.79681 60.0529 6.90761 60.2942 7.03875 60.5355C6.86137 60.3244 6.67409 60.1279 6.478 59.947C5.98507 59.4968 5.45145 59.2496 5.0241 59.8293C4.50178 60.5443 4.84095 61.7331 5.81775 61.7713C6.37604 61.7801 6.9279 61.6156 7.42766 61.2917C7.59046 61.5859 7.75779 61.8802 7.92963 62.1744C7.56559 62.7247 7.68543 63.6456 8.42481 64.0664C8.78392 64.2612 9.16667 64.3718 9.55537 64.393C9.60059 64.4401 9.64582 64.4872 9.69556 64.5313L9.71817 64.5549C10.1855 66.8264 10.7394 69.0647 11.3801 71.2695C11.6514 72.2082 11.9431 73.138 12.2438 74.0619H9.5305V87.9855H17.822V74.0501H13.4083C13.0307 72.9761 12.6667 71.8904 12.3275 70.7929C11.7735 68.9921 11.2716 67.1619 10.8352 65.3052C10.9094 65.3336 10.9849 65.3562 11.0613 65.3729C11.1617 65.3994 11.2647 65.4053 11.3665 65.3905L11.2489 64.4225H11.1698C11.1226 64.4138 11.0759 64.402 11.0296 64.3871C10.9252 64.3482 10.8231 64.299 10.7244 64.24L10.6068 64.1694C11.0432 63.9715 11.4484 63.6725 11.8029 63.2867C12.5875 62.4039 12.3659 61.1975 11.6333 61.0946C11.0409 61.0092 10.7063 61.6624 10.5028 62.4363C10.4417 62.657 10.392 62.8865 10.349 63.1101C10.3061 62.9042 10.2631 62.6982 10.2224 62.4922C10.1026 61.8831 9.99629 61.2682 9.88775 60.6532C10.3613 60.461 10.8015 60.1501 11.1834 59.7381C11.968 58.8554 11.7441 57.6519 11.0138 57.5489C10.4191 57.4636 10.0867 58.1168 9.88323 58.8907C9.82218 59.1143 9.77018 59.3467 9.72495 59.5763C9.65712 59.129 9.59155 58.6788 9.5305 58.2286C9.48754 57.8961 9.44684 57.5607 9.4084 57.2252C9.39483 56.7486 9.38805 56.2719 9.39257 55.7923C9.39257 55.5304 9.39257 55.2685 9.41066 55.0066C9.85397 55.1889 10.3189 55.2657 10.7832 55.2332C11.8142 55.1449 12.1941 53.9974 11.6559 53.3471C11.2173 52.8145 10.6497 53.0793 10.1229 53.5325C9.88665 53.7414 9.66014 53.9683 9.44458 54.2122C9.50807 53.0923 9.63886 51.9806 9.83575 50.8872C9.95113 50.2432 10.0953 49.6085 10.2676 48.9864C10.7404 49.1985 11.2403 49.2894 11.7396 49.2542C12.7707 49.1688 13.1505 48.0213 12.6124 47.368C12.176 46.8384 11.6062 47.1003 11.0794 47.5564C10.8955 47.7208 10.7188 47.8986 10.5503 48.089C10.7491 47.4803 10.9803 46.8903 11.2422 46.3235C11.7615 45.1798 12.4128 44.1468 13.1732 43.2604C13.5672 43.7334 14.0333 44.0933 14.5411 44.3167C15.5224 44.7346 16.203 43.8518 15.8978 42.9868C15.6423 42.2835 15.0408 42.2511 14.4213 42.4189C14.1825 42.4852 13.947 42.5697 13.7158 42.6719L13.7316 42.6543C14.5754 41.7975 15.4846 41.0561 16.445 40.4415C16.7838 41.0188 17.2141 41.4945 17.7067 41.8363C18.6247 42.4512 19.4048 41.7215 19.2013 40.8035C19.0362 40.0561 18.4461 39.9001 17.8152 39.9207C17.5674 39.9382 17.3206 39.9736 17.0758 40.0267C18.0956 39.3999 19.1357 38.8085 20.1396 38.117H20.1623C20.6117 38.6219 21.145 38.9845 21.7202 39.1763C22.7218 39.5 23.3504 38.5525 22.9886 37.7051C22.6947 37.0283 22.0842 37.0577 21.485 37.2814C21.3154 37.3461 21.1458 37.4255 20.9808 37.5079C21.6512 37.0008 22.301 36.4489 22.9276 35.8543L22.9796 35.9278V35.8896C23.4335 36.399 23.9711 36.7664 24.5511 36.9636C25.5505 37.2843 26.1813 36.3398 25.8196 35.4923C25.5347 34.8538 24.9332 34.8803 24.325 35.1069ZM8.51526 61.7684C8.3095 61.4565 8.11504 61.1299 7.92511 60.8003C7.97033 60.7473 8.02007 60.6885 8.06982 60.6238C8.35237 60.7383 8.64481 60.8065 8.94035 60.8268V60.8886L9.07828 60.8503C9.15063 61.3152 9.22525 61.7772 9.30439 62.2392C9.2125 62.0826 9.0925 61.9579 8.95491 61.8758C8.81732 61.7937 8.66636 61.7568 8.51526 61.7684ZM9.25238 50.6901C9.18229 51.0373 9.1235 51.3845 9.06697 51.7346L9.03305 51.6728C9.03305 50.9549 9.04134 50.2389 9.05793 49.5249C9.07375 49.0247 9.10089 48.5274 9.1348 48.0272C9.32084 48.2738 9.52536 48.4956 9.74531 48.6892C9.55393 49.3441 9.39013 50.012 9.25464 50.6901H9.25238ZM10.1794 47.3945C10.193 47.2651 10.2043 47.1327 10.2088 47.0032V46.806C10.2902 46.7737 10.3739 46.7354 10.4553 46.6913C10.3649 46.9237 10.2699 47.1591 10.1817 47.3945H10.1794ZM11.3575 44.9082C11.3184 44.7918 11.2616 44.6869 11.1905 44.5999C11.1193 44.5129 11.0354 44.4456 10.9437 44.4021C10.3852 44.1078 9.93298 44.6375 9.57346 45.3142L9.55537 45.3466H9.51919C9.48128 45.3354 9.4427 45.3285 9.40388 45.326C9.4012 45.2847 9.40664 45.2432 9.4197 45.2054C9.56286 44.1424 9.75618 43.0919 9.99855 42.0599C10.5176 42.1456 11.0447 42.0926 11.5474 41.9039C11.858 41.7978 12.1282 41.5477 12.3071 41.2007C12.4067 41.794 12.5966 42.3553 12.8656 42.8514C12.3094 43.4671 11.8046 44.1575 11.3597 44.9111L11.3575 44.9082Z" fill="white"/>
<path d="M80.0772 75.1477C80.0772 75.1477 78.9828 71.9669 78.7206 71.6403C78.4583 71.3137 76.3622 70.325 75.7811 67.8151C75.2 65.3052 74.0966 58.6053 76.8777 59.0437C79.6589 59.4821 78.9828 66.4998 79.9936 66.2792C81.0043 66.0585 79.1524 54.8801 80.9206 53.3324C82.6888 51.7847 85.5536 53.2235 85.2167 59.1437C84.8798 65.0639 84.206 68.4595 84.7962 68.1329C85.3863 67.8063 87.0709 66.5969 87.0709 69.1186C87.0709 71.6403 85.47 73.394 84.5429 73.5028C83.6159 73.6117 83.1863 73.7235 83.1863 73.7235V75.3654L80.0772 75.1477Z" fill="#2E353A" stroke="#2E353A" stroke-linecap="round" stroke-linejoin="round"/>
<path d="M79.1864 68.9833C78.551 68.2006 77.9676 67.4414 77.6986 66.744C77.1649 65.3523 76.7625 61.4476 76.7625 61.4476" stroke="white" stroke-width="0.5" stroke-linecap="round" stroke-linejoin="round"/>
<path d="M75.815 63.3544C76.2356 65.6348 76.2944 67.3531 77.5651 69.354C78.2435 70.4368 80.0388 71.3549 80.24 72.3112C80.4201 73.4618 80.5552 74.6236 80.6448 75.7921L81.6487 75.8803C81.6487 75.8803 81.8522 73.6147 81.2779 71.9993" stroke="white" stroke-width="0.5" stroke-linecap="round" stroke-linejoin="round"/>
<path d="M76.0954 59.6969C76.0954 59.6969 75.3447 60.4472 75.6115 62.2951" stroke="white" stroke-width="0.5" stroke-linecap="round" stroke-linejoin="round"/>
<path d="M80.9048 66.4263L80.5068 67.2649" stroke="white" stroke-width="0.5" stroke-linecap="round" stroke-linejoin="round"/>
<path d="M81.0427 66.135L80.9048 66.4263" stroke="white" stroke-width="0.5" stroke-linecap="round" stroke-linejoin="round"/>
<path d="M82.379 53.606C82.379 53.606 80.8415 53.5207 80.8415 55.4333C80.8415 57.0487 81.2213 62.5628 81.1399 65.0845" stroke="white" stroke-width="0.5" stroke-linecap="round" stroke-linejoin="round"/>
<path d="M83.5842 69.2746C83.5481 69.9307 83.5254 70.3956 83.5254 70.5722C83.5254 71.5285 85.3954 67.874 86.2659 67.7886C86.2659 67.7886 87.1342 67.7004 86.7995 69.7895C86.6778 70.565 86.3957 71.2826 85.9837 71.8649C85.5717 72.4472 85.0454 72.8721 84.4616 73.0939C83.7244 73.3557 83.123 72.9202 82.9896 73.3557C82.8831 73.8676 82.8157 74.392 82.7883 74.9211" stroke="white" stroke-width="0.5" stroke-linecap="round" stroke-linejoin="round"/>
<path d="M84.0206 55.4215C84.1369 56.0525 84.1915 56.7 84.1834 57.3488C84.1834 59.385 83.885 64.1871 83.686 67.4296" stroke="white" stroke-width="0.5" stroke-linecap="round" stroke-linejoin="round"/>
<path d="M83.2473 53.7826C83.4481 53.9323 83.6108 54.1553 83.7153 54.424" stroke="white" stroke-width="0.5" stroke-linecap="round" stroke-linejoin="round"/>
<path d="M82.1594 68.7449L82.1122 69.9631" stroke="white" stroke-width="0.5" stroke-linecap="round" stroke-linejoin="round"/>
<path d="M82.5125 54.8242C82.5125 54.8242 82.1122 54.9978 82.2456 56.8251C82.3564 58.3345 82.2456 65.1875 82.1936 67.5267" stroke="white" stroke-width="0.5" stroke-linecap="round" stroke-linejoin="round"/>
<path d="M86.7249 68.3094C86.1515 69.7059 85.233 70.8099 84.1178 71.4431C82.3089 72.3994 82.2456 71.9639 82.2456 72.9144C82.2456 73.8648 82.1778 75.6126 82.1778 75.6126" stroke="white" stroke-width="0.5" stroke-linecap="round" stroke-linejoin="round"/>
<path d="M84.2173 87.9767H78.3746L77.1242 76.9632H85.4677L84.2173 87.9767Z" fill="#2F80ED" stroke="#2E353A" stroke-linecap="round" stroke-linejoin="round"/>
<path d="M86.1845 75.2271H76.4075V78.1754H86.1845V75.2271Z" fill="#2F80ED" stroke="#2E353A" stroke-linecap="round" stroke-linejoin="round"/>
<path d="M52.1367 80.5618V74.5827H38.6062V80.5618C38.604 82.5094 38.0973 84.3991 37.1681 85.9259L36.5757 86.8969H54.1671L53.5747 85.9259C52.6455 84.3991 52.1389 82.5094 52.1367 80.5618Z" fill="white" stroke="#2E353A" stroke-linecap="round" stroke-linejoin="round"/>
<path d="M37.7741 84.7489H52.9688C52.4233 83.4675 52.1369 82.0267 52.1367 80.5618V74.5827H38.6062V80.5618C38.6059 82.0267 38.3196 83.4675 37.7741 84.7489Z" fill="#2F80ED"/>
<path d="M70.6439 23.3901H20.0967C19.0377 23.3901 18.1793 24.5072 18.1793 25.8853V73.9736C18.1793 75.3517 19.0377 76.4688 20.0967 76.4688H70.6439C71.7028 76.4688 72.5613 75.3517 72.5613 73.9736V25.8853C72.5613 24.5072 71.7028 23.3901 70.6439 23.3901Z" fill="#2E353A" stroke="#2E353A" stroke-linecap="round" stroke-linejoin="round"/>
<path d="M18.1793 68.2182H72.5636V73.9707C72.5636 74.6324 72.3615 75.2671 72.002 75.7351C71.6424 76.203 71.1547 76.4659 70.6461 76.4659H20.0989C19.5904 76.4659 19.1027 76.203 18.7431 75.7351C18.3835 75.2671 18.1815 74.6324 18.1815 73.9707V68.2182H18.1793Z" fill="white" stroke="#2E353A" stroke-linecap="round" stroke-linejoin="round"/>
<path d="M69.8276 26.6945H20.9152V64.193H69.8276V26.6945Z" fill="white" stroke="#2E353A" stroke-linecap="round" stroke-linejoin="round"/>
<path d="M46.3753 72.3435C46.3753 72.0851 46.3165 71.8325 46.2061 71.6177C46.0958 71.4029 45.939 71.2354 45.7556 71.1365C45.5721 71.0376 45.3703 71.0118 45.1755 71.0622C44.9808 71.1126 44.8019 71.237 44.6615 71.4197C44.5211 71.6024 44.4255 71.8352 44.3868 72.0886C44.348 72.3421 44.3679 72.6048 44.4439 72.8435C44.5199 73.0822 44.6485 73.2862 44.8136 73.4298C44.9787 73.5733 45.1728 73.65 45.3714 73.65C45.6377 73.65 45.893 73.5123 46.0813 73.2673C46.2696 73.0223 46.3753 72.69 46.3753 72.3435Z" fill="#2E353A" stroke="#2E353A" stroke-linecap="round" stroke-linejoin="round"/>
<path d="M54.1694 86.9086H36.5757V87.9767H54.1694V86.9086Z" fill="white" stroke="#2E353A" stroke-linecap="round" stroke-linejoin="round"/>
<path d="M69.3686 29.3368H21.2996V32.6235H69.3686V29.3368Z" fill="white" stroke="#2E353A" stroke-linecap="round" stroke-linejoin="round"/>
<path d="M29.2316 32.6235L28.655 30.5932H21.2996V32.6235V35.3158V62.5952H69.3686V32.6235H29.2316Z" fill="#2F80ED" stroke="#2E353A" stroke-linecap="round" stroke-linejoin="round"/>
<path d="M53.6226 63.3745H52.3001V63.3901H53.6226V63.3745Z" fill="#EBEBEB"/>
<path d="M48.8839 63.5444H48.5369V63.56H48.8839V63.5444Z" fill="#EBEBEB"/>
<path d="M52.2602 62.7948H51.494V62.8103H52.2602V62.7948Z" fill="#EBEBEB"/>
<path d="M39.478 62.8997H37.7535V62.9152H39.478V62.8997Z" fill="#EBEBEB"/>
<path d="M40.0865 62.8997H39.8338V62.9152H40.0865V62.8997Z" fill="#EBEBEB"/>
<path d="M44.6487 63.1634H40.9083V63.1789H44.6487V63.1634Z" fill="#EBEBEB"/>
<path d="M45.1219 59.5829H37.4122C37.3518 59.5827 37.2939 59.5451 37.2512 59.4782C37.2085 59.4113 37.1846 59.3207 37.1846 59.2261V42.2684C37.1851 42.1745 37.2093 42.0846 37.2519 42.0184C37.2945 41.9522 37.3521 41.915 37.4122 41.9148H45.1219C45.1823 41.9148 45.2403 41.9524 45.2831 42.0193C45.3258 42.0862 45.3499 42.1769 45.3499 42.2716V59.2261C45.3499 59.3208 45.3258 59.4115 45.2831 59.4784C45.2403 59.5453 45.1823 59.5829 45.1219 59.5829ZM37.4122 41.9273C37.3544 41.9275 37.2991 41.9635 37.2583 42.0274C37.2175 42.0914 37.1946 42.1781 37.1946 42.2684V59.2261C37.1946 59.3165 37.2175 59.4032 37.2583 59.4671C37.2991 59.5311 37.3544 59.5671 37.4122 59.5673H45.1219C45.1797 59.5671 45.235 59.5311 45.2759 59.4672C45.3168 59.4032 45.3398 59.3166 45.3399 59.2261V42.2684C45.3398 42.178 45.3168 42.0913 45.2759 42.0274C45.235 41.9635 45.1797 41.9275 45.1219 41.9273H37.4122Z" fill="#EBEBEB"/>
<path d="M53.7587 59.5829H46.0486C45.9882 59.5827 45.9302 59.5451 45.8875 59.4782C45.8448 59.4114 45.8207 59.3207 45.8206 59.2261V42.2684C45.8212 42.1744 45.8455 42.0846 45.8882 42.0184C45.9309 41.9522 45.9885 41.915 46.0486 41.9148H53.7587C53.8187 41.9151 53.8762 41.9524 53.9187 42.0186C53.9612 42.0848 53.9854 42.1746 53.9859 42.2684V59.2261C53.9859 59.3205 53.962 59.4111 53.9194 59.478C53.8768 59.5448 53.819 59.5826 53.7587 59.5829ZM46.0486 41.9273C45.9908 41.9275 45.9354 41.9635 45.8946 42.0274C45.8537 42.0913 45.8307 42.178 45.8306 42.2684V59.2261C45.8307 59.3166 45.8537 59.4032 45.8946 59.4672C45.9354 59.5311 45.9908 59.5671 46.0486 59.5673H53.7587C53.8165 59.5671 53.8719 59.5311 53.9127 59.4672C53.9536 59.4032 53.9766 59.3166 53.9767 59.2261V42.2684C53.9766 42.178 53.9536 42.0913 53.9127 42.0274C53.8719 41.9635 53.8165 41.9275 53.7587 41.9273H46.0486Z" fill="#EBEBEB"/>
<path d="M55.6229 62.3693H35.6589V62.3848H55.6229V62.3693Z" fill="#EBEBEB"/>
<path d="M49.5275 56.9137C51.674 53.5551 51.674 48.1096 49.5275 44.751C47.381 41.3923 43.9008 41.3923 41.7543 44.751C39.6078 48.1096 39.6078 53.5551 41.7543 56.9137C43.9008 60.2724 47.381 60.2724 49.5275 56.9137Z" fill="#E6E6E6"/>
<path d="M46.3768 42.852L47.0696 43.5023V44.5388C47.0696 44.5388 46.5441 44.4263 46.3768 43.9765C46.3768 43.9765 46.5202 43.8815 46.1137 43.5023C45.7072 43.1231 45.803 42.6645 46.3768 42.852Z" fill="#FAFAFA"/>
<path d="M45.9943 51.0812L45.595 51.3805C45.595 51.3805 45.4752 51.7422 45.4996 51.7297C45.5239 51.7172 45.4121 52.4794 45.4357 52.49C45.4592 52.5007 45.2049 52.8268 45.2049 52.8268L45.0851 53.2879V53.8239L45.6605 55.0453L46.0809 55.4201L45.7144 58.5608L45.8657 58.6483L47.7775 56.4541L47.9048 55.9187L48.4706 55.5695L48.7733 54.3356L49.1158 53.7108C49.1158 53.7108 49.1478 53.0861 49.1158 53.1004C49.0839 53.1148 48.9326 53.1998 48.9326 53.1998L48.6459 52.863C48.6459 52.863 48.0406 52.6887 48.007 52.7381C47.9735 52.7874 47.8801 52.1583 47.8801 52.1583L47.3211 51.9153L46.7393 51.3168L46.3173 51.4417L45.9943 51.0812Z" fill="#FAFAFA"/>
<path d="M44.9098 49.5368H45.2177L45.6569 49.8961L46.4746 50.2166L46.5145 50.319L45.704 50.299L45.8541 50.1522L45.7343 50.0323L45.4077 50.0204L45.4477 49.9579L45.1099 49.6874C45.1099 49.6874 44.8983 49.6087 44.8903 49.6462L44.8024 49.663L44.9098 49.5368Z" fill="#FAFAFA"/>
<path d="M45.5431 50.3209L45.4684 50.2072L45.3462 50.2166L45.3969 50.3209H45.5431Z" fill="#FAFAFA"/>
<path d="M47.4776 42.852H47.3822L48.0629 43.4905L48.1708 43.6723L48.8399 44.2758L48.9697 44.5388L49.0771 45.1186L49.4365 45.5671L49.2692 45.7546L49.6517 46.5043H49.783L49.831 46.205L49.5439 45.2679L49.9432 45.6165C49.9432 45.6165 49.0891 43.5392 47.4776 42.852Z" fill="#FAFAFA"/>
<path d="M50.2782 46.295H50.1748L50.0023 45.9395L49.8182 46.7254C49.8182 46.7254 49.932 47.6419 49.9408 47.6982C49.9496 47.7544 49.8897 47.8856 49.8897 47.8856L49.9408 48.8952L50.0729 49.2494L50.1744 50.1091L50.6248 51.0812L50.9913 50.264L51.0508 50.4646C51.0508 50.4646 51.1111 48.3892 50.2782 46.295Z" fill="#FAFAFA"/>
<path d="M47.5954 43.6729H47.476V43.9015L47.5954 44.014H47.7032V43.8434L47.5954 43.6729Z" fill="#FAFAFA"/>
<path d="M48.3245 44.1258L48.5038 44.4251L48.5513 44.6762L48.7306 44.9486L48.8024 44.7806L48.9338 44.9486V44.7618L48.8384 44.5375L48.3245 44.1258Z" fill="#FAFAFA"/>
<path d="M47.0699 46.1082C47.0699 46.1082 46.2315 46.5942 45.9224 46.8935C45.6134 47.1927 45.6621 47.8306 45.6621 47.8306L45.1578 48.2761L45.2776 49.1364L45.1578 49.2482L44.9665 48.5372C44.9665 48.5372 44.2973 48.3879 44.0178 48.4629C43.7383 48.5378 43.6761 49.4 43.6761 49.4L43.8442 50.1091L44.2267 50.1466L44.2746 49.7355L44.6806 49.7724L44.4179 50.5577L44.8971 50.6701L44.9438 51.2218L45.4229 51.7922C45.4229 51.7922 45.5183 51.9796 45.4229 52.054C45.3275 52.1283 43.0568 49.9973 42.8416 49.4737C42.6264 48.9502 42.3496 47.5101 42.5665 46.5005C42.7413 45.6802 43.0656 44.9224 43.1686 44.4263L43.1722 44.4095C43.1754 44.396 43.1779 44.3823 43.1798 44.3682C43.2089 44.1733 43.1099 44.0496 43.0324 44.0152C42.949 43.9778 42.7929 44.1277 42.7929 44.1277H42.4866L42.8032 43.8447L42.935 43.6273L43.0184 43.5104L43.3291 43.3049L43.3175 43.155C43.6517 42.8557 43.9029 42.8088 43.9029 42.8088L43.6757 43.08H43.9152L43.9639 43.5023H44.4431C44.4431 43.5023 44.3233 43.453 44.6104 43.2056C44.8975 42.9582 45.827 42.8519 45.827 42.8519L45.5403 43.5023L46.16 44.0515L46.0881 44.4626L45.6605 44.2751V44.0515L45.3954 43.8016L45.3714 44.2389L45.276 44.4263L45.1562 44.277L44.8192 44.8006L45.4181 45.7146L45.5163 44.5388L46.3768 44.838L47.0699 46.1082Z" fill="#FAFAFA"/>
<path d="M39.8054 46.1189C39.9387 45.235 39.5888 44.3494 39.024 44.1408C38.4591 43.9322 37.8931 44.4796 37.7597 45.3634C37.6264 46.2473 37.9763 47.1329 38.5411 47.3416C39.106 47.5502 39.672 47.0028 39.8054 46.1189Z" fill="#FAFAFA"/>
<path d="M39.3481 47.0443C39.6814 46.8283 39.8397 46.2304 39.7017 45.7089C39.5636 45.1874 39.1815 44.9397 38.8482 45.1557C38.5149 45.3718 38.3566 45.9697 38.4947 46.4912C38.6327 47.0127 39.0148 47.2603 39.3481 47.0443Z" fill="#EBEBEB"/>
<path d="M39.1981 46.6436C39.3573 46.6436 39.4864 46.4416 39.4864 46.1925C39.4864 45.9434 39.3573 45.7414 39.1981 45.7414C39.0389 45.7414 38.9099 45.9434 38.9099 46.1925C38.9099 46.4416 39.0389 46.6436 39.1981 46.6436Z" fill="#E0E0E0"/>
<path d="M39.2301 45.4472C39.2301 45.5202 39.2162 45.5916 39.1903 45.6523C39.1644 45.713 39.1275 45.7604 39.0844 45.7883C39.0413 45.8163 38.9938 45.8236 38.9481 45.8093C38.9023 45.7951 38.8602 45.7599 38.8272 45.7083C38.7942 45.6566 38.7718 45.5908 38.7627 45.5192C38.7535 45.4476 38.7582 45.3733 38.7761 45.3059C38.7939 45.2384 38.8242 45.1807 38.863 45.1402C38.9018 45.0996 38.9474 45.0779 38.9941 45.0779C39.0567 45.0779 39.1167 45.1169 39.161 45.1861C39.2052 45.2553 39.2301 45.3493 39.2301 45.4472Z" fill="white"/>
<path d="M50.6263 44.2358L51.8198 42.8345L52.037 43.6323L50.8404 45.0186L50.6263 44.2358Z" fill="#F5F5F5"/>
<path d="M50.6235 44.2333C50.6247 44.2356 50.6263 44.2373 50.628 44.2383C50.6298 44.2393 50.6317 44.2395 50.6335 44.2389C50.6346 44.2392 50.6357 44.2392 50.6367 44.2389L50.7637 44.0902L50.8092 44.2595L50.6794 44.4113C50.6775 44.4137 50.6762 44.4172 50.6758 44.421C50.6754 44.4249 50.676 44.4288 50.6775 44.432C50.6786 44.4343 50.6802 44.436 50.6819 44.437C50.6837 44.438 50.6856 44.4382 50.6874 44.4376H50.6906L50.8168 44.2901L50.8623 44.4601L50.7334 44.6094C50.7316 44.6123 50.7307 44.6161 50.7307 44.62C50.7307 44.6239 50.7316 44.6277 50.7334 44.6306C50.7345 44.633 50.736 44.6348 50.7378 44.6357C50.7396 44.6366 50.7415 44.6366 50.7433 44.6356C50.7433 44.6356 50.7453 44.6356 50.7465 44.6356L50.8715 44.4832L50.9166 44.6525L50.7892 44.8006C50.7876 44.8027 50.7865 44.8056 50.786 44.8089C50.7856 44.8121 50.7858 44.8155 50.7867 44.8185C50.7876 44.8215 50.7892 44.824 50.7911 44.8255C50.793 44.827 50.7951 44.8274 50.7972 44.8268C50.7983 44.8274 50.7994 44.8274 50.8004 44.8268L50.9242 44.6831L50.9697 44.853L50.8432 44.9992C50.8412 45.0016 50.8399 45.0051 50.8395 45.0089C50.8391 45.0128 50.8397 45.0167 50.8412 45.0198C50.8422 45.0223 50.8438 45.0241 50.8456 45.0251C50.8474 45.0261 50.8493 45.0263 50.8511 45.0255C50.8522 45.0258 50.8533 45.0258 50.8543 45.0255L51.4988 44.2801L51.6381 44.5681C51.6393 44.5705 51.6408 44.5722 51.6426 44.5732C51.6444 44.5742 51.6463 44.5744 51.6481 44.5738C51.6492 44.5741 51.6502 44.5741 51.6513 44.5738C51.6523 44.5727 51.6532 44.5712 51.6538 44.5696C51.6545 44.5679 51.6549 44.5661 51.6551 44.5641C51.6553 44.5622 51.6552 44.5602 51.6549 44.5583C51.6546 44.5565 51.6541 44.5547 51.6533 44.5532L51.5139 44.2651L52.0442 43.6523C52.0463 43.6499 52.0476 43.6464 52.0481 43.6425C52.0485 43.6386 52.0479 43.6346 52.0464 43.6313C52.0449 43.6281 52.0427 43.6259 52.0402 43.6253C52.0376 43.6246 52.0351 43.6256 52.033 43.6279L51.9024 43.7791L51.8545 43.6017L51.9895 43.4448C51.9908 43.4439 51.9919 43.4425 51.9927 43.4408C51.9936 43.4391 51.9943 43.4371 51.9946 43.4349C51.9949 43.4328 51.995 43.4306 51.9947 43.4284C51.9944 43.4263 51.9938 43.4242 51.993 43.4225C51.9922 43.4207 51.9911 43.4192 51.9899 43.4182C51.9886 43.4171 51.9873 43.4165 51.9859 43.4164C51.9845 43.4163 51.9831 43.4166 51.9817 43.4174C51.9804 43.4182 51.9793 43.4195 51.9783 43.4211L51.8481 43.5717L51.8018 43.4005L51.9352 43.2455C51.9362 43.2444 51.9371 43.2429 51.9378 43.2412C51.9384 43.2395 51.9389 43.2376 51.939 43.2356C51.9392 43.2336 51.9392 43.2316 51.9388 43.2296C51.9385 43.2277 51.938 43.2259 51.9372 43.2243C51.9354 43.2218 51.933 43.2204 51.9306 43.2204C51.9282 43.2204 51.9258 43.2218 51.924 43.2243L51.7942 43.3755L51.7479 43.2037L51.8809 43.0487C51.8821 43.0478 51.8833 43.0464 51.8841 43.0447C51.885 43.043 51.8857 43.041 51.886 43.0388C51.8863 43.0367 51.8864 43.0345 51.8861 43.0323C51.8858 43.0302 51.8852 43.0281 51.8844 43.0264C51.8836 43.0246 51.8825 43.0231 51.8813 43.0221C51.88 43.021 51.8787 43.0204 51.8773 43.0203C51.8759 43.0202 51.8745 43.0205 51.8731 43.0213C51.8718 43.0221 51.8707 43.0234 51.8697 43.025L51.7403 43.1756L51.694 43.0044L51.8266 42.8494C51.8276 42.8483 51.8285 42.8468 51.8292 42.8451C51.8298 42.8434 51.8303 42.8415 51.8304 42.8395C51.8306 42.8375 51.8306 42.8355 51.8302 42.8336C51.8299 42.8316 51.8294 42.8298 51.8286 42.8282C51.8268 42.8256 51.8244 42.8241 51.822 42.8241C51.8195 42.8241 51.8172 42.8256 51.8154 42.8282L51.6832 42.9769C51.682 42.976 51.6806 42.9755 51.6792 42.9755C51.6779 42.9755 51.6765 42.976 51.6753 42.9769C51.6733 42.9783 51.6718 42.9807 51.6708 42.9836C51.6698 42.9865 51.6694 42.9899 51.6697 42.9931L51.5004 43.1912C51.4992 43.1903 51.4979 43.1898 51.4966 43.1898C51.4953 43.1898 51.494 43.1903 51.4928 43.1912C51.4908 43.1925 51.4892 43.1949 51.4882 43.1978C51.4872 43.2007 51.4868 43.2041 51.4872 43.2074L51.3179 43.4055C51.3155 43.4039 51.3127 43.4039 51.3103 43.4055C51.3084 43.4068 51.3069 43.409 51.3059 43.4118C51.3049 43.4147 51.3045 43.4179 51.3047 43.4211L51.135 43.6198C51.1339 43.6188 51.1326 43.6184 51.1312 43.6184C51.1299 43.6184 51.1286 43.6188 51.1274 43.6198C51.1256 43.621 51.124 43.6231 51.123 43.6258C51.122 43.6285 51.1216 43.6317 51.1218 43.6348L50.9514 43.8303C50.9502 43.8296 50.949 43.8292 50.9478 43.8292C50.9465 43.8292 50.9453 43.8296 50.9442 43.8303C50.9423 43.8315 50.9408 43.8336 50.9398 43.8363C50.9388 43.839 50.9383 43.8422 50.9386 43.8453L50.7689 44.044C50.7666 44.0427 50.764 44.0427 50.7617 44.044C50.7598 44.0452 50.7583 44.0473 50.7573 44.05C50.7563 44.0527 50.7559 44.0559 50.7561 44.059L50.6247 44.2127C50.6238 44.2139 50.623 44.2154 50.6224 44.2171C50.6218 44.2188 50.6215 44.2206 50.6213 44.2226C50.6212 44.2245 50.6214 44.2264 50.6217 44.2283C50.6221 44.2301 50.6227 44.2318 50.6235 44.2333ZM51.1143 44.4207L51.0683 44.2508L51.236 44.0558L51.2816 44.2264L51.1143 44.4207ZM51.2891 44.2545L51.3351 44.4251L51.1674 44.6188L51.1215 44.4488L51.2891 44.2545ZM51.4804 43.9959L51.4345 43.8247L51.6018 43.6304L51.6481 43.8016L51.4804 43.9959ZM51.6557 43.8291L51.702 44.0002L51.5343 44.1945L51.488 44.024L51.6557 43.8291ZM51.244 44.0096L51.1981 43.8397L51.3654 43.6441L51.4113 43.8153L51.244 44.0096ZM51.1909 43.8122L51.145 43.6423L51.3107 43.4467L51.3566 43.6173L51.1909 43.8122ZM51.3279 43.4286L51.4948 43.233L51.5411 43.4042L51.3734 43.6017L51.3279 43.4286ZM51.5487 43.4323L51.5942 43.6017L51.4269 43.796L51.381 43.6254L51.5487 43.4323ZM51.4652 44.0152L51.4205 44.0671L51.3506 43.924L51.4189 43.8447L51.4652 44.0152ZM51.4053 44.0846L51.2975 44.2095L51.2516 44.039L51.3355 43.9415L51.4053 44.0846ZM51.0608 44.2264L51.0152 44.0565L51.1825 43.8616L51.2285 44.0315L51.0608 44.2264ZM51.0077 44.0284L50.9621 43.8584L51.129 43.6629L51.175 43.8334L51.0077 44.0284ZM51.7236 43.1937L51.5563 43.3886L51.5103 43.2149L51.6776 43.0194L51.7236 43.1937ZM51.7775 43.393L51.6102 43.5879L51.5639 43.4142L51.7312 43.2193L51.7775 43.393ZM51.8298 43.5898L51.6621 43.7841L51.6162 43.6135L51.7835 43.4186L51.8298 43.5898ZM51.8837 43.7897L51.716 43.9834L51.6701 43.8122L51.8378 43.6179L51.8837 43.7897ZM51.4992 44.2339L51.4305 44.0908L51.4704 44.0434L51.5163 44.2139L51.4992 44.2339ZM51.484 44.252L51.3506 44.4076L51.3047 44.2377L51.4161 44.1083L51.484 44.252ZM50.9386 44.6637L51.1059 44.4694L51.151 44.6381L50.9833 44.8324L50.9386 44.6637ZM50.8855 44.4663L51.0528 44.2714L51.0983 44.4413L50.931 44.6356L50.8855 44.4663ZM50.8316 44.267L50.9989 44.0721L51.0444 44.242L50.8771 44.437L50.8316 44.267ZM50.7785 44.0696L50.9458 43.874L50.9913 44.044L50.824 44.2389L50.7785 44.0696Z" fill="#E6E6E6"/>
<path d="M52.3866 45.3216C52.5277 44.9001 52.4237 44.3794 52.1544 44.1586C51.885 43.9378 51.5522 44.1005 51.4111 44.522C51.27 44.9434 51.374 45.4641 51.6433 45.6849C51.9127 45.9057 52.2455 45.7431 52.3866 45.3216Z" fill="#FAFAFA"/>
<path d="M52.0291 45.2722C52.1037 45.0006 52.0235 44.6857 51.8499 44.5689C51.6762 44.4521 51.475 44.5777 51.4004 44.8493C51.3257 45.121 51.406 45.4359 51.5796 45.5527C51.7532 45.6695 51.9545 45.5439 52.0291 45.2722Z" fill="#EBEBEB"/>
<path d="M51.7439 45.288C51.8125 45.2138 51.8296 45.0667 51.7821 44.9594C51.7347 44.8522 51.6407 44.8254 51.5721 44.8997C51.5036 44.9739 51.4865 45.121 51.5339 45.2283C51.5814 45.3355 51.6754 45.3623 51.7439 45.288Z" fill="#E0E0E0"/>
<path d="M51.6864 44.7056C51.682 44.7433 51.6848 44.7822 51.6945 44.8174C51.7042 44.8526 51.7204 44.8825 51.741 44.9033C51.7616 44.9241 51.7856 44.9349 51.8101 44.9343C51.8346 44.9337 51.8584 44.9217 51.8786 44.8999C51.8987 44.8781 51.9143 44.8474 51.9233 44.8118C51.9323 44.7761 51.9343 44.7371 51.9291 44.6996C51.924 44.6622 51.9118 44.628 51.8942 44.6013C51.8765 44.5747 51.8543 44.5568 51.8302 44.55C51.7979 44.5409 51.7647 44.5522 51.7378 44.5813C51.7108 44.6105 51.6924 44.6552 51.6864 44.7056Z" fill="white"/>
<path d="M52.3025 45.8152H52.3057C52.3077 45.8128 52.309 45.8093 52.3094 45.8055C52.3097 45.8016 52.3091 45.7977 52.3077 45.7945L52.13 45.4278C52.1284 45.4254 52.1263 45.424 52.124 45.4238C52.1218 45.4236 52.1196 45.4246 52.1178 45.4267C52.116 45.4288 52.1147 45.4318 52.1142 45.4352C52.1136 45.4386 52.1139 45.4422 52.1149 45.4453L52.2925 45.812C52.2939 45.8139 52.2955 45.8152 52.2973 45.8157C52.299 45.8163 52.3008 45.8161 52.3025 45.8152Z" fill="#E0E0E0"/>
<path d="M52.9026 44.8799L53.1258 45.6546L51.9292 47.0697L51.7024 46.2925L52.9026 44.8799Z" fill="#F5F5F5"/>
<path d="M51.7056 46.2881C51.7067 46.2904 51.7083 46.2922 51.7101 46.2932C51.7118 46.2942 51.7137 46.2943 51.7156 46.2937H51.7188L51.8429 46.1475L51.8913 46.3131L51.7615 46.4655C51.7595 46.468 51.7582 46.4716 51.7578 46.4755C51.7574 46.4795 51.758 46.4835 51.7595 46.4868C51.7606 46.4892 51.7622 46.491 51.764 46.4919C51.7658 46.4928 51.7677 46.4927 51.7695 46.4918C51.7707 46.4922 51.7719 46.4922 51.7731 46.4918L51.8996 46.3431L51.948 46.5086L51.8154 46.6642C51.8137 46.6671 51.8127 46.6709 51.8127 46.6748C51.8127 46.6788 51.8137 46.6826 51.8154 46.6854C51.8165 46.6878 51.8181 46.6896 51.8199 46.6905C51.8217 46.6914 51.8236 46.6914 51.8254 46.6904C51.8254 46.6904 51.8254 46.6904 51.8286 46.6904L51.9575 46.5393L52.0058 46.7048L51.8697 46.8554C51.8681 46.8575 51.8669 46.8604 51.8665 46.8637C51.866 46.8669 51.8663 46.8703 51.8672 46.8734C51.8681 46.8764 51.8696 46.8788 51.8715 46.8803C51.8734 46.8818 51.8756 46.8823 51.8777 46.8816H51.8809L52.0126 46.7273L52.0578 46.8822C52.0583 46.884 52.0591 46.8856 52.0601 46.8869C52.061 46.8882 52.0621 46.8891 52.0633 46.8897L51.9236 47.054C51.9216 47.0564 51.9203 47.0599 51.9199 47.0637C51.9196 47.0676 51.9202 47.0715 51.9216 47.0747C51.9228 47.077 51.9243 47.0787 51.9261 47.0797C51.9278 47.0807 51.9297 47.0809 51.9316 47.0803H51.9352L53.1286 45.6783C53.1303 45.6756 53.1312 45.6719 53.1312 45.668C53.1312 45.6642 53.1303 45.6605 53.1286 45.6577C53.1268 45.6552 53.1245 45.6538 53.122 45.6538C53.1196 45.6538 53.1173 45.6552 53.1154 45.6577L52.9877 45.8008L52.9398 45.6377L53.0739 45.4797C53.0749 45.4786 53.0758 45.4771 53.0765 45.4755C53.0771 45.4738 53.0776 45.472 53.0778 45.47C53.0779 45.4681 53.0779 45.4661 53.0776 45.4642C53.0772 45.4624 53.0767 45.4606 53.0759 45.4591C53.0741 45.4564 53.0718 45.4549 53.0693 45.4549C53.0669 45.4549 53.0645 45.4564 53.0627 45.4591L52.9318 45.6127L52.8835 45.4472L53.02 45.2866C53.0211 45.2854 53.0219 45.284 53.0226 45.2822C53.0233 45.2805 53.0237 45.2786 53.0239 45.2767C53.0241 45.2747 53.024 45.2727 53.0237 45.2707C53.0234 45.2688 53.0228 45.267 53.022 45.2654C53.0202 45.2627 53.0179 45.2613 53.0154 45.2613C53.013 45.2613 53.0106 45.2627 53.0088 45.2654L52.8759 45.4134L52.828 45.2485L52.9673 45.0854C52.969 45.0827 52.9699 45.079 52.9699 45.0751C52.9699 45.0713 52.969 45.0676 52.9673 45.0648C52.9665 45.0635 52.9654 45.0624 52.9643 45.0616C52.9632 45.0609 52.962 45.0605 52.9607 45.0605C52.9595 45.0605 52.9583 45.0609 52.9571 45.0616C52.956 45.0624 52.955 45.0635 52.9541 45.0648L52.8184 45.2241L52.7701 45.0586L52.9114 44.8924C52.9129 44.8898 52.9139 44.8865 52.914 44.883C52.9141 44.8795 52.9135 44.8761 52.9121 44.8732C52.9108 44.8704 52.9089 44.8684 52.9067 44.8676C52.9045 44.8667 52.9022 44.8671 52.9002 44.8687L51.7068 46.2706C51.7054 46.2729 51.7045 46.2759 51.7043 46.279C51.7041 46.2822 51.7045 46.2854 51.7056 46.2881ZM52.3285 46.0569L52.2798 45.8914L52.4471 45.6952L52.4954 45.8614L52.3285 46.0569ZM52.5033 45.8889L52.5517 46.0544L52.3848 46.2506L52.3365 46.0851L52.5033 45.8889ZM52.2718 45.8639L52.2235 45.6983L52.3904 45.5022L52.4387 45.6677L52.2718 45.8639ZM52.4059 45.484L52.5728 45.2879L52.6211 45.4534L52.4542 45.6496L52.4059 45.484ZM52.6291 45.484L52.6778 45.6502L52.5109 45.8458L52.4622 45.6802L52.6291 45.484ZM52.6858 45.6777L52.7341 45.8433L52.5672 46.0382L52.5189 45.8726L52.6858 45.6777ZM52.7421 45.8708L52.788 46.0276C52.7889 46.0306 52.7905 46.033 52.7924 46.0345L52.6231 46.2331C52.6233 46.2317 52.6233 46.2302 52.6231 46.2287L52.5756 46.0669L52.7421 45.8708ZM52.61 46.2456L52.4407 46.4443C52.4409 46.4429 52.4409 46.4414 52.4407 46.4399L52.3931 46.2781L52.56 46.0819L52.606 46.2381C52.6068 46.2412 52.6081 46.2438 52.61 46.2456ZM52.4287 46.4593L52.259 46.6586C52.2594 46.657 52.2594 46.6552 52.259 46.6536L52.2119 46.4924L52.3788 46.2962L52.4247 46.4518C52.425 46.4534 52.4255 46.4549 52.4262 46.4562C52.4269 46.4575 52.4277 46.4585 52.4287 46.4593ZM52.2031 46.4649L52.1548 46.2993L52.3209 46.1007L52.3692 46.2662L52.2031 46.4649ZM52.1468 46.2712L52.0981 46.1057L52.2654 45.9095L52.3137 46.0757L52.1468 46.2712ZM52.0901 46.0782L52.041 45.9132L52.2079 45.7171L52.2562 45.8826L52.0901 46.0782ZM52.8044 45.2391L52.6375 45.4353L52.5884 45.2698L52.7553 45.0736L52.8044 45.2391ZM52.8611 45.4328L52.6942 45.6284L52.6455 45.4628L52.8124 45.2666L52.8611 45.4328ZM52.9174 45.6259L52.7481 45.822L52.6998 45.6565L52.8667 45.4603L52.9174 45.6259ZM52.9753 45.817L52.8068 46.0157C52.8068 46.0157 52.8068 46.0157 52.8068 46.012L52.7593 45.8495L52.9262 45.6533L52.9721 45.8102C52.9725 45.8127 52.9734 45.8151 52.9745 45.817H52.9753ZM52.0294 46.7067L52.1967 46.5105L52.2418 46.6661C52.2429 46.6695 52.2448 46.6721 52.247 46.6736L52.0773 46.8729C52.0775 46.871 52.0775 46.8691 52.0773 46.8672L52.0294 46.7067ZM51.9731 46.5136L52.14 46.3175L52.1883 46.483L52.0214 46.6792L51.9731 46.5136ZM51.9168 46.32L52.0837 46.1238L52.132 46.29L51.9651 46.4855L51.9168 46.32ZM51.8601 46.1269L52.027 45.9307L52.0753 46.0963L51.9084 46.2925L51.8601 46.1269Z" fill="#E6E6E6"/>
<path d="M57.5615 96.5023C66.9431 96.5023 74.5483 95.811 74.5483 94.9581C74.5483 94.1053 66.9431 93.4139 57.5615 93.4139C48.18 93.4139 40.5747 94.1053 40.5747 94.9581C40.5747 95.811 48.18 96.5023 57.5615 96.5023Z" fill="#F5F5F5"/>
<path d="M55.178 60.6943V56.5747C55.178 56.4711 55.1411 56.3718 55.0753 56.2986C55.0096 56.2254 54.9204 56.1842 54.8274 56.1842H51.0372L49.6844 55.0195C49.6399 54.9818 49.5855 54.9615 49.5296 54.9616C49.4955 54.9615 49.4618 54.9689 49.4303 54.9833C49.3989 54.9978 49.3703 55.019 49.3462 55.0458C49.3221 55.0725 49.3029 55.1043 49.2899 55.1394C49.2768 55.1744 49.2701 55.2119 49.2701 55.2498V56.1842H49.0592C48.9662 56.1842 48.877 56.2254 48.8112 56.2986C48.7455 56.3718 48.7086 56.4711 48.7086 56.5747V60.693C48.7095 60.7958 48.7468 60.8941 48.8125 60.9665C48.8781 61.0389 48.9668 61.0795 49.0592 61.0795H54.8309C54.9225 61.0785 55.0101 61.0376 55.0749 60.9656C55.1398 60.8936 55.1768 60.7962 55.178 60.6943Z" fill="#263238"/>
<path opacity="0.9" d="M54.8291 56.1875H51.0372L49.9813 55.2765C49.3104 56.4445 48.9014 57.876 48.7097 59.3453V60.6949C48.7106 60.7978 48.748 60.8961 48.8136 60.9685C48.8793 61.0408 48.9679 61.0814 49.0603 61.0814H54.832C54.9239 61.0804 55.0117 61.0393 55.0767 60.9669C55.1416 60.8945 55.1784 60.7966 55.1791 60.6943V56.5746C55.1784 56.4718 55.1412 56.3734 55.0756 56.3009C55.0101 56.2284 54.9215 56.1876 54.8291 56.1875Z" fill="#FFD3B6"/>
<path d="M51.2973 61.0814L51.3165 59.7995C51.1531 60.2437 50.9576 60.6723 50.7322 61.0814H51.2973Z" fill="#EA863E"/>
<path d="M48.7097 57.2019C49.2982 56.6813 50.09 56.2747 51.1599 56.1875H51.0372L49.6844 55.0227C49.6399 54.9851 49.5855 54.9647 49.5296 54.9648C49.4955 54.9647 49.4618 54.9721 49.4303 54.9865C49.3989 55.001 49.3703 55.0222 49.3462 55.049C49.3221 55.0758 49.3029 55.1076 49.2899 55.1426C49.2768 55.1776 49.2701 55.2151 49.2701 55.253V56.1875H49.0592C48.9662 56.1875 48.877 56.2286 48.8112 56.3018C48.7455 56.375 48.7086 56.4743 48.7086 56.5779L48.7097 57.2019Z" fill="#263238"/>
<path d="M49.5716 59.0167C49.5132 59.346 49.6242 59.644 49.8147 59.6844C50.0052 59.7247 50.2074 59.495 50.2641 59.1703C50.3155 58.8912 50.2419 58.6354 50.1017 58.5391C50.0911 58.5318 50.0799 58.5255 50.0683 58.5202L49.439 58.1611C49.439 58.1611 49.5623 58.4949 49.7756 58.5931C49.6677 58.7056 49.5961 58.8545 49.5716 59.0167Z" fill="#263238"/>
<path d="M49.3443 57.321C49.3699 57.3197 49.3949 57.3119 49.4174 57.2982C49.6112 57.1694 49.8297 57.0937 50.0549 57.0772C50.2802 57.0608 50.5057 57.1042 50.7129 57.2039C50.7469 57.2243 50.7867 57.2289 50.8237 57.2167C50.8607 57.2045 50.8919 57.1765 50.9104 57.1388C50.9275 57.0998 50.9303 57.0548 50.9182 57.0136C50.9061 56.9723 50.88 56.9378 50.8455 56.9176C50.5954 56.7937 50.3223 56.7382 50.0491 56.7555C49.7758 56.7728 49.5101 56.8625 49.2742 57.0171C49.2445 57.0338 49.2208 57.0614 49.2071 57.0953C49.1934 57.1291 49.1906 57.1671 49.1991 57.203C49.2076 57.2389 49.2268 57.2704 49.2537 57.2924C49.2806 57.3143 49.3134 57.3254 49.3467 57.3236L49.3443 57.321Z" fill="#263238"/>
<path d="M53.093 59.3187C52.9861 59.4322 52.9146 59.5809 52.889 59.7429C52.8306 60.0728 52.9335 60.3702 53.128 60.4105C53.3226 60.4509 53.5248 60.2212 53.5815 59.8965C53.63 59.6173 53.5581 59.3616 53.4196 59.2653L53.3881 59.2477L52.7581 58.8859C52.7581 58.8859 52.8791 59.2204 53.093 59.3187Z" fill="#263238"/>
<path d="M53.1573 57.39C53.1183 57.3912 53.0813 57.4092 53.0541 57.4403C53.027 57.4714 53.0118 57.5131 53.0118 57.5565C53.0136 57.5994 53.0305 57.6398 53.0588 57.6689C53.0871 57.698 53.1246 57.7135 53.1631 57.7121C53.6195 57.7368 54.2272 58.1129 54.4774 58.5385C54.4926 58.562 54.5126 58.5812 54.5358 58.5944C54.565 58.6122 54.5989 58.6182 54.6317 58.6116C54.6644 58.6051 54.6942 58.5862 54.716 58.5581C54.7379 58.5301 54.7504 58.4946 54.7517 58.4576C54.7529 58.4205 54.7427 58.384 54.7228 58.3543C54.4137 57.8416 53.7124 57.4127 53.1573 57.39Z" fill="#263238"/>
<path d="M51.7489 61.3755H51.0197V61.4248H51.7489V61.3755Z" fill="#407BFF"/>
<path d="M50.5674 61.4243H48.9195C48.778 61.424 48.6424 61.3612 48.5424 61.2497C48.4424 61.1382 48.3861 60.9872 48.386 60.8296V60.2387H48.4298V60.8296C48.4298 60.9743 48.4814 61.113 48.5732 61.2154C48.665 61.3178 48.7896 61.3754 48.9195 61.3755H50.5674V61.4243Z" fill="#407BFF"/>
<path d="M40.1156 36.8594H39.4148V36.9342H40.1156V36.8594Z" fill="#407BFF"/>
<path d="M42.6463 38.6905H42.6042V37.7774C42.6041 37.554 42.5544 37.3398 42.4661 37.1818C42.3778 37.0238 42.258 36.935 42.1331 36.9347H40.5502V36.8594H42.1331C42.2692 36.8596 42.3996 36.9564 42.4959 37.1286C42.5921 37.3007 42.6462 37.534 42.6463 37.7774V38.6905Z" fill="#407BFF"/>
<path d="M39.0891 43.7299L42.0348 44.1537L42.2673 43.2206C42.2673 43.2206 42.3105 43.0488 42.3757 42.7475V37.9693C42.3746 37.8107 42.3387 37.6592 42.2756 37.5477C42.2125 37.4362 42.1274 37.3736 42.0388 37.3736H37.1665C37.4866 39.4489 38.0986 41.8616 39.0891 43.7299Z" fill="#263238"/>
<path d="M42.3762 44.3275V41.6737C42.2995 40.1998 42.1076 38.7524 41.8063 37.3736H36.4949C36.4056 37.3736 36.3199 37.4371 36.2567 37.5502C36.1935 37.6632 36.158 37.8165 36.158 37.9763V44.3325C36.158 44.4924 36.1935 44.6457 36.2567 44.7587C36.3199 44.8717 36.4056 44.9352 36.4949 44.9352H40.138L41.4396 46.7262C41.4824 46.7842 41.5347 46.8156 41.5884 46.8156C41.6211 46.8157 41.6536 46.8043 41.6838 46.782C41.714 46.7597 41.7415 46.7269 41.7647 46.6856C41.7878 46.6443 41.8062 46.5952 41.8188 46.5411C41.8313 46.4871 41.8377 46.4291 41.8377 46.3706V44.9282H42.0405C42.1294 44.9277 42.2147 44.8642 42.2776 44.7517C42.3405 44.6391 42.3759 44.4867 42.3762 44.3275Z" fill="#FCCAC8"/>
<path d="M37.9717 42.637C37.9549 43.1392 38.0879 43.5681 38.2727 43.5872C38.4574 43.6063 38.6191 43.2166 38.636 42.7103C38.6528 42.2041 38.5186 41.7852 38.3339 41.7672C38.1492 41.7491 37.988 42.1368 37.9717 42.637Z" fill="#263238"/>
<path d="M41.5132 42.1137C41.3285 42.0956 41.1673 42.4843 41.1499 42.9906C41.1325 43.4968 41.2672 43.9157 41.452 43.9348C41.6367 43.9539 41.7984 43.5641 41.8142 43.0639C41.8299 42.5637 41.6979 42.1328 41.5132 42.1137Z" fill="#263238"/>
<path d="M40.4985 45.4204C40.2892 44.6528 40.1106 43.8596 39.964 43.0468L39.9011 44.9282H40.142L40.4985 45.4204Z" fill="#EA817E"/>
<path d="M36.9599 40.157C36.9868 40.169 37.0149 40.1687 37.0417 40.156C37.0685 40.1434 37.0931 40.1189 37.1132 40.0847C37.2438 39.7957 37.411 39.5663 37.6008 39.4152C37.7907 39.2642 37.9978 39.1959 38.2053 39.2158C38.2452 39.2135 38.2834 39.1859 38.313 39.1379C38.3425 39.0899 38.3616 39.0247 38.3668 38.9538C38.372 38.883 38.363 38.8112 38.3413 38.7512C38.3197 38.6912 38.2868 38.6469 38.2486 38.6262C37.9866 38.5958 37.7244 38.6768 37.4833 38.8625C37.2422 39.0483 37.0292 39.3336 36.8616 39.6949C36.8344 39.7559 36.821 39.8331 36.8242 39.911C36.8275 39.9889 36.847 40.0617 36.879 40.1148C36.9042 40.1382 36.9316 40.1526 36.9599 40.157Z" fill="#263238"/>
<path d="M42.3442 40.6512C42.3519 40.6841 42.3627 40.7144 42.3762 40.7406V39.5814C42.1553 39.1177 41.8595 38.7878 41.5295 38.6373C41.4864 38.6225 41.4419 38.6389 41.4056 38.6829C41.3693 38.7268 41.3443 38.7948 41.336 38.8718C41.3278 38.9488 41.3369 39.0285 41.3615 39.0934C41.3861 39.1583 41.4241 39.203 41.4671 39.2178C41.6659 39.3172 41.8488 39.4986 42.0011 39.7476C42.1535 39.9966 42.271 40.3061 42.3442 40.6512Z" fill="#263238"/>
<path d="M57.8542 58.5977C57.9126 58.7911 57.9994 58.9668 58.1096 59.1144C58.2198 59.2621 58.3511 59.3786 58.4957 59.4572C58.7215 59.58 59.0233 59.5533 59.371 59.8149C60.1565 60.4047 62.117 59.8789 63.5379 60.0818C64.9588 60.2846 66.8734 58.184 66.8734 58.184L72.5111 58.5977V51.124C72.5111 51.124 66.6275 51.4523 65.3525 50.7957C64.0775 50.139 62.6566 48.7671 62.019 48.8311C61.3815 48.8952 56.1355 49.6826 56.1355 49.6826L57.8522 58.5977H57.8542Z" fill="white" stroke="#2E353A" stroke-linecap="round" stroke-linejoin="round"/>
<path d="M56.3953 28.4626C55.2312 28.6347 54.1315 29.2639 53.2352 30.2708C52.339 31.2776 51.6863 32.6168 51.3599 34.1191C51.0335 35.6213 51.0479 37.2191 51.4014 38.7104C51.7549 40.2016 52.4315 41.5194 53.3457 42.4971C54.26 43.4747 55.3707 44.0683 56.5376 44.2029C57.7044 44.3374 58.8749 44.0067 59.901 43.2528C60.9272 42.4988 61.7628 41.3554 62.3024 39.967C62.842 38.5787 63.0612 37.0079 62.9323 35.4532C62.8473 34.4206 62.6107 33.4206 62.236 32.5102C61.8613 31.5999 61.356 30.7972 60.7489 30.1479C60.1417 29.4987 59.4447 29.0156 58.6977 28.7264C57.9507 28.4372 57.1683 28.3476 56.3953 28.4626ZM57.5704 42.6306C56.6366 42.7692 55.693 42.5348 54.859 41.9571C54.0249 41.3794 53.3379 40.4844 52.8847 39.3852C52.4315 38.286 52.2325 37.0319 52.3129 35.7817C52.3933 34.5315 52.7495 33.3411 53.3365 32.3613C53.9234 31.3814 54.7147 30.656 55.6103 30.2768C56.5059 29.8975 57.4656 29.8815 58.368 30.2308C59.2704 30.58 60.075 31.2788 60.6801 32.2388C61.2851 33.1988 61.6635 34.3768 61.7672 35.624C61.8361 36.4521 61.7822 37.2902 61.6086 38.0905C61.435 38.8908 61.145 39.6376 60.7553 40.2882C60.3656 40.9389 59.8838 41.4806 59.3373 41.8825C58.7908 42.2844 58.1904 42.5386 57.5704 42.6306Z" fill="white" stroke="#2E353A" stroke-linecap="round" stroke-linejoin="round"/>
<path d="M56.3633 28.0115C55.1993 28.1836 54.0996 28.8128 53.2033 29.8197C52.307 30.8265 51.6544 32.1658 51.3279 33.668C51.0015 35.1702 51.016 36.768 51.3694 38.2593C51.7229 39.7505 52.3995 41.0683 53.3138 42.046C54.228 43.0237 55.3388 43.6173 56.5056 43.7518C57.6724 43.8863 58.8429 43.5557 59.869 42.8017C60.8952 42.0477 61.7309 40.9043 62.2704 39.516C62.81 38.1277 63.0292 36.5568 62.9004 35.0021C62.7271 32.9176 61.9411 31.0103 60.7153 29.6994C59.4895 28.3886 57.9242 27.7814 56.3633 28.0115ZM57.5384 42.1795C56.6046 42.3181 55.6611 42.0837 54.827 41.506C53.993 40.9283 53.3059 40.0333 52.8527 38.9341C52.3995 37.8349 52.2005 36.5809 52.2809 35.3306C52.3614 34.0804 52.7175 32.8901 53.3045 31.9102C53.8914 30.9303 54.6827 30.2049 55.5783 29.8257C56.4739 29.4464 57.4336 29.4304 58.336 29.7797C59.2384 30.1289 60.043 30.8277 60.6481 31.7877C61.2531 32.7477 61.6315 33.9257 61.7352 35.1729C61.8042 36.001 61.7502 36.8392 61.5766 37.6395C61.403 38.4397 61.1131 39.1865 60.7233 39.8371C60.3336 40.4878 59.8518 41.0295 59.3053 41.4314C58.7588 41.8333 58.1585 42.0875 57.5384 42.1795Z" fill="white" stroke="#2E353A" stroke-linecap="round" stroke-linejoin="round"/>
<path d="M57.8614 43.8799L57.5813 43.9213C57.2653 43.968 57.0376 44.348 57.0726 44.77L57.5271 50.251C57.5621 50.673 57.8466 50.9772 58.1625 50.9304L58.4426 50.889C58.7585 50.8423 58.9863 50.4623 58.9513 50.0403L58.4968 44.5593C58.4618 44.1373 58.1773 43.8331 57.8614 43.8799Z" fill="#2F80ED" stroke="#2E353A" stroke-linecap="round" stroke-linejoin="round"/>
<path d="M57.7703 48.4548L58.3698 48.3694C58.6276 48.3325 58.8859 48.4329 59.0887 48.6488C59.2915 48.8646 59.4224 49.1786 59.453 49.5225L60.3503 60.362C60.3868 60.8052 60.29 61.2495 60.0813 61.5974C59.8725 61.9452 59.5689 62.1681 59.2371 62.2171H59.1972C59.0329 62.2416 58.8665 62.2225 58.7077 62.161C58.5489 62.0995 58.4008 61.9967 58.2718 61.8586C58.1427 61.7205 58.0354 61.5498 57.9558 61.3562C57.8763 61.1626 57.8261 60.9499 57.8082 60.7304L56.9109 49.8935C56.8965 49.7219 56.9075 49.5481 56.9434 49.3822C56.9793 49.2163 57.0393 49.0615 57.1201 48.9266C57.2008 48.7918 57.3007 48.6795 57.414 48.5962C57.5273 48.513 57.6517 48.4604 57.7803 48.4414L57.7703 48.4548Z" fill="#2E353A" stroke="#2E353A" stroke-linecap="round" stroke-linejoin="round"/>
<path d="M58.6416 57.4873C58.6416 57.4873 57.2207 57.5567 57.0208 57.885C56.821 58.2133 56.857 59.3558 57.2427 59.4865C58.2259 59.8309 60.3163 59.6307 60.3983 59.3958C60.4802 59.1609 60.6481 57.7943 60.2164 57.6475C59.6953 57.5408 59.1688 57.4873 58.6416 57.4873Z" fill="white" stroke="#2E353A" stroke-linecap="round" stroke-linejoin="round"/>
<path d="M58.2319 54.8395C58.2319 54.8395 56.5792 54.7568 56.3214 55.1545C56.0635 55.5522 56.0136 57.0389 56.4493 57.2631C57.5604 57.8317 60.0605 57.6101 60.1744 57.3165C60.2883 57.0229 60.5362 55.4988 60.0465 55.2532C59.5569 55.0077 58.2319 54.8395 58.2319 54.8395Z" fill="white" stroke="#2E353A" stroke-linecap="round" stroke-linejoin="round"/>
<path d="M57.9941 51.85C57.9941 51.85 56.2274 51.7593 55.9516 52.1863C55.6758 52.6134 55.6219 54.1989 56.0875 54.4391C57.2866 55.0477 59.8847 55.0477 60.0066 54.7327C60.1285 54.4178 60.4562 52.5547 59.9326 52.2904C59.409 52.0262 57.9941 51.85 57.9941 51.85Z" fill="white" stroke="#2E353A" stroke-linecap="round" stroke-linejoin="round"/>
<path d="M56.9749 49.0527C56.9749 49.0527 55.2082 48.9646 54.9324 49.389C54.6566 49.8134 54.5907 51.4496 55.0683 51.6418C55.546 51.834 58.8654 52.2504 58.9874 51.9381C59.1093 51.6258 59.437 49.7574 58.9134 49.4931C58.3898 49.2289 56.9749 49.0527 56.9749 49.0527Z" fill="white" stroke="#2E353A" stroke-linecap="round" stroke-linejoin="round"/>
<path d="M62.7605 56.9028C62.4434 56.7863 62.1429 56.6005 61.8712 56.3529C60.4502 55.0423 60.4982 52.0315 60.4982 52.0315L60.1565 51.9007C59.8742 51.7573 59.6095 51.5584 59.3711 51.3108C59.4855 51.9328 59.5525 52.5686 59.5709 53.2086C59.5658 53.5603 59.4629 53.8969 59.2823 54.153C59.1017 54.409 58.8562 54.5662 58.5937 54.5939C58.152 54.6607 57.9561 54.7247 57.8083 53.94C57.6604 53.1552 56.9269 50.0109 56.877 49.5518C56.833 49.1354 57.3566 48.3934 58.19 48.2172C59.471 48.356 60.734 48.8338 62.0251 48.8338C62.4743 48.8901 62.9047 49.1017 63.2741 49.4477" fill="white"/>
<path d="M62.7605 56.9028C62.4434 56.7863 62.1429 56.6005 61.8712 56.3529C60.4502 55.0423 60.4982 52.0315 60.4982 52.0315L60.1565 51.9007C59.8742 51.7573 59.6095 51.5584 59.3711 51.3108C59.4855 51.9328 59.5525 52.5686 59.5709 53.2086C59.5658 53.5603 59.4629 53.8969 59.2823 54.153C59.1017 54.409 58.8562 54.5662 58.5937 54.5939C58.152 54.6607 57.9561 54.7247 57.8083 53.94C57.6604 53.1552 56.9269 50.0109 56.877 49.5518C56.833 49.1354 57.3566 48.3934 58.19 48.2172C59.471 48.356 60.734 48.8338 62.0251 48.8338C62.4743 48.8901 62.9047 49.1017 63.2741 49.4477" stroke="#2E353A" stroke-linecap="round" stroke-linejoin="round"/>
<path d="M64.1114 57.0683C63.9557 57.0789 63.7996 57.0789 63.6438 57.0683H64.1114Z" fill="white"/>
<path d="M64.1114 57.0683C63.9557 57.0789 63.7996 57.0789 63.6438 57.0683" stroke="#2E353A" stroke-linecap="round" stroke-linejoin="round"/>
<path d="M65.1567 56.8093C64.8173 56.9528 64.4665 57.0424 64.1115 57.0763L65.1567 56.8093Z" fill="white"/>
<path d="M65.1567 56.8093C64.8173 56.9528 64.4665 57.0424 64.1115 57.0763" stroke="#2E353A" stroke-linecap="round" stroke-linejoin="round"/>
<path d="M66.9213 55.9605H68.686" stroke="#2E353A" stroke-linecap="round" stroke-linejoin="round"/>
<path d="M67.0692 56.6145H67.8047" stroke="#2E353A" stroke-linecap="round" stroke-linejoin="round"/>
<path d="M60.4982 52.0315C60.4982 52.0315 61.4735 52.0315 62.113 51.2548" stroke="#2E353A" stroke-linecap="round" stroke-linejoin="round"/>
<path d="M59.3491 51.2254C59.321 50.8699 59.2654 50.5193 59.1832 50.1791" stroke="#2E353A" stroke-linecap="round" stroke-linejoin="round"/>
<path d="M57.7942 53.5957C57.7942 53.5957 57.6084 52.907 57.8342 52.6588C58.06 52.4105 58.6596 52.0529 58.7635 52.3278C58.8674 52.6027 59.0933 53.8706 59.0313 54.1188L58.9694 54.367" stroke="#2E353A" stroke-width="0.5" stroke-linecap="round" stroke-linejoin="round"/>
<path d="M84.8837 61.9475H67.9865V50.8544H84.8837" fill="#2F80ED"/>
<path d="M84.8837 61.9475H67.9865V50.8544H84.8837" stroke="#2E353A" stroke-linecap="round" stroke-linejoin="round"/>
<path d="M69.2256 61.2055C69.4353 61.2055 69.6053 60.9784 69.6053 60.6984C69.6053 60.4183 69.4353 60.1912 69.2256 60.1912C69.0159 60.1912 68.8459 60.4183 68.8459 60.6984C68.8459 60.9784 69.0159 61.2055 69.2256 61.2055Z" fill="white" stroke="#2E353A" stroke-linecap="round" stroke-linejoin="round"/>
<path d="M40.4014 28.1796V25.8227" stroke="#2E353A" stroke-linecap="round" stroke-linejoin="round"/>
<path d="M34.0123 80.4851C33.9542 80.6787 33.8674 80.8546 33.7572 81.0023C33.647 81.15 33.5155 81.2664 33.3708 81.3446C33.1449 81.47 32.8452 81.4406 32.4954 81.7022C31.712 82.2921 29.7515 81.769 28.3286 81.9691C26.9057 82.1693 24.9951 80.0714 24.9951 80.0714L19.3514 80.4851V73.0113C19.3514 73.0113 25.2349 73.3397 26.51 72.6857C27.785 72.0318 29.2059 70.6545 29.8434 70.7212C30.4809 70.7879 35.727 71.5727 35.727 71.5727L34.0123 80.4851Z" fill="white" stroke="#2E353A" stroke-linecap="round" stroke-linejoin="round"/>
<path d="M35.4612 50.3659C36.6252 50.538 37.7249 51.1673 38.6212 52.1741C39.5175 53.181 40.1701 54.5202 40.4965 56.0224C40.823 57.5247 40.8085 59.1225 40.455 60.6137C40.1016 62.105 39.4249 63.4228 38.5107 64.4004C37.5965 65.3781 36.4857 65.9717 35.3189 66.1062C34.1521 66.2408 32.9816 65.9101 31.9554 65.1561C30.9293 64.4022 30.0936 63.2587 29.554 61.8704C29.0145 60.4821 28.7952 58.9113 28.9241 57.3565C29.0969 55.2724 29.8825 53.3654 31.108 52.0549C32.3336 50.7444 33.8987 50.1378 35.4592 50.3686L35.4612 50.3659ZM34.286 64.534C35.2202 64.673 36.1642 64.4389 36.9987 63.8614C37.8333 63.2839 38.5208 62.3888 38.9745 61.2894C39.4282 60.1899 39.6276 58.9355 39.5474 57.6847C39.4673 56.4339 39.1113 55.2429 38.5244 54.2624C37.9376 53.2818 37.1461 52.5557 36.2503 52.1759C35.3544 51.7961 34.3944 51.7795 33.4915 52.1284C32.5886 52.4773 31.7835 53.176 31.1779 54.136C30.5723 55.0961 30.1934 56.2744 30.0892 57.522C29.95 59.1951 30.3139 60.8735 31.1009 62.1883C31.8878 63.5032 33.0335 64.3469 34.286 64.534Z" fill="white" stroke="#2E353A" stroke-linecap="round" stroke-linejoin="round"/>
<path d="M35.4971 49.9148C36.6606 50.0874 37.7597 50.717 38.6554 51.7238C39.5511 52.7306 40.2031 54.0695 40.5291 55.5712C40.855 57.073 40.8403 58.6701 40.4867 60.1606C40.1331 61.6511 39.4566 62.9682 38.5426 63.9452C37.6286 64.9222 36.5182 65.5154 35.3519 65.6496C34.1855 65.7838 33.0156 65.4532 31.9899 64.6994C30.9642 63.9456 30.129 62.8026 29.5897 61.4148C29.0504 60.027 28.8313 58.4568 28.9601 56.9028C29.0456 55.8706 29.2826 54.871 29.6574 53.9612C30.0323 53.0513 30.5377 52.249 31.1447 51.6001C31.7518 50.9512 32.4486 50.4683 33.1954 50.1792C33.9422 49.89 34.7243 49.8002 35.4971 49.9148ZM34.322 64.0829C35.2561 64.2219 36.2002 63.9879 37.0347 63.4103C37.8692 62.8328 38.5568 61.9377 39.0105 60.8383C39.4641 59.7388 39.6635 58.4844 39.5834 57.2336C39.5033 55.9828 39.1473 54.7918 38.5604 53.8113C37.9735 52.8307 37.1821 52.1046 36.2863 51.7248C35.3904 51.345 34.4303 51.3285 33.5275 51.6774C32.6246 52.0263 31.8194 52.7249 31.2138 53.6849C30.6082 54.645 30.2294 55.8233 30.1252 57.0709C29.9866 58.7432 30.3508 60.4206 31.1377 61.7345C31.9247 63.0483 33.07 63.8911 34.322 64.0776V64.0829Z" fill="white" stroke="#2E353A" stroke-linecap="round" stroke-linejoin="round"/>
<path d="M33.3623 66.4629L32.9078 71.9439C32.8728 72.3659 33.1005 72.7459 33.4165 72.7926L33.6966 72.834C34.0125 72.8808 34.297 72.5766 34.332 72.1546L34.7865 66.6736C34.8215 66.2516 34.5937 65.8716 34.2778 65.8249L33.9977 65.7835C33.6818 65.7367 33.3973 66.0409 33.3623 66.4629Z" fill="#2F80ED" stroke="#2E353A" stroke-linecap="round" stroke-linejoin="round"/>
<path d="M32.6673 84.1312H32.6273C32.4621 84.107 32.3021 84.0393 32.1566 83.9321C32.011 83.825 31.8828 83.6803 31.7793 83.5066C31.6758 83.3329 31.5991 83.1336 31.5536 82.9201C31.5081 82.7066 31.4947 82.4832 31.5142 82.2627L32.4115 71.4258C32.4254 71.2539 32.4646 71.0874 32.5268 70.9358C32.5891 70.7842 32.6731 70.6505 32.7741 70.5424C32.8751 70.4343 32.9911 70.3538 33.1154 70.3057C33.2398 70.2576 33.37 70.2428 33.4986 70.2621L34.0982 70.3502C34.3579 70.3884 34.5956 70.5629 34.759 70.8352C34.9224 71.1075 34.9981 71.4553 34.9695 71.8022L34.0722 82.6524C34.0536 82.8728 34.0026 83.0861 33.9222 83.2802C33.8418 83.4742 33.7335 83.6452 33.6036 83.7833C33.4736 83.9213 33.3246 84.0239 33.165 84.0849C33.0053 84.146 32.8382 84.1644 32.6733 84.1392L32.6673 84.1312Z" fill="#2E353A" stroke="#2E353A" stroke-linecap="round" stroke-linejoin="round"/>
<path d="M33.2129 79.388C33.2129 79.388 34.6318 79.4601 34.8316 79.7857C35.0315 80.1114 34.9955 81.2565 34.6098 81.3872C33.6285 81.7342 31.5361 81.5314 31.4562 81.2965C31.3762 81.0616 31.2044 79.695 31.638 79.5482C32.1592 79.4415 32.6856 79.388 33.2129 79.388Z" fill="white" stroke="#2E353A" stroke-linecap="round" stroke-linejoin="round"/>
<path d="M33.6285 76.7482C33.6285 76.7482 35.2813 76.6628 35.5391 77.0605C35.7969 77.4582 35.8489 78.9449 35.4112 79.1691C34.3 79.7377 31.7999 79.5161 31.688 79.2225C31.5761 78.9289 31.3263 77.4048 31.8159 77.1592C32.3055 76.9137 33.6285 76.7482 33.6285 76.7482Z" fill="white" stroke="#2E353A" stroke-linecap="round" stroke-linejoin="round"/>
<path d="M33.8704 73.7507C33.8704 73.7507 35.637 73.6626 35.9128 74.087C36.1886 74.5114 36.2426 76.1023 35.7769 76.3398C34.5778 76.9511 31.9798 76.9484 31.8579 76.6361C31.736 76.3238 31.4082 74.4554 31.9318 74.1911C32.4554 73.9269 33.8704 73.7507 33.8704 73.7507Z" fill="white" stroke="#2E353A" stroke-linecap="round" stroke-linejoin="round"/>
<path d="M34.8876 70.956C34.8876 70.956 36.6543 70.8653 36.93 71.2897C37.2058 71.7141 37.2718 73.353 36.7921 73.5452C36.3125 73.7373 32.995 74.1511 32.8731 73.8388C32.7512 73.5265 32.4255 71.658 32.9491 71.3965C33.4727 71.1349 34.8876 70.956 34.8876 70.956Z" fill="white" stroke="#2E353A" stroke-linecap="round" stroke-linejoin="round"/>
<path d="M28.0168 78.9823C28.7138 79.0189 29.4019 78.7642 29.9853 78.2536C31.4082 76.9431 31.3583 73.9322 31.3583 73.9322L31.702 73.8014C31.9841 73.659 32.2482 73.4601 32.4854 73.2115C32.371 73.8335 32.304 74.4693 32.2856 75.1093C32.2932 75.4601 32.3975 75.7948 32.5787 76.049C32.7598 76.3033 33.0049 76.4591 33.2668 76.4866C33.7085 76.5507 33.9044 76.6174 34.0522 75.83C34.2001 75.0426 34.9336 71.901 34.9835 71.4445C35.0335 70.9881 34.5039 70.2834 33.6705 70.1099C32.3895 70.2514 31.1245 70.7292 29.8354 70.7292C29.3859 70.7852 28.9549 70.9958 28.5844 71.3404" fill="white"/>
<path d="M28.0168 78.9823C28.7138 79.0189 29.4019 78.7642 29.9853 78.2536C31.4082 76.9431 31.3583 73.9322 31.3583 73.9322L31.702 73.8014C31.9841 73.659 32.2482 73.4601 32.4854 73.2115C32.371 73.8335 32.304 74.4693 32.2856 75.1093C32.2932 75.4601 32.3975 75.7948 32.5787 76.049C32.7598 76.3033 33.0049 76.4591 33.2668 76.4866C33.7085 76.5507 33.9044 76.6174 34.0522 75.83C34.2001 75.0426 34.9336 71.901 34.9835 71.4445C35.0335 70.9881 34.5039 70.2834 33.6705 70.1099C32.3895 70.2514 31.1245 70.7292 29.8354 70.7292C29.3859 70.7852 28.9549 70.9958 28.5844 71.3404" stroke="#2E353A" stroke-linecap="round" stroke-linejoin="round"/>
<path d="M26.7058 78.7127C26.9852 78.8274 27.2724 78.9052 27.5632 78.9449L26.7058 78.7127Z" fill="white"/>
<path d="M26.7058 78.7127C26.9852 78.8274 27.2724 78.9052 27.5632 78.9449" stroke="#2E353A" stroke-linecap="round" stroke-linejoin="round"/>
<path d="M24.9391 77.8613H23.1745" stroke="#2E353A" stroke-linecap="round" stroke-linejoin="round"/>
<path d="M24.7932 78.5152H24.0578" stroke="#2E353A" stroke-linecap="round" stroke-linejoin="round"/>
<path d="M31.3623 73.9322C31.3623 73.9322 30.387 73.9322 29.7475 73.1555" stroke="#2E353A" stroke-linecap="round" stroke-linejoin="round"/>
<path d="M32.5134 73.1261C32.5408 72.7707 32.5957 72.4201 32.6773 72.0798" stroke="#2E353A" stroke-linecap="round" stroke-linejoin="round"/>
<path d="M34.0602 75.4963C34.0602 75.4963 34.2461 74.8077 34.0183 74.5594C33.7904 74.3112 33.1929 73.9535 33.091 74.2285C32.989 74.5034 32.7612 75.7739 32.8232 76.0195L32.8851 76.2677" stroke="#2E353A" stroke-width="0.5" stroke-linecap="round" stroke-linejoin="round"/>
<path d="M6.97675 83.8509H23.8739V72.7551H6.97675" fill="#2F80ED"/>
<path d="M6.97675 83.8509H23.8739V72.7551H6.97675" stroke="#2E353A" stroke-linecap="round" stroke-linejoin="round"/>
<path d="M22.2552 82.5991C22.2552 82.6994 22.2774 82.7974 22.3192 82.8808C22.3609 82.9642 22.4202 83.0292 22.4896 83.0676C22.5589 83.106 22.6353 83.116 22.7089 83.0964C22.7826 83.0769 22.8503 83.0286 22.9034 82.9577C22.9565 82.8867 22.9926 82.7964 23.0073 82.698C23.0219 82.5996 23.0144 82.4976 22.9857 82.405C22.9569 82.3123 22.9083 82.2331 22.8458 82.1774C22.7834 82.1217 22.71 82.0919 22.6349 82.0919C22.5342 82.0919 22.4376 82.1453 22.3664 82.2404C22.2952 82.3356 22.2552 82.4646 22.2552 82.5991Z" fill="white" stroke="#2E353A" stroke-linecap="round" stroke-linejoin="round"/>
</svg>
