<svg width="31" height="36" viewBox="0 0 31 36" fill="none" xmlns="http://www.w3.org/2000/svg">
<path id="Vector" d="M27.2914 22.2857C27.0552 23.9226 26.4823 25.4928 25.609 26.8972C24.7356 28.3016 23.5807 29.5099 22.2171 30.4457C21.8743 29.0229 19.7657 27.8571 17.0057 27.5314C17.2971 25.4914 17.8971 23.5886 18.3086 22.4914C18.96 22.9029 19.7143 23.1429 20.5714 23.1429C26.6571 23.1429 25.7143 12.8571 25.7143 12.8571C25.7143 12.8571 24.8571 14.5714 22.2857 14.5714H20.5714C19.8089 14.5712 19.0601 14.7745 18.4023 15.1602C17.7445 15.5459 17.2015 16.1002 16.8294 16.7658C16.4573 17.4314 16.2695 18.1843 16.2854 18.9466C16.3014 19.709 16.5204 20.4534 16.92 21.1029C18.0514 19.92 19.2686 18.8571 20.5714 18C18.3086 20.28 16.5771 23.1429 15.4286 25.8857C14.3486 23.7771 12.9943 22.1657 12 21.4286C12.8057 21.7714 13.56 22.2857 14.28 22.8C14.4686 22.3886 14.5714 21.9257 14.5714 21.4286C14.4857 16.7486 6.85714 17.1429 6.85714 17.1429C7.38857 17.8629 7.71429 18.7714 7.71429 19.7143V21.4286C7.71429 23.3143 9.25714 24.8571 11.1429 24.8571C12 24.8571 12.7714 24.5486 13.3714 24C13.7657 25.08 14.0571 26.3143 14.2114 27.4971C11.2629 27.7543 9 28.9543 8.64 30.4629C5.50286 28.2857 3.42857 24.6686 3.42857 20.5714C3.42857 13.9543 8.81143 8.57143 15.4286 8.57143V13.7143L24 6.85714L15.4286 0V5.14286C11.3367 5.14286 7.41234 6.76836 4.51892 9.66178C1.62551 12.5552 0 16.4795 0 20.5714C0 24.6633 1.62551 28.5877 4.51892 31.4811C7.41234 34.3745 11.3367 36 15.4286 36C23.3657 36 29.8971 30 30.7543 22.2857H27.2914Z" fill="white"/>
</svg>
