<svg width="35" height="35" viewBox="0 0 35 35" fill="none" xmlns="http://www.w3.org/2000/svg">
<path d="M33.4395 0H1.4862C0.66879 0 0 0.651592 0 1.44798V21.3577C0 22.1541 0.66879 22.8057 1.4862 22.8057H33.5138C34.3312 22.8057 35 22.1541 35 21.3577V1.44798C34.9257 0.651592 34.2569 0 33.4395 0ZM28.2378 11.0047L21.0297 13.8282C20.6582 13.973 20.2866 13.973 19.9151 13.8282L13.8217 11.2219L7.95117 14.335C7.72824 14.4798 7.50531 14.4798 7.28238 14.4798C6.76221 14.4798 6.24204 14.1902 6.01911 13.7558C5.64756 13.0318 5.87049 12.2355 6.61359 11.8011L13.0786 8.3983C13.4501 8.1811 13.9703 8.1811 14.3418 8.3259L20.5839 10.9323L27.1231 8.3259C27.8662 8.03631 28.6837 8.3983 29.0552 9.12229C29.3524 9.84628 28.9809 10.6427 28.2378 11.0047Z" fill="#5c7eee"/>
<path d="M27.4204 31.3488L18.949 27.5117V25.5569H15.9766V27.5117L7.43098 31.3488C6.68788 31.7108 6.39064 32.5072 6.68788 33.2312C7.05943 33.9552 7.87684 34.2448 8.61994 33.9552L15.9023 30.6972V32.652C15.9023 33.4484 16.5711 34.1 17.3885 34.1C18.2059 34.1 18.8747 33.4484 18.8747 32.652V30.6972L26.1571 33.9552C26.38 34.0276 26.5286 34.1 26.7516 34.1C27.2717 34.1 27.8662 33.8104 28.0892 33.3036C28.4607 32.5072 28.1635 31.6384 27.4204 31.3488Z" fill="#5c7eee"/>
</svg>
