<svg width="140" height="141" viewBox="0 0 140 141" fill="none" xmlns="http://www.w3.org/2000/svg">
<path d="M132.691 69.6341C132.588 69.401 132.488 69.165 132.392 68.9259C128.908 59.8097 132.476 50.3707 133.289 41.1379C135.903 11.4495 101.473 -3.77123 76.3232 0.800352C69.3936 2.09026 62.8765 5.02957 57.3227 9.36983C52.0758 13.5022 47.7343 18.8118 41.606 21.749C27.7359 28.3912 8.29618 28.8484 6.27931 47.8698C5.17974 58.2529 12.3658 67.1869 11.2005 77.3759C9.85291 89.1634 1.42387 99.451 2.66088 111.785C3.80826 123.214 13.8598 133.251 23.9949 137.434C31.5366 140.544 39.9686 141.396 47.9973 140.192C56.2889 138.949 62.9371 134.598 69.8094 130.033C77.2076 125.094 84.1038 121.983 92.9781 121.227C99.2528 120.692 105.593 120.809 111.886 120.331C120.13 119.7 129.216 117.459 134.415 110.492C140.648 102.161 141.305 88.8885 138.156 79.2284C136.988 75.6429 134.197 72.9687 132.691 69.6341Z" fill="url(#paint0_linear_1_89121)"/>
<path d="M29.4234 33.0417H16.7974V50.3201H29.4234V33.0417Z" fill="#F5F5F5"/>
<path d="M26.2234 35.2207H13.5974V52.4992H26.2234V35.2207Z" fill="#E0E0E0"/>
<path d="M64.7743 37.3587H64.6928H64.4483H63.4973L59.9296 37.3713L47.6213 37.4131H47.5878V37.3796C47.4527 36.917 47.4287 36.429 47.518 35.9553C47.6072 35.4817 47.807 35.0358 48.1012 34.654C48.3953 34.2722 48.7755 33.9654 49.2108 33.7584C49.6461 33.5514 50.1241 33.4501 50.6059 33.4629L50.562 33.5235C50.4841 33.252 50.4516 32.9695 50.4658 32.6875C50.4803 32.2148 50.6178 31.7541 50.8649 31.3509C51.112 30.9477 51.46 30.6159 51.8745 30.3884C52.2779 30.178 52.7266 30.0693 53.1816 30.0719C53.6366 30.0744 54.084 30.1881 54.485 30.403L54.4202 30.426C54.643 29.9101 54.9703 29.4459 55.3815 29.0628C55.7927 28.6797 56.2788 28.386 56.8091 28.2001C57.2972 28.0156 57.8179 27.933 58.3392 27.9575C58.8604 27.9819 59.3711 28.1129 59.8397 28.3422C60.6848 28.7878 61.3495 29.5123 61.7208 30.3926C62.06 31.165 62.1407 32.0264 61.9507 32.8484L61.9172 32.8087C62.4024 32.7585 62.8924 32.8303 63.3427 33.0177C63.7433 33.1795 64.1041 33.4262 64.4002 33.7408C64.5348 33.8825 64.6468 34.0439 64.7325 34.2195C64.8086 34.3817 64.8682 34.5511 64.9102 34.7253C64.9821 35.0297 65.0227 35.3406 65.0314 35.6532C65.046 36.0825 65.0088 36.512 64.9206 36.9324C64.8971 37.042 64.8671 37.1502 64.8308 37.2563L64.7931 37.3608" fill="#EBEBEB"/>
<path d="M113.326 50.6375C112.743 50.7347 112.2 50.9939 111.757 51.3856C111.315 51.7772 110.992 52.2854 110.826 52.852C110.659 53.4185 110.655 54.0206 110.815 54.5893C110.974 55.158 111.29 55.6703 111.727 56.0676C112.164 56.4649 112.704 56.7311 113.286 56.8358C113.867 56.9405 114.466 56.8794 115.014 56.6596C115.562 56.4397 116.038 56.07 116.385 55.5927C116.733 55.1154 116.94 54.5498 116.981 53.9606L117.844 53.8164L118.312 52.8425L118.985 53.6241L120.066 53.4444L120.528 52.4746L121.201 53.2563L122.129 53.1016L122.411 52.5101L122.829 52.9867L123.37 52.8968L123.964 52.1109L122.946 50.9907L116.519 52.0587C116.187 51.5325 115.706 51.1166 115.138 50.8636C114.569 50.6106 113.939 50.5319 113.326 50.6375ZM111.574 54.1195C111.545 53.9436 111.569 53.763 111.642 53.6005C111.715 53.438 111.835 53.3008 111.986 53.2063C112.137 53.1118 112.313 53.0641 112.491 53.0693C112.669 53.0745 112.842 53.1324 112.988 53.2356C113.133 53.3388 113.244 53.4828 113.308 53.6493C113.372 53.8158 113.385 53.9975 113.345 54.1714C113.306 54.3453 113.216 54.5036 113.087 54.6264C112.958 54.7492 112.795 54.831 112.619 54.8615C112.502 54.8818 112.381 54.8787 112.265 54.8524C112.149 54.8261 112.039 54.777 111.942 54.708C111.845 54.6391 111.762 54.5516 111.699 54.4505C111.636 54.3495 111.594 54.237 111.574 54.1195Z" fill="#EBEBEB"/>
<path d="M115.375 74.6802L115.764 81.8073C115.771 81.9296 115.823 82.045 115.912 82.1296C116.001 82.2143 116.118 82.262 116.241 82.2629L129.063 82.3549C129.126 82.3554 129.189 82.3435 129.247 82.3199C129.306 82.2962 129.359 82.2613 129.404 82.217C129.449 82.1728 129.485 82.1201 129.51 82.062C129.534 82.0038 129.547 81.9414 129.548 81.8783L129.588 76.3313C129.588 76.2678 129.576 76.2049 129.552 76.1461C129.528 76.0873 129.493 76.0338 129.448 75.9887C129.404 75.9436 129.351 75.9078 129.292 75.8834C129.233 75.859 129.17 75.8464 129.107 75.8464H121.221C121.158 75.8467 121.096 75.8342 121.038 75.8098C120.979 75.7854 120.927 75.7495 120.883 75.7043L119.522 74.3458C119.433 74.2565 119.312 74.2056 119.186 74.2037L115.86 74.1807C115.795 74.18 115.731 74.1927 115.671 74.2177C115.61 74.2428 115.556 74.2798 115.511 74.3265C115.465 74.3732 115.43 74.4287 115.407 74.4895C115.384 74.5503 115.373 74.6151 115.375 74.6802Z" fill="#EBEBEB"/>
<path d="M129.597 75.0097L115.586 74.907L115.525 83.2795L129.536 83.3822L129.597 75.0097Z" fill="#F5F5F5"/>
<path d="M114.468 75.6484L115.474 84.3848C115.482 84.4602 115.517 84.53 115.574 84.5808C115.63 84.6317 115.703 84.6601 115.779 84.6607L129.433 84.7589C129.511 84.7597 129.586 84.7311 129.643 84.6787C129.701 84.6264 129.736 84.5542 129.742 84.4768L130.495 75.7508C130.499 75.7083 130.494 75.6654 130.48 75.6249C130.466 75.5844 130.444 75.5473 130.415 75.5158C130.386 75.4843 130.351 75.4592 130.312 75.4421C130.273 75.425 130.23 75.4162 130.188 75.4164L114.776 75.3036C114.732 75.3032 114.689 75.3122 114.649 75.33C114.609 75.3477 114.573 75.3738 114.544 75.4064C114.515 75.439 114.493 75.4775 114.48 75.5193C114.467 75.561 114.463 75.605 114.468 75.6484Z" fill="#EBEBEB"/>
<path d="M113.756 114.024C110.506 111.754 109.768 107.545 109.898 103.749C109.919 103.122 109.85 102.449 110.151 101.896C110.452 101.342 111.152 100.961 111.718 101.227C112.189 101.448 112.393 101.996 112.657 102.447C113.007 103.05 113.521 103.542 114.139 103.864C114.542 104.073 115.042 104.201 115.439 103.981C115.984 103.68 116.049 102.926 116.045 102.297C116.036 101.124 116.029 99.9518 116.022 98.7814C115.984 98.1524 116.048 97.5214 116.212 96.9129C116.408 96.3152 116.839 95.7613 117.439 95.592C118.039 95.4227 118.776 95.7696 118.902 96.3862C118.925 96.6468 118.931 96.9086 118.919 97.17C118.937 97.4312 119.059 97.7197 119.305 97.797C119.552 97.8743 119.809 97.6925 119.997 97.5065C120.647 96.8795 121.086 96.0539 121.498 95.2409C121.909 94.4278 122.311 93.5939 122.9 92.9C123.49 92.2061 124.303 91.6585 125.199 91.6084C126.096 91.5582 127.061 92.1141 127.289 92.9982C127.517 93.8823 126.999 94.7852 126.437 95.5063C125.6 96.5711 124.615 97.5095 123.51 98.2923C123.299 98.4127 123.13 98.5971 123.03 98.819C122.894 99.237 123.291 99.6551 123.705 99.793C124.173 99.9498 124.683 99.8996 125.168 99.9581C125.653 100.017 126.19 100.232 126.376 100.696C126.633 101.338 126.096 102.013 125.567 102.454C124.509 103.337 123.307 104.032 122.014 104.508C121.55 104.677 121.063 104.826 120.691 105.152C120.319 105.478 120.091 106.042 120.317 106.485C120.543 106.928 121.122 107.071 121.606 106.981C122.091 106.891 122.524 106.627 122.986 106.454C123.851 106.128 124.967 106.186 125.521 106.935C125.69 107.192 125.797 107.485 125.833 107.79C125.869 108.095 125.834 108.405 125.73 108.695C125.519 109.271 125.195 109.8 124.777 110.25C123.406 111.891 121.624 113.14 119.612 113.867C117.608 114.563 115.75 114.751 113.76 114.022" fill="#EBEBEB"/>
<path d="M113.707 116.834C113.884 115.077 114.229 113.341 114.736 111.65C115.365 109.589 116.113 107.565 116.974 105.589L117.641 104.03C117.862 103.518 118.08 103.01 118.324 102.527C118.795 101.6 119.318 100.7 119.89 99.8311C120.429 98.9951 120.97 98.2259 121.482 97.509C121.994 96.7922 122.488 96.1338 122.96 95.5528C123.702 94.6276 124.517 93.763 125.397 92.9674C125.706 92.6873 125.955 92.4783 126.124 92.3403L126.319 92.1815C126.339 92.1617 126.362 92.1449 126.388 92.1313L126.327 92.192C126.279 92.2317 126.218 92.2881 126.139 92.3571C125.974 92.5034 125.721 92.7186 125.426 93.0029C124.562 93.8068 123.759 94.6738 123.023 95.5966C122.554 96.1798 122.07 96.8402 121.56 97.5571C121.05 98.274 120.515 99.0494 119.977 99.8812C119.412 100.752 118.894 101.654 118.427 102.582C118.184 103.062 117.967 103.564 117.747 104.078L117.079 105.637C116.22 107.615 115.472 109.638 114.838 111.698C114.33 113.382 113.98 115.11 113.793 116.859" fill="#E0E0E0"/>
<path d="M118.357 102.517C118.328 102.429 118.307 102.339 118.296 102.247C118.263 102.073 118.223 101.829 118.179 101.507C118.089 100.88 117.997 100.013 117.897 99.0533C117.797 98.094 117.688 97.2287 117.594 96.6059C117.546 96.2944 117.504 96.0415 117.475 95.8681C117.452 95.7786 117.44 95.6866 117.439 95.5943C117.475 95.6795 117.502 95.7686 117.519 95.8597C117.563 96.029 117.617 96.2777 117.675 96.5912C117.795 97.2182 117.914 98.0814 118.012 99.0408C118.11 100 118.194 100.842 118.261 101.497C118.292 101.791 118.319 102.042 118.34 102.241C118.356 102.332 118.362 102.424 118.357 102.517Z" fill="#E0E0E0"/>
<path d="M126.446 101.003C126.34 101.027 126.231 101.04 126.122 101.042C125.913 101.061 125.615 101.086 125.245 101.128C124.505 101.21 123.485 101.356 122.369 101.565C121.253 101.774 120.247 102.014 119.526 102.204C119.165 102.299 118.874 102.382 118.674 102.439C118.571 102.473 118.465 102.499 118.358 102.516C118.455 102.466 118.556 102.426 118.661 102.395C118.857 102.324 119.146 102.23 119.497 102.125C120.214 101.916 121.217 101.663 122.337 101.45C123.294 101.266 124.26 101.131 125.23 101.047C125.602 101.013 125.903 101.001 126.112 100.996C126.223 100.99 126.335 100.992 126.446 101.003Z" fill="#E0E0E0"/>
<path d="M114.837 111.505C114.814 111.474 114.795 111.44 114.781 111.404C114.743 111.327 114.697 111.229 114.643 111.112C114.524 110.859 114.361 110.485 114.166 110.021C113.775 109.095 113.278 107.799 112.747 106.361C112.216 104.923 111.729 103.621 111.359 102.689C111.178 102.235 111.029 101.853 110.916 101.583L110.799 101.282C110.783 101.247 110.771 101.211 110.764 101.173C110.787 101.204 110.805 101.238 110.82 101.274L110.958 101.566C111.077 101.819 111.24 102.193 111.435 102.657C111.825 103.583 112.323 104.879 112.854 106.319C113.385 107.759 113.872 109.057 114.242 109.989L114.685 111.095L114.802 111.396C114.818 111.431 114.83 111.467 114.837 111.505Z" fill="#E0E0E0"/>
<path d="M125.582 108.04C125.549 108.06 125.513 108.074 125.476 108.084L125.162 108.189L124.013 108.563C123.041 108.879 121.703 109.328 120.228 109.817C118.752 110.306 117.406 110.757 116.428 111.052C115.939 111.201 115.542 111.316 115.266 111.389L114.948 111.472C114.911 111.484 114.874 111.491 114.835 111.495C114.869 111.475 114.904 111.46 114.942 111.449L115.253 111.347L116.405 110.973C117.377 110.657 118.704 110.208 120.19 109.706C121.676 109.205 123.009 108.768 123.988 108.473C124.477 108.325 124.874 108.21 125.15 108.137L125.469 108.053C125.506 108.045 125.544 108.041 125.582 108.04Z" fill="#E0E0E0"/>
<path d="M137.463 118.942C137.463 118.974 107.414 118.997 70.3557 118.997C33.297 118.997 3.23999 118.974 3.23999 118.942C3.23999 118.911 33.2824 118.894 70.3557 118.894C107.429 118.894 137.463 118.913 137.463 118.942Z" fill="#263238"/>
<path d="M121.981 111.648C122.345 112.118 122.999 111.924 123.291 111.61C123.584 111.297 123.691 110.862 123.789 110.444C124.01 109.493 124.234 108.496 123.985 107.551C123.921 107.264 123.781 107 123.578 106.786C123.475 106.682 123.346 106.607 123.205 106.568C123.064 106.529 122.915 106.528 122.773 106.565C122.443 106.669 122.253 107.006 122.119 107.326C121.723 108.266 121.543 109.283 121.59 110.302C121.581 110.78 121.718 111.249 121.981 111.648Z" fill="#2F80EC"/>
<g opacity="0.2">
<path d="M121.982 111.647C122.345 112.117 122.999 111.923 123.292 111.609C123.585 111.296 123.691 110.861 123.789 110.443C124.011 109.492 124.235 108.495 123.986 107.55C123.922 107.263 123.781 106.999 123.578 106.785C123.475 106.681 123.347 106.606 123.206 106.567C123.064 106.528 122.915 106.527 122.774 106.564C122.443 106.668 122.253 107.005 122.119 107.325C121.724 108.265 121.543 109.282 121.591 110.301C121.582 110.779 121.718 111.248 121.982 111.647Z" fill="black"/>
</g>
<path d="M123.376 114.051C123.934 113.753 124.572 113.643 125.197 113.735C125.536 113.749 125.861 113.875 126.12 114.095C126.361 114.333 126.426 114.77 126.177 114.997C126.014 115.118 125.815 115.179 125.612 115.171C125.128 115.19 124.586 115.131 124.214 115.443C124.005 115.618 123.869 115.902 123.61 115.999C123.48 116.035 123.34 116.029 123.214 115.98C123.087 115.931 122.98 115.842 122.908 115.727C122.77 115.491 122.729 115.211 122.791 114.945C122.813 114.761 122.877 114.584 122.979 114.429C123.08 114.274 123.216 114.144 123.376 114.051Z" fill="#2F80EC"/>
<path d="M121.076 112.396C121.239 112.158 121.342 111.884 121.375 111.598C121.409 111.312 121.372 111.022 121.268 110.753C121.052 110.214 120.69 109.746 120.223 109.401C119.696 108.977 119.091 108.661 118.443 108.468C118.192 108.382 117.925 108.351 117.661 108.376C117.531 108.391 117.406 108.436 117.296 108.509C117.187 108.581 117.097 108.679 117.034 108.794C116.869 109.152 117.065 109.564 117.272 109.896C117.634 110.485 118.043 111.044 118.493 111.568C118.857 111.986 119.268 112.404 119.795 112.573C120.322 112.743 120.861 112.694 121.118 112.322" fill="#2F80EC"/>
<path d="M122.329 118.991C122.343 118.918 122.35 118.844 122.348 118.77C122.348 118.607 122.367 118.404 122.377 118.161C122.388 117.919 122.415 117.603 122.467 117.271C122.529 116.911 122.619 116.556 122.737 116.209C122.852 115.864 123.015 115.537 123.222 115.238C123.391 114.994 123.612 114.791 123.87 114.644C124.043 114.545 124.232 114.474 124.428 114.435C124.499 114.428 124.569 114.414 124.637 114.393C124.562 114.384 124.487 114.384 124.413 114.393C124.209 114.419 124.012 114.481 123.83 114.577C123.558 114.721 123.324 114.926 123.147 115.177C122.931 115.481 122.761 115.816 122.643 116.17C122.523 116.521 122.434 116.882 122.377 117.248C122.334 117.547 122.31 117.847 122.304 118.149C122.304 118.406 122.304 118.615 122.304 118.757C122.303 118.836 122.312 118.914 122.329 118.991Z" fill="#263238"/>
<path d="M122.347 118.519C122.35 118.485 122.35 118.451 122.347 118.417C122.347 118.34 122.347 118.241 122.332 118.122C122.318 117.869 122.299 117.495 122.29 117.044C122.267 116.132 122.29 114.874 122.364 113.491C122.437 112.107 122.585 110.849 122.723 109.948C122.757 109.722 122.79 109.52 122.821 109.342C122.853 109.164 122.878 109.01 122.905 108.884C122.932 108.759 122.945 108.675 122.959 108.596C122.966 108.562 122.97 108.528 122.972 108.493C122.957 108.524 122.946 108.557 122.94 108.592L122.869 108.878C122.838 109.001 122.807 109.154 122.771 109.331C122.736 109.509 122.696 109.712 122.66 109.938C122.467 111.114 122.337 112.3 122.272 113.491C122.19 114.881 122.186 116.145 122.226 117.056C122.242 117.514 122.272 117.882 122.297 118.137L122.328 118.429C122.33 118.46 122.337 118.49 122.347 118.519Z" fill="#263238"/>
<path d="M122.23 116.093C122.232 115.991 122.226 115.889 122.211 115.788C122.18 115.511 122.134 115.235 122.075 114.963C121.989 114.558 121.879 114.159 121.745 113.767C121.586 113.285 121.392 112.815 121.166 112.36C120.772 111.523 120.23 110.764 119.565 110.12C119.45 110.01 119.327 109.907 119.199 109.813C119.143 109.771 119.093 109.729 119.043 109.696L118.903 109.608C118.817 109.552 118.729 109.501 118.637 109.455C118.946 109.675 119.241 109.913 119.521 110.168C120.163 110.819 120.689 111.574 121.076 112.402C121.301 112.852 121.496 113.318 121.657 113.794C121.793 114.182 121.909 114.577 122.004 114.977C122.086 115.318 122.136 115.604 122.169 115.792C122.181 115.894 122.201 115.995 122.23 116.093Z" fill="#263238"/>
<path d="M23.6558 72.0302H0.0256348V87.8561H23.6558V72.0302Z" fill="#FAFAFA"/>
<path d="M17.2349 81.6311H16.6079V77.8418C16.5927 77.4143 16.4121 77.0095 16.1044 76.7124C15.7966 76.4154 15.3855 76.2494 14.9578 76.2494C14.53 76.2494 14.119 76.4154 13.8112 76.7124C13.5034 77.0095 13.3229 77.4143 13.3077 77.8418V81.6311H12.6807V77.8418C12.6986 77.2493 12.9466 76.687 13.3721 76.2742C13.7976 75.8614 14.3671 75.6306 14.9599 75.6306C15.5527 75.6306 16.1222 75.8614 16.5476 76.2742C16.9731 76.687 17.2211 77.2493 17.2391 77.8418L17.2349 81.6311Z" fill="#263238"/>
<path d="M17.3637 79.9416H12.5462C12.1549 79.9416 11.8376 80.2588 11.8376 80.6501V83.2334C11.8376 83.6247 12.1549 83.9419 12.5462 83.9419H17.3637C17.7551 83.9419 18.0723 83.6247 18.0723 83.2334V80.6501C18.0723 80.2588 17.7551 79.9416 17.3637 79.9416Z" fill="#263238"/>
<path d="M14.9562 81.9404C14.8533 81.9404 14.7527 81.9099 14.6671 81.8527C14.5815 81.7955 14.5148 81.7143 14.4754 81.6192C14.436 81.5241 14.4257 81.4194 14.4458 81.3185C14.4659 81.2175 14.5154 81.1248 14.5882 81.052C14.661 80.9792 14.7537 80.9297 14.8547 80.9096C14.9556 80.8895 15.0603 80.8998 15.1554 80.9392C15.2505 80.9786 15.3317 81.0453 15.3889 81.1309C15.4461 81.2165 15.4766 81.3171 15.4766 81.42C15.4766 81.558 15.4218 81.6904 15.3242 81.788C15.2266 81.8856 15.0942 81.9404 14.9562 81.9404Z" fill="#455A64"/>
<path d="M15.0999 81.6259H14.8157V82.6981H15.0999V81.6259Z" fill="#455A64"/>
<path d="M11.6829 81.582C12.1343 81.3831 12.5173 81.056 12.7845 80.6413C13.0516 80.2267 13.1911 79.7427 13.1857 79.2495C13.1857 77.8554 12.1406 76.7205 10.8302 76.7143C9.5197 76.708 8.46005 77.8324 8.45378 79.2223C8.4429 79.7204 8.58063 80.2105 8.84938 80.63C9.11814 81.0495 9.50576 81.3795 9.96279 81.5778C6.33237 82.1317 6.48704 86.084 6.48704 86.084L15.096 86.1237C15.096 86.1237 15.2924 82.1275 11.6829 81.582Z" fill="#2F80EC"/>
<path d="M23.6531 87.8557C23.6531 87.8557 23.6531 87.7554 23.6531 87.5652C23.6531 87.375 23.6531 87.0949 23.6531 86.7291C23.6531 85.9955 23.6531 84.9212 23.6406 83.546C23.6406 80.7955 23.628 76.8453 23.6197 72.0277L23.6615 72.0716H0.0438909L0.0982319 72.0173C0.0982319 77.6604 0.0982319 83.0172 0.0982319 87.8452L0.0501608 87.7951L17.0695 87.8181L21.9351 87.8327H23.2288H23.5632H23.6782H23.2414H21.956L17.1029 87.8473L0.0501608 87.8703H0V87.8222C0 82.9942 0 77.6332 0 71.9943V71.9399H0.0564315L23.6845 71.9525H23.7284V71.9943C23.7284 76.8223 23.7116 80.7829 23.7054 83.5397C23.7054 84.9108 23.7054 85.983 23.6949 86.7145C23.6949 87.0761 23.6949 87.352 23.6949 87.5505C23.6949 87.7491 23.6531 87.8557 23.6531 87.8557Z" fill="#263238"/>
<path d="M23.6488 73.9299C23.6488 73.9592 18.361 73.9842 11.8421 73.9842C5.32323 73.9842 0.0354004 73.9592 0.0354004 73.9299C0.0354004 73.9006 5.32114 73.8756 11.8421 73.8756C18.3631 73.8756 23.6488 73.9006 23.6488 73.9299Z" fill="#263238"/>
<path d="M1.57965 72.9815C1.57965 73.0299 1.56531 73.0771 1.53844 73.1173C1.51157 73.1576 1.47338 73.1889 1.42869 73.2074C1.38401 73.2259 1.33484 73.2308 1.28741 73.2213C1.23997 73.2119 1.1964 73.1886 1.1622 73.1544C1.128 73.1202 1.10471 73.0766 1.09528 73.0292C1.08584 72.9818 1.09068 72.9326 1.10919 72.8879C1.1277 72.8432 1.15904 72.805 1.19926 72.7782C1.23947 72.7513 1.28675 72.737 1.33511 72.737C1.39997 72.737 1.46217 72.7627 1.50803 72.8086C1.55389 72.8544 1.57965 72.9166 1.57965 72.9815Z" fill="#263238"/>
<path d="M2.38043 72.9815C2.38043 73.0463 2.35467 73.1085 2.30881 73.1544C2.26295 73.2003 2.20075 73.226 2.13589 73.226C2.07104 73.226 2.00884 73.2003 1.96298 73.1544C1.91712 73.1085 1.89136 73.0463 1.89136 72.9815C1.89136 72.9166 1.91712 72.8544 1.96298 72.8086C2.00884 72.7627 2.07104 72.737 2.13589 72.737C2.20075 72.737 2.26295 72.7627 2.30881 72.8086C2.35467 72.8544 2.38043 72.9166 2.38043 72.9815Z" fill="#263238"/>
<path d="M3.24029 72.9816C3.24028 73.0297 3.22608 73.0767 3.19948 73.1168C3.17287 73.1568 3.13505 73.1882 3.09073 73.2068C3.04641 73.2255 2.99757 73.2307 2.95031 73.2218C2.90305 73.2128 2.85948 73.1902 2.82505 73.1566C2.79061 73.123 2.76684 73.08 2.75671 73.033C2.74658 72.986 2.75053 72.937 2.76808 72.8923C2.78563 72.8475 2.816 72.8089 2.85538 72.7813C2.89476 72.7536 2.94141 72.7383 2.98949 72.737C3.02212 72.7362 3.0546 72.7419 3.08499 72.7538C3.11539 72.7657 3.14309 72.7836 3.16647 72.8064C3.18984 72.8292 3.20842 72.8564 3.2211 72.8865C3.23378 72.9166 3.2403 72.9489 3.24029 72.9816Z" fill="#263238"/>
<path d="M23.6531 87.8557C23.6531 87.8557 23.6531 87.7554 23.6531 87.5652C23.6531 87.375 23.6531 87.0949 23.6531 86.7291C23.6531 85.9955 23.6531 84.9212 23.6406 83.546C23.6406 80.7955 23.628 76.8453 23.6197 72.0277L23.6615 72.0716H0.0438909L0.0982319 72.0173C0.0982319 77.6604 0.0982319 83.0172 0.0982319 87.8452L0.0501608 87.7951L17.0695 87.8181L21.9351 87.8327H23.2288H23.5632H23.6782H23.2414H21.956L17.1029 87.8473L0.0501608 87.8703H0V87.8222C0 82.9942 0 77.6332 0 71.9943V71.9399H0.0564315L23.6845 71.9525H23.7284V71.9943C23.7284 76.8223 23.7116 80.7829 23.7054 83.5397C23.7054 84.9108 23.7054 85.983 23.6949 86.7145C23.6949 87.0761 23.6949 87.352 23.6949 87.5505C23.6949 87.7491 23.6531 87.8557 23.6531 87.8557Z" fill="#263238"/>
<path d="M11.6847 88.3833C11.6555 88.3833 11.6304 88.2662 11.6304 88.122C11.6304 87.9778 11.6555 87.8608 11.6847 87.8608C11.714 87.8608 11.7411 87.9778 11.7411 88.122C11.7411 88.2662 11.7161 88.3833 11.6847 88.3833Z" fill="white"/>
<path d="M11.6841 90.6687C11.6311 90.4828 11.6127 90.2887 11.6298 90.0961C11.6126 89.9042 11.631 89.7107 11.6841 89.5255C11.7398 89.7102 11.759 89.904 11.7406 90.0961C11.7589 90.2888 11.7397 90.4833 11.6841 90.6687Z" fill="white"/>
<path d="M11.6841 92.9499C11.6311 92.7639 11.6127 92.5698 11.6298 92.3772C11.6126 92.1853 11.631 91.9918 11.6841 91.8066C11.7398 91.9914 11.759 92.1852 11.7406 92.3772C11.7589 92.5699 11.7397 92.7644 11.6841 92.9499Z" fill="white"/>
<path d="M11.6841 95.2389C11.6311 95.0529 11.6127 94.8588 11.6298 94.6662C11.6126 94.4743 11.631 94.2808 11.6841 94.0956C11.7398 94.2803 11.759 94.4742 11.7406 94.6662C11.7589 94.859 11.7397 95.0534 11.6841 95.2389Z" fill="white"/>
<path d="M11.6841 97.5279C11.6311 97.3419 11.6127 97.1478 11.6298 96.9552C11.6126 96.7633 11.631 96.5698 11.6841 96.3846C11.7398 96.5693 11.759 96.7631 11.7406 96.9552C11.7589 97.1479 11.7397 97.3424 11.6841 97.5279Z" fill="white"/>
<path d="M12.2072 99.1898C12.0385 99.243 11.8608 99.2615 11.6847 99.2442L11.6304 99.1898V98.9934C11.6304 98.9307 11.6304 98.8742 11.6429 98.8262C11.6429 98.7321 11.6659 98.6736 11.6805 98.6736C11.6952 98.6736 11.7098 98.7321 11.7202 98.8262C11.7202 98.8742 11.7202 98.9307 11.7202 98.9934V99.0916V99.1898C11.6952 99.1648 11.7725 99.2442 11.6638 99.1355C11.8468 99.1153 12.0319 99.1338 12.2072 99.1898Z" fill="white"/>
<path d="M14.2625 99.1935C14.0967 99.2465 13.9217 99.265 13.7484 99.2478C13.5758 99.2649 13.4015 99.2464 13.2363 99.1935C13.4015 99.1406 13.5758 99.1221 13.7484 99.1392C13.9217 99.122 14.0967 99.1405 14.2625 99.1935Z" fill="white"/>
<path d="M16.3171 99.1935C16.1512 99.2465 15.9763 99.265 15.803 99.2478C15.6297 99.265 15.4547 99.2465 15.2888 99.1935C15.4547 99.1405 15.6297 99.122 15.803 99.1392C15.9763 99.122 16.1512 99.1405 16.3171 99.1935Z" fill="white"/>
<path d="M18.3713 99.1935C18.2054 99.2465 18.0305 99.265 17.8572 99.2478C17.6839 99.265 17.5089 99.2465 17.343 99.1935C17.5089 99.1405 17.6839 99.122 17.8572 99.1392C18.0305 99.122 18.2054 99.1405 18.3713 99.1935Z" fill="white"/>
<path d="M20.4237 99.1912C20.0854 99.2637 19.7357 99.2637 19.3975 99.1912C19.7357 99.1188 20.0854 99.1188 20.4237 99.1912Z" fill="white"/>
<path d="M22.4791 99.1912C22.1409 99.2637 21.7911 99.2637 21.4529 99.1912C21.7911 99.1188 22.1409 99.1188 22.4791 99.1912Z" fill="white"/>
<path d="M24.5347 99.1912C24.1957 99.2637 23.8453 99.2637 23.5063 99.1912C23.8453 99.1188 24.1957 99.1188 24.5347 99.1912Z" fill="white"/>
<path d="M26.5851 99.1912C26.2468 99.2637 25.8971 99.2637 25.5588 99.1912C25.8971 99.1188 26.2468 99.1188 26.5851 99.1912Z" fill="#263238"/>
<path d="M28.6393 99.1912C28.301 99.2637 27.9513 99.2637 27.613 99.1912C27.9513 99.1188 28.301 99.1188 28.6393 99.1912Z" fill="#263238"/>
<path d="M30.6938 99.1912C30.3549 99.2637 30.0045 99.2637 29.6655 99.1912C30.0045 99.1188 30.3549 99.1188 30.6938 99.1912Z" fill="#263238"/>
<path d="M32.7472 99.1912C32.4089 99.2637 32.0592 99.2637 31.7209 99.1912C32.0592 99.1188 32.4089 99.1188 32.7472 99.1912Z" fill="#263238"/>
<path d="M34.2979 99.1912C34.2979 99.2205 34.1809 99.2456 34.0366 99.2456C33.8924 99.2456 33.7754 99.2205 33.7754 99.1912C33.7754 99.162 33.8924 99.1369 34.0366 99.1369C34.1809 99.1369 34.2979 99.162 34.2979 99.1912Z" fill="#263238"/>
<path d="M34.544 37.8898H21.918V55.1683H34.544V37.8898Z" fill="white"/>
<path d="M34.5492 55.1516C34.5492 55.1516 34.5492 55.1224 34.5492 55.0659C34.5492 55.0095 34.5492 54.9259 34.5492 54.8214C34.5492 54.6124 34.5492 54.2864 34.5492 53.8767C34.5492 53.0511 34.5492 51.8473 34.5325 50.3236C34.5325 47.2826 34.5095 42.9708 34.4949 37.869L34.5513 37.9254L21.9274 37.9401L21.9901 37.8774V55.1558L21.94 55.1057L31.109 55.1245L33.661 55.137H34.3319H34.566C34.566 55.137 34.4928 55.137 34.3444 55.137H33.6819L31.1404 55.1516L21.9441 55.1851H21.8919V55.1328C21.8919 50.2839 21.8773 44.3085 21.8689 37.8544V37.7917H21.9337H34.5576H34.6161V37.8502C34.6161 42.9666 34.6015 47.293 34.5952 50.3424C34.5952 51.8577 34.5952 53.0595 34.5827 53.8788C34.5827 54.2843 34.5827 54.5957 34.5827 54.811C34.5827 54.9134 34.5827 54.9928 34.5827 55.0492C34.5749 55.0844 34.5637 55.1187 34.5492 55.1516Z" fill="#263238"/>
<path d="M29.6366 41.3545C29.6366 41.39 28.2635 41.4172 26.5684 41.4193C24.8734 41.4214 23.5002 41.3942 23.5002 41.3587C23.5002 41.3231 24.8734 41.2939 26.5684 41.2939C28.2635 41.2939 29.6366 41.3189 29.6366 41.3545Z" fill="#263238"/>
<path d="M32.9556 42.8522C32.9556 42.8877 30.8384 42.917 28.2279 42.9191C25.6175 42.9212 23.5002 42.894 23.5002 42.8585C23.5002 42.8229 25.6175 42.7937 28.2279 42.7937C30.8384 42.7937 32.9556 42.8167 32.9556 42.8522Z" fill="#263238"/>
<path d="M32.9556 44.4249C32.9556 44.4583 30.8384 44.4876 28.2279 44.4897C25.6175 44.4918 23.5002 44.4646 23.5002 44.4312C23.5002 44.3977 25.6175 44.3664 28.2279 44.3643C30.8384 44.3622 32.9556 44.3894 32.9556 44.4249Z" fill="#263238"/>
<path d="M32.9565 45.9875C32.9565 46.0231 30.8413 46.0523 28.2309 46.0544C25.6204 46.0565 23.5032 46.0293 23.5032 45.9938C23.5032 45.9583 25.6183 45.929 28.2309 45.9269C30.8434 45.9248 32.9565 45.9541 32.9565 45.9875Z" fill="#263238"/>
<path d="M32.9586 47.552C32.9586 47.5875 30.8413 47.6168 28.2309 47.6189C25.6204 47.621 23.5032 47.5938 23.5032 47.5604C23.5032 47.5269 25.6204 47.4956 28.2309 47.4935C30.8413 47.4914 32.9586 47.5186 32.9586 47.552Z" fill="#263238"/>
<path d="M32.9584 49.1246C32.9584 49.1601 30.8433 49.1894 28.2328 49.1915C25.6223 49.1935 23.5051 49.1664 23.5051 49.1308C23.5051 49.0953 25.6203 49.066 28.2328 49.064C30.8454 49.0619 32.9584 49.0932 32.9584 49.1246Z" fill="#263238"/>
<path d="M32.9605 50.6851C32.9605 50.7207 30.8433 50.7499 28.2328 50.752C25.6223 50.7541 23.5051 50.7269 23.5051 50.6935C23.5051 50.66 25.6223 50.6287 28.2328 50.6266C30.8433 50.6245 32.9605 50.6517 32.9605 50.6851Z" fill="#263238"/>
<path d="M28.588 52.2537C28.588 52.2892 27.451 52.3185 26.0486 52.3185C24.6462 52.3185 23.5071 52.2934 23.5071 52.2579C23.5071 52.2223 24.6441 52.1931 26.0486 52.1931C27.4531 52.1931 28.588 52.2223 28.588 52.2537Z" fill="#263238"/>
<path d="M33.4461 56.4112C34.8624 56.4112 36.0106 55.263 36.0106 53.8467C36.0106 52.4303 34.8624 51.2822 33.4461 51.2822C32.0298 51.2822 30.8816 52.4303 30.8816 53.8467C30.8816 55.263 32.0298 56.4112 33.4461 56.4112Z" fill="#2F80EC"/>
<path d="M34.9174 52.861C35.0261 52.9634 34.5224 53.6803 33.793 54.4641C33.6738 54.5895 33.5589 54.7086 33.4481 54.8194L33.2705 54.995L33.0928 54.8466C32.4553 54.3115 32.0373 53.8517 32.1147 53.7514C32.192 53.6511 32.7417 53.9458 33.4168 54.4327L33.0635 54.4599C33.166 54.3429 33.2725 54.2175 33.3938 54.0921C34.1316 53.3083 34.8066 52.7586 34.9174 52.861Z" fill="#E0E0E0"/>
<path d="M27.2736 56.1082C27.2011 55.7636 27.2011 55.4077 27.2736 55.0631C27.346 55.4077 27.346 55.7636 27.2736 56.1082Z" fill="white"/>
<path d="M27.2736 58.2008C27.2011 57.8563 27.2011 57.5004 27.2736 57.1558C27.346 57.5004 27.346 57.8563 27.2736 58.2008Z" fill="white"/>
<path d="M27.2736 60.2857C27.2011 59.9411 27.2011 59.5852 27.2736 59.2406C27.346 59.5852 27.346 59.9411 27.2736 60.2857Z" fill="white"/>
<path d="M27.2736 62.3783C27.2011 62.0338 27.2011 61.6779 27.2736 61.3333C27.346 61.6779 27.346 62.0338 27.2736 62.3783Z" fill="white"/>
<path d="M27.2736 64.471C27.2011 64.1264 27.2011 63.7706 27.2736 63.426C27.346 63.7706 27.346 64.1264 27.2736 64.471Z" fill="white"/>
<path d="M27.2736 66.5558C27.2011 66.2113 27.2011 65.8554 27.2736 65.5108C27.346 65.8554 27.346 66.2113 27.2736 66.5558Z" fill="white"/>
<path d="M27.2736 68.6446C27.2011 68.3 27.2011 67.9441 27.2736 67.5996C27.346 67.9441 27.346 68.3 27.2736 68.6446Z" fill="white"/>
<path d="M27.2736 70.7333C27.2011 70.3888 27.2011 70.0329 27.2736 69.6883C27.346 70.0329 27.346 70.3888 27.2736 70.7333Z" fill="white"/>
<path d="M28.2793 71.8175C28.1105 71.8705 27.9329 71.889 27.7568 71.8719C27.5938 71.8759 27.4308 71.8647 27.2698 71.8384H27.2468V71.8238C27.2468 71.8008 27.2594 71.7883 27.2656 71.7883C27.2719 71.7883 27.2803 71.8008 27.2865 71.8238L27.2656 71.805C27.4263 71.7767 27.5895 71.7648 27.7526 71.7695C27.9296 71.7498 28.1088 71.7661 28.2793 71.8175Z" fill="white"/>
<path d="M30.3688 71.8157C30.0242 71.8882 29.6683 71.8882 29.3237 71.8157C29.6683 71.7433 30.0242 71.7433 30.3688 71.8157Z" fill="white"/>
<path d="M32.4596 71.8157C32.115 71.8882 31.7591 71.8882 31.4146 71.8157C31.7591 71.7433 32.115 71.7433 32.4596 71.8157Z" fill="white"/>
<path d="M34.5492 71.8157C34.2046 71.8882 33.8487 71.8882 33.5042 71.8157C33.8487 71.7433 34.2046 71.7433 34.5492 71.8157Z" fill="white"/>
<path d="M36.639 71.8157C36.2944 71.8882 35.9386 71.8882 35.594 71.8157C35.9386 71.7433 36.2944 71.7433 36.639 71.8157Z" fill="white"/>
<path d="M71.4533 31.4123C71.3808 31.0677 71.3808 30.7118 71.4533 30.3673C71.5257 30.7118 71.5257 31.0677 71.4533 31.4123Z" fill="white"/>
<path d="M71.4533 33.505C71.3808 33.1604 71.3808 32.8045 71.4533 32.4599C71.5257 32.8045 71.5257 33.1604 71.4533 33.505Z" fill="white"/>
<path d="M71.4533 35.5937C71.3808 35.2491 71.3808 34.8933 71.4533 34.5487C71.5257 34.8933 71.5257 35.2491 71.4533 35.5937Z" fill="white"/>
<path d="M71.4533 37.6825C71.3808 37.3379 71.3808 36.982 71.4533 36.6374C71.5257 36.982 71.5257 37.3379 71.4533 37.6825Z" fill="white"/>
<path d="M71.455 39.7712C71.3828 39.4266 71.3828 39.0708 71.455 38.7262C71.5271 39.0708 71.5271 39.4266 71.455 39.7712Z" fill="white"/>
<path d="M71.4533 41.8639C71.3808 41.5193 71.3808 41.1634 71.4533 40.8189C71.5257 41.1634 71.5257 41.5193 71.4533 41.8639Z" fill="white"/>
<path d="M71.4533 43.9526C71.3808 43.6081 71.3808 43.2522 71.4533 42.9076C71.5257 43.2522 71.5257 43.6081 71.4533 43.9526Z" fill="white"/>
<path d="M71.4533 46.0453C71.3808 45.7007 71.3808 45.3449 71.4533 45.0003C71.5257 45.3449 71.5257 45.7007 71.4533 46.0453Z" fill="white"/>
<path d="M71.4533 47.9495C71.3808 47.605 71.3808 47.2491 71.4533 46.9045C71.5257 47.2491 71.5257 47.605 71.4533 47.9495Z" fill="white"/>
<path d="M71.4533 50.0344C71.3808 49.6898 71.3808 49.3339 71.4533 48.9893C71.5257 49.3339 71.5257 49.6898 71.4533 50.0344Z" fill="white"/>
<path d="M71.455 52.131C71.3828 51.7864 71.3828 51.4306 71.455 51.0859C71.5271 51.4306 71.5271 51.7864 71.455 52.131Z" fill="white"/>
<path d="M71.4533 54.2197C71.3808 53.8751 71.3808 53.5193 71.4533 53.1747C71.5257 53.5193 71.5257 53.8751 71.4533 54.2197Z" fill="white"/>
<path d="M71.4533 56.3045C71.3808 55.96 71.3808 55.6041 71.4533 55.2595C71.5257 55.6041 71.5257 55.96 71.4533 56.3045Z" fill="white"/>
<path d="M71.4533 58.4012C71.3808 58.0566 71.3808 57.7007 71.4533 57.3561C71.5257 57.7007 71.5257 58.0566 71.4533 58.4012Z" fill="white"/>
<path d="M71.4533 60.3054C71.3808 59.9608 71.3808 59.6049 71.4533 59.2603C71.5257 59.6049 71.5257 59.9608 71.4533 60.3054Z" fill="white"/>
<path d="M71.4533 62.3863C71.3808 62.0417 71.3808 61.6858 71.4533 61.3412C71.5257 61.6858 71.5257 62.0417 71.4533 62.3863Z" fill="white"/>
<path d="M71.455 64.4868C71.3828 64.1422 71.3828 63.7864 71.455 63.4418C71.5271 63.7864 71.5271 64.1422 71.455 64.4868Z" fill="white"/>
<path d="M71.4533 66.5756C71.3808 66.231 71.3808 65.8751 71.4533 65.5305C71.5257 65.8751 71.5257 66.231 71.4533 66.5756Z" fill="white"/>
<path d="M71.4533 68.6643C71.3808 68.3197 71.3808 67.9639 71.4533 67.6193C71.5257 67.9639 71.5257 68.3197 71.4533 68.6643Z" fill="white"/>
<path d="M71.4533 70.753C71.3808 70.4085 71.3808 70.0526 71.4533 69.708C71.5257 70.0526 71.5257 70.4085 71.4533 70.753Z" fill="white"/>
<mask id="path-97-inside-1_1_89121" fill="white">
<path d="M85.6476 32.7576H85.5243H85.1543H83.7143L78.3136 32.7764L59.6724 32.8203H59.6306L59.616 32.7723C59.4112 32.0717 59.3749 31.3327 59.51 30.6154C59.645 29.8982 59.9477 29.223 60.3933 28.6449C60.839 28.0669 61.4149 27.6023 62.0741 27.2891C62.7334 26.976 63.4573 26.823 64.1869 26.8428L64.118 26.9327C64.0034 26.525 63.9547 26.1017 63.9738 25.6786C64.0302 24.2365 64.8495 22.8445 66.1077 22.2008C66.7179 21.8817 67.3969 21.7168 68.0854 21.7205C68.7739 21.7241 69.4511 21.8962 70.0579 22.2217L69.9618 22.2572C70.2979 21.4774 70.7922 20.7758 71.4136 20.1969C72.0349 19.618 72.7696 19.1745 73.5713 18.8943C75.1096 18.3342 76.815 18.4073 78.1569 19.1033C79.433 19.7781 80.436 20.8741 80.9951 22.205C81.5089 23.3744 81.632 24.6782 81.3463 25.9232L81.294 25.8646C82.0301 25.7866 82.7741 25.8952 83.4572 26.1802C84.064 26.4259 84.6102 26.8003 85.0582 27.2775C85.263 27.4907 85.4329 27.7347 85.5619 28.0007C85.677 28.2468 85.7673 28.5037 85.8315 28.7677C85.9399 29.2278 86.0015 29.6977 86.0154 30.1701C86.0383 30.8212 85.9814 31.4725 85.8461 32.1097C85.8106 32.2744 85.7659 32.437 85.7124 32.5967C85.6748 32.7054 85.6539 32.7576 85.6539 32.7576"/>
</mask>
<path d="M85.6476 32.7576H85.5243H85.1543H83.7143L78.3136 32.7764L59.6724 32.8203H59.6306L59.616 32.7723C59.4112 32.0717 59.3749 31.3327 59.51 30.6154C59.645 29.8982 59.9477 29.223 60.3933 28.6449C60.839 28.0669 61.4149 27.6023 62.0741 27.2891C62.7334 26.976 63.4573 26.823 64.1869 26.8428L64.118 26.9327C64.0034 26.525 63.9547 26.1017 63.9738 25.6786C64.0302 24.2365 64.8495 22.8445 66.1077 22.2008C66.7179 21.8817 67.3969 21.7168 68.0854 21.7205C68.7739 21.7241 69.4511 21.8962 70.0579 22.2217L69.9618 22.2572C70.2979 21.4774 70.7922 20.7758 71.4136 20.1969C72.0349 19.618 72.7696 19.1745 73.5713 18.8943C75.1096 18.3342 76.815 18.4073 78.1569 19.1033C79.433 19.7781 80.436 20.8741 80.9951 22.205C81.5089 23.3744 81.632 24.6782 81.3463 25.9232L81.294 25.8646C82.0301 25.7866 82.7741 25.8952 83.4572 26.1802C84.064 26.4259 84.6102 26.8003 85.0582 27.2775C85.263 27.4907 85.4329 27.7347 85.5619 28.0007C85.677 28.2468 85.7673 28.5037 85.8315 28.7677C85.9399 29.2278 86.0015 29.6977 86.0154 30.1701C86.0383 30.8212 85.9814 31.4725 85.8461 32.1097C85.8106 32.2744 85.7659 32.437 85.7124 32.5967C85.6748 32.7054 85.6539 32.7576 85.6539 32.7576" fill="#2F80EC"/>
<path d="M83.7143 32.7576V32.6576L83.714 32.6576L83.7143 32.7576ZM78.3136 32.7764L78.3138 32.8764H78.314L78.3136 32.7764ZM59.6724 32.8203V32.9203H59.6727L59.6724 32.8203ZM59.6306 32.8203L59.535 32.8495L59.5565 32.9203H59.6306V32.8203ZM59.616 32.7723L59.52 32.8003L59.5203 32.8014L59.616 32.7723ZM64.1869 26.8428L64.2663 26.9037L64.3856 26.7481L64.1897 26.7428L64.1869 26.8428ZM64.118 26.9327L64.0217 26.9597L64.0758 27.1519L64.1973 26.9935L64.118 26.9327ZM63.9738 25.6786L64.0737 25.6831L64.0737 25.6825L63.9738 25.6786ZM66.1077 22.2008L66.1533 22.2898L66.154 22.2894L66.1077 22.2008ZM70.0579 22.2217L70.0926 22.3155L70.3008 22.2385L70.1052 22.1336L70.0579 22.2217ZM69.9618 22.2572L69.8699 22.2176L69.7776 22.4319L69.9964 22.351L69.9618 22.2572ZM73.5713 18.8943L73.6043 18.9887L73.6055 18.9883L73.5713 18.8943ZM78.1569 19.1033L78.2036 19.0149L78.2029 19.0146L78.1569 19.1033ZM80.9951 22.205L80.9029 22.2437L80.9036 22.2452L80.9951 22.205ZM81.3463 25.9232L81.2717 25.9898L81.4005 26.134L81.4437 25.9455L81.3463 25.9232ZM81.294 25.8646L81.2835 25.7652L81.0895 25.7858L81.2194 25.9312L81.294 25.8646ZM83.4572 26.1802L83.4187 26.2725L83.4197 26.2729L83.4572 26.1802ZM85.0582 27.2775L84.9853 27.346L84.9861 27.3468L85.0582 27.2775ZM85.5619 28.0007L85.6525 27.9583L85.6519 27.957L85.5619 28.0007ZM85.8315 28.7677L85.9289 28.7448L85.9287 28.7441L85.8315 28.7677ZM86.0154 30.1701L85.9155 30.1731L85.9155 30.1736L86.0154 30.1701ZM85.8461 32.1097L85.9439 32.1308L85.944 32.1305L85.8461 32.1097ZM85.7124 32.5967L85.8069 32.6294L85.8072 32.6285L85.7124 32.5967ZM85.6476 32.6576H85.5243V32.8576H85.6476V32.6576ZM85.5243 32.6576H85.1543V32.8576H85.5243V32.6576ZM85.1543 32.6576H83.7143V32.8576H85.1543V32.6576ZM83.714 32.6576L78.3133 32.6764L78.314 32.8764L83.7146 32.8576L83.714 32.6576ZM78.3134 32.6764L59.6722 32.7203L59.6727 32.9203L78.3138 32.8764L78.3134 32.6764ZM59.6724 32.7203H59.6306V32.9203H59.6724V32.7203ZM59.7263 32.7912L59.7117 32.7431L59.5203 32.8014L59.535 32.8495L59.7263 32.7912ZM59.712 32.7442C59.5116 32.0588 59.4761 31.3357 59.6082 30.6339L59.4117 30.5969C59.2737 31.3297 59.3108 32.0846 59.52 32.8003L59.712 32.7442ZM59.6082 30.6339C59.7404 29.9321 60.0365 29.2715 60.4725 28.706L60.3141 28.5839C59.8589 29.1744 59.5497 29.8642 59.4117 30.5969L59.6082 30.6339ZM60.4725 28.706C60.9085 28.1404 61.472 27.6859 62.117 27.3795L62.0312 27.1988C61.3577 27.5187 60.7694 27.9933 60.3141 28.5839L60.4725 28.706ZM62.117 27.3795C62.7621 27.073 63.4704 26.9234 64.1842 26.9427L64.1897 26.7428C63.4443 26.7226 62.7047 26.8789 62.0312 27.1988L62.117 27.3795ZM64.1076 26.7819L64.0386 26.8718L64.1973 26.9935L64.2663 26.9037L64.1076 26.7819ZM64.2142 26.9056C64.1025 26.5082 64.055 26.0955 64.0737 25.6831L63.8739 25.6741C63.8543 26.1078 63.9042 26.5418 64.0217 26.9597L64.2142 26.9056ZM64.0737 25.6825C64.1288 24.2728 64.9304 22.9155 66.1533 22.2898L66.0622 22.1118C64.7686 22.7736 63.9315 24.2001 63.8738 25.6747L64.0737 25.6825ZM66.154 22.2894C66.7498 21.9779 67.4126 21.8169 68.0849 21.8205L68.0859 21.6205C67.3811 21.6167 66.686 21.7855 66.0614 22.1122L66.154 22.2894ZM68.0849 21.8205C68.7571 21.824 69.4183 21.992 70.0106 22.3098L70.1052 22.1336C69.484 21.8003 68.7908 21.6242 68.0859 21.6205L68.0849 21.8205ZM70.0232 22.1279L69.9271 22.1634L69.9964 22.351L70.0926 22.3155L70.0232 22.1279ZM70.0536 22.2968C70.3842 21.5297 70.8705 20.8395 71.4817 20.2701L71.3454 20.1238C70.7139 20.7121 70.2115 21.4251 69.8699 22.2176L70.0536 22.2968ZM71.4817 20.2701C72.0929 19.7007 72.8157 19.2643 73.6043 18.9887L73.5383 18.7999C72.7236 19.0847 71.9768 19.5354 71.3454 20.1238L71.4817 20.2701ZM73.6055 18.9883C75.1202 18.4367 76.7963 18.5103 78.1108 19.1921L78.2029 19.0146C76.8337 18.3044 75.0989 18.2317 73.5371 18.8004L73.6055 18.9883ZM78.1101 19.1917C79.3658 19.8557 80.3527 20.9342 80.903 22.2437L81.0873 22.1662C80.5192 20.8141 79.5002 19.7005 78.2036 19.0149L78.1101 19.1917ZM80.9036 22.2452C81.4087 23.3949 81.5298 24.6768 81.2488 25.9008L81.4437 25.9455C81.7343 24.6797 81.6091 23.3538 81.0867 22.1647L80.9036 22.2452ZM81.4209 25.8566L81.3686 25.798L81.2194 25.9312L81.2717 25.9898L81.4209 25.8566ZM81.3046 25.9641C82.024 25.8878 82.751 25.9939 83.4187 26.2725L83.4957 26.088C82.7971 25.7964 82.0363 25.6854 81.2835 25.7652L81.3046 25.9641ZM83.4197 26.2729C84.013 26.5132 84.5472 26.8792 84.9853 27.346L85.1311 27.2091C84.6732 26.7213 84.1149 26.3386 83.4948 26.0875L83.4197 26.2729ZM84.9861 27.3468C85.1836 27.5524 85.3475 27.7878 85.4719 28.0443L85.6519 27.957C85.5184 27.6816 85.3424 27.429 85.1303 27.2082L84.9861 27.3468ZM85.4713 28.043C85.5836 28.2831 85.6717 28.5338 85.7344 28.7914L85.9287 28.7441C85.8629 28.4737 85.7703 28.2105 85.6525 27.9583L85.4713 28.043ZM85.7342 28.7907C85.841 29.2442 85.9018 29.7073 85.9155 30.1731L86.1154 30.1672C86.1013 29.688 86.0388 29.2114 85.9289 28.7448L85.7342 28.7907ZM85.9155 30.1736C85.938 30.8165 85.8819 31.4597 85.7483 32.089L85.944 32.1305C86.0809 31.4853 86.1385 30.8258 86.1154 30.1666L85.9155 30.1736ZM85.7484 32.0886C85.7136 32.2497 85.6699 32.4087 85.6176 32.5649L85.8072 32.6285C85.8619 32.4652 85.9075 32.2991 85.9439 32.1308L85.7484 32.0886ZM85.6179 32.564C85.5993 32.6176 85.585 32.6571 85.5753 32.683C85.5705 32.696 85.5668 32.7055 85.5644 32.7117C85.5632 32.7149 85.5623 32.7171 85.5618 32.7186C85.5615 32.7193 85.5613 32.7198 85.5612 32.7202C85.5611 32.7203 85.561 32.7204 85.561 32.7205C85.561 32.7205 85.561 32.7205 85.561 32.7205C85.561 32.7205 85.561 32.7205 85.561 32.7205C85.561 32.7205 85.561 32.7205 85.561 32.7205C85.561 32.7205 85.561 32.7205 85.561 32.7205C85.561 32.7205 85.561 32.7205 85.6539 32.7576C85.7467 32.7948 85.7467 32.7948 85.7467 32.7948C85.7467 32.7948 85.7467 32.7948 85.7467 32.7947C85.7467 32.7947 85.7467 32.7947 85.7467 32.7947C85.7467 32.7947 85.7467 32.7947 85.7468 32.7947C85.7468 32.7946 85.7468 32.7945 85.7468 32.7945C85.7469 32.7943 85.747 32.7941 85.7471 32.7939C85.7473 32.7934 85.7476 32.7927 85.7479 32.7917C85.7486 32.7899 85.7497 32.7873 85.751 32.7838C85.7537 32.7768 85.7576 32.7665 85.7627 32.7528C85.7729 32.7254 85.7878 32.6845 85.8069 32.6294L85.6179 32.564Z" fill="white" mask="url(#path-97-inside-1_1_89121)"/>
<path d="M83.2834 25.5967H82.4787V20.7561C82.4787 20.1968 82.2565 19.6604 81.861 19.2649C81.4655 18.8695 80.9291 18.6473 80.3698 18.6473C79.8105 18.6473 79.2741 18.8695 78.8786 19.2649C78.4832 19.6604 78.261 20.1968 78.261 20.7561V25.5967H77.4563V20.7561C77.4563 19.9834 77.7633 19.2424 78.3096 18.696C78.856 18.1496 79.5971 17.8426 80.3698 17.8426C81.1425 17.8426 81.8836 18.1496 82.43 18.696C82.9764 19.2424 83.2834 19.9834 83.2834 20.7561V25.5967Z" fill="#E0E0E0"/>
<path d="M83.646 23.4414H77.0957C76.7044 23.4414 76.3872 23.7586 76.3872 24.1499V27.8451C76.3872 28.2365 76.7044 28.5537 77.0957 28.5537H83.646C84.0373 28.5537 84.3545 28.2365 84.3545 27.8451V24.1499C84.3545 23.7586 84.0373 23.4414 83.646 23.4414Z" fill="#E0E0E0"/>
<path d="M80.3697 25.9998C80.2377 26.0002 80.1085 25.9614 79.9985 25.8883C79.8886 25.8152 79.8028 25.7111 79.7521 25.5892C79.7014 25.4673 79.688 25.3331 79.7136 25.2035C79.7393 25.074 79.8028 24.955 79.8962 24.8617C79.9896 24.7683 80.1086 24.7048 80.2381 24.6791C80.3676 24.6534 80.5018 24.6668 80.6238 24.7175C80.7457 24.7683 80.8498 24.854 80.9229 24.964C80.996 25.074 81.0348 25.2032 81.0344 25.3352C81.0344 25.5115 80.9644 25.6805 80.8397 25.8052C80.7151 25.9298 80.546 25.9998 80.3697 25.9998Z" fill="#455A64"/>
<path d="M80.5536 25.5969H80.1899V26.9659H80.5536V25.5969Z" fill="#455A64"/>
<path d="M129.354 45.4753C129.954 44.9179 130.384 44.2029 130.596 43.4124C130.807 42.6219 130.792 41.7877 130.552 41.0054C130.312 40.223 129.856 39.5242 129.237 38.9888C128.618 38.4534 127.861 38.1032 127.052 37.9782C126.243 37.8532 125.415 37.9585 124.664 38.282C123.912 38.6055 123.266 39.1341 122.801 39.8074C122.336 40.4807 122.07 41.2714 122.033 42.089C121.996 42.9065 122.19 43.7179 122.593 44.4303L121.705 45.2663L121.914 46.7293L120.541 46.3615L119.431 47.4065L119.64 48.8696L118.263 48.4829L117.314 49.367L117.443 50.2636L116.607 50.0295L116.06 50.5416L115.976 51.9064L118.01 52.4185L124.608 46.2612C125.389 46.6106 126.255 46.7224 127.1 46.5826C127.944 46.4429 128.728 46.0578 129.354 45.4753ZM128.711 40.1164C128.881 40.2975 128.993 40.5249 129.033 40.7699C129.074 41.0148 129.041 41.2663 128.938 41.4924C128.836 41.7185 128.668 41.9091 128.457 42.04C128.246 42.1709 128.001 42.2362 127.753 42.2277C127.505 42.2192 127.265 42.1373 127.064 41.9922C126.862 41.8472 126.708 41.6456 126.621 41.413C126.535 41.1804 126.519 40.9272 126.576 40.6856C126.633 40.444 126.761 40.2248 126.943 40.0558C127.185 39.8301 127.508 39.7098 127.839 39.7211C128.171 39.7325 128.484 39.8746 128.711 40.1164Z" fill="#263238"/>
<path d="M128.711 40.1203C128.711 40.1203 128.629 40.0429 128.462 39.9405C128.227 39.7976 127.95 39.7373 127.676 39.7691C127.454 39.7928 127.243 39.878 127.066 40.015C126.889 40.1521 126.754 40.3357 126.676 40.5452C126.598 40.7547 126.579 40.9818 126.623 41.2011C126.667 41.4205 126.771 41.6233 126.923 41.7869C127.075 41.9505 127.27 42.0685 127.486 42.1275C127.702 42.1865 127.93 42.1842 128.144 42.121C128.359 42.0577 128.551 41.936 128.701 41.7694C128.85 41.6028 128.95 41.398 128.989 41.1778C129.039 40.9061 128.998 40.6254 128.872 40.3794C128.782 40.206 128.703 40.1265 128.711 40.1203C128.719 40.114 128.734 40.1349 128.772 40.1746C128.825 40.2309 128.871 40.2933 128.91 40.3606C129.058 40.6125 129.113 40.9082 129.066 41.1967C129.038 41.366 128.976 41.528 128.885 41.6732C128.793 41.8184 128.673 41.9438 128.533 42.0421C128.392 42.1404 128.233 42.2096 128.065 42.2457C127.897 42.2818 127.724 42.284 127.555 42.2521C127.283 42.2016 127.034 42.0648 126.846 41.8619C126.658 41.6589 126.54 41.4008 126.51 41.1256C126.49 40.9546 126.504 40.7812 126.552 40.6158C126.6 40.4504 126.681 40.2963 126.789 40.1627C126.898 40.029 127.032 39.9184 127.184 39.8375C127.336 39.7567 127.503 39.7071 127.674 39.6918C127.963 39.6638 128.252 39.7377 128.492 39.9008C128.556 39.9436 128.615 39.9942 128.667 40.0513C128.685 40.0718 128.7 40.0951 128.711 40.1203Z" fill="#263238"/>
<path d="M129.354 45.4789C129.335 45.5007 129.314 45.521 129.291 45.5395L129.099 45.7109C128.841 45.9198 128.56 46.0999 128.263 46.2481C127.691 46.5218 127.066 46.6682 126.432 46.6772C125.797 46.6862 125.168 46.5577 124.589 46.3003H124.624L118.038 52.4681L118.017 52.4848H117.992L115.959 51.9748L115.917 51.9643V51.9225C115.942 51.5045 115.969 51.0322 115.999 50.5598V50.5389L116.015 50.5243L116.569 50.006L116.59 49.9872H116.619L117.455 50.2233L117.388 50.2819C117.349 50.0018 117.305 49.6946 117.259 49.3852V49.356L117.278 49.3372L118.233 48.4468L118.254 48.4259H118.283L119.66 48.8126L119.591 48.8711C119.524 48.405 119.451 47.9034 119.382 47.408V47.3809L119.401 47.36L119.696 47.0862L120.511 46.3254L120.534 46.3045H120.563L121.941 46.6912L121.872 46.7497C121.8 46.255 121.731 45.7673 121.663 45.2866V45.2595L121.683 45.2407L122.57 44.4046L122.559 44.4694C122.218 43.8614 122.025 43.1822 121.993 42.486C121.977 42.1478 122.002 41.8089 122.066 41.4765C122.125 41.1499 122.223 40.8314 122.356 40.5276C122.689 39.7559 123.236 39.0959 123.933 38.6261C124.63 38.1562 125.447 37.8963 126.287 37.8772C127.127 37.858 127.955 38.0804 128.673 38.518C129.39 38.9556 129.967 39.59 130.334 40.3458C130.68 41.06 130.824 41.8547 130.752 42.6448C130.705 43.2296 130.538 43.7986 130.263 44.3169L130.182 44.4715L130.094 44.6095C130.033 44.6972 129.985 44.785 129.927 44.8561C129.81 44.9982 129.718 45.1257 129.63 45.2156L129.421 45.4246L129.35 45.4894L129.415 45.4162L129.609 45.2072C129.695 45.1173 129.782 44.9982 129.895 44.8477C129.952 44.7746 130 44.6868 130.056 44.599L130.144 44.4611L130.221 44.3064C130.531 43.7008 130.696 43.0313 130.702 42.3509C130.707 41.6706 130.554 40.9983 130.255 40.3876C129.795 39.4635 129.02 38.7345 128.07 38.3323C127.12 37.9302 126.057 37.8815 125.074 38.1951C124.49 38.3812 123.953 38.6894 123.498 39.0992C123.043 39.5089 122.68 40.0108 122.434 40.5715C122.304 40.868 122.209 41.1787 122.152 41.4974C122.089 41.8215 122.066 42.1521 122.083 42.4818C122.113 43.1624 122.303 43.8262 122.639 44.4193L122.657 44.4548L122.628 44.4841L121.742 45.3201L121.759 45.2741C121.828 45.759 121.898 46.2467 121.968 46.7371L121.98 46.8186L121.901 46.7977L120.523 46.4111L120.576 46.3985L119.761 47.1593L119.466 47.4331L119.483 47.3871C119.556 47.8908 119.627 48.3925 119.692 48.8502L119.704 48.9317L119.625 48.9108L118.247 48.5241L118.3 48.5116L117.345 49.4019L117.361 49.3539C117.405 49.6632 117.449 49.9704 117.491 50.2505V50.332L117.413 50.3111L116.577 50.0749L116.628 50.0624L116.074 50.5807L116.09 50.5452C116.061 51.0176 116.032 51.4836 116.005 51.9079L115.967 51.8557L118.001 52.3698H117.955L124.564 46.2272L124.578 46.2125H124.599C125.171 46.4689 125.791 46.5994 126.418 46.5951C127.045 46.5907 127.663 46.4517 128.232 46.1874C128.531 46.0451 128.815 45.8714 129.078 45.6691C129.164 45.6001 129.229 45.5458 129.275 45.5061L129.354 45.4789Z" fill="#263238"/>
<path d="M129.209 44.9845C129.809 44.4271 130.239 43.7122 130.45 42.9216C130.662 42.1311 130.647 41.2969 130.407 40.5146C130.167 39.7322 129.711 39.0334 129.092 38.498C128.473 37.9627 127.716 37.6124 126.907 37.4874C126.098 37.3624 125.27 37.4677 124.519 37.7912C123.767 38.1147 123.121 38.6433 122.656 39.3166C122.191 39.9899 121.925 40.7806 121.888 41.5982C121.851 42.4158 122.045 43.2272 122.448 43.9395L121.562 44.7755L121.771 46.2386L120.394 45.8519L119.284 46.8969L119.493 48.36L118.115 47.9733L117.169 48.872L117.298 49.7687L116.462 49.5346L115.908 50.0529L115.825 51.4156L117.858 51.9277L124.457 45.7725C125.239 46.123 126.106 46.2352 126.952 46.095C127.797 45.9549 128.582 45.5686 129.209 44.9845ZM128.566 39.6235C128.736 39.8045 128.848 40.0319 128.889 40.277C128.93 40.522 128.897 40.7736 128.794 40.9999C128.692 41.2262 128.525 41.417 128.314 41.548C128.103 41.679 127.857 41.7444 127.609 41.7359C127.361 41.7274 127.121 41.6453 126.919 41.5001C126.718 41.3549 126.564 41.1532 126.477 40.9204C126.39 40.6876 126.375 40.4343 126.432 40.1927C126.489 39.951 126.617 39.7318 126.8 39.5629C127.042 39.3379 127.364 39.218 127.695 39.2293C128.026 39.2407 128.339 39.3824 128.566 39.6235Z" fill="#E0E0E0"/>
<path d="M128.565 39.6246C128.565 39.6246 128.483 39.5494 128.316 39.447C128.081 39.3032 127.804 39.2421 127.53 39.2735C127.308 39.2976 127.097 39.383 126.921 39.5203C126.744 39.6576 126.61 39.8412 126.532 40.0507C126.454 40.2602 126.436 40.4873 126.479 40.7065C126.523 40.9257 126.627 41.1283 126.78 41.2918C126.932 41.4552 127.127 41.5729 127.343 41.6318C127.559 41.6906 127.786 41.6883 128.001 41.625C128.215 41.5617 128.408 41.44 128.557 41.2735C128.706 41.107 128.806 40.9022 128.845 40.6822C128.895 40.4109 128.853 40.1306 128.726 39.8859C128.636 39.7124 128.557 39.633 128.565 39.6246C128.573 39.6163 128.588 39.6413 128.626 39.679C128.679 39.7352 128.725 39.7977 128.764 39.865C128.912 40.1169 128.967 40.4126 128.92 40.701C128.893 40.871 128.832 41.0339 128.74 41.18C128.649 41.326 128.53 41.4524 128.389 41.5517C128.248 41.651 128.089 41.7212 127.921 41.7581C127.753 41.7951 127.579 41.7981 127.409 41.7669C127.137 41.7154 126.889 41.5779 126.701 41.3748C126.513 41.1716 126.395 40.9135 126.364 40.6383C126.333 40.3829 126.381 40.1242 126.5 39.8963C126.599 39.7037 126.746 39.5393 126.925 39.4183C127.105 39.2974 127.312 39.2238 127.528 39.2045C127.817 39.1777 128.105 39.2516 128.346 39.4135C128.41 39.4557 128.469 39.5063 128.521 39.564C128.553 39.603 128.568 39.6232 128.565 39.6246Z" fill="#263238"/>
<path d="M129.208 44.9858C129.188 45.0065 129.167 45.026 129.145 45.0443L128.955 45.2157C128.697 45.4246 128.417 45.6047 128.119 45.7528C127.547 46.0266 126.922 46.173 126.288 46.182C125.653 46.191 125.025 46.0624 124.445 45.8051H124.48L117.886 51.9666L117.867 51.9854H117.84L115.807 51.4754H115.765V51.4336C115.79 51.0156 115.817 50.5412 115.846 50.0688V50.0479L115.861 50.0354C116.032 49.8744 116.223 49.6947 116.415 49.517L116.438 49.4961H116.465L117.301 49.7302L117.234 49.7887C117.192 49.5087 117.149 49.2014 117.105 48.8921V48.8649L117.123 48.844L118.079 47.9558L118.099 47.9349H118.129L119.506 48.3194L119.437 48.38C119.37 47.9119 119.297 47.4123 119.228 46.917V46.8898L119.249 46.871L119.542 46.5951L120.357 45.8344L120.38 45.8135H120.409L121.786 46.2001L121.717 46.2607C121.646 45.7633 121.575 45.2742 121.508 44.7977V44.7705L121.529 44.7517L122.415 43.9157V43.9805C122.073 43.373 121.878 42.6936 121.847 41.997C121.819 41.3258 121.943 40.657 122.211 40.0407C122.543 39.269 123.091 38.609 123.787 38.1392C124.484 37.6694 125.301 37.4094 126.141 37.3903C126.981 37.3712 127.809 37.5936 128.527 38.0312C129.244 38.4688 129.821 39.1032 130.188 39.8589C130.536 40.5682 130.684 41.3585 130.617 42.1454C130.57 42.7303 130.403 43.2993 130.128 43.8175L130.048 43.9721L129.958 44.1101C129.898 44.1999 129.85 44.2856 129.793 44.3588C129.674 44.5009 129.584 44.6263 129.497 44.7162L129.288 44.9252C129.242 44.9712 129.216 44.9921 129.216 44.9921C129.216 44.9921 129.237 44.9649 129.281 44.9189L129.476 44.7099C129.561 44.62 129.649 44.5009 129.764 44.3483C129.818 44.2752 129.866 44.1874 129.923 44.0996L130.011 43.9617L130.09 43.807C130.335 43.2947 130.477 42.7392 130.507 42.1721C130.537 41.6051 130.456 41.0376 130.267 40.5022C130.077 39.9667 129.785 39.4737 129.405 39.0514C129.026 38.629 128.567 38.2855 128.054 38.0406C127.542 37.7956 126.987 37.6539 126.42 37.6237C125.852 37.5934 125.285 37.6751 124.75 37.8641C124.214 38.0532 123.721 38.3458 123.299 38.7254C122.876 39.1049 122.533 39.564 122.288 40.0763C122.028 40.679 121.908 41.3328 121.937 41.9887C121.967 42.6686 122.158 43.3317 122.493 43.924L122.514 43.9617L122.482 43.9888L121.596 44.8249L121.613 44.7789C121.681 45.2638 121.751 45.7515 121.822 46.2419L121.834 46.3255L121.755 46.3025L120.378 45.9159L120.43 45.9033L119.615 46.6641L119.32 46.94L119.337 46.8919C119.41 47.3956 119.481 47.8972 119.546 48.355L119.558 48.4386L119.479 48.4156L118.106 48.0373L118.158 48.0247L117.203 48.9151L117.22 48.8691C117.263 49.1784 117.309 49.4961 117.349 49.7657L117.36 49.8452L117.282 49.8243L116.446 49.5881L116.496 49.5755L115.94 50.0939L115.957 50.0583C115.928 50.5307 115.899 50.9968 115.871 51.4211L115.834 51.3688L117.867 51.883L117.821 51.8955L124.42 45.7508L124.437 45.7361H124.455C125.111 46.0294 125.829 46.1579 126.545 46.1102C127.078 46.0707 127.599 45.9362 128.084 45.7131C128.379 45.5686 128.659 45.395 128.92 45.1948L129.116 45.0297L129.208 44.9858Z" fill="#263238"/>
<path d="M128.81 44.642C129.024 44.4122 129.22 44.1654 129.395 43.9042C129.594 43.5944 129.745 43.2561 129.842 42.901C129.976 42.4321 130.019 41.9417 129.967 41.4567C129.908 40.8696 129.711 40.3047 129.393 39.8077C129.027 39.237 128.517 38.7738 127.913 38.4659C127.589 38.2983 127.242 38.1813 126.882 38.1189C126.697 38.0857 126.51 38.064 126.322 38.0541C126.13 38.0514 125.938 38.0612 125.748 38.0834C124.948 38.1756 124.198 38.5219 123.61 39.0716C123.022 39.6212 122.625 40.3452 122.479 41.137C122.444 41.3255 122.421 41.5161 122.41 41.7076C122.407 41.896 122.415 42.0845 122.435 42.2719C122.475 42.6319 122.568 42.9841 122.711 43.3169C122.975 43.9408 123.402 44.4827 123.946 44.8865C124.379 45.206 124.876 45.4302 125.402 45.5444C125.928 45.6586 126.473 45.6602 127 45.5491C127.361 45.4767 127.709 45.3499 128.032 45.1729C128.305 45.0155 128.564 44.8373 128.81 44.6399C128.81 44.6399 128.795 44.6566 128.766 44.6838L128.63 44.805C128.557 44.8735 128.479 44.9358 128.396 44.991C128.286 45.0681 128.172 45.1379 128.053 45.2C127.727 45.3857 127.375 45.5204 127.008 45.5992C126.471 45.7183 125.915 45.7219 125.377 45.6098C124.838 45.4977 124.33 45.2726 123.885 44.9492C123.326 44.5371 122.887 43.9839 122.613 43.3462C122.465 43.0065 122.37 42.6464 122.33 42.2781C122.308 42.0867 122.299 41.894 122.303 41.7013C122.312 41.5041 122.335 41.3078 122.372 41.114C122.523 40.3002 122.931 39.5563 123.537 38.992C124.142 38.4276 124.913 38.0725 125.735 37.9789C125.931 37.9563 126.128 37.9472 126.324 37.9517C126.517 37.9613 126.709 37.9836 126.899 38.0186C127.268 38.0846 127.625 38.2065 127.957 38.3802C128.574 38.6978 129.095 39.1748 129.466 39.7617C129.789 40.2709 129.987 40.8497 130.043 41.4505C130.089 41.9429 130.04 42.4396 129.898 42.9135C129.794 43.2721 129.636 43.6126 129.428 43.923C129.356 44.0376 129.275 44.1466 129.186 44.2491C129.122 44.3248 129.052 44.3947 128.977 44.4581L128.845 44.5856C128.826 44.6294 128.81 44.6441 128.81 44.642Z" fill="#263238"/>
<path d="M128.632 41.5613C128.632 41.5613 128.724 41.4673 128.841 41.2729C128.985 41.0407 129.06 40.7727 129.057 40.4998C129.055 40.2269 128.976 39.9602 128.829 39.7304C128.691 39.5167 128.498 39.3441 128.271 39.2309C128.022 39.1031 127.741 39.0535 127.464 39.0888C127.165 39.123 126.885 39.2521 126.665 39.4571C126.445 39.6621 126.296 39.9322 126.241 40.2279C126.187 40.5027 126.217 40.7873 126.327 41.0451C126.405 41.2282 126.521 41.3931 126.666 41.5294C126.811 41.6656 126.983 41.7704 127.171 41.8369C127.358 41.9035 127.558 41.9305 127.757 41.9161C127.955 41.9018 128.149 41.8464 128.325 41.7536C128.534 41.6449 128.62 41.5446 128.628 41.5613C128.636 41.578 128.609 41.5885 128.563 41.6303C128.5 41.692 128.43 41.746 128.354 41.7912C128.106 41.9342 127.822 42.0022 127.536 41.987C127.25 41.9717 126.974 41.874 126.743 41.7055C126.512 41.5379 126.333 41.3081 126.227 41.0428C126.121 40.7776 126.093 40.4877 126.145 40.207C126.204 39.8889 126.363 39.5981 126.6 39.3776C126.837 39.1571 127.138 39.0185 127.46 38.9822C127.659 38.9582 127.861 38.9745 128.054 39.0301C128.247 39.0858 128.427 39.1797 128.583 39.3062C128.739 39.4328 128.868 39.5894 128.962 39.7667C129.056 39.9441 129.114 40.1386 129.132 40.3386C129.163 40.6767 129.076 41.0151 128.885 41.2959C128.834 41.3717 128.775 41.4418 128.709 41.5049C128.687 41.5274 128.661 41.5464 128.632 41.5613Z" fill="#263238"/>
<path d="M117.314 51.6901C117.293 51.6692 118.777 50.25 120.631 48.5215C122.485 46.7931 124.004 45.4074 124.025 45.4304C124.046 45.4533 122.562 46.8704 120.706 48.601C118.85 50.3315 117.341 51.713 117.314 51.6901Z" fill="#263238"/>
<path d="M110.9 70.569C110.555 70.6415 110.2 70.6415 109.855 70.569C110.2 70.4966 110.555 70.4966 110.9 70.569Z" fill="#263238"/>
<path d="M112.99 70.569C112.645 70.6415 112.289 70.6415 111.945 70.569C112.289 70.4966 112.645 70.4966 112.99 70.569Z" fill="white"/>
<path d="M115.08 70.569C114.736 70.6415 114.38 70.6415 114.035 70.569C114.38 70.4966 114.736 70.4966 115.08 70.569Z" fill="white"/>
<path d="M117.169 70.569C116.825 70.6415 116.469 70.6415 116.124 70.569C116.469 70.4966 116.825 70.4966 117.169 70.569Z" fill="white"/>
<path d="M119.259 70.569C118.914 70.6415 118.558 70.6415 118.214 70.569C118.558 70.4966 118.914 70.4966 119.259 70.569Z" fill="white"/>
<path d="M121.35 70.569C121.005 70.6415 120.649 70.6415 120.305 70.569C120.649 70.4966 121.005 70.4966 121.35 70.569Z" fill="white"/>
<path d="M123.125 70.2556C123.146 70.2556 123.167 70.3852 123.175 70.5712V70.6109H123.123H122.914C122.738 70.628 122.56 70.6095 122.391 70.5566C122.56 70.5036 122.738 70.4851 122.914 70.5022H123.123L123.073 70.5524C123.083 70.3852 123.102 70.2556 123.125 70.2556Z" fill="white"/>
<path d="M123.125 68.1668C123.197 68.5114 123.197 68.8673 123.125 69.2119C123.052 68.8673 123.052 68.5114 123.125 68.1668Z" fill="white"/>
<path d="M123.125 66.0742C123.197 66.4187 123.197 66.7746 123.125 67.1192C123.052 66.7746 123.052 66.4187 123.125 66.0742Z" fill="white"/>
<path d="M123.125 63.9815C123.197 64.3261 123.197 64.6819 123.125 65.0265C123.052 64.6819 123.052 64.3261 123.125 63.9815Z" fill="white"/>
<path d="M123.125 61.8927C123.197 62.2373 123.197 62.5932 123.125 62.9378C123.052 62.5932 123.052 62.2373 123.125 61.8927Z" fill="white"/>
<path d="M123.125 59.804C123.197 60.1485 123.197 60.5044 123.125 60.849C123.052 60.5044 123.052 60.1485 123.125 59.804Z" fill="white"/>
<path d="M123.125 57.7191C123.197 58.0637 123.197 58.4196 123.125 58.7642C123.052 58.4196 123.052 58.0637 123.125 57.7191Z" fill="white"/>
<path d="M123.125 55.6225C123.197 55.9671 123.197 56.323 123.125 56.6676C123.052 56.323 123.052 55.9671 123.125 55.6225Z" fill="white"/>
<path d="M123.125 53.5338C123.197 53.8784 123.197 54.2342 123.125 54.5788C123.052 54.2342 123.052 53.8784 123.125 53.5338Z" fill="white"/>
<path d="M123.125 51.449C123.197 51.7935 123.197 52.1494 123.125 52.494C123.052 52.1494 123.052 51.7935 123.125 51.449Z" fill="white"/>
<path d="M123.125 49.3484C123.197 49.693 123.197 50.0489 123.125 50.3935C123.052 50.0489 123.052 49.693 123.125 49.3484Z" fill="white"/>
<path d="M107.454 93.4961C107.109 93.5686 106.754 93.5686 106.409 93.4961C106.754 93.4237 107.109 93.4237 107.454 93.4961Z" fill="white"/>
<path d="M109.544 93.4961C109.199 93.5686 108.843 93.5686 108.499 93.4961C108.843 93.4237 109.199 93.4237 109.544 93.4961Z" fill="white"/>
<path d="M111.634 93.4961C111.29 93.5686 110.934 93.5686 110.589 93.4961C110.934 93.4237 111.29 93.4237 111.634 93.4961Z" fill="white"/>
<path d="M113.723 93.4961C113.379 93.5686 113.023 93.5686 112.678 93.4961C113.023 93.4237 113.379 93.4237 113.723 93.4961Z" fill="white"/>
<path d="M115.813 93.4961C115.468 93.5686 115.112 93.5686 114.768 93.4961C115.112 93.4237 115.468 93.4237 115.813 93.4961Z" fill="white"/>
<path d="M117.904 93.4961C117.559 93.5686 117.203 93.5686 116.859 93.4961C117.203 93.4237 117.559 93.4237 117.904 93.4961Z" fill="white"/>
<path d="M119.995 93.4961C119.651 93.5686 119.295 93.5686 118.95 93.4961C119.295 93.4237 119.651 93.4237 119.995 93.4961Z" fill="white"/>
<path d="M122.084 93.4961C121.74 93.5686 121.384 93.5686 121.039 93.4961C121.384 93.4237 121.74 93.4237 122.084 93.4961Z" fill="white"/>
<path d="M124.175 93.4961C123.83 93.5686 123.474 93.5686 123.13 93.4961C123.474 93.4237 123.83 93.4237 124.175 93.4961Z" fill="white"/>
<path d="M126.264 93.4961C125.919 93.5686 125.563 93.5686 125.219 93.4961C125.563 93.4237 125.919 93.4237 126.264 93.4961Z" fill="white"/>
<path d="M128.159 93.3044C128.178 93.3044 128.19 93.3796 128.201 93.5008V93.5385H128.155C128.067 93.5385 127.946 93.5489 127.829 93.5489C127.653 93.5672 127.475 93.5487 127.306 93.4946C127.475 93.4416 127.653 93.4231 127.829 93.4402C127.954 93.4402 128.067 93.4402 128.155 93.4528L128.113 93.4946C128.125 93.3796 128.142 93.3044 128.159 93.3044Z" fill="white"/>
<path d="M128.184 91.2117C128.236 91.3805 128.253 91.5584 128.234 91.7342C128.249 91.9107 128.229 92.0885 128.173 92.2567C128.122 92.0876 128.105 91.9098 128.125 91.7342C128.109 91.5579 128.129 91.3802 128.184 91.2117Z" fill="white"/>
<path d="M128.201 89.1229C128.253 89.292 128.27 89.4697 128.252 89.6455C128.267 89.8219 128.247 89.9998 128.191 90.168C128.14 89.9989 128.123 89.8211 128.143 89.6455C128.127 89.4691 128.147 89.2914 128.201 89.1229Z" fill="white"/>
<path d="M128.223 87.0342C128.275 87.2033 128.292 87.3809 128.273 87.5567C128.288 87.7332 128.267 87.9108 128.213 88.0792C128.161 87.9102 128.144 87.7325 128.162 87.5567C128.148 87.3802 128.169 87.2027 128.223 87.0342Z" fill="white"/>
<path d="M121.306 80.4841L121.691 87.5463C121.697 87.6678 121.749 87.7823 121.837 87.8663C121.925 87.9503 122.042 87.9974 122.163 87.9978L134.873 88.0918C134.999 88.0924 135.121 88.0428 135.211 87.9539C135.301 87.865 135.352 87.744 135.354 87.6174L135.393 82.1206C135.394 82.0576 135.382 81.9952 135.358 81.9369C135.334 81.8786 135.299 81.8256 135.255 81.7809C135.211 81.7362 135.158 81.7007 135.1 81.6765C135.042 81.6523 134.98 81.6399 134.917 81.6399H127.1C126.974 81.6396 126.853 81.5893 126.763 81.4998L125.415 80.1517C125.372 80.1075 125.319 80.0724 125.262 80.0484C125.205 80.0243 125.143 80.0119 125.081 80.0117L121.785 79.9866C121.72 79.9866 121.657 79.9996 121.597 80.0248C121.538 80.05 121.484 80.0869 121.44 80.1334C121.395 80.1799 121.36 80.2349 121.337 80.2951C121.314 80.3554 121.304 80.4196 121.306 80.4841Z" fill="#2F80EC"/>
<path d="M135.401 80.8109L121.513 80.7091L121.452 89.0063L135.34 89.1081L135.401 80.8109Z" fill="#F5F5F5"/>
<path d="M120.405 81.4463L121.402 90.1075C121.41 90.1823 121.445 90.2515 121.501 90.3018C121.557 90.352 121.63 90.3796 121.705 90.3792L135.238 90.4795C135.315 90.4802 135.39 90.4515 135.447 90.3991C135.504 90.3467 135.539 90.2746 135.545 90.1973L136.291 81.5487C136.295 81.5065 136.29 81.464 136.276 81.4239C136.262 81.3838 136.24 81.347 136.211 81.3158C136.183 81.2846 136.148 81.2597 136.109 81.2425C136.07 81.2254 136.029 81.2165 135.986 81.2164L120.712 81.1056C120.669 81.1053 120.626 81.1142 120.586 81.1317C120.547 81.1492 120.511 81.1749 120.482 81.2071C120.453 81.2392 120.431 81.2772 120.418 81.3184C120.405 81.3596 120.4 81.4032 120.405 81.4463Z" fill="#2F80EC"/>
<path d="M109.061 67.9699H39.1087C37.4269 67.9699 36.0635 69.3332 36.0635 71.0151V115.211C36.0635 116.893 37.4269 118.257 39.1087 118.257H109.061C110.742 118.257 112.106 116.893 112.106 115.211V71.0151C112.106 69.3332 110.742 67.9699 109.061 67.9699Z" fill="#263238"/>
<path d="M32.8735 114.539H115.27V115.218C115.27 116.205 114.878 117.151 114.18 117.849C113.482 118.546 112.536 118.938 111.549 118.938H36.6043C35.6176 118.938 34.6713 118.546 33.9736 117.849C33.2759 117.151 32.884 116.205 32.884 115.218V114.539H32.8735Z" fill="#263238"/>
<path d="M109.854 69.9683H38.1062V112.434H109.854V69.9683Z" fill="#455A64"/>
<path d="M66.5881 114.539L67.6102 116.165H81.996L82.947 114.539H66.5881Z" fill="#455A64"/>
<path d="M107.839 71.4092H40.266C39.8885 71.4092 39.5825 71.7152 39.5825 72.0927V111.618C39.5825 111.995 39.8885 112.301 40.266 112.301H107.839C108.217 112.301 108.523 111.995 108.523 111.618V72.0927C108.523 71.7152 108.217 71.4092 107.839 71.4092Z" fill="#EBEBEB"/>
<path d="M108.523 74.4089H39.5825V112.306H108.523V74.4089Z" fill="#FAFAFA"/>
<path d="M45.2356 72.9858C45.2356 73.095 45.2032 73.2017 45.1425 73.2925C45.0818 73.3833 44.9955 73.454 44.8945 73.4957C44.7936 73.5374 44.6825 73.5482 44.5754 73.5268C44.4683 73.5053 44.37 73.4525 44.293 73.3752C44.2159 73.2978 44.1635 73.1993 44.1424 73.0921C44.1214 72.9849 44.1326 72.8739 44.1747 72.7731C44.2168 72.6724 44.2878 72.5863 44.3788 72.526C44.4698 72.4656 44.5767 72.4336 44.6859 72.434C44.7583 72.434 44.83 72.4483 44.8968 72.476C44.9636 72.5038 45.0243 72.5445 45.0754 72.5957C45.1264 72.647 45.1669 72.7078 45.1944 72.7748C45.2219 72.8417 45.2359 72.9134 45.2356 72.9858Z" fill="#263238"/>
<path d="M41.9002 72.9857C41.9002 73.0949 41.8678 73.2016 41.8072 73.2923C41.7466 73.383 41.6604 73.4538 41.5596 73.4955C41.4587 73.5373 41.3478 73.5482 41.2408 73.5269C41.1337 73.5056 41.0354 73.4531 40.9582 73.3759C40.8811 73.2987 40.8285 73.2004 40.8072 73.0934C40.7859 72.9864 40.7969 72.8754 40.8386 72.7746C40.8804 72.6738 40.9511 72.5876 41.0419 72.527C41.1326 72.4663 41.2393 72.434 41.3484 72.434C41.4947 72.434 41.6351 72.4921 41.7386 72.5956C41.842 72.6991 41.9002 72.8394 41.9002 72.9857Z" fill="#263238"/>
<path d="M43.501 72.9858C43.501 73.095 43.4686 73.2017 43.4079 73.2925C43.3471 73.3833 43.2608 73.454 43.1599 73.4957C43.059 73.5374 42.9479 73.5482 42.8408 73.5268C42.7337 73.5053 42.6354 73.4525 42.5583 73.3752C42.4813 73.2978 42.4289 73.1993 42.4078 73.0921C42.3868 72.9849 42.398 72.8739 42.4401 72.7731C42.4821 72.6724 42.5532 72.5863 42.6442 72.526C42.7352 72.4656 42.8421 72.4336 42.9513 72.434C43.0237 72.434 43.0953 72.4483 43.1622 72.476C43.229 72.5038 43.2897 72.5445 43.3408 72.5957C43.3918 72.647 43.4323 72.7078 43.4598 72.7748C43.4873 72.8417 43.5013 72.9134 43.501 72.9858Z" fill="#263238"/>
<path d="M111.46 114.534C111.46 114.561 94.5827 114.584 73.7678 114.584C52.953 114.584 36.0696 114.561 36.0696 114.534C36.0696 114.507 52.9447 114.484 73.7678 114.484C94.591 114.484 111.46 114.507 111.46 114.534Z" fill="#455A64"/>
<path d="M60.0924 93.4942H44.3606V94.5476H60.0924V93.4942Z" fill="#E0E0E0"/>
<path d="M80.4118 78.8808H64.6799V79.9342H80.4118V78.8808Z" fill="#E0E0E0"/>
<path d="M103.81 82.8002C103.81 82.8273 95.0505 82.8503 84.2449 82.8503C73.4393 82.8503 64.6799 82.8273 64.6799 82.8002C64.6799 82.773 73.4393 82.7521 84.2449 82.7521C95.0505 82.7521 103.81 82.773 103.81 82.8002Z" fill="#E0E0E0"/>
<path d="M103.81 85.0991C103.81 85.1263 95.0505 85.1472 84.2449 85.1472C73.4393 85.1472 64.6799 85.1263 64.6799 85.0991C64.6799 85.0719 73.4393 85.0489 84.2449 85.0489C95.0505 85.0489 103.81 85.0719 103.81 85.0991Z" fill="#E0E0E0"/>
<path d="M103.81 87.3978C103.81 87.4249 95.0505 87.4479 84.2449 87.4479C73.4393 87.4479 64.6799 87.4249 64.6799 87.3978C64.6799 87.3706 73.4393 87.3497 84.2449 87.3497C95.0505 87.3497 103.81 87.3706 103.81 87.3978Z" fill="#E0E0E0"/>
<path d="M103.81 89.7006C103.81 89.7278 95.0505 89.7487 84.2449 89.7487C73.4393 89.7487 64.6799 89.7278 64.6799 89.7006C64.6799 89.6735 73.4393 89.6505 84.2449 89.6505C95.0505 89.6505 103.81 89.6735 103.81 89.7006Z" fill="#E0E0E0"/>
<path d="M103.81 91.9954C103.81 92.0226 95.0505 92.0455 84.2449 92.0455C73.4393 92.0455 64.6799 92.0226 64.6799 91.9954C64.6799 91.9682 73.4393 91.9473 84.2449 91.9473C95.0505 91.9473 103.81 91.9682 103.81 91.9954Z" fill="#E0E0E0"/>
<path d="M79.954 94.2943C79.954 94.3215 76.5347 94.3424 72.317 94.3424C68.0993 94.3424 64.6799 94.3215 64.6799 94.2943C64.6799 94.2671 68.0993 94.2441 72.317 94.2441C76.5347 94.2441 79.954 94.2671 79.954 94.2943Z" fill="#E0E0E0"/>
<path d="M103.517 98.7485C103.517 98.7757 97.7593 98.7986 90.6594 98.7986C83.5595 98.7986 77.7993 98.7757 77.7993 98.7485C77.7993 98.7213 83.5553 98.7004 90.6594 98.7004C97.7635 98.7004 103.517 98.7213 103.517 98.7485Z" fill="#E0E0E0"/>
<path d="M103.517 101.189C103.517 101.216 97.7593 101.237 90.6594 101.237C83.5595 101.237 77.7993 101.216 77.7993 101.189C77.7993 101.162 83.5553 101.139 90.6594 101.139C97.7635 101.139 103.517 101.162 103.517 101.189Z" fill="#E0E0E0"/>
<path d="M103.518 103.635C103.518 103.662 97.7596 103.683 90.6597 103.683C83.5598 103.683 77.8101 103.66 77.8101 103.635C77.8101 103.61 83.5661 103.585 90.6701 103.585C97.7742 103.585 103.518 103.606 103.518 103.635Z" fill="#E0E0E0"/>
<path d="M103.517 106.065C103.517 106.092 97.7593 106.113 90.6594 106.113C83.5595 106.113 77.7993 106.092 77.7993 106.065C77.7993 106.038 83.5553 106.015 90.6594 106.015C97.7635 106.015 103.517 106.038 103.517 106.065Z" fill="#E0E0E0"/>
<path d="M60.1332 98.5189C60.1332 98.5461 56.7013 98.567 52.4668 98.567C48.2324 98.567 44.8005 98.5461 44.8005 98.5189C44.8005 98.4918 48.2324 98.4688 52.4668 98.4688C56.7013 98.4688 60.1332 98.4918 60.1332 98.5189Z" fill="#E0E0E0"/>
<path d="M60.1332 100.433C60.1332 100.46 56.7013 100.483 52.4668 100.483C48.2324 100.483 44.8005 100.46 44.8005 100.433C44.8005 100.406 48.2324 100.385 52.4668 100.385C56.7013 100.385 60.1332 100.406 60.1332 100.433Z" fill="#E0E0E0"/>
<path d="M60.1332 102.351C60.1332 102.378 56.7013 102.401 52.4668 102.401C48.2324 102.401 44.8005 102.378 44.8005 102.351C44.8005 102.324 48.2324 102.301 52.4668 102.301C56.7013 102.301 60.1332 102.324 60.1332 102.351Z" fill="#E0E0E0"/>
<path d="M60.1332 104.263C60.1332 104.29 56.7013 104.311 52.4668 104.311C48.2324 104.311 44.8005 104.29 44.8005 104.263C44.8005 104.236 48.2324 104.213 52.4668 104.213C56.7013 104.213 60.1332 104.242 60.1332 104.263Z" fill="#E0E0E0"/>
<path d="M60.1332 106.181C60.1332 106.208 56.7013 106.231 52.4668 106.231C48.2324 106.231 44.8005 106.208 44.8005 106.181C44.8005 106.154 48.2324 106.133 52.4668 106.133C56.7013 106.133 60.1332 106.154 60.1332 106.181Z" fill="#E0E0E0"/>
<path d="M75.831 97.5854H64.6702V108.385H75.831V97.5854Z" fill="#F5F5F5"/>
<path d="M65.5349 107.466L68.624 101.908L71.1488 105.461L72.685 103.574L74.9673 107.466H65.5349Z" fill="#EBEBEB"/>
<path d="M72.2246 100.826C72.225 100.985 72.1781 101.141 72.0898 101.274C72.0016 101.407 71.8759 101.51 71.7288 101.571C71.5817 101.632 71.4197 101.649 71.2634 101.618C71.1071 101.587 70.9636 101.51 70.8509 101.397C70.7383 101.285 70.6616 101.141 70.6306 100.985C70.5996 100.828 70.6157 100.666 70.6769 100.519C70.7381 100.372 70.8415 100.247 70.9742 100.158C71.1068 100.07 71.2627 100.023 71.422 100.024C71.6348 100.024 71.839 100.108 71.9895 100.259C72.14 100.409 72.2246 100.613 72.2246 100.826Z" fill="#EBEBEB"/>
<path d="M74.967 107.492C74.965 107.477 74.965 107.461 74.967 107.446C74.967 107.415 74.967 107.373 74.967 107.321C74.967 107.206 74.967 107.045 74.967 106.836C74.967 106.407 74.967 105.791 74.9545 105.001C74.9545 103.423 74.942 101.178 74.9315 98.4797L74.9775 98.5257H65.5472L65.5994 98.4734V100.915C65.5994 101.709 65.5994 102.486 65.5994 103.241C65.5994 104.754 65.5994 106.184 65.5994 107.5L65.5534 107.452L72.3712 107.477L74.294 107.488H74.804H74.9378H74.9838H74.8145H74.3128L72.4004 107.498L65.5534 107.523H65.5054V107.477C65.5054 106.161 65.5054 104.731 65.5054 103.218C65.5054 102.463 65.5054 101.686 65.5054 100.892V98.4838L65.5597 98.4295H74.99H75.036V98.4734C75.0256 101.19 75.0172 103.439 75.013 105.024C75.013 105.805 75.0026 106.422 75.0005 106.848C75.0005 107.053 75.0005 107.212 75.0005 107.325C75.0005 107.375 75.0005 107.415 75.0005 107.446C74.991 107.462 74.9797 107.478 74.967 107.492Z" fill="#EBEBEB"/>
<path d="M59.7955 77.0826H44.6572V91.7297H59.7955V77.0826Z" fill="#F5F5F5"/>
<path d="M45.8301 90.4773L50.0185 82.9406L53.4441 87.7581L55.5258 85.1999L58.6212 90.4773H45.8301Z" fill="#E0E0E0"/>
<path d="M54.9024 81.4774C54.9024 81.6928 54.8386 81.9033 54.7189 82.0824C54.5993 82.2615 54.4292 82.401 54.2302 82.4834C54.0313 82.5659 53.8123 82.5874 53.6011 82.5454C53.3899 82.5034 53.1958 82.3997 53.0435 82.2474C52.8913 82.0951 52.7875 81.9011 52.7455 81.6899C52.7035 81.4786 52.7251 81.2597 52.8075 81.0607C52.8899 80.8617 53.0295 80.6917 53.2086 80.572C53.3876 80.4524 53.5982 80.3885 53.8135 80.3885C54.1023 80.3885 54.3793 80.5032 54.5835 80.7074C54.7877 80.9117 54.9024 81.1886 54.9024 81.4774Z" fill="#E0E0E0"/>
<path d="M58.6211 90.5259C58.6211 90.5259 58.6211 90.505 58.6211 90.4653C58.6211 90.4255 58.6211 90.3649 58.6211 90.2939C58.6211 90.1392 58.6211 89.9198 58.6211 89.6355C58.6211 89.0545 58.6106 88.2143 58.6044 87.1483C58.6044 85.0081 58.5856 81.9629 58.573 78.3053L58.6336 78.366L45.8446 78.3764C45.8279 78.391 45.9805 78.2405 45.9157 78.3074V81.593C45.9157 82.6701 45.9157 83.7221 45.9157 84.749C45.9157 86.7993 45.9157 88.7389 45.9157 90.5238L45.853 90.4611L55.1015 90.4924L57.7098 90.5092H58.4037H58.5814H58.6441H58.5898H58.4163H57.737L55.1433 90.5259L45.853 90.5572H45.7903V90.4945C45.7903 88.7096 45.7903 86.7701 45.7903 84.7197C45.7903 83.6942 45.7903 82.6422 45.7903 81.5637V78.3095C45.7255 78.3722 45.8781 78.2176 45.8634 78.2343L58.6525 78.2447H58.7152V78.3074C58.7026 81.9817 58.6922 85.0416 58.6838 87.1901C58.6838 88.2498 58.6713 89.0858 58.6671 89.6627C58.6671 89.9407 58.6671 90.158 58.6671 90.3106C58.6671 90.3796 58.6671 90.4318 58.6671 90.4736C58.6561 90.4944 58.6404 90.5123 58.6211 90.5259Z" fill="#E0E0E0"/>
<path d="M61.8263 82.6539L62.5745 84.1692L64.2466 84.4117L63.0364 85.5926L63.3207 87.2583L61.8263 86.4725L60.3298 87.2583L60.6161 85.5926L59.406 84.4117L61.078 84.1692L61.8263 82.6539Z" fill="#2F80EC"/>
<path d="M67.0924 77.3889L67.8406 78.9042L69.5127 79.1466L68.3025 80.3275L68.5889 81.9933L67.0924 81.2053L65.5959 81.9933L65.8823 80.3275L64.6721 79.1466L66.3442 78.9042L67.0924 77.3889Z" fill="#2F80EC"/>
<path d="M74.131 75.3119L74.8792 76.8272L76.5513 77.0696L75.3411 78.2484L75.6274 79.9142L74.131 79.1283L72.6345 79.9142L72.9208 78.2484L71.7107 77.0696L73.3827 76.8272L74.131 75.3119Z" fill="#2F80EC"/>
<path d="M81.4171 77.4321L82.1653 78.9473L83.8374 79.1898L82.6272 80.3686L82.9136 82.0344L81.4171 81.2485L79.9206 82.0344L80.207 80.3686L78.9968 79.1898L80.6689 78.9473L81.4171 77.4321Z" fill="#2F80EC"/>
<path d="M86.4369 82.4537L87.1851 83.969L88.8572 84.2114L87.647 85.3923L87.9334 87.056L86.4369 86.2701L84.9425 87.056L85.2267 85.3923L84.0166 84.2114L85.6886 83.969L86.4369 82.4537Z" fill="#2F80EC"/>
<path d="M88.2596 89.7447L89.0079 91.26L90.6799 91.5024L89.4698 92.6812L89.754 94.347L88.2596 93.5611L86.7632 94.347L87.0495 92.6812L85.8394 91.5024L87.5114 91.26L88.2596 89.7447Z" fill="#2F80EC"/>
<path d="M86.486 96.9768L87.2342 98.4921L88.9062 98.7345L87.6961 99.9154L87.9824 101.581L86.486 100.793L84.9895 101.581L85.2758 99.9154L84.0657 98.7345L85.7377 98.4921L86.486 96.9768Z" fill="#2F80EC"/>
<path d="M81.1531 101.998L81.9013 103.514L83.5733 103.756L82.3632 104.935L82.6495 106.601L81.1531 105.815L79.6587 106.601L79.9429 104.935L78.7349 103.756L80.4069 103.514L81.1531 101.998Z" fill="#2F80EC"/>
<path d="M73.9896 104.064L74.7378 105.579L76.4099 105.821L75.1998 107.002L75.4861 108.666L73.9896 107.88L72.4952 108.666L72.7795 107.002L71.5693 105.821L73.2414 105.579L73.9896 104.064Z" fill="#2F80EC"/>
<path d="M67.1464 102.002L67.8946 103.518L69.5666 103.76L68.3565 104.939L68.6428 106.605L67.1464 105.819L65.652 106.605L65.9362 104.939L64.7261 103.76L66.4002 103.518L67.1464 102.002Z" fill="#2F80EC"/>
<path d="M61.732 96.8433L62.4782 98.3586L64.1502 98.6031L62.9422 99.7819L63.2264 101.448L61.732 100.662L60.2356 101.448L60.5219 99.7819L59.3118 98.6031L60.9838 98.3586L61.732 96.8433Z" fill="#2F80EC"/>
<path d="M59.9112 89.7486L60.6595 91.2639L62.3315 91.5064L61.1214 92.6872L61.4077 94.3509L59.9112 93.565L58.4148 94.3509L58.7011 92.6872L57.491 91.5064L59.163 91.2639L59.9112 89.7486Z" fill="#2F80EC"/>
<path d="M79.291 94.9445H77.828V86.9814C77.828 86.0801 77.4699 85.2157 76.8326 84.5784C76.1953 83.941 75.3309 83.583 74.4296 83.583C73.5283 83.583 72.6639 83.941 72.0265 84.5784C71.3892 85.2157 71.0312 86.0801 71.0312 86.9814V94.9445H69.5681V86.9814C69.5681 86.343 69.6939 85.7108 69.9382 85.121C70.1825 84.5312 70.5406 83.9953 70.992 83.5439C71.4434 83.0924 71.9794 82.7343 72.5692 82.49C73.159 82.2457 73.7912 82.12 74.4296 82.12C75.068 82.12 75.7002 82.2457 76.29 82.49C76.8798 82.7343 77.4157 83.0924 77.8671 83.5439C78.3186 83.9953 78.6767 84.5312 78.921 85.121C79.1653 85.7108 79.291 86.343 79.291 86.9814V94.9445Z" fill="#263238"/>
<path d="M79.768 91.4016H69.092C68.4214 91.4016 67.8777 91.9452 67.8777 92.6159V98.5955C67.8777 99.2662 68.4214 99.8098 69.092 99.8098H79.768C80.4386 99.8098 80.9823 99.2662 80.9823 98.5955V92.6159C80.9823 91.9452 80.4386 91.4016 79.768 91.4016Z" fill="#2F80EC"/>
<path d="M75.5256 94.5148C75.5256 94.7314 75.4613 94.9432 75.341 95.1233C75.2207 95.3034 75.0496 95.4438 74.8495 95.5267C74.6494 95.6095 74.4292 95.6312 74.2167 95.589C74.0043 95.5467 73.8091 95.4424 73.656 95.2892C73.5028 95.1361 73.3985 94.9409 73.3562 94.7285C73.314 94.516 73.3357 94.2958 73.4186 94.0957C73.5015 93.8956 73.6418 93.7246 73.8219 93.6042C74.002 93.4839 74.2138 93.4196 74.4304 93.4196C74.7209 93.4196 74.9994 93.535 75.2048 93.7404C75.4102 93.9458 75.5256 94.2244 75.5256 94.5148Z" fill="#263238"/>
<path d="M74.7291 94.9509H74.1313V97.2039H74.7291V94.9509Z" fill="#263238"/>
<path d="M68.5761 99.0145C68.5468 99.0145 68.5217 97.6121 68.5217 95.8794C68.5217 94.1468 68.5468 92.7443 68.5761 92.7443C68.6053 92.7443 68.6304 94.1468 68.6304 95.8794C68.6304 97.6121 68.6137 99.0145 68.5761 99.0145Z" fill="#FAFAFA"/>
<path d="M73.5731 95.9151C73.5731 95.9151 73.5208 95.8983 73.4435 95.8419C73.3352 95.7608 73.2401 95.6635 73.1614 95.5535C73.0259 95.3732 72.9317 95.1652 72.8857 94.9444C72.8396 94.7237 72.8427 94.4954 72.8948 94.276C72.9468 94.0565 73.0466 93.8512 73.1869 93.6747C73.3273 93.4981 73.5048 93.3546 73.7069 93.2544C73.827 93.1919 73.956 93.1482 74.0893 93.1248C74.1376 93.1148 74.1874 93.1148 74.2356 93.1248C74.067 93.1823 73.9028 93.2521 73.7445 93.3338C73.5587 93.4361 73.3964 93.5761 73.268 93.7449C73.1396 93.9136 73.0479 94.1074 72.9989 94.3137C72.9499 94.52 72.9446 94.7343 72.9834 94.9428C73.0222 95.1513 73.1041 95.3493 73.2241 95.5242C73.3297 95.6637 73.4465 95.7944 73.5731 95.9151Z" fill="#FAFAFA"/>
<path d="M28.3367 87.6761C28.1893 88.1545 28.201 88.6679 28.3702 89.1391C28.5416 89.6061 28.763 90.0532 29.0306 90.4726C29.3755 89.6375 29.6721 88.7834 29.9189 87.9143C29.9585 87.823 29.9749 87.7233 29.9665 87.624C29.9581 87.5248 29.9252 87.4292 29.8708 87.3458C29.8133 87.2981 29.7463 87.2632 29.6742 87.2434C29.6021 87.2236 29.5267 87.2193 29.4528 87.2309C29.0074 87.258 28.5851 87.4381 28.2573 87.7409" fill="#263238"/>
<path d="M9.90614 111.119L6.48682 118.934H11.1936L14.5461 111.057L9.90614 111.119Z" fill="#263238"/>
<path d="M30.2384 118.846C34.8511 117.319 31.6889 111.218 31.6889 111.218L11.5262 113.113C10.7519 113.113 10.0093 113.42 9.46081 113.967C8.91236 114.513 8.60286 115.255 8.6001 116.029C8.6001 116.805 8.90838 117.549 9.45713 118.098C10.0059 118.647 10.7501 118.955 11.5262 118.955L30.2572 118.855" fill="#455A64"/>
<path d="M34.8251 118.947C39.3208 117.43 36.3571 111.214 36.3571 111.214L16.7106 113.066C14.7919 113.091 13.8535 114.016 13.8535 115.977C13.8535 117.586 14.4513 118.945 16.7043 118.903L34.8335 118.949" fill="#455A64"/>
<path d="M30.3942 112.242H30.3399H30.1748L29.5478 112.267L27.2362 112.382L19.6096 112.8C19.2354 112.819 18.8676 112.851 18.506 112.857C18.1444 112.863 17.7829 112.878 17.4317 112.899C17.0806 112.92 16.7357 112.947 16.3867 112.982C16.0513 113.007 15.7207 113.077 15.4044 113.191C15.0982 113.306 14.8198 113.484 14.5872 113.714C14.3661 113.94 14.1964 114.212 14.0897 114.51C13.9892 114.788 13.9191 115.076 13.8807 115.369C13.8436 115.639 13.8254 115.91 13.8264 116.182C13.8187 116.651 13.9069 117.117 14.0856 117.551C14.2214 117.874 14.4312 118.16 14.6979 118.387C14.8611 118.527 15.0499 118.635 15.2539 118.703C15.3918 118.747 15.396 118.732 15.2539 118.682C15.0563 118.606 14.8737 118.496 14.7147 118.356C14.4596 118.129 14.26 117.847 14.1315 117.53C13.9616 117.103 13.8799 116.646 13.8912 116.186C13.8924 115.918 13.9126 115.651 13.9518 115.386C13.9901 115.1 14.0602 114.82 14.1608 114.55C14.2624 114.265 14.4258 114.006 14.6394 113.791C14.8638 113.571 15.1324 113.401 15.4274 113.292C15.7377 113.184 16.0611 113.119 16.3888 113.097C16.7232 113.064 17.0681 113.037 17.4192 113.018C17.7703 112.999 18.1256 112.982 18.4893 112.976C18.853 112.97 19.2208 112.94 19.5928 112.922L27.2341 112.46L29.5457 112.311L30.1727 112.265L30.3357 112.251C30.3556 112.252 30.3755 112.249 30.3942 112.242Z" fill="#263238"/>
<path d="M34.8341 114.165C34.7865 114.201 34.7327 114.228 34.6753 114.245C34.5213 114.3 34.3601 114.333 34.1967 114.343C33.9245 114.364 33.6511 114.324 33.3957 114.228C33.1403 114.131 32.9092 113.98 32.7187 113.784C32.5282 113.589 32.3829 113.354 32.293 113.096C32.2031 112.838 32.1709 112.564 32.1986 112.293C32.2111 112.13 32.2484 111.97 32.3094 111.818C32.3259 111.761 32.3536 111.708 32.3909 111.661C32.3333 111.87 32.2948 112.083 32.2759 112.299C32.259 112.557 32.2967 112.817 32.3864 113.06C32.4762 113.303 32.6161 113.524 32.7971 113.71C32.978 113.895 33.1959 114.04 33.4367 114.136C33.6775 114.232 33.9357 114.276 34.1946 114.266C34.4106 114.253 34.6248 114.22 34.8341 114.165Z" fill="#263238"/>
<path d="M24.8368 101.81L22.9703 108.193L16.0669 108.933V110.158L26.212 110.298L27.5914 101.988L24.8368 101.81Z" fill="#FFBE9D"/>
<path d="M33.8372 95.1435C35.0619 95.1435 38.3788 95.7705 38.6694 98.0069C38.9327 100.026 39.3256 102.317 39.3256 102.317L34.9616 102.434L36.4476 102.829L37.0746 112.253L25.7758 111.86L26.3757 107.015L26.8773 102.177L24.4089 101.968C24.4089 101.968 25.245 97.7519 26.7268 96.4498C27.6561 95.6988 28.7886 95.2425 29.9789 95.1393C31.264 95.0667 32.5521 95.0667 33.8372 95.1393" fill="#2F80EC"/>
<path d="M27.2814 99.0385C27.3086 99.0385 27.1351 100.744 26.8968 102.842C26.6586 104.941 26.4433 106.64 26.4161 106.636C26.389 106.632 26.5624 104.93 26.8028 102.832C27.0431 100.734 27.2563 99.0385 27.2814 99.0385Z" fill="#263238"/>
<path d="M34.1738 95.1555C34.1738 95.1555 34.1738 95.1827 34.1864 95.2349C34.1989 95.2872 34.1968 95.3645 34.1989 95.4627C34.2049 95.7463 34.1632 96.0289 34.0756 96.2987C33.9614 96.7108 33.7408 97.0856 33.4361 97.3856C33.2483 97.5644 33.0255 97.7024 32.7819 97.791C32.5168 97.878 32.2395 97.9218 31.9605 97.9206C31.6807 97.9278 31.4008 97.9089 31.1245 97.8642C30.8664 97.8235 30.6211 97.7241 30.4076 97.5737C30.0662 97.3089 29.8263 96.9348 29.7283 96.514C29.6541 96.2418 29.6224 95.9599 29.6343 95.678C29.6343 95.5798 29.6447 95.5024 29.651 95.4502C29.6524 95.4232 29.6573 95.3965 29.6656 95.3708C29.6714 95.4731 29.6714 95.5757 29.6656 95.678C29.6672 95.9567 29.7073 96.2338 29.7847 96.5015C29.8881 96.9035 30.1237 97.259 30.4536 97.511C30.6578 97.6522 30.8915 97.7451 31.137 97.7827C31.4051 97.8254 31.6765 97.8436 31.9479 97.837C32.2169 97.837 32.4842 97.7947 32.7401 97.7116C32.9738 97.63 33.1876 97.4997 33.3671 97.3291C33.6652 97.0408 33.8846 96.6811 34.0045 96.2841C34.094 96.0205 34.144 95.7451 34.1529 95.4669C34.1697 95.2767 34.1676 95.1555 34.1738 95.1555Z" fill="#263238"/>
<g opacity="0.2">
<path d="M34.7814 99.0424C34.3634 101.043 33.8179 103.097 33.3999 105.104C33.3407 105.535 33.1896 105.948 32.9568 106.316C32.7845 106.526 32.5832 106.711 32.359 106.865C31.5525 107.511 30.6553 108.033 29.6963 108.416C31.0961 108.297 32.4829 108.055 33.8409 107.695C33.9543 107.689 34.0653 107.66 34.1676 107.61C34.2698 107.561 34.3611 107.491 34.4364 107.406C34.5116 107.321 34.5692 107.222 34.6058 107.114C34.6424 107.007 34.6574 106.893 34.6497 106.78C34.9507 104.215 34.8587 101.63 34.7814 99.0466" fill="black"/>
</g>
<path d="M39.3969 102.347C39.2886 102.366 39.1787 102.374 39.0688 102.372L38.1722 102.406C37.4177 102.431 36.3726 102.456 35.2168 102.479H34.8469H34.8009V102.433C34.7591 101.361 34.7779 100.408 34.8009 99.7159C34.8009 99.3753 34.8239 99.0994 34.8364 98.9092C34.8369 98.8104 34.846 98.7117 34.8636 98.6145C34.8717 98.7126 34.8717 98.8111 34.8636 98.9092C34.8636 99.1182 34.8636 99.3878 34.8636 99.718C34.8636 100.404 34.8511 101.357 34.895 102.423L34.8469 102.377H35.2189C36.3726 102.354 37.4177 102.339 38.1743 102.333H39.0709C39.1798 102.329 39.2888 102.334 39.3969 102.347Z" fill="#263238"/>
<path d="M7.41741 102.802L11.2736 110.389H23.4335L22.9402 109.4L19.4185 109.294L16.5468 102.902C16.4595 102.708 16.3177 102.542 16.1386 102.427C15.9594 102.311 15.7505 102.25 15.5373 102.25H7.76018C7.69538 102.251 7.63178 102.268 7.57529 102.299C7.5188 102.331 7.47125 102.377 7.43705 102.432C7.40286 102.487 7.38312 102.55 7.37969 102.614C7.37626 102.679 7.38923 102.744 7.41741 102.802Z" fill="#E0E0E0"/>
<path d="M13.0435 106.669C13.3009 106.669 13.5096 106.46 13.5096 106.203C13.5096 105.945 13.3009 105.737 13.0435 105.737C12.7861 105.737 12.5774 105.945 12.5774 106.203C12.5774 106.46 12.7861 106.669 13.0435 106.669Z" fill="#263238"/>
<path d="M34.2338 89.4286L33.7991 95.5984C33.7643 96.0835 33.547 96.5375 33.1911 96.8691C32.8351 97.2006 32.3669 97.385 31.8804 97.3854C31.6173 97.3853 31.3569 97.3314 31.1155 97.2268C30.874 97.1221 30.6565 96.9691 30.4765 96.7772C30.2965 96.5852 30.1578 96.3584 30.0689 96.1107C29.98 95.863 29.9428 95.5997 29.9597 95.3371C29.9994 94.7498 30.0328 94.267 30.0328 94.267C30.0328 94.267 28.5426 94.035 28.5217 92.5427C28.5217 91.8384 28.6053 90.4527 28.7098 89.138C28.7691 88.4021 29.1028 87.7153 29.6449 87.2139C30.1869 86.7125 30.8976 86.4332 31.6359 86.4314C32.0051 86.4524 32.3664 86.5473 32.6983 86.7104C33.0302 86.8735 33.326 87.1015 33.5683 87.381C33.8105 87.6604 33.9942 87.9856 34.1085 88.3373C34.2229 88.689 34.2655 89.0601 34.2338 89.4286Z" fill="#FFBE9D"/>
<path d="M30.0237 94.3391C30.7137 94.3524 31.3919 94.1596 31.9716 93.7852C31.9716 93.7852 31.5097 94.8595 30.0195 94.7258L30.0237 94.3391Z" fill="#EB996E"/>
<path d="M29.1785 90.1105C29.1785 90.1659 29.2005 90.2191 29.2397 90.2583C29.2789 90.2975 29.332 90.3195 29.3875 90.3195C29.4419 90.3224 29.4953 90.3039 29.5363 90.268C29.5773 90.2321 29.6026 90.1815 29.6069 90.1272C29.6069 90.0718 29.5849 90.0186 29.5457 89.9794C29.5065 89.9402 29.4534 89.9182 29.3979 89.9182C29.3435 89.9153 29.2901 89.9338 29.2491 89.9697C29.2081 90.0056 29.1828 90.0561 29.1785 90.1105Z" fill="#263238"/>
<path d="M29.0453 89.8217C29.0724 89.8488 29.2334 89.7297 29.4633 89.7297C29.6932 89.7297 29.8604 89.8447 29.8813 89.8175C29.9022 89.7903 29.8667 89.7548 29.7935 89.7005C29.6938 89.6322 29.5757 89.5958 29.4549 89.596C29.3355 89.5964 29.2192 89.6344 29.1226 89.7046C29.0557 89.759 29.0327 89.8091 29.0453 89.8217Z" fill="#263238"/>
<path d="M31.3389 90.1691C31.3389 90.2245 31.3609 90.2777 31.4001 90.3169C31.4393 90.3561 31.4924 90.3781 31.5479 90.3781C31.6005 90.3783 31.6513 90.3586 31.6901 90.3229C31.7288 90.2873 31.7527 90.2383 31.7569 90.1858C31.7569 90.1304 31.7349 90.0772 31.6957 90.038C31.6565 89.9988 31.6033 89.9768 31.5479 89.9768C31.4952 89.9766 31.4444 89.9963 31.4057 90.032C31.3669 90.0676 31.3431 90.1166 31.3389 90.1691Z" fill="#263238"/>
<path d="M31.3007 89.8589C31.3279 89.8861 31.4909 89.7669 31.7187 89.769C31.9466 89.7711 32.1159 89.884 32.1368 89.8547C32.1577 89.8255 32.1221 89.792 32.049 89.7398C31.9499 89.6703 31.8314 89.6337 31.7104 89.6353C31.5911 89.6345 31.4747 89.6718 31.3781 89.7419C31.3133 89.7962 31.2882 89.8443 31.3007 89.8589Z" fill="#263238"/>
<path d="M30.4671 91.5612C30.3463 91.524 30.2213 91.5015 30.0951 91.4944C30.0366 91.4944 29.9801 91.4776 29.9697 91.4379C29.9651 91.3767 29.9789 91.3156 30.0094 91.2624L30.1829 90.8172C30.3429 90.4392 30.4729 90.0493 30.5716 89.6509C30.3814 90.0154 30.22 90.3941 30.0888 90.7837C30.0324 90.9405 29.976 91.0889 29.9237 91.231C29.886 91.3022 29.8756 91.3847 29.8944 91.463C29.9031 91.4835 29.9163 91.5018 29.9329 91.5167C29.9495 91.5315 29.9692 91.5424 29.9906 91.5487C30.0228 91.5565 30.0557 91.5607 30.0888 91.5612C30.2143 91.5785 30.3416 91.5785 30.4671 91.5612Z" fill="#263238"/>
<path d="M31.1439 91.724C31.1063 91.724 31.1063 91.9706 30.8931 92.142C30.6799 92.3134 30.4145 92.2925 30.4124 92.3259C30.4103 92.3593 30.473 92.374 30.5838 92.3782C30.73 92.3807 30.8722 92.331 30.9851 92.2381C31.0934 92.1493 31.1631 92.0219 31.1795 91.8828C31.1899 91.7783 31.1606 91.724 31.1439 91.724Z" fill="#263238"/>
<path d="M31.2411 88.9598C31.2641 89.0225 31.494 88.9933 31.7615 89.0246C32.0291 89.056 32.2485 89.1312 32.284 89.0748C32.3196 89.0184 32.2631 88.9891 32.1754 88.9285C32.0584 88.8543 31.9261 88.8079 31.7884 88.7927C31.6508 88.7774 31.5115 88.7939 31.3811 88.8407C31.2808 88.8804 31.2307 88.9306 31.2411 88.9598Z" fill="#263238"/>
<path d="M29.1302 89.152C29.1699 89.2042 29.3392 89.152 29.5189 89.152C29.6987 89.152 29.868 89.1875 29.9056 89.1311C29.9432 89.0746 29.9056 89.0537 29.8261 89.0036C29.7317 88.9438 29.6215 88.9136 29.5098 88.917C29.398 88.9203 29.2898 88.957 29.1991 89.0224C29.1343 89.0725 29.1155 89.1269 29.1302 89.152Z" fill="#263238"/>
<path d="M33.7302 90.6448C33.7553 90.6322 34.7564 90.3417 34.723 91.3617C34.6896 92.3816 33.678 92.1392 33.678 92.1099C33.678 92.0806 33.7302 90.6448 33.7302 90.6448Z" fill="#FFBE9D"/>
<path d="M33.9963 91.7238C33.9963 91.7238 34.0151 91.7363 34.0444 91.751C34.0652 91.7596 34.0876 91.7641 34.1102 91.7641C34.1328 91.7641 34.1552 91.7596 34.176 91.751C34.2419 91.7107 34.296 91.6538 34.3327 91.5858C34.3694 91.5179 34.3875 91.4415 34.3851 91.3643C34.3893 91.2766 34.375 91.189 34.3432 91.1072C34.3343 91.0753 34.3179 91.0459 34.2954 91.0216C34.2728 90.9972 34.2448 90.9786 34.2137 90.9672C34.1936 90.9609 34.1719 90.9618 34.1524 90.9698C34.1329 90.9778 34.1169 90.9924 34.1071 91.0111C34.0924 91.0403 34.1071 91.0612 34.0924 91.0612C34.0778 91.0612 34.0715 91.0445 34.0924 91.0027C34.0981 90.9774 34.113 90.955 34.1342 90.94C34.1482 90.9298 34.1642 90.9225 34.181 90.9186C34.1979 90.9146 34.2154 90.9141 34.2325 90.917C34.2742 90.9263 34.3129 90.9461 34.3448 90.9747C34.3766 91.0032 34.4006 91.0395 34.4143 91.0801C34.4543 91.1707 34.4722 91.2696 34.4666 91.3685C34.4679 91.4594 34.4427 91.5487 34.394 91.6255C34.3454 91.7024 34.2755 91.7634 34.1928 91.8011C34.1647 91.807 34.1358 91.8071 34.1078 91.8013C34.0797 91.7956 34.0532 91.7841 34.0297 91.7677C33.9984 91.7572 33.9942 91.7342 33.9963 91.7238Z" fill="#EB996E"/>
<path d="M24.7286 110.401H9.86621V111.126H24.7286V110.401Z" fill="#263238"/>
<path d="M20.1521 110.766L24.6729 118.945H28.7213L24.7293 111.128L20.1521 110.766Z" fill="#263238"/>
<path d="M24.7269 111.128C24.7269 111.157 21.3953 111.199 17.2863 111.22C13.1772 111.241 9.8457 111.233 9.8457 111.203C9.8457 111.174 13.1772 111.132 17.2863 111.111C21.3953 111.091 24.7269 111.099 24.7269 111.128Z" fill="#455A64"/>
<path d="M28.298 88.4713C28.4337 88.5211 28.5784 88.5415 28.7226 88.531C28.8667 88.5206 29.007 88.4795 29.134 88.4107C29.1114 88.436 29.0943 88.4659 29.0841 88.4983C29.0738 88.5307 29.0706 88.565 29.0745 88.5988C29.0785 88.6325 29.0895 88.6651 29.107 88.6943C29.1245 88.7235 29.1479 88.7486 29.1758 88.7681C29.2932 88.8405 29.4319 88.8707 29.5688 88.8538C30.3115 88.8249 31.0176 88.5236 31.5522 88.0073C31.5641 88.1363 31.6136 88.259 31.6946 88.36C31.7756 88.4611 31.8845 88.5361 32.0079 88.5758C32.2567 88.6499 32.5218 88.6499 32.7707 88.5758C32.6784 88.9534 32.6628 89.3457 32.7247 89.7295C32.7583 89.9205 32.847 90.0975 32.98 90.2386C33.1129 90.3798 33.2843 90.4789 33.473 90.5237C33.5207 90.7213 33.5369 90.9251 33.5211 91.1277C33.5357 91.3367 33.6527 91.5625 33.8576 91.5687C34.0624 91.575 34.169 91.389 34.1941 91.2113C34.2191 91.0337 34.1125 90.6721 34.24 90.3858C34.3675 90.0994 34.3236 90.1308 34.4595 89.8194C34.5953 89.5079 34.6685 89.0774 34.7814 88.7534C34.9039 88.4311 34.9135 88.0766 34.8085 87.7481C34.7508 87.5871 34.6451 87.4477 34.5057 87.3487C34.3663 87.2497 34.1999 87.1958 34.0289 87.1943C34.0914 87.0328 34.1012 86.8558 34.057 86.6884C34.0129 86.5211 33.917 86.372 33.783 86.2624C33.6491 86.1527 33.4839 86.0882 33.3111 86.0781C33.1384 86.0679 32.9668 86.1125 32.8209 86.2057C32.8209 86.2057 31.6588 85.4156 30.3734 85.8524C29.0881 86.2893 28.8958 87.4555 28.6157 87.491C28.3356 87.5266 27.4871 87.073 27.6334 87.3573C27.7797 87.6415 28.0221 87.9279 28.1434 87.9404C28.2646 87.9529 27.1715 87.491 27.5477 87.9049C27.757 88.1423 28.0123 88.335 28.298 88.4713Z" fill="#263238"/>
<path d="M38.5434 98.4134C38.4239 98.2698 38.2886 98.1401 38.14 98.0268C37.7193 97.7372 37.2167 97.5907 36.7063 97.6088C36.0604 97.6088 35.3206 97.8867 34.5932 98.3319C33.8659 98.7771 33.1197 99.3769 32.1959 99.7803C31.3231 100.175 30.3304 100.212 29.4308 99.8827C29.0437 99.738 28.6824 99.5319 28.3607 99.2724C28.0576 99.0384 27.7901 98.8022 27.5247 98.612C27.1289 98.289 26.6456 98.0917 26.1369 98.0456C25.9496 98.0412 25.7627 98.0659 25.583 98.1187C25.583 98.1187 25.583 98.1187 25.6164 98.102C25.6497 98.0867 25.6839 98.0734 25.7189 98.0623C25.8544 98.0218 25.9954 98.002 26.1369 98.0038C26.6596 98.0335 27.1604 98.224 27.5706 98.5493C28.1057 98.9192 28.6512 99.5065 29.4517 99.7887C30.3289 100.099 31.2917 100.061 32.1416 99.6821C33.0445 99.2892 33.7844 98.681 34.5305 98.2462C35.2767 97.8115 36.0291 97.5189 36.6937 97.5314C37.2197 97.5198 37.7345 97.6838 38.1568 97.9975C38.2692 98.0827 38.3697 98.1825 38.4556 98.2943C38.4897 98.3302 38.5192 98.3702 38.5434 98.4134Z" fill="#FAFAFA"/>
<path d="M34.8251 103.915C34.8251 103.915 34.7227 103.848 34.5367 103.741C34.273 103.589 33.9875 103.48 33.6902 103.415C33.2515 103.318 32.796 103.326 32.361 103.438C31.8677 103.561 31.364 103.821 30.8039 104.028C30.5297 104.129 30.2451 104.199 29.9553 104.237C29.6849 104.27 29.4116 104.275 29.1402 104.251C28.6812 104.21 28.2331 104.088 27.8172 103.89C27.5363 103.759 27.2752 103.589 27.0418 103.386C26.977 103.333 26.9162 103.275 26.8599 103.212C26.8202 103.173 26.7993 103.15 26.8035 103.146C26.8077 103.141 26.8976 103.221 27.0689 103.355C27.3089 103.542 27.5707 103.699 27.8485 103.823C28.2602 104.006 28.6996 104.118 29.1485 104.155C29.6983 104.198 30.2507 104.118 30.7662 103.923C31.2784 103.7 31.8024 103.505 32.3359 103.34C32.7117 103.246 33.1026 103.23 33.485 103.292C33.8673 103.354 34.2329 103.493 34.5597 103.701C34.6321 103.748 34.7019 103.798 34.7687 103.852C34.8063 103.892 34.8272 103.913 34.8251 103.915Z" fill="#FAFAFA"/>
<path d="M36.471 107.43C36.3395 107.378 36.2047 107.335 36.0676 107.3C35.6867 107.239 35.2964 107.274 34.9327 107.403C34.6801 107.486 34.4353 107.591 34.2012 107.716C33.9462 107.85 33.6807 108.009 33.3944 108.164C33.0946 108.334 32.7771 108.47 32.4476 108.571C32.087 108.677 31.7059 108.693 31.3378 108.617C30.5791 108.452 29.9793 108.013 29.4275 107.685C28.9573 107.358 28.418 107.143 27.8516 107.058C27.4684 107.017 27.0823 107.101 26.7501 107.296C26.6315 107.373 26.5221 107.464 26.4241 107.566C26.4409 107.533 26.462 107.502 26.4868 107.474C26.5565 107.393 26.6375 107.323 26.7271 107.265C27.0633 107.047 27.463 106.948 27.862 106.985C28.3678 107.01 28.9259 107.259 29.4839 107.595C30.042 107.932 30.6376 108.35 31.365 108.506C31.7163 108.579 32.08 108.564 32.4246 108.465C32.7469 108.366 33.0579 108.235 33.3526 108.072C33.6389 107.921 33.9065 107.764 34.1656 107.631C34.4068 107.507 34.6586 107.405 34.918 107.326C35.2927 107.198 35.6951 107.174 36.0822 107.257C36.1865 107.282 36.2875 107.319 36.3832 107.367C36.4417 107.403 36.473 107.426 36.471 107.43Z" fill="#FAFAFA"/>
<path d="M37.0035 111.425C36.9712 111.445 36.936 111.46 36.899 111.469C36.7934 111.499 36.6847 111.517 36.5751 111.523C36.17 111.523 35.7693 111.439 35.3984 111.276C35.1431 111.177 34.8821 111.092 34.6167 111.024C34.3111 110.959 33.9976 110.941 33.6866 110.969C33.0262 111.026 32.3302 111.276 31.5966 111.49C31.2332 111.598 30.8612 111.674 30.4847 111.717C30.1319 111.75 29.7767 111.746 29.425 111.703C28.8334 111.62 28.2543 111.465 27.7007 111.241C27.3282 111.095 26.9633 110.931 26.6076 110.748C26.4801 110.685 26.384 110.631 26.3192 110.595C26.2841 110.579 26.2511 110.559 26.2209 110.535C26.2585 110.543 26.2945 110.557 26.3275 110.576L26.6243 110.71C26.8835 110.827 27.2513 110.996 27.7279 111.172C28.2779 111.383 28.8511 111.529 29.4354 111.605C29.7827 111.643 30.1332 111.643 30.4805 111.605C30.8508 111.562 31.2165 111.486 31.5736 111.379C32.3114 111.17 33.0157 110.917 33.695 110.865C34.0162 110.837 34.3398 110.859 34.6543 110.93C34.9226 111.002 35.1859 111.092 35.4423 111.199C35.8036 111.364 36.1931 111.457 36.5897 111.475C36.7288 111.47 36.8672 111.453 37.0035 111.425Z" fill="#FAFAFA"/>
<path d="M39.1488 101.296C39.1134 101.347 39.0704 101.392 39.0213 101.43C38.8919 101.539 38.7468 101.627 38.5908 101.693C38.357 101.79 38.1061 101.839 37.853 101.837C37.5423 101.826 37.2381 101.745 36.9626 101.601C36.67 101.461 36.4067 101.308 36.1496 101.216C35.9244 101.135 35.6828 101.108 35.4452 101.139C35.2854 101.16 35.1339 101.222 35.0063 101.321C34.9185 101.396 34.8809 101.45 34.8726 101.444C34.894 101.385 34.9299 101.332 34.9771 101.29C35.1024 101.171 35.2603 101.092 35.4306 101.064C35.6823 101.02 35.9412 101.04 36.183 101.122C36.4692 101.232 36.7484 101.359 37.019 101.503C37.2779 101.639 37.5629 101.719 37.8551 101.737C38.0957 101.744 38.3355 101.705 38.5615 101.622C38.7676 101.533 38.9644 101.424 39.1488 101.296Z" fill="#FAFAFA"/>
<path d="M27.0089 101.188C27.0089 101.188 26.9963 101.223 26.942 101.261C26.863 101.31 26.7713 101.334 26.6786 101.33C26.5427 101.325 26.4099 101.287 26.292 101.219C26.1603 101.146 26.0349 101.044 25.899 100.956C25.6687 100.804 25.3884 100.748 25.1174 100.799C24.9084 100.837 24.7934 100.914 24.783 100.897C24.868 100.807 24.9791 100.747 25.1006 100.724C25.2453 100.685 25.3967 100.677 25.5446 100.702C25.6924 100.726 25.8333 100.782 25.9576 100.866C26.1018 100.958 26.223 101.06 26.3421 101.131C26.4453 101.197 26.5617 101.238 26.6828 101.253C26.7953 101.261 26.908 101.238 27.0089 101.188Z" fill="#FAFAFA"/>
<path d="M21.3325 107.933L24.3735 107.567L26.5158 108.972L34.7088 107.009L34.9492 102.436L38.6277 102.344L38.542 107.712C38.5333 108.122 38.4435 108.527 38.2777 108.903C38.112 109.279 37.8735 109.618 37.5761 109.901C37.2787 110.184 36.9282 110.406 36.5448 110.553C36.1614 110.7 35.7526 110.77 35.3421 110.759L23.341 110.427L22.831 109.405L20.2561 109.329L21.3325 107.933Z" fill="#FFBE9D"/>
<path d="M34.6073 107.009C34.5568 107.027 34.5051 107.043 34.4527 107.055L34.0075 107.172L32.3626 107.59L26.9285 108.907L26.4248 109.026H26.4039L26.3872 109.013L24.2449 107.604H24.2741L21.2331 107.956H21.2519L20.4493 108.975C20.3574 109.086 20.2863 109.185 20.2403 109.243C20.2166 109.275 20.19 109.305 20.1609 109.333C20.1803 109.298 20.2027 109.264 20.2278 109.233L20.4368 108.955L21.2185 107.91H21.231L24.2699 107.529H24.2867H24.3013L26.4457 108.93H26.4081L26.9138 108.808L32.348 107.519L34.0012 107.138L34.4506 107.04C34.5017 107.025 34.5542 107.014 34.6073 107.009Z" fill="#EB996E"/>
<path d="M22.9934 108.805C22.6009 108.852 22.2054 108.868 21.8104 108.853H21.6014H21.6328C21.3943 109.071 21.1377 109.268 20.8657 109.442C21.0809 109.202 21.3165 108.981 21.5701 108.782L21.5847 108.769H21.8167C22.2092 108.749 22.6028 108.761 22.9934 108.805Z" fill="#EB996E"/>
<path d="M36.1168 107.927C35.9716 107.673 35.7665 107.459 35.5194 107.304C35.2723 107.148 34.9909 107.056 34.6997 107.034C34.7842 107.004 34.875 106.997 34.9631 107.013C35.1791 107.035 35.3873 107.107 35.5713 107.222C35.7549 107.337 35.9089 107.494 36.0206 107.68C36.0742 107.752 36.1074 107.837 36.1168 107.927Z" fill="#EB996E"/>
<defs>
<linearGradient id="paint0_linear_1_89121" x1="71.2688" y1="0" x2="71.2688" y2="140.716" gradientUnits="userSpaceOnUse">
<stop stop-color="#2F80EC"/>
<stop offset="1" stop-color="#1ADDF9"/>
</linearGradient>
</defs>
</svg>
