<svg width="40" height="40" viewBox="0 0 40 40" fill="none" xmlns="http://www.w3.org/2000/svg">
<path id="Vector" d="M8.63158 8.63158L15.2632 15.2632M15.2632 15.2632H24.7368M15.2632 15.2632V24.7368M31.3684 31.3684L24.7368 24.7368M24.7368 24.7368V15.2632M24.7368 24.7368H15.2632M31.3684 8.63158L24.7368 15.2632M8.63158 31.3684L15.2632 24.7368M31.3684 15.2632C32.68 15.2632 33.9622 14.8742 35.0527 14.1455C36.1433 13.4168 36.9933 12.3811 37.4952 11.1694C37.9971 9.95761 38.1285 8.62422 37.8726 7.33782C37.6167 6.05142 36.9851 4.86979 36.0577 3.94235C35.1302 3.0149 33.9486 2.38331 32.6622 2.12743C31.3758 1.87155 30.0424 2.00287 28.8306 2.5048C27.6189 3.00673 26.5832 3.85672 25.8545 4.94727C25.1258 6.03783 24.7368 7.31998 24.7368 8.63158M31.3684 24.7368C32.68 24.7368 33.9622 25.1258 35.0527 25.8545C36.1433 26.5832 36.9933 27.6189 37.4952 28.8306C37.9971 30.0424 38.1285 31.3758 37.8726 32.6622C37.6167 33.9486 36.9851 35.1302 36.0577 36.0577C35.1302 36.9851 33.9486 37.6167 32.6622 37.8726C31.3758 38.1285 30.0424 37.9971 28.8306 37.4952C27.6189 36.9933 26.5832 36.1433 25.8545 35.0527C25.1258 33.9622 24.7368 32.68 24.7368 31.3684M8.63158 24.7368C7.31998 24.7368 6.03783 25.1258 4.94727 25.8545C3.85672 26.5832 3.00673 27.6189 2.5048 28.8306C2.00287 30.0424 1.87155 31.3758 2.12743 32.6622C2.38331 33.9486 3.0149 35.1302 3.94235 36.0577C4.86979 36.9851 6.05142 37.6167 7.33782 37.8726C8.62422 38.1285 9.95761 37.9971 11.1694 37.4952C12.3811 36.9933 13.4168 36.1433 14.1455 35.0527C14.8742 33.9622 15.2632 32.68 15.2632 31.3684M8.63158 15.2632C7.31998 15.2632 6.03783 14.8742 4.94727 14.1455C3.85672 13.4168 3.00673 12.3811 2.5048 11.1694C2.00287 9.95761 1.87155 8.62422 2.12743 7.33782C2.38331 6.05142 3.0149 4.86979 3.94235 3.94235C4.86979 3.0149 6.05142 2.38331 7.33782 2.12743C8.62422 1.87155 9.95761 2.00287 11.1694 2.5048C12.3811 3.00673 13.4168 3.85672 14.1455 4.94727C14.8742 6.03783 15.2632 7.31998 15.2632 8.63158" stroke="white" stroke-width="3" stroke-linecap="round" stroke-linejoin="round"/>
</svg>
