<svg width="38" height="37" viewBox="0 0 38 37" fill="none" xmlns="http://www.w3.org/2000/svg">
<path d="M2.76747 8.74238C2.96572 8.02481 3.25914 7.33546 3.64032 6.69175L2.65164 5.32197C2.47951 5.07891 2.39979 4.78499 2.42622 4.49085C2.45265 4.1967 2.58357 3.92073 2.79643 3.71047L3.80993 2.72343C4.02541 2.51543 4.30886 2.38744 4.61111 2.36169C4.91335 2.33593 5.21532 2.41403 5.46462 2.58243L6.87111 3.5453C7.53199 3.1739 8.23984 2.88813 8.9767 2.69523L9.27455 1.04747C9.32798 0.754017 9.48576 0.488237 9.72023 0.296716C9.95471 0.105195 10.2509 0.000152571 10.5569 0H11.9924C12.2984 0.000152571 12.5946 0.105195 12.8291 0.296716C13.0636 0.488237 13.2213 0.754017 13.2748 1.04747L13.5726 2.69523C14.3129 2.88204 15.025 3.16241 15.6906 3.52918L17.0971 2.56631C17.3464 2.39791 17.6484 2.31982 17.9506 2.34557C18.2529 2.37133 18.5363 2.49931 18.7518 2.70732L19.7653 3.69436C19.9782 3.90462 20.1091 4.18058 20.1355 4.47473C20.1619 4.76888 20.0822 5.06279 19.9101 5.30586L18.9214 6.67563C19.2087 7.17256 19.4443 7.69621 19.6246 8.23879C19.2019 8.74438 18.9173 9.34584 18.7973 9.98726L18.6608 10.7447L18.2471 10.9139L17.5976 10.4707C16.9284 10.0109 16.1291 9.76456 15.31 9.76568C15.1818 9.76568 15.0577 9.78985 14.9336 9.80194C14.7295 9.18822 14.3669 8.63589 13.8805 8.19799C13.3941 7.76009 12.8003 7.45133 12.1561 7.30136C11.5118 7.15138 10.8388 7.16522 10.2017 7.34156C9.56449 7.51789 8.98458 7.8508 8.5176 8.3083C8.05062 8.76581 7.71226 9.33256 7.535 9.95413C7.35774 10.5757 7.34754 11.2312 7.50537 11.8577C7.6632 12.4842 7.98377 13.0607 8.4363 13.5318C8.88882 14.0029 9.45811 14.3527 10.0895 14.5478C9.99745 15.468 10.2469 16.3899 10.7927 17.1463L11.2478 17.7789C11.1857 17.9158 11.1278 18.0488 11.074 18.1817L10.3129 18.3187C9.65425 18.4356 9.03667 18.7128 8.51753 19.1245C7.96044 18.9487 7.42276 18.7193 6.91248 18.4396L5.50599 19.4024C5.25668 19.5708 4.95472 19.6489 4.65247 19.6232C4.35023 19.5974 4.06678 19.4694 3.8513 19.2614L2.8378 18.2744C2.62493 18.0641 2.49402 17.7882 2.46759 17.494C2.44116 17.1999 2.52088 16.906 2.69301 16.6629L3.64446 15.2609C3.26315 14.6172 2.96972 13.9279 2.77161 13.2103L1.07555 12.9242C0.774227 12.8722 0.501323 12.7185 0.304668 12.4902C0.108014 12.2618 0.00015666 11.9733 0 11.6753V10.2814C0.00015666 9.98333 0.108014 9.69485 0.304668 9.4665C0.501323 9.23815 0.774227 9.08449 1.07555 9.03245L2.76747 8.74238ZM36.6349 25.4979L34.4879 25.8645C34.2367 26.7768 33.864 27.6531 33.3793 28.4711L34.6203 30.2116C34.843 30.5219 34.9464 30.8987 34.9124 31.2759C34.8784 31.6531 34.709 32.0065 34.4341 32.2743L33.1476 33.5272C32.8727 33.795 32.5098 33.9599 32.1225 33.993C31.7352 34.0262 31.3483 33.9254 31.0296 33.7085L29.2425 32.4999C28.4023 32.9714 27.5026 33.3344 26.5661 33.5796L26.1896 35.6705C26.1217 36.0426 25.9217 36.3796 25.6245 36.6226C25.3274 36.8656 24.9519 36.9992 24.5639 37H22.7437C22.3557 36.9992 21.9803 36.8656 21.6831 36.6226C21.3859 36.3796 21.1859 36.0426 21.118 35.6705L20.7416 33.5796C19.8049 33.3348 18.9051 32.9718 18.0651 32.4999L16.278 33.7085C15.9594 33.9254 15.5725 34.0262 15.1852 33.993C14.7979 33.9599 14.4349 33.795 14.16 33.5272L12.8735 32.2743C12.5986 32.0065 12.4293 31.6531 12.3952 31.2759C12.3612 30.8987 12.4646 30.5219 12.6874 30.2116L13.9284 28.4711C13.4439 27.653 13.0712 26.7767 12.8197 25.8645L10.6728 25.4979C10.2907 25.4318 9.94467 25.237 9.69514 24.9476C9.4456 24.6582 9.30844 24.2926 9.30764 23.9146V22.142C9.30844 21.7641 9.4456 21.3985 9.69514 21.109C9.94467 20.8196 10.2907 20.6248 10.6728 20.5587L12.8197 20.1921C13.0712 19.2799 13.4439 18.4036 13.9284 17.5855L12.6874 15.8451C12.4646 15.5347 12.3612 15.1579 12.3952 14.7807C12.4293 14.4035 12.5986 14.0501 12.8735 13.7823L14.16 12.5294C14.4349 12.2617 14.7979 12.0968 15.1852 12.0636C15.5725 12.0305 15.9594 12.1312 16.278 12.3481L18.0651 13.5567C18.9051 13.0846 19.8048 12.7216 20.7416 12.477L21.118 10.3861C21.1859 10.014 21.3859 9.67702 21.6831 9.434C21.9803 9.19098 22.3557 9.0574 22.7437 9.05662H24.5639C24.9519 9.0574 25.3274 9.19098 25.6245 9.434C25.9217 9.67702 26.1217 10.014 26.1896 10.3861L26.5661 12.477C27.5027 12.7218 28.4025 13.0847 29.2425 13.5567L31.0296 12.3481C31.3483 12.1312 31.7352 12.0305 32.1225 12.0636C32.5098 12.0968 32.8727 12.2617 33.1476 12.5294L34.4341 13.7823C34.709 14.0501 34.8784 14.4035 34.9124 14.7807C34.9464 15.1579 34.843 15.5347 34.6203 15.8451L33.3793 17.5855C33.8639 18.4036 34.2366 19.2799 34.4879 20.1921L36.6349 20.5587C37.0169 20.6248 37.363 20.8196 37.6125 21.109C37.862 21.3985 37.9992 21.7641 38 22.142V23.9146C37.9992 24.2926 37.862 24.6582 37.6125 24.9476C37.363 25.237 37.0169 25.4318 36.6349 25.4979ZM24.7914 20.9535C24.7914 21.3041 24.8982 21.6468 25.0982 21.9383C25.2982 22.2298 25.5824 22.4571 25.915 22.5912C26.2476 22.7254 26.6136 22.7605 26.9667 22.6921C27.3198 22.6237 27.6441 22.4549 27.8986 22.207C28.1532 21.959 28.3265 21.6432 28.3968 21.2993C28.467 20.9555 28.431 20.5991 28.2932 20.2751C28.1554 19.9512 27.9221 19.6744 27.6228 19.4796C27.3235 19.2848 26.9716 19.1809 26.6116 19.1809C26.1288 19.1809 25.6659 19.3676 25.3245 19.7001C24.9832 20.0325 24.7914 20.4834 24.7914 20.9535ZM18.8718 20.9535C18.8718 21.3041 18.9785 21.6468 19.1785 21.9383C19.3785 22.2298 19.6628 22.4571 19.9954 22.5912C20.328 22.7254 20.6939 22.7605 21.047 22.6921C21.4001 22.6237 21.7244 22.4549 21.979 22.207C22.2335 21.959 22.4069 21.6432 22.4771 21.2993C22.5473 20.9555 22.5113 20.5991 22.3735 20.2751C22.2358 19.9512 22.0025 19.6744 21.7031 19.4796C21.4038 19.2848 21.0519 19.1809 20.6919 19.1809C20.2113 19.1841 19.7516 19.3722 19.4129 19.7043C19.0742 20.0364 18.8842 20.4855 18.8842 20.9535H18.8718ZM28.7875 24.9299C28.1629 24.7647 27.079 25.7356 23.6662 25.7356C20.2534 25.7356 19.1655 24.7647 18.545 24.9299C17.9245 25.0951 19.939 28.5557 23.6662 28.5557C27.3934 28.5557 29.408 25.0669 28.7875 24.9299Z" fill="#5c7eee"/>
</svg>
