<svg width="44" height="39" viewBox="0 0 44 39" fill="none" xmlns="http://www.w3.org/2000/svg">
<g id="Group 2821">
<g id="Group 2820">
<path id="Vector" d="M17.3047 37.0012C18.7432 37.0012 19.9093 35.7925 19.9093 34.3014C19.9093 32.8103 18.7432 31.6016 17.3047 31.6016C15.8663 31.6016 14.7002 32.8103 14.7002 34.3014C14.7002 35.7925 15.8663 37.0012 17.3047 37.0012Z" fill="white"/>
<path id="Vector_2" d="M33.126 37.0012C34.5645 37.0012 35.7306 35.7925 35.7306 34.3014C35.7306 32.8103 34.5645 31.6016 33.126 31.6016C31.6876 31.6016 30.5215 32.8103 30.5215 34.3014C30.5215 35.7925 31.6876 37.0012 33.126 37.0012Z" fill="white"/>
<path id="Vector_3" d="M24.6914 7.00141L26.0342 4.60156H14.0186L14.771 7.00141H24.6914Z" fill="white"/>
<g id="Vector_4" filter="url(#filter0_d_753_57032)">
<path d="M35.617 17.0835L34.6678 21.4032H17.3042L12.0141 4.04032C11.9569 3.85609 11.8575 3.68893 11.7245 3.55312C11.5914 3.41731 11.4287 3.31687 11.2501 3.26037L6.50404 1.74847C6.3581 1.70199 6.20477 1.68575 6.05278 1.7007C5.90079 1.71564 5.75313 1.76147 5.61823 1.83556C5.34579 1.98521 5.14185 2.24091 5.05129 2.54642C4.96072 2.85193 4.99094 3.18222 5.1353 3.46463C5.27967 3.74704 5.52634 3.95844 5.82107 4.05232L9.97675 5.37224L15.29 22.7711L13.3916 24.379L13.2411 24.535C12.7715 25.0959 12.5054 25.8091 12.4885 26.5516C12.4715 27.2941 12.705 28.0194 13.1485 28.6027C13.464 29.0004 13.8649 29.3161 14.3192 29.5245C14.7735 29.7328 15.2685 29.8281 15.7646 29.8026H35.0845C35.3915 29.8026 35.6859 29.6762 35.903 29.4512C36.1201 29.2262 36.2421 28.921 36.2421 28.6027C36.2421 28.2845 36.1201 27.9793 35.903 27.7542C35.6859 27.5292 35.3915 27.4028 35.0845 27.4028H15.5794C15.4461 27.3981 15.3162 27.3578 15.2023 27.2859C15.0884 27.2139 14.9944 27.1128 14.9292 26.9921C14.864 26.8715 14.83 26.7355 14.8303 26.5972C14.8307 26.459 14.8654 26.3232 14.9312 26.2029L17.7209 23.803H35.5938C35.8614 23.8098 36.123 23.7203 36.334 23.5496C36.5451 23.379 36.6926 23.1378 36.7514 22.8671L38.0131 17.0835H35.617Z" fill="white"/>
<path d="M35.617 16.5835H35.2149L35.1286 16.9762L34.2657 20.9032H17.6745L12.4924 3.8946L12.4924 3.8946L12.4916 3.89202C12.4112 3.63316 12.2711 3.39661 12.0816 3.20324C11.8923 3.00993 11.6592 2.86548 11.4015 2.78384C11.4013 2.78378 11.4011 2.78372 11.4009 2.78366L6.6558 1.27206L6.65579 1.27206C6.44529 1.20501 6.22368 1.18148 6.00386 1.2031C5.78405 1.22471 5.57121 1.29094 5.37752 1.39732C4.98641 1.61214 4.69886 1.97606 4.57191 2.40431C4.44505 2.83223 4.48702 3.29493 4.6901 3.69221C4.89344 4.09001 5.24393 4.39324 5.66932 4.52874L5.66971 4.52886L9.57522 5.76932L14.7157 22.6023L13.0684 23.9975L13.0492 24.0137L13.0317 24.0318L12.8813 24.1878L12.869 24.2005L12.8577 24.214C12.3141 24.8634 12.008 25.6862 11.9886 26.5402C11.9691 27.3942 12.2374 28.2306 12.7505 28.9054L12.7504 28.9054L12.7568 28.9135C13.1204 29.3718 13.5838 29.7372 14.1107 29.9789C14.6338 30.2188 15.2043 30.3299 15.777 30.3026H35.0845C35.53 30.3026 35.9535 30.119 36.2629 29.7983C36.5716 29.4783 36.7421 29.0479 36.7421 28.6027C36.7421 28.1576 36.5716 27.7272 36.2629 27.4071C35.9535 27.0864 35.53 26.9028 35.0845 26.9028H15.5906C15.5489 26.9002 15.5072 26.8871 15.4693 26.8631C15.4293 26.8379 15.3942 26.801 15.3691 26.7545C15.3439 26.7079 15.3302 26.6541 15.3303 26.5985C15.3304 26.5674 15.3348 26.537 15.3431 26.5081L17.9064 24.303H35.5881C35.9738 24.3112 36.3482 24.1812 36.6484 23.9384C36.95 23.6946 37.1575 23.3528 37.24 22.9732L38.5017 17.19L38.634 16.5835H38.0131H35.617Z" stroke="white"/>
</g>
<g id="Group 2626">
<path id="Vector_5" d="M39.6289 9.63944C39.6845 9.16427 39.7261 8.6891 39.7261 8.19953C39.7261 7.70996 39.6845 7.23479 39.6289 6.75962H41.9765C42.0876 7.2204 42.157 7.70276 42.157 8.19953C42.157 8.6963 42.0876 9.17867 41.9765 9.63944M38.3996 13.6424C38.8163 12.8432 39.1358 11.9793 39.358 11.0793H41.4069C40.734 12.2804 39.6665 13.1902 38.3996 13.6424ZM38.2259 9.63944H34.9755C34.906 9.16427 34.8643 8.6891 34.8643 8.19953C34.8643 7.70996 34.906 7.22759 34.9755 6.75962H38.2259C38.2884 7.22759 38.3371 7.70996 38.3371 8.19953C38.3371 8.6891 38.2884 9.16427 38.2259 9.63944ZM36.6007 13.9304C36.0242 13.0664 35.5589 12.1089 35.2741 11.0793H37.9273C37.6425 12.1089 37.1772 13.0664 36.6007 13.9304ZM33.8225 5.31972H31.7945C32.4604 4.11539 33.5272 3.20413 34.7949 2.75669C34.3782 3.55583 34.0656 4.41978 33.8225 5.31972ZM31.7945 11.0793H33.8225C34.0656 11.9793 34.3782 12.8432 34.7949 13.6424C33.5299 13.19 32.4646 12.28 31.7945 11.0793ZM31.2249 9.63944C31.1138 9.17867 31.0444 8.6963 31.0444 8.19953C31.0444 7.70276 31.1138 7.2204 31.2249 6.75962H33.5725C33.5169 7.23479 33.4753 7.70996 33.4753 8.19953C33.4753 8.6891 33.5169 9.16427 33.5725 9.63944M36.6007 2.4615C37.1772 3.32545 37.6425 4.29019 37.9273 5.31972H35.2741C35.5589 4.29019 36.0242 3.32545 36.6007 2.4615ZM41.4069 5.31972H39.358C39.1407 4.42803 38.8188 3.56728 38.3996 2.75669C39.6775 3.21026 40.7402 4.1246 41.4069 5.31972ZM36.6007 1C32.7599 1 29.6553 4.23979 29.6553 8.19953C29.6553 10.109 30.387 11.9402 31.6895 13.2904C32.3345 13.9589 33.1001 14.4892 33.9428 14.851C34.7855 15.2128 35.6886 15.3991 36.6007 15.3991C38.4427 15.3991 40.2093 14.6405 41.5119 13.2904C42.8144 11.9402 43.5461 10.109 43.5461 8.19953C43.5461 7.25408 43.3665 6.31788 43.0174 5.44439C42.6684 4.5709 42.1568 3.77723 41.5119 3.10869C40.8669 2.44016 40.1013 1.90984 39.2586 1.54803C38.4159 1.18622 37.5128 1 36.6007 1Z" fill="white"/>
</g>
</g>
</g>
<defs>
<filter id="filter0_d_753_57032" x="0" y="0.695312" width="43.2549" height="38.1113" filterUnits="userSpaceOnUse" color-interpolation-filters="sRGB">
<feFlood flood-opacity="0" result="BackgroundImageFix"/>
<feColorMatrix in="SourceAlpha" type="matrix" values="0 0 0 0 0 0 0 0 0 0 0 0 0 0 0 0 0 0 127 0" result="hardAlpha"/>
<feOffset dy="4"/>
<feGaussianBlur stdDeviation="2"/>
<feComposite in2="hardAlpha" operator="out"/>
<feColorMatrix type="matrix" values="0 0 0 0 0 0 0 0 0 0 0 0 0 0 0 0 0 0 0.25 0"/>
<feBlend mode="normal" in2="BackgroundImageFix" result="effect1_dropShadow_753_57032"/>
<feBlend mode="normal" in="SourceGraphic" in2="effect1_dropShadow_753_57032" result="shape"/>
</filter>
</defs>
</svg>
