<svg width="60" height="60" viewBox="0 0 60 60" fill="none" xmlns="http://www.w3.org/2000/svg">
<g id="Group 2403">
<path id="Vector" d="M35.6601 16.4062C35.6601 16.0333 35.8082 15.6756 36.072 15.4119C36.3357 15.1482 36.6934 15 37.0663 15H41.7538C42.1268 15 42.4845 15.1482 42.7482 15.4119C43.0119 15.6756 43.1601 16.0333 43.1601 16.4062V21.0938C43.1601 21.4667 43.0119 21.8244 42.7482 22.0881C42.4845 22.3518 42.1268 22.5 41.7538 22.5C41.3809 22.5 41.0232 22.3518 40.7595 22.0881C40.4957 21.8244 40.3476 21.4667 40.3476 21.0938V19.8L31.9663 28.1812C31.7027 28.4446 31.3452 28.5925 30.9726 28.5925C30.5999 28.5925 30.2425 28.4446 29.9788 28.1812L25.3476 23.55L17.4351 31.4625C17.3063 31.6007 17.1511 31.7115 16.9786 31.7883C16.8061 31.8652 16.6199 31.9065 16.4311 31.9099C16.2422 31.9132 16.0547 31.8785 15.8796 31.8077C15.7045 31.737 15.5454 31.6317 15.4119 31.4982C15.2783 31.3647 15.1731 31.2056 15.1023 31.0305C15.0316 30.8554 14.9969 30.6678 15.0002 30.479C15.0036 30.2902 15.0449 30.104 15.1217 29.9315C15.1986 29.759 15.3094 29.6037 15.4476 29.475L24.3538 20.5687C24.6175 20.3054 24.9749 20.1575 25.3476 20.1575C25.7202 20.1575 26.0777 20.3054 26.3413 20.5687L30.9726 25.2L38.3601 17.8125H37.0663C36.6934 17.8125 36.3357 17.6643 36.072 17.4006C35.8082 17.1369 35.6601 16.7792 35.6601 16.4062ZM16.4413 37.5C16.8143 37.5 17.172 37.6482 17.4357 37.9119C17.6994 38.1756 17.8476 38.5333 17.8476 38.9062V43.5938C17.8476 43.9667 17.6994 44.3244 17.4357 44.5881C17.172 44.8518 16.8143 45 16.4413 45C16.0684 45 15.7107 44.8518 15.447 44.5881C15.1832 44.3244 15.0351 43.9667 15.0351 43.5938V38.9062C15.0351 38.5333 15.1832 38.1756 15.447 37.9119C15.7107 37.6482 16.0684 37.5 16.4413 37.5ZM25.3476 33.2812C25.3476 32.9083 25.1994 32.5506 24.9357 32.2869C24.672 32.0232 24.3143 31.875 23.9413 31.875C23.5684 31.875 23.2107 32.0232 22.947 32.2869C22.6832 32.5506 22.5351 32.9083 22.5351 33.2812V43.5938C22.5351 43.9667 22.6832 44.3244 22.947 44.5881C23.2107 44.8518 23.5684 45 23.9413 45C24.3143 45 24.672 44.8518 24.9357 44.5881C25.1994 44.3244 25.3476 43.9667 25.3476 43.5938V33.2812ZM31.4413 35.625C31.8143 35.625 32.172 35.7732 32.4357 36.0369C32.6994 36.3006 32.8476 36.6583 32.8476 37.0312V43.5938C32.8476 43.9667 32.6994 44.3244 32.4357 44.5881C32.172 44.8518 31.8143 45 31.4413 45C31.0684 45 30.7107 44.8518 30.447 44.5881C30.1832 44.3244 30.0351 43.9667 30.0351 43.5938V37.0312C30.0351 36.6583 30.1832 36.3006 30.447 36.0369C30.7107 35.7732 31.0684 35.625 31.4413 35.625ZM40.3476 29.5312C40.3476 29.1583 40.1994 28.8006 39.9357 28.5369C39.672 28.2732 39.3143 28.125 38.9413 28.125C38.5684 28.125 38.2107 28.2732 37.947 28.5369C37.6832 28.8006 37.5351 29.1583 37.5351 29.5312V43.5938C37.5351 43.9667 37.6832 44.3244 37.947 44.5881C38.2107 44.8518 38.5684 45 38.9413 45C39.3143 45 39.672 44.8518 39.9357 44.5881C40.1994 44.3244 40.3476 43.9667 40.3476 43.5938V29.5312Z" fill="url(#paint0_linear_521_13695)"/>
<circle id="Ellipse 66" cx="30" cy="30" r="28.25" stroke="url(#paint1_linear_521_13695)" stroke-width="3.5"/>
</g>
<defs>
<linearGradient id="paint0_linear_521_13695" x1="29.08" y1="15" x2="29.08" y2="45" gradientUnits="userSpaceOnUse">
<stop stop-color="#2F80EC"/>
<stop offset="1" stop-color="#1ADDF9"/>
</linearGradient>
<linearGradient id="paint1_linear_521_13695" x1="30" y1="0" x2="30" y2="60" gradientUnits="userSpaceOnUse">
<stop stop-color="#2F80EC"/>
<stop offset="1" stop-color="#1ADDF9"/>
</linearGradient>
</defs>
</svg>
