<svg width="401" height="539" viewBox="0 0 401 539" fill="none" xmlns="http://www.w3.org/2000/svg">
<path d="M95.8714 346.776L100.81 345.471C100.663 344.909 100.63 344.324 100.711 343.749C100.793 343.174 100.988 342.621 101.286 342.123C101.583 341.624 101.977 341.189 102.444 340.844C102.911 340.499 103.442 340.25 104.006 340.112C104.828 339.862 105.709 339.875 106.523 340.15C107.338 340.425 108.047 340.947 108.55 341.645C108.982 342.222 109.272 342.893 109.395 343.604C109.519 344.315 109.472 345.045 109.259 345.734C108.786 347.336 107.28 349.078 103.796 349.367L106.729 360.514L111.615 359.226L109.863 352.695C111.711 351.575 113.139 349.879 113.93 347.869C114.721 345.859 114.83 343.644 114.241 341.566C112.333 334.342 105.407 334.369 102.64 335.104C100.565 335.664 93.4811 338.081 95.8714 346.776Z" fill="#DAE0E8"/>
<path d="M112.303 361.489L107.342 362.798L108.564 367.429L113.525 366.12L112.303 361.489Z" fill="#DAE0E8"/>
<path d="M177.949 34.7863C180.447 33.2642 183.139 32.0861 185.952 31.2839L187.598 23.4036L200.986 23.1672L202.912 31.0475C205.752 31.7431 208.485 32.8181 211.038 34.2434L217.806 29.8042L227.437 39.1029L223.243 46.0201C224.76 48.5239 225.938 51.218 226.746 54.0317L234.67 55.6778L234.897 69.0656L227.017 70.9919C226.318 73.8303 225.243 76.5629 223.821 79.1173L228.252 85.8856L218.953 95.5171L212.036 91.323C209.535 92.8451 206.84 94.0232 204.024 94.8254L202.378 102.758L188.99 102.986L187.064 95.1056C184.223 94.4139 181.489 93.3387 178.939 91.9097L172.17 96.3489L162.539 87.0501L166.733 80.133C165.211 77.6319 164.033 74.9371 163.23 72.1214L155.35 70.4753L155.114 57.0875L162.994 55.1612C163.677 52.3047 164.743 49.5538 166.164 46.9832L161.724 40.2149L171.023 30.5835L177.949 34.7863ZM185.085 52.622C183.116 54.668 181.797 57.2522 181.296 60.0476C180.795 62.8431 181.134 65.7244 182.27 68.3271C183.407 70.9298 185.29 73.1371 187.68 74.6698C190.071 76.2025 192.863 76.9918 195.703 76.938C198.542 76.8841 201.302 75.9894 203.633 74.3671C205.964 72.7448 207.762 70.4677 208.799 67.8237C209.835 65.1798 210.065 62.2877 209.458 59.5133C208.852 56.7388 207.436 54.2066 205.39 52.2368C202.645 49.5973 198.965 48.1552 195.158 48.2275C191.351 48.2997 187.728 49.8803 185.085 52.622Z" fill="white"/>
<path d="M37.9491 154.786C40.4471 153.264 43.139 152.086 45.952 151.284L47.5981 143.403L60.9858 143.167L62.9121 151.047C65.7518 151.743 68.4849 152.818 71.0376 154.243L77.8059 149.804L87.4373 159.103L83.2433 166.02C84.76 168.524 85.9377 171.218 86.7456 174.031L94.6697 175.678L94.8974 189.065L87.0171 190.992C86.3176 193.83 85.2428 196.563 83.8212 199.117L88.2517 205.885L78.9529 215.517L72.0357 211.323C69.5347 212.845 66.8399 214.023 64.0241 214.825L62.378 222.758L48.9903 222.986L47.064 215.105C44.223 214.414 41.4895 213.338 38.9385 211.909L32.1702 216.349L22.5388 207.05L26.7328 200.133C25.2107 197.632 24.0326 194.937 23.2305 192.121L15.3502 190.475L15.1138 177.087L22.9941 175.161C23.6769 172.304 24.7431 169.554 26.1637 166.983L21.7245 160.215L31.0232 150.583L37.9491 154.786ZM45.0851 172.622C43.1155 174.668 41.7968 177.252 41.2958 180.047C40.7948 182.843 41.1339 185.724 42.2704 188.327C43.4069 190.93 45.2896 193.137 47.6805 194.67C50.0714 196.202 52.8631 196.992 55.7026 196.938C58.5421 196.884 61.3019 195.989 63.6329 194.367C65.964 192.745 67.7616 190.467 68.7985 187.823C69.8354 185.18 70.0651 182.287 69.4584 179.513C68.8517 176.739 67.4359 174.206 65.39 172.237C62.6453 169.597 58.9651 168.155 55.1579 168.227C51.3506 168.299 47.7277 169.88 45.0851 172.622Z" fill="white"/>
<path d="M121.911 6.87256C123.354 6.00593 124.906 5.33463 126.526 4.87622L127.471 0.305653L135.185 0.174316L136.297 4.70111C137.932 5.10073 139.504 5.71923 140.973 6.53984L144.869 3.98312L150.386 9.33297L147.969 13.3169C148.84 14.7586 149.515 16.3105 149.974 17.9312L154.536 18.8769L154.667 26.5908L150.14 27.7203C149.742 29.355 149.124 30.928 148.302 32.396L150.858 36.2923L145.5 41.8435L141.516 39.4269C140.074 40.2984 138.522 40.9727 136.901 41.432L135.921 45.9851L128.207 46.1252L127.165 41.5984C125.532 41.1918 123.959 40.5705 122.489 39.7509L118.593 42.3076L113.042 36.949L115.423 32.9738C114.55 31.536 113.876 29.9868 113.418 28.3682L108.856 27.4139L108.716 19.6999L113.252 18.5967C113.65 16.9592 114.268 15.3833 115.091 13.9123L112.534 10.0159L117.892 4.47345L121.911 6.87256ZM126.018 17.152C124.875 18.3274 124.108 19.8157 123.812 21.4281C123.517 23.0405 123.707 24.7043 124.358 26.2085C125.01 27.7127 126.094 28.9894 127.472 29.8767C128.85 30.7641 130.461 31.222 132.1 31.1925C133.739 31.1629 135.332 30.6472 136.678 29.7107C138.023 28.7743 139.06 27.4593 139.657 25.9326C140.254 24.4059 140.384 22.7363 140.031 21.1356C139.677 19.5349 138.856 18.0753 137.672 16.9418C136.093 15.4215 133.976 14.5897 131.784 14.6291C129.592 14.6685 127.506 15.5759 125.983 17.152H126.018Z" fill="#DAE0E8"/>
<path d="M368.013 150.049C369.452 149.18 371.001 148.505 372.618 148.044L373.573 143.482L381.278 143.351L382.39 147.877C384.027 148.275 385.603 148.894 387.074 149.716L390.971 147.159L396.513 152.518L394.096 156.502C394.968 157.944 395.642 159.496 396.101 161.116L400.672 162.062L400.803 169.776L396.277 170.888C395.869 172.52 395.251 174.091 394.438 175.563L396.986 179.46L391.636 185.011L387.652 182.594C386.21 183.466 384.658 184.14 383.038 184.6L382.083 189.161L374.378 189.301L373.266 184.766C371.631 184.368 370.058 183.749 368.591 182.927L364.685 185.484L359.143 180.125L361.56 176.141C360.687 174.7 360.012 173.148 359.554 171.527L354.993 170.581L354.853 162.867L359.379 161.755C359.787 160.124 360.405 158.552 361.218 157.08L358.67 153.183L364.02 147.632L368.013 150.049ZM372.119 160.319C370.982 161.496 370.219 162.984 369.927 164.594C369.635 166.205 369.828 167.866 370.48 169.367C371.132 170.868 372.214 172.142 373.591 173.028C374.967 173.913 376.575 174.371 378.211 174.343C379.848 174.315 381.439 173.802 382.784 172.869C384.129 171.937 385.167 170.626 385.767 169.103C386.367 167.581 386.502 165.914 386.155 164.315C385.808 162.716 384.994 161.255 383.817 160.118C382.238 158.596 380.119 157.763 377.926 157.8C375.733 157.838 373.645 158.744 372.119 160.319Z" fill="#DAE0E8"/>
<path d="M388.773 538.227C388.773 538.358 305.741 538.454 203.35 538.454C100.959 538.454 17.9092 538.358 17.9092 538.227C17.9092 538.095 100.915 537.999 203.35 537.999C305.785 537.999 388.773 538.104 388.773 538.227Z" fill="#263238"/>
<path d="M348.391 537.588L224.058 537.518C216.876 537.513 209.99 534.657 204.913 529.577C199.836 524.497 196.984 517.609 196.984 510.427L197.046 198.718C197.062 191.529 199.929 184.641 205.017 179.564C210.106 174.487 217.001 171.636 224.189 171.636L348.522 171.715C355.704 171.719 362.59 174.575 367.667 179.655C372.744 184.735 375.596 191.623 375.596 198.805L375.534 510.515C375.534 514.076 374.832 517.602 373.467 520.891C372.102 524.181 370.101 527.168 367.58 529.683C365.059 532.198 362.066 534.191 358.773 535.547C355.48 536.904 351.952 537.597 348.391 537.588Z" fill="#455A64"/>
<path d="M348.347 182.703H324.242C322.653 182.74 321.143 183.406 320.045 184.555C318.947 185.705 318.349 187.243 318.385 188.832V193.21C318.42 194.8 317.823 196.338 316.724 197.487C315.626 198.636 314.116 199.303 312.527 199.339H265.534C263.946 199.3 262.439 198.633 261.342 197.484C260.246 196.335 259.65 194.798 259.685 193.21V188.832C259.72 187.243 259.123 185.705 258.025 184.555C256.926 183.406 255.417 182.74 253.827 182.703H224.25C219.229 182.698 214.411 184.685 210.853 188.227C207.295 191.769 205.286 196.578 205.267 201.598L205.206 505.883C205.215 510.907 207.217 515.723 210.773 519.274C214.328 522.824 219.147 524.819 224.171 524.822L348.268 524.892C350.76 524.893 353.228 524.403 355.53 523.451C357.833 522.498 359.925 521.102 361.688 519.341C363.45 517.579 364.849 515.488 365.803 513.187C366.758 510.885 367.25 508.418 367.251 505.927L367.304 201.642C367.297 196.618 365.297 191.802 361.743 188.252C358.189 184.701 353.371 182.705 348.347 182.703Z" fill="white"/>
<path d="M367.295 246.656V201.327C367.205 196.359 365.17 191.625 361.627 188.143C358.084 184.66 353.315 182.707 348.347 182.703H324.242C323.455 182.72 322.679 182.892 321.958 183.21C321.237 183.527 320.586 183.984 320.042 184.553C319.498 185.122 319.071 185.793 318.787 186.527C318.503 187.262 318.366 188.045 318.384 188.832V193.21C318.42 194.8 317.822 196.338 316.724 197.487C315.626 198.636 314.116 199.303 312.527 199.339H265.534C263.946 199.3 262.439 198.633 261.342 197.484C260.246 196.335 259.65 194.798 259.685 193.21V188.832C259.72 187.243 259.123 185.705 258.025 184.555C256.926 183.406 255.417 182.74 253.827 182.703H224.25C219.229 182.698 214.411 184.685 210.853 188.227C207.294 191.769 205.286 196.578 205.267 201.598V246.796H367.295V246.656Z" fill="#DAE0E8"/>
<path d="M238.312 308.14C249.159 308.14 257.952 299.366 257.952 288.544C257.952 277.722 249.159 268.948 238.312 268.948C227.466 268.948 218.673 277.722 218.673 288.544C218.673 299.366 227.466 308.14 238.312 308.14Z" fill="#2F80EC"/>
<path d="M229.136 293.448L234.284 293.01L246.84 295.129L248.32 304.576L248.11 305.68C245.281 307.276 242.103 308.15 238.856 308.225C235.609 308.3 232.394 307.573 229.495 306.109L229.136 293.448Z" fill="#455A64"/>
<path d="M244.152 294.98C245.397 294.798 246.669 294.97 247.821 295.476C248.973 295.983 249.959 296.803 250.667 297.843C251.518 299.031 252.298 300.268 253.005 301.547C250.956 303.771 249.292 305.461 246.455 306.45L244.152 294.98Z" fill="#455A64"/>
<path d="M229.136 293.447C229.136 293.447 225.739 293.868 224.425 296.766C223.112 299.664 222.806 300.566 222.806 300.566C224.557 302.685 226.798 305.189 229.539 306.126C229.539 306.126 230.161 298.823 230.239 296.766C230.336 294.542 230.423 293.386 229.136 293.447Z" fill="#455A64"/>
<path d="M232.235 274.885C233.091 273.789 234.182 272.899 235.428 272.28C236.673 271.662 238.042 271.331 239.433 271.313C240.628 271.312 241.814 271.526 242.935 271.943C244.115 272.222 245.157 272.911 245.877 273.887C246.77 275.034 247.354 276.39 247.576 277.827C247.781 279.297 247.851 280.783 247.786 282.266C247.714 283.76 247.232 285.205 246.394 286.443L242.62 287.091C240.539 287.257 238.445 287.145 236.394 286.758C234.321 286.36 232.489 285.157 231.298 283.413C229.784 280.953 230.414 277.126 232.235 274.885Z" fill="#263238"/>
<path d="M228.593 285.786C228.631 285.359 228.767 284.946 228.988 284.579C229.209 284.212 229.512 283.9 229.871 283.667C230.239 283.446 230.668 283.347 231.096 283.385C231.524 283.422 231.929 283.595 232.253 283.877L232.848 284.578C233.308 284.79 233.689 285.14 233.941 285.58C234.192 286.019 234.3 286.526 234.249 287.029C234.184 287.533 233.974 288.008 233.644 288.395C233.315 288.781 232.88 289.065 232.393 289.209C231.906 289.348 231.392 289.358 230.899 289.24C230.407 289.122 229.954 288.879 229.582 288.535C229.218 288.183 228.939 287.752 228.768 287.276C228.596 286.799 228.536 286.289 228.593 285.786Z" fill="#263238"/>
<path d="M229.337 288.36C229.196 288.139 229.125 287.879 229.136 287.616C229.262 286.979 229.566 286.39 230.012 285.917C230.434 285.421 230.949 285.011 231.526 284.709C231.964 284.473 232.271 284.385 232.262 284.359C231.982 284.379 231.71 284.46 231.465 284.595C230.848 284.87 230.302 285.283 229.871 285.804C229.63 286.067 229.424 286.362 229.259 286.679C229.115 286.95 229.032 287.249 229.013 287.555C229.009 287.765 229.067 287.972 229.18 288.15C229.259 288.325 229.337 288.413 229.337 288.36Z" fill="#455A64"/>
<path d="M242.585 294.306V290.803C242.585 290.803 245.658 290.462 246.516 286.522C246.919 283.915 247.078 281.277 246.989 278.641C246.989 276.251 244.931 272.994 241.972 272.985L240.658 272.827L235.624 274.824C235.274 274.843 234.944 274.992 234.698 275.241C234.452 275.49 234.308 275.822 234.293 276.172L234.144 292.992L236.447 296.223C236.868 296.794 237.458 297.218 238.133 297.437C238.808 297.655 239.535 297.657 240.211 297.441C240.887 297.226 241.478 296.804 241.902 296.236C242.327 295.667 242.562 294.98 242.576 294.271L242.585 294.306Z" fill="#FFBE9D"/>
<path d="M240.58 285.611C240.607 285.408 240.71 285.224 240.869 285.094C241.013 284.974 241.192 284.902 241.38 284.891C241.567 284.88 241.753 284.93 241.911 285.033C242.072 285.158 242.197 285.324 242.274 285.513C242.35 285.702 242.376 285.908 242.349 286.11C242.261 286.232 242.148 286.334 242.019 286.409C241.889 286.485 241.745 286.532 241.596 286.548H241.455C241.339 286.551 241.224 286.531 241.116 286.489C241.007 286.446 240.909 286.383 240.825 286.303C240.737 286.212 240.669 286.103 240.626 285.984C240.584 285.864 240.568 285.737 240.58 285.611Z" fill="#EB996E"/>
<path d="M245.159 281.408C245.155 281.541 245.098 281.667 245.001 281.759C244.905 281.851 244.776 281.901 244.643 281.898C244.577 281.899 244.512 281.888 244.451 281.864C244.39 281.84 244.334 281.804 244.287 281.758C244.24 281.713 244.202 281.658 244.176 281.598C244.15 281.538 244.136 281.473 244.135 281.408C244.142 281.274 244.2 281.148 244.298 281.056C244.396 280.965 244.526 280.915 244.66 280.918C244.725 280.916 244.79 280.928 244.85 280.952C244.911 280.976 244.966 281.012 245.013 281.058C245.059 281.104 245.096 281.158 245.121 281.218C245.146 281.278 245.159 281.343 245.159 281.408Z" fill="#263238"/>
<path d="M246 280.147C245.93 280.209 245.553 279.902 245.01 279.876C244.468 279.85 244.038 280.104 243.986 280.034C243.933 279.964 244.03 279.885 244.214 279.762C244.462 279.614 244.748 279.544 245.037 279.561C245.322 279.572 245.596 279.677 245.816 279.858C245.974 279.999 246.026 280.121 246 280.147Z" fill="#263238"/>
<path d="M242.541 284.298C242.828 284.23 243.122 284.195 243.417 284.193C243.557 284.193 243.697 284.193 243.723 284.07C243.743 283.926 243.718 283.779 243.653 283.65L243.294 282.564C242.959 281.637 242.699 280.686 242.515 279.718C242.924 280.615 243.261 281.543 243.522 282.494C243.644 282.87 243.749 283.238 243.863 283.588C243.937 283.763 243.952 283.956 243.907 284.14C243.854 284.234 243.765 284.303 243.662 284.333C243.583 284.341 243.504 284.341 243.425 284.333C243.13 284.361 242.833 284.349 242.541 284.298Z" fill="#263238"/>
<path d="M242.567 290.812C240.688 290.727 238.869 290.121 237.314 289.061C237.314 289.061 238.584 291.889 242.567 291.74V290.812Z" fill="#EB996E"/>
<path d="M240.904 284.595C241 284.595 240.965 285.191 241.456 285.637C241.946 286.084 242.576 286.058 242.576 286.136C242.576 286.215 242.428 286.25 242.165 286.241C241.815 286.226 241.481 286.09 241.219 285.856C240.972 285.629 240.822 285.315 240.799 284.981C240.79 284.727 240.869 284.587 240.904 284.595Z" fill="#263238"/>
<path d="M245.886 278.081C245.79 278.212 245.37 278.081 244.879 278.081C244.389 278.081 244.004 278.203 243.872 278.081C243.741 277.958 243.872 277.888 244.065 277.765C244.306 277.614 244.585 277.532 244.87 277.529C245.157 277.522 245.44 277.598 245.685 277.748C245.869 277.906 245.93 278.019 245.886 278.081Z" fill="#263238"/>
<path d="M239.135 281.408C239.133 281.542 239.183 281.672 239.274 281.77C239.366 281.868 239.492 281.927 239.626 281.934C239.691 281.94 239.756 281.933 239.819 281.913C239.881 281.893 239.939 281.861 239.989 281.819C240.038 281.776 240.079 281.724 240.109 281.666C240.138 281.607 240.155 281.544 240.16 281.478C240.16 281.346 240.109 281.218 240.018 281.122C239.927 281.026 239.802 280.968 239.669 280.962C239.605 280.954 239.539 280.96 239.477 280.979C239.415 280.998 239.357 281.029 239.307 281.071C239.257 281.113 239.216 281.164 239.187 281.222C239.157 281.28 239.14 281.343 239.135 281.408Z" fill="#263238"/>
<path d="M238.47 279.955C238.531 280.025 238.925 279.745 239.477 279.753C240.028 279.762 240.422 280.042 240.484 279.981C240.545 279.92 240.484 279.832 240.274 279.701C240.04 279.53 239.758 279.437 239.468 279.438C239.184 279.429 238.905 279.512 238.671 279.675C238.496 279.806 238.435 279.92 238.47 279.955Z" fill="#263238"/>
<path d="M238.154 278.781C238.259 278.913 238.688 278.781 239.196 278.781C239.704 278.781 240.133 278.886 240.238 278.781C240.343 278.676 240.238 278.589 240.028 278.466C239.773 278.317 239.483 278.238 239.187 278.238C238.892 278.238 238.602 278.317 238.347 278.466C238.163 278.589 238.102 278.711 238.154 278.781Z" fill="#263238"/>
<path d="M234.959 282.888C234.959 282.59 234.678 281.872 234.381 281.811C233.61 281.645 232.201 281.636 232.078 283.615C231.912 286.32 234.705 285.926 234.705 285.847C234.705 285.769 234.906 283.904 234.959 282.888Z" fill="#FFBE9D"/>
<path d="M233.987 284.814C233.987 284.814 233.943 284.814 233.855 284.875C233.8 284.899 233.74 284.911 233.68 284.911C233.62 284.911 233.561 284.899 233.505 284.875C233.336 284.753 233.201 284.589 233.117 284.398C233.032 284.207 233 283.997 233.024 283.79C233.034 283.558 233.094 283.331 233.199 283.124C233.23 283.042 233.281 282.968 233.346 282.908C233.411 282.849 233.49 282.806 233.575 282.783C233.631 282.771 233.689 282.779 233.739 282.806C233.789 282.834 233.827 282.878 233.847 282.931C233.853 282.975 233.853 283.019 233.847 283.063C233.847 283.063 233.908 283.063 233.89 282.914C233.879 282.846 233.845 282.784 233.794 282.739C233.761 282.706 233.721 282.682 233.677 282.667C233.633 282.651 233.586 282.646 233.54 282.651C233.428 282.666 233.322 282.709 233.231 282.776C233.141 282.844 233.069 282.933 233.024 283.037C232.894 283.264 232.822 283.519 232.813 283.781C232.784 284.022 232.826 284.266 232.935 284.482C233.044 284.699 233.215 284.878 233.426 284.998C233.498 285.022 233.574 285.031 233.65 285.023C233.725 285.016 233.798 284.992 233.864 284.954C233.987 284.91 233.987 284.823 233.987 284.814Z" fill="#EB996E"/>
<path d="M234.275 281.82L234.958 282.529C237.935 279.692 243.758 272.573 243.434 272.994C242.075 272.492 240.613 272.336 239.179 272.538C236.964 272.915 232.769 274.018 232.831 276.619C232.961 278.431 233.452 280.2 234.275 281.82Z" fill="#263238"/>
<path d="M230.335 281.224C230.335 281.224 230.335 281.163 230.335 281.067C230.387 280.92 230.448 280.776 230.519 280.638C230.801 280.136 231.189 279.702 231.658 279.368C232.351 278.873 233.124 278.5 233.943 278.265C234.818 277.976 235.869 277.748 236.876 277.319C238.599 276.592 240.154 275.519 241.447 274.167C241.836 273.756 242.201 273.323 242.541 272.871L242.813 272.495C242.842 272.449 242.877 272.408 242.918 272.372L242.839 272.512C242.778 272.6 242.699 272.74 242.585 272.906C242.258 273.373 241.902 273.817 241.517 274.237C240.941 274.856 240.308 275.419 239.625 275.918C238.791 276.532 237.885 277.043 236.929 277.442C235.963 277.812 234.978 278.127 233.978 278.387C233.171 278.612 232.408 278.971 231.719 279.447C231.255 279.767 230.864 280.181 230.572 280.664C230.479 280.845 230.4 281.032 230.335 281.224Z" fill="#455A64"/>
<path d="M231.123 281.644C231.117 281.444 231.152 281.244 231.228 281.058C231.431 280.539 231.785 280.094 232.244 279.779C232.934 279.339 233.705 279.041 234.512 278.904C235.479 278.719 236.422 278.426 237.322 278.028C238.218 277.621 239.06 277.103 239.827 276.487C240.463 275.981 241.05 275.415 241.578 274.797C241.926 274.382 242.245 273.943 242.532 273.484C242.629 273.335 242.707 273.204 242.76 273.107C242.787 273.06 242.819 273.016 242.856 272.976C242.838 273.025 242.814 273.072 242.786 273.116L242.576 273.51C242.307 273.986 241.997 274.437 241.648 274.859C241.13 275.505 240.543 276.092 239.897 276.61C239.122 277.239 238.272 277.768 237.366 278.186C236.455 278.587 235.5 278.88 234.521 279.061C233.728 279.21 232.97 279.507 232.288 279.937C231.834 280.233 231.478 280.656 231.263 281.154C231.202 281.313 231.156 281.477 231.123 281.644Z" fill="#455A64"/>
<path d="M229.539 306.108C229.41 304.383 229.41 302.65 229.539 300.925C229.655 302.651 229.655 304.382 229.539 306.108Z" fill="#263238"/>
<path d="M248.119 305.74C248.096 305.449 248.096 305.156 248.119 304.865C248.171 304.135 248.145 303.401 248.04 302.676C247.904 301.953 247.692 301.245 247.409 300.566C247.277 300.285 247.171 299.991 247.094 299.69C247.265 299.946 247.409 300.219 247.523 300.504C247.848 301.18 248.08 301.895 248.215 302.632C248.319 303.373 248.319 304.124 248.215 304.865C248.22 305.16 248.188 305.454 248.119 305.74Z" fill="#263238"/>
<path d="M342.63 313.428H275.691C274.096 313.426 272.568 312.792 271.44 311.664C270.312 310.536 269.678 309.008 269.676 307.413V279.307L262.294 272.757H342.63C343.424 272.751 344.212 272.903 344.947 273.203C345.683 273.504 346.351 273.947 346.915 274.507C347.478 275.067 347.925 275.733 348.229 276.466C348.534 277.2 348.69 277.987 348.689 278.781V307.413C348.688 308.206 348.53 308.992 348.224 309.724C347.919 310.456 347.472 311.121 346.909 311.679C346.346 312.238 345.678 312.681 344.944 312.981C344.209 313.281 343.423 313.433 342.63 313.428Z" fill="#DAE0E8"/>
<path d="M338.042 317.982C335.667 318.207 333.281 318.283 330.897 318.209C328.516 318.283 326.132 318.207 323.761 317.982C326.132 317.756 328.516 317.68 330.897 317.754C333.281 317.68 335.667 317.756 338.042 317.982Z" fill="#2F80EC"/>
<path d="M340.992 318.542C340.963 318.542 340.933 318.535 340.906 318.523C340.879 318.511 340.855 318.494 340.835 318.472L339.451 317.027C339.411 316.986 339.389 316.931 339.389 316.874C339.389 316.817 339.411 316.762 339.451 316.721C339.471 316.7 339.495 316.683 339.521 316.672C339.547 316.66 339.576 316.654 339.604 316.654C339.633 316.654 339.662 316.66 339.688 316.672C339.714 316.683 339.738 316.7 339.758 316.721L340.984 317.999L343.672 315.267C343.691 315.246 343.715 315.23 343.741 315.218C343.768 315.207 343.796 315.201 343.825 315.201C343.854 315.201 343.882 315.207 343.908 315.218C343.935 315.23 343.958 315.246 343.978 315.267C344.018 315.308 344.041 315.363 344.041 315.42C344.041 315.478 344.018 315.533 343.978 315.574L341.132 318.472C341.094 318.509 341.045 318.534 340.992 318.542Z" fill="#CADDFF"/>
<path d="M342.962 318.498H342.708C342.65 318.498 342.594 318.475 342.553 318.434C342.512 318.393 342.489 318.337 342.489 318.279C342.495 318.222 342.521 318.168 342.563 318.128C342.605 318.088 342.659 318.064 342.717 318.06H342.874L345.65 315.232C345.671 315.211 345.695 315.194 345.722 315.182C345.749 315.171 345.778 315.165 345.808 315.165C345.837 315.165 345.866 315.171 345.893 315.182C345.92 315.194 345.945 315.211 345.965 315.232C346.005 315.273 346.028 315.328 346.028 315.385C346.028 315.443 346.005 315.498 345.965 315.538L343.12 318.428C343.1 318.451 343.076 318.469 343.049 318.481C343.021 318.493 342.992 318.499 342.962 318.498Z" fill="#CADDFF"/>
<path d="M338.042 428.016C335.667 428.242 333.281 428.318 330.897 428.244C328.516 428.318 326.132 428.242 323.761 428.016C326.132 427.791 328.516 427.715 330.897 427.789C333.281 427.715 335.667 427.791 338.042 428.016Z" fill="#2F80EC"/>
<path d="M340.992 428.577C340.958 428.58 340.924 428.576 340.892 428.563C340.86 428.551 340.831 428.532 340.808 428.507L339.425 427.062C339.4 427.042 339.38 427.018 339.366 426.99C339.352 426.962 339.344 426.931 339.343 426.9C339.342 426.869 339.347 426.837 339.359 426.808C339.371 426.779 339.389 426.753 339.411 426.732C339.434 426.71 339.461 426.694 339.491 426.684C339.521 426.674 339.552 426.67 339.583 426.673C339.614 426.676 339.644 426.686 339.671 426.702C339.699 426.717 339.722 426.739 339.74 426.764L340.966 428.043L343.654 425.311C343.674 425.29 343.697 425.273 343.724 425.262C343.75 425.25 343.778 425.244 343.807 425.244C343.836 425.244 343.864 425.25 343.891 425.262C343.917 425.273 343.941 425.29 343.96 425.311C344.001 425.352 344.023 425.407 344.023 425.464C344.023 425.521 344.001 425.576 343.96 425.617L341.15 428.507C341.107 428.548 341.051 428.572 340.992 428.577Z" fill="#CADDFF"/>
<path d="M342.962 428.507H342.708C342.649 428.505 342.594 428.48 342.553 428.437C342.512 428.395 342.489 428.338 342.489 428.279C342.489 428.25 342.495 428.221 342.507 428.195C342.518 428.168 342.535 428.144 342.557 428.124C342.578 428.104 342.604 428.089 342.631 428.08C342.659 428.07 342.688 428.067 342.717 428.069H342.874L345.65 425.241C345.671 425.22 345.695 425.203 345.722 425.192C345.749 425.18 345.778 425.174 345.808 425.174C345.837 425.174 345.866 425.18 345.893 425.192C345.92 425.203 345.945 425.22 345.965 425.241C346.005 425.282 346.028 425.337 346.028 425.394C346.028 425.452 346.005 425.507 345.965 425.548L343.12 428.437C343.1 428.46 343.076 428.478 343.049 428.49C343.021 428.502 342.992 428.508 342.962 428.507Z" fill="#CADDFF"/>
<path d="M341.772 280.804C341.772 280.927 327.158 281.032 309.13 281.032C291.101 281.032 276.497 280.927 276.497 280.804C276.497 280.681 291.101 280.576 309.13 280.576C327.158 280.576 341.772 280.673 341.772 280.804Z" fill="white"/>
<path d="M341.772 285.593C341.772 285.724 327.158 285.821 309.13 285.821C291.101 285.821 276.497 285.724 276.497 285.593C276.497 285.462 291.101 285.365 309.13 285.365C327.158 285.365 341.772 285.471 341.772 285.593Z" fill="white"/>
<path d="M341.772 290.392C341.772 290.514 327.158 290.619 309.13 290.619C291.101 290.619 276.497 290.514 276.497 290.392C276.497 290.269 291.101 290.164 309.13 290.164C327.158 290.164 341.772 290.269 341.772 290.392Z" fill="white"/>
<path d="M238.312 430.346C249.159 430.346 257.952 421.572 257.952 410.75C257.952 399.928 249.159 391.154 238.312 391.154C227.466 391.154 218.673 399.928 218.673 410.75C218.673 421.572 227.466 430.346 238.312 430.346Z" fill="#2F80EC"/>
<path d="M229.136 415.653L234.284 415.215L246.84 417.334L248.32 426.756L248.11 427.85C245.282 429.449 242.103 430.324 238.856 430.399C235.609 430.474 232.393 429.746 229.495 428.279L229.136 415.627" fill="#455A64"/>
<path d="M244.152 417.176C245.397 416.997 246.668 417.17 247.819 417.676C248.971 418.182 249.957 419.001 250.667 420.04C251.519 421.23 252.3 422.469 253.005 423.752C250.956 425.976 249.292 427.666 246.455 428.647L244.152 417.176Z" fill="#455A64"/>
<path d="M229.136 415.653C229.136 415.653 225.739 416.065 224.425 418.963C223.112 421.861 222.806 422.772 222.806 422.772C224.557 424.882 226.798 427.386 229.539 428.323C229.539 428.323 230.161 421.03 230.239 418.963C230.336 416.704 230.423 415.583 229.136 415.653Z" fill="#455A64"/>
<path d="M232.235 397.091C233.09 395.993 234.18 395.102 235.426 394.484C236.672 393.865 238.042 393.535 239.433 393.518C240.628 393.511 241.815 393.722 242.935 394.14C244.112 394.426 245.152 395.113 245.877 396.084C246.768 397.232 247.352 398.588 247.576 400.024C247.781 401.497 247.851 402.986 247.786 404.472C247.715 405.963 247.234 407.406 246.394 408.64L242.62 409.297C240.539 409.458 238.446 409.346 236.394 408.964C234.321 408.566 232.489 407.363 231.298 405.619C229.784 403.115 230.414 399.324 232.235 397.091Z" fill="#263238"/>
<path d="M228.593 408.027C228.63 407.6 228.765 407.187 228.986 406.819C229.208 406.452 229.511 406.14 229.871 405.908C230.238 405.684 230.667 405.583 231.095 405.619C231.523 405.656 231.929 405.827 232.253 406.11L232.848 406.819C233.308 407.03 233.691 407.38 233.942 407.82C234.194 408.259 234.301 408.767 234.249 409.27C234.178 409.772 233.965 410.243 233.637 410.629C233.308 411.015 232.877 411.3 232.393 411.451C231.905 411.587 231.391 411.596 230.898 411.476C230.406 411.356 229.953 411.113 229.582 410.768C229.218 410.417 228.939 409.988 228.768 409.513C228.596 409.038 228.536 408.529 228.593 408.027Z" fill="#263238"/>
<path d="M229.337 410.566C229.197 410.341 229.127 410.079 229.136 409.813C229.262 409.179 229.566 408.593 230.011 408.123C230.432 407.625 230.946 407.214 231.526 406.915C231.964 406.679 232.27 406.591 232.262 406.556C231.983 406.582 231.712 406.662 231.465 406.793C230.851 407.073 230.307 407.485 229.871 408.001C229.628 408.283 229.422 408.595 229.258 408.929C229.114 409.2 229.03 409.498 229.013 409.805C229.01 410.015 229.068 410.222 229.18 410.4C229.258 410.531 229.337 410.575 229.337 410.566Z" fill="#455A64"/>
<path d="M242.602 416.827V413.324C242.602 413.324 245.676 412.983 246.534 409.051C246.936 406.445 247.095 403.807 247.006 401.171C247.006 398.781 244.949 395.524 241.989 395.515L240.676 395.366L235.641 397.362C235.291 397.38 234.96 397.528 234.713 397.777C234.467 398.027 234.323 398.36 234.31 398.711L234.162 415.522L236.464 418.753C236.886 419.324 237.476 419.748 238.151 419.966C238.826 420.185 239.552 420.187 240.228 419.971C240.904 419.756 241.496 419.334 241.92 418.766C242.344 418.197 242.58 417.51 242.594 416.8L242.602 416.827Z" fill="#FFBE9D"/>
<path d="M240.58 407.817C240.607 407.614 240.71 407.429 240.869 407.3C241.013 407.179 241.192 407.108 241.38 407.097C241.567 407.086 241.754 407.136 241.911 407.239C242.072 407.364 242.197 407.53 242.274 407.719C242.351 407.908 242.376 408.114 242.349 408.316C242.26 408.436 242.148 408.537 242.018 408.611C241.888 408.685 241.744 408.73 241.596 408.745H241.455C241.221 408.74 240.997 408.649 240.825 408.491C240.735 408.405 240.667 408.299 240.624 408.182C240.582 408.065 240.567 407.94 240.58 407.817Z" fill="#EB996E"/>
<path d="M245.159 403.99C245.143 404.115 245.082 404.229 244.988 404.312C244.893 404.394 244.772 404.44 244.647 404.44C244.522 404.44 244.401 404.394 244.306 404.312C244.212 404.229 244.151 404.115 244.135 403.99C244.142 403.856 244.2 403.73 244.298 403.639C244.396 403.547 244.526 403.498 244.66 403.5C244.725 403.499 244.79 403.511 244.85 403.535C244.911 403.559 244.966 403.595 245.013 403.641C245.059 403.686 245.096 403.741 245.121 403.801C245.146 403.861 245.159 403.925 245.159 403.99Z" fill="#263238"/>
<path d="M246 402.686C245.93 402.747 245.553 402.441 245.01 402.414C244.468 402.388 244.038 402.633 243.986 402.563C243.933 402.493 244.03 402.414 244.214 402.301C244.458 402.145 244.748 402.074 245.037 402.099C245.322 402.11 245.596 402.215 245.816 402.397C245.974 402.537 246.026 402.66 246 402.686Z" fill="#263238"/>
<path d="M242.541 406.836C242.828 406.768 243.121 406.73 243.417 406.722C243.557 406.722 243.697 406.722 243.723 406.6C243.742 406.456 243.718 406.309 243.653 406.179C243.539 405.838 243.417 405.479 243.294 405.094C242.961 404.17 242.701 403.221 242.515 402.257C242.925 403.15 243.262 404.076 243.522 405.024C243.644 405.409 243.749 405.768 243.863 406.118C243.937 406.292 243.952 406.486 243.907 406.67C243.883 406.718 243.849 406.761 243.806 406.794C243.764 406.827 243.714 406.851 243.662 406.862C243.583 406.874 243.504 406.874 243.425 406.862C243.131 406.894 242.833 406.885 242.541 406.836Z" fill="#263238"/>
<path d="M242.567 413.342C240.692 413.268 238.874 412.677 237.314 411.634C237.314 411.634 238.584 414.462 242.567 414.314V413.342Z" fill="#EB996E"/>
<path d="M240.904 407.125C241 407.125 240.965 407.72 241.456 408.176C241.946 408.631 242.576 408.596 242.576 408.675C242.576 408.754 242.428 408.78 242.165 408.78C241.813 408.765 241.478 408.625 241.219 408.386C240.969 408.161 240.818 407.846 240.799 407.51C240.79 407.265 240.869 407.125 240.904 407.125Z" fill="#263238"/>
<path d="M245.886 400.619C245.79 400.751 245.37 400.619 244.879 400.619C244.389 400.619 244.004 400.742 243.872 400.619C243.741 400.497 243.872 400.427 244.065 400.304C244.305 400.148 244.585 400.066 244.87 400.068C245.158 400.056 245.442 400.132 245.685 400.287C245.869 400.427 245.93 400.558 245.886 400.619Z" fill="#263238"/>
<path d="M239.135 403.92C239.133 404.053 239.183 404.182 239.275 404.279C239.366 404.376 239.493 404.432 239.626 404.437C239.69 404.444 239.756 404.438 239.818 404.419C239.88 404.401 239.938 404.369 239.988 404.328C240.038 404.286 240.079 404.235 240.109 404.177C240.138 404.119 240.155 404.055 240.16 403.99C240.162 403.856 240.112 403.726 240.021 403.628C239.929 403.53 239.803 403.472 239.669 403.465C239.604 403.459 239.539 403.466 239.476 403.486C239.414 403.506 239.356 403.538 239.306 403.58C239.257 403.623 239.216 403.674 239.187 403.733C239.157 403.791 239.14 403.855 239.135 403.92Z" fill="#263238"/>
<path d="M238.47 402.485C238.531 402.555 238.925 402.275 239.477 402.292C240.028 402.31 240.422 402.581 240.484 402.511C240.545 402.441 240.484 402.362 240.274 402.231C240.038 402.063 239.757 401.972 239.468 401.968C239.184 401.966 238.905 402.052 238.671 402.213C238.496 402.336 238.435 402.458 238.47 402.485Z" fill="#263238"/>
<path d="M238.154 401.311C238.259 401.434 238.688 401.311 239.196 401.311C239.704 401.311 240.133 401.408 240.238 401.311C240.343 401.215 240.238 401.127 240.028 401.005C239.773 400.856 239.483 400.777 239.187 400.777C238.892 400.777 238.602 400.856 238.347 401.005C238.163 401.119 238.102 401.25 238.154 401.311Z" fill="#263238"/>
<path d="M234.959 405.085C234.959 404.787 234.678 404.078 234.381 404.017C233.61 403.85 232.201 403.833 232.078 405.812C231.912 408.517 234.705 408.132 234.705 408.053C234.705 407.974 234.906 406.109 234.959 405.085Z" fill="#FFBE9D"/>
<path d="M233.987 407.02C233.987 407.02 233.943 407.02 233.856 407.081C233.743 407.124 233.618 407.124 233.505 407.081C233.336 406.961 233.203 406.798 233.118 406.608C233.033 406.419 233.001 406.21 233.024 406.004C233.033 405.772 233.093 405.545 233.199 405.339C233.23 405.256 233.281 405.182 233.346 405.123C233.412 405.064 233.49 405.02 233.575 404.997C233.63 404.986 233.686 404.994 233.736 405.02C233.785 405.045 233.824 405.087 233.847 405.137C233.854 405.184 233.854 405.231 233.847 405.277C233.847 405.277 233.908 405.234 233.891 405.12C233.878 405.053 233.844 404.991 233.794 404.945C233.759 404.915 233.719 404.893 233.675 404.88C233.632 404.866 233.586 404.861 233.54 404.866C233.428 404.879 233.321 404.921 233.23 404.989C233.139 405.056 233.068 405.147 233.024 405.251C232.893 405.478 232.821 405.734 232.814 405.995C232.784 406.235 232.827 406.478 232.936 406.693C233.045 406.908 233.216 407.086 233.426 407.204C233.495 407.237 233.57 407.254 233.645 407.254C233.721 407.254 233.796 407.237 233.864 407.204C233.987 407.081 233.987 407.02 233.987 407.02Z" fill="#EB996E"/>
<path d="M234.275 403.99L234.958 404.708C237.935 401.863 243.758 394.744 243.434 395.173C242.077 394.665 240.614 394.506 239.179 394.709C236.964 395.086 232.769 396.189 232.831 398.798C232.962 400.608 233.453 402.373 234.275 403.99Z" fill="#263238"/>
<path d="M230.335 403.421C230.335 403.421 230.335 403.369 230.335 403.264C230.389 403.12 230.45 402.98 230.519 402.843C230.802 402.34 231.19 401.904 231.658 401.565C232.366 401.075 233.154 400.711 233.987 400.488C234.862 400.19 235.913 399.963 236.92 399.534C237.868 399.14 238.767 398.638 239.599 398.036C240.278 397.546 240.911 396.995 241.49 396.39C241.981 395.865 242.366 395.41 242.585 395.094C242.69 394.937 242.786 394.814 242.856 394.718C242.926 394.622 242.953 394.587 242.961 394.595L242.883 394.735L242.629 395.121C242.307 395.591 241.95 396.035 241.56 396.452C240.985 397.074 240.352 397.64 239.669 398.141C238.829 398.737 237.921 399.231 236.964 399.612C235.948 400.041 234.915 400.269 234.013 400.558C233.207 400.78 232.443 401.136 231.754 401.609C231.289 401.931 230.898 402.349 230.607 402.835C230.504 403.024 230.414 403.22 230.335 403.421Z" fill="#455A64"/>
<path d="M231.123 403.85C231.117 403.647 231.153 403.444 231.228 403.255C231.429 402.738 231.783 402.294 232.244 401.985C232.934 401.545 233.705 401.247 234.512 401.11C235.478 400.921 236.42 400.628 237.322 400.234C238.218 399.827 239.059 399.309 239.827 398.693C240.881 397.849 241.787 396.834 242.506 395.69C242.602 395.532 242.681 395.41 242.734 395.305C242.762 395.261 242.794 395.22 242.83 395.182C242.811 395.231 242.788 395.278 242.76 395.322L242.55 395.716C242.281 396.192 241.97 396.644 241.622 397.065C241.104 397.711 240.517 398.298 239.87 398.816C239.098 399.445 238.247 399.972 237.34 400.383C236.427 400.78 235.472 401.073 234.494 401.259C233.699 401.399 232.94 401.697 232.262 402.134C231.803 402.424 231.445 402.85 231.237 403.351C231.184 403.514 231.146 403.681 231.123 403.85Z" fill="#455A64"/>
<path d="M229.539 428.306C229.41 426.583 229.41 424.853 229.539 423.131C229.655 424.854 229.655 426.583 229.539 428.306Z" fill="#263238"/>
<path d="M248.119 427.947C248.093 427.641 248.093 427.333 248.119 427.027C248.171 426.294 248.145 425.557 248.04 424.83C247.902 424.109 247.691 423.405 247.409 422.728C247.279 422.446 247.173 422.153 247.094 421.853C247.265 422.108 247.409 422.381 247.523 422.667C247.849 423.342 248.081 424.057 248.215 424.795C248.319 425.535 248.319 426.287 248.215 427.027C248.222 427.337 248.19 427.646 248.119 427.947Z" fill="#263238"/>
<path d="M342.63 422.273H275.691C274.095 422.27 272.565 421.635 271.437 420.505C270.309 419.376 269.676 417.845 269.676 416.249V401.504L262.294 394.954H342.63C344.224 394.957 345.753 395.591 346.881 396.719C348.008 397.846 348.643 399.375 348.645 400.97V416.249C348.645 417.845 348.011 419.376 346.884 420.505C345.756 421.635 344.226 422.27 342.63 422.273Z" fill="#DAE0E8"/>
<path d="M341.772 403.001C341.772 403.132 327.158 403.229 309.13 403.229C291.101 403.229 276.497 403.132 276.497 403.001C276.497 402.87 291.101 402.773 309.13 402.773C327.158 402.773 341.772 402.878 341.772 403.001Z" fill="white"/>
<path d="M341.772 407.799C341.772 407.922 327.158 408.027 309.13 408.027C291.101 408.027 276.497 407.922 276.497 407.799C276.497 407.677 291.101 407.572 309.13 407.572C327.158 407.572 341.772 407.677 341.772 407.799Z" fill="white"/>
<path d="M341.772 412.597C341.772 412.72 327.158 412.825 309.13 412.825C291.101 412.825 276.497 412.72 276.497 412.597C276.497 412.475 291.101 412.37 309.13 412.37C327.158 412.37 341.772 412.466 341.772 412.597Z" fill="white"/>
<path d="M341.772 295.19C341.772 295.312 327.158 295.417 309.13 295.417C291.101 295.417 276.497 295.312 276.497 295.19C276.497 295.067 291.101 294.962 309.13 294.962C327.158 294.962 341.772 295.058 341.772 295.19Z" fill="white"/>
<path d="M341.772 299.98C341.772 300.111 327.158 300.207 309.13 300.207C291.101 300.207 276.497 300.111 276.497 299.98C276.497 299.848 291.101 299.752 309.13 299.752C327.158 299.752 341.772 299.857 341.772 299.98Z" fill="white"/>
<path d="M341.772 305.741C341.772 305.872 327.158 305.968 309.13 305.968C291.101 305.968 276.497 305.872 276.497 305.741C276.497 305.609 291.101 305.513 309.13 305.513C327.158 305.513 341.772 305.618 341.772 305.741Z" fill="white"/>
<path d="M276.891 222.42C276.937 221.739 277.182 221.088 277.594 220.544C278.006 220.001 278.568 219.589 279.21 219.361C279.853 219.132 280.548 219.096 281.211 219.256C281.873 219.417 282.475 219.768 282.941 220.266L282.004 221.141C281.81 220.907 281.567 220.718 281.291 220.59C281.016 220.461 280.715 220.395 280.41 220.397C279.872 220.397 279.355 220.611 278.974 220.992C278.593 221.373 278.379 221.89 278.379 222.429C278.379 222.967 278.593 223.484 278.974 223.865C279.355 224.246 279.872 224.46 280.41 224.46C280.716 224.462 281.017 224.396 281.293 224.265C281.569 224.135 281.812 223.944 282.004 223.707L282.941 224.583C282.475 225.08 281.875 225.431 281.213 225.592C280.551 225.753 279.856 225.718 279.214 225.49C278.572 225.262 278.01 224.852 277.597 224.31C277.184 223.768 276.939 223.117 276.891 222.437V222.42Z" fill="#263238"/>
<path d="M288.763 222.796V225.589H287.398V223.015C287.398 222.227 287.03 221.868 286.408 221.868C285.786 221.868 285.244 222.288 285.244 223.181V225.589H283.825V218.874H285.244V221.229C285.449 221.032 285.692 220.878 285.959 220.777C286.225 220.676 286.509 220.63 286.793 220.642C287.071 220.631 287.348 220.681 287.605 220.787C287.861 220.894 288.092 221.056 288.279 221.261C288.467 221.466 288.607 221.71 288.691 221.975C288.775 222.24 288.799 222.52 288.763 222.796Z" fill="#263238"/>
<path d="M294.35 222.814V225.589H293.028V224.985C292.863 225.221 292.638 225.409 292.376 225.528C292.114 225.646 291.825 225.692 291.539 225.659C290.401 225.659 289.727 225.029 289.727 224.188C289.727 223.348 290.331 222.726 291.819 222.726H292.94C292.94 222.122 292.572 221.772 291.819 221.772C291.314 221.767 290.82 221.923 290.41 222.218L289.902 221.238C290.527 220.833 291.259 220.626 292.003 220.642C293.527 220.642 294.35 221.334 294.35 222.814ZM292.94 224.048V223.549H291.968C291.311 223.549 291.092 223.794 291.092 224.127C291.092 224.46 291.39 224.714 291.889 224.714C292.113 224.731 292.336 224.675 292.525 224.555C292.714 224.435 292.86 224.257 292.94 224.048Z" fill="#263238"/>
<path d="M298.78 225.371C298.435 225.587 298.032 225.694 297.625 225.677C297.384 225.71 297.139 225.688 296.909 225.613C296.678 225.538 296.467 225.411 296.293 225.242C296.118 225.073 295.984 224.867 295.901 224.639C295.818 224.411 295.787 224.167 295.812 223.926V221.921H295.059V220.835H295.812V219.644H297.222V220.835H298.439V221.921H297.222V223.908C297.211 223.992 297.219 224.077 297.245 224.157C297.272 224.236 297.315 224.31 297.373 224.371C297.431 224.432 297.501 224.479 297.58 224.51C297.658 224.541 297.742 224.553 297.826 224.548C298.031 224.555 298.233 224.49 298.395 224.364L298.78 225.371Z" fill="#263238"/>
<path d="M323.761 232.191C323.761 232.314 308.876 232.419 290.427 232.419C271.978 232.419 257.102 232.314 257.102 232.191C257.102 232.069 271.987 231.955 290.427 231.955C308.867 231.955 323.761 232.06 323.761 232.191Z" fill="#263238"/>
<path d="M353.294 222.42C354.15 222.42 354.844 221.726 354.844 220.87C354.844 220.014 354.15 219.32 353.294 219.32C352.439 219.32 351.745 220.014 351.745 220.87C351.745 221.726 352.439 222.42 353.294 222.42Z" fill="#263238"/>
<path d="M354.818 225.37C354.819 225.679 354.729 225.982 354.559 226.24C354.388 226.497 354.145 226.698 353.86 226.817C353.575 226.936 353.26 226.968 352.957 226.908C352.654 226.848 352.376 226.7 352.157 226.481C351.939 226.263 351.79 225.984 351.73 225.681C351.67 225.378 351.702 225.064 351.821 224.779C351.94 224.493 352.141 224.25 352.399 224.08C352.656 223.909 352.959 223.819 353.268 223.821C353.678 223.823 354.071 223.987 354.361 224.277C354.651 224.567 354.815 224.96 354.818 225.37Z" fill="#263238"/>
<path d="M354.818 229.915C354.819 230.224 354.729 230.526 354.559 230.784C354.388 231.042 354.145 231.243 353.86 231.362C353.575 231.481 353.26 231.512 352.957 231.453C352.654 231.393 352.376 231.244 352.157 231.026C351.939 230.807 351.79 230.529 351.73 230.225C351.67 229.922 351.702 229.608 351.821 229.323C351.94 229.038 352.141 228.795 352.399 228.624C352.656 228.453 352.959 228.363 353.268 228.365C353.679 228.365 354.073 228.528 354.364 228.819C354.654 229.11 354.818 229.504 354.818 229.915Z" fill="#263238"/>
<path d="M227.262 226.123C227.167 226.125 227.074 226.095 226.999 226.036L222.893 223.024C222.837 222.982 222.791 222.928 222.759 222.866C222.727 222.804 222.71 222.735 222.709 222.665C222.709 222.596 222.726 222.528 222.758 222.467C222.79 222.406 222.836 222.354 222.893 222.315L226.999 219.355C227.046 219.322 227.1 219.298 227.156 219.285C227.212 219.272 227.271 219.27 227.328 219.28C227.385 219.29 227.439 219.311 227.488 219.342C227.537 219.373 227.579 219.413 227.612 219.46C227.678 219.554 227.705 219.669 227.687 219.782C227.669 219.895 227.608 219.996 227.516 220.064L223.891 222.691L227.516 225.318C227.608 225.388 227.67 225.491 227.688 225.605C227.706 225.719 227.679 225.836 227.612 225.931C227.574 225.989 227.522 226.037 227.461 226.07C227.4 226.104 227.332 226.122 227.262 226.123Z" fill="#263238"/>
<path d="M334.426 373.345C345.272 373.345 354.065 364.572 354.065 353.749C354.065 342.927 345.272 334.154 334.426 334.154C323.579 334.154 314.786 342.927 314.786 353.749C314.786 364.572 323.579 373.345 334.426 373.345Z" fill="#2F80EC"/>
<path d="M339.802 365.333H329.47C329.117 365.333 328.778 365.193 328.528 364.943C328.279 364.694 328.139 364.355 328.139 364.002C328.139 363.648 328.279 363.309 328.528 363.058C328.777 362.807 329.116 362.665 329.47 362.663H339.802C340.155 362.665 340.494 362.807 340.743 363.058C340.992 363.309 341.132 363.648 341.132 364.002C341.132 364.355 340.992 364.694 340.743 364.943C340.493 365.193 340.154 365.333 339.802 365.333Z" fill="#263238"/>
<path d="M335.222 341.009H334.312V345.597H335.222V341.009Z" fill="#263238"/>
<path d="M321.379 359.353C322.849 359.353 324.041 358.161 324.041 356.691C324.041 355.221 322.849 354.03 321.379 354.03C319.909 354.03 318.717 355.221 318.717 356.691C318.717 358.161 319.909 359.353 321.379 359.353Z" fill="#CADDFF"/>
<path d="M348.295 359.178C349.765 359.178 350.956 357.986 350.956 356.516C350.956 355.046 349.765 353.854 348.295 353.854C346.825 353.854 345.633 355.046 345.633 356.516C345.633 357.986 346.825 359.178 348.295 359.178Z" fill="#CADDFF"/>
<path d="M335.161 344.634C335.161 344.634 346.001 344.503 347.717 353.898C349.433 363.293 340.266 363.459 337.63 363.635C336.44 363.713 333.883 363.722 331.624 363.687C326.624 363.6 323.096 362.636 321.896 357.996C321.752 357.451 321.661 356.894 321.625 356.332C321.309 351.254 324.742 344.389 335.161 344.634Z" fill="#CADDFF"/>
<path d="M327.298 358.932L343.059 359.178C343.852 359.189 344.617 358.886 345.186 358.335C345.756 357.783 346.083 357.028 346.097 356.236C346.106 355.443 345.801 354.679 345.248 354.111C344.695 353.543 343.939 353.218 343.146 353.206L327.386 352.961C326.993 352.954 326.603 353.025 326.237 353.169C325.872 353.313 325.538 353.528 325.256 353.801C324.974 354.075 324.748 354.401 324.592 354.762C324.436 355.122 324.353 355.51 324.347 355.903C324.342 356.296 324.413 356.686 324.559 357.051C324.704 357.416 324.92 357.749 325.194 358.03C325.468 358.312 325.795 358.536 326.156 358.691C326.517 358.846 326.905 358.928 327.298 358.932Z" fill="#263238"/>
<path d="M339.784 355.912C339.807 356.036 339.855 356.154 339.924 356.259C339.992 356.365 340.082 356.455 340.186 356.526C340.29 356.597 340.407 356.646 340.531 356.672C340.654 356.697 340.781 356.698 340.905 356.674C341.038 356.66 341.167 356.619 341.284 356.553C341.4 356.487 341.502 356.397 341.581 356.289C341.661 356.182 341.718 356.059 341.747 355.928C341.777 355.798 341.779 355.662 341.753 355.531C341.728 355.399 341.675 355.275 341.598 355.165C341.522 355.055 341.423 354.962 341.308 354.892C341.194 354.823 341.066 354.778 340.933 354.76C340.801 354.743 340.666 354.753 340.537 354.791C340.414 354.815 340.297 354.863 340.192 354.933C340.088 355.002 339.998 355.091 339.928 355.195C339.858 355.3 339.81 355.416 339.785 355.539C339.76 355.662 339.76 355.789 339.784 355.912Z" fill="white"/>
<path d="M328.778 355.737C328.791 355.87 328.832 355.999 328.899 356.116C328.965 356.232 329.054 356.334 329.162 356.413C329.27 356.493 329.393 356.55 329.523 356.579C329.654 356.609 329.789 356.611 329.921 356.585C330.052 356.56 330.177 356.507 330.287 356.43C330.397 356.354 330.489 356.255 330.559 356.141C330.629 356.026 330.674 355.898 330.691 355.766C330.708 355.633 330.698 355.498 330.66 355.369C330.593 355.139 330.442 354.942 330.237 354.817C330.031 354.692 329.787 354.649 329.551 354.695C329.316 354.741 329.106 354.873 328.963 355.066C328.82 355.259 328.754 355.498 328.778 355.737Z" fill="white"/>
<path d="M336.264 340.948C336.266 341.244 336.179 341.535 336.016 341.782C335.852 342.03 335.619 342.223 335.346 342.337C335.072 342.452 334.771 342.483 334.48 342.426C334.189 342.369 333.921 342.228 333.711 342.019C333.501 341.809 333.357 341.543 333.299 341.252C333.24 340.961 333.27 340.66 333.383 340.386C333.496 340.112 333.688 339.877 333.934 339.712C334.18 339.548 334.47 339.459 334.767 339.459C335.162 339.459 335.542 339.616 335.822 339.895C336.103 340.174 336.262 340.552 336.264 340.948Z" fill="#CADDFF"/>
<path d="M337.026 355.474C337.026 355.474 337.087 355.544 337.122 355.702C337.15 355.925 337.129 356.152 337.061 356.367C336.965 356.7 336.784 357.001 336.536 357.243C336.232 357.546 335.833 357.735 335.406 357.777C334.979 357.812 334.553 357.701 334.198 357.462C333.917 357.271 333.686 357.016 333.524 356.717C333.42 356.516 333.36 356.295 333.349 356.07C333.349 355.912 333.349 355.824 333.401 355.824C333.454 355.824 333.489 356.157 333.778 356.569C333.946 356.797 334.157 356.99 334.399 357.138C334.692 357.312 335.032 357.391 335.371 357.365C335.697 357.324 336.003 357.183 336.247 356.963C336.467 356.78 336.644 356.549 336.763 356.288C336.991 355.833 336.956 355.474 337.026 355.474Z" fill="white"/>
<path d="M347.699 353.592C347.732 353.665 347.758 353.741 347.778 353.819C347.812 353.911 347.841 354.005 347.866 354.1C347.866 354.205 347.927 354.327 347.953 354.476C348.02 354.803 348.067 355.133 348.093 355.466C348.123 355.874 348.123 356.283 348.093 356.691C348.057 357.099 347.989 357.503 347.892 357.9C347.809 358.222 347.704 358.538 347.577 358.845C347.533 358.967 347.484 359.087 347.428 359.204C347.389 359.292 347.346 359.376 347.296 359.458L347.174 359.677C347.193 359.596 347.226 359.52 347.27 359.449L347.384 359.178C347.428 359.073 347.48 358.959 347.524 358.828C347.642 358.52 347.738 358.204 347.813 357.882C347.906 357.487 347.974 357.086 348.014 356.683C348.04 356.277 348.04 355.871 348.014 355.466C347.993 355.137 347.952 354.809 347.892 354.485C347.873 354.349 347.847 354.215 347.813 354.082C347.813 353.968 347.769 353.881 347.752 353.802C347.725 353.735 347.707 353.664 347.699 353.592Z" fill="#263238"/>
<path d="M322.018 353.644C321.981 353.72 321.952 353.799 321.931 353.88C321.931 353.951 321.878 354.047 321.843 354.152C321.808 354.257 321.782 354.388 321.756 354.528C321.689 354.855 321.645 355.185 321.624 355.518C321.594 355.926 321.594 356.336 321.624 356.744C321.659 357.151 321.727 357.555 321.826 357.952C321.907 358.277 322.012 358.596 322.141 358.906C322.185 359.038 322.246 359.151 322.29 359.257C322.334 359.362 322.386 359.449 322.421 359.519L322.544 359.729C322.521 359.65 322.489 359.574 322.447 359.502C322.447 359.432 322.377 359.344 322.334 359.239C322.29 359.134 322.237 359.02 322.194 358.889C322.076 358.578 321.979 358.259 321.905 357.934C321.811 357.54 321.743 357.139 321.703 356.735C321.677 356.333 321.677 355.929 321.703 355.527C321.725 355.195 321.766 354.864 321.826 354.537C321.844 354.413 321.871 354.29 321.905 354.169C321.905 354.056 321.948 353.959 321.966 353.889C321.983 353.819 322.018 353.644 322.018 353.644Z" fill="#263238"/>
<path d="M324.356 370.578C324.356 370.578 327.578 367.435 334.311 367.435C341.045 367.435 344.494 370.578 344.494 370.578C341.456 372.412 337.974 373.381 334.425 373.381C330.876 373.381 327.395 372.412 324.356 370.578Z" fill="#CADDFF"/>
<path d="M226.982 373.73H293.912C294.702 373.731 295.485 373.576 296.215 373.275C296.946 372.973 297.609 372.53 298.168 371.971C298.727 371.412 299.17 370.748 299.472 370.018C299.774 369.288 299.928 368.505 299.927 367.715V348.294L307.309 341.745H226.982C226.192 341.745 225.41 341.9 224.68 342.203C223.95 342.505 223.287 342.948 222.729 343.507C222.17 344.065 221.727 344.728 221.425 345.458C221.122 346.188 220.967 346.97 220.967 347.76V367.715C220.966 368.505 221.12 369.288 221.422 370.018C221.724 370.748 222.167 371.412 222.726 371.971C223.285 372.53 223.948 372.973 224.679 373.275C225.409 373.576 226.192 373.731 226.982 373.73Z" fill="#DAE0E8"/>
<path d="M290.9 351.236C290.9 351.368 277.118 351.464 260.114 351.464C243.11 351.464 229.329 351.368 229.329 351.236C229.329 351.105 243.11 351.009 260.114 351.009C277.118 351.009 290.9 351.114 290.9 351.236Z" fill="white"/>
<path d="M290.9 356.437C290.9 356.569 277.118 356.665 260.114 356.665C243.11 356.665 229.329 356.569 229.329 356.437C229.329 356.306 243.11 356.21 260.114 356.21C277.118 356.21 290.9 356.315 290.9 356.437Z" fill="white"/>
<path d="M290.9 361.638C290.9 361.761 277.118 361.866 260.114 361.866C243.11 361.866 229.329 361.761 229.329 361.638C229.329 361.516 243.11 361.411 260.114 361.411C277.118 361.411 290.9 361.516 290.9 361.638Z" fill="white"/>
<path d="M290.9 366.839C290.9 366.962 277.118 367.067 260.114 367.067C243.11 367.067 229.329 366.962 229.329 366.839C229.329 366.717 243.11 366.612 260.114 366.612C277.118 366.612 290.9 366.708 290.9 366.839Z" fill="white"/>
<path d="M334.426 482.163C345.272 482.163 354.065 473.389 354.065 462.567C354.065 451.745 345.272 442.971 334.426 442.971C323.579 442.971 314.786 451.745 314.786 462.567C314.786 473.389 323.579 482.163 334.426 482.163Z" fill="#2F80EC"/>
<path d="M339.802 474.152H329.47C329.294 474.152 329.12 474.117 328.958 474.049C328.796 473.982 328.649 473.883 328.525 473.759C328.402 473.634 328.304 473.486 328.237 473.324C328.171 473.161 328.138 472.987 328.139 472.812C328.139 472.459 328.279 472.12 328.529 471.871C328.778 471.621 329.117 471.481 329.47 471.481H339.802C340.155 471.481 340.493 471.621 340.743 471.871C340.992 472.12 341.132 472.459 341.132 472.812C341.134 472.987 341.1 473.161 341.034 473.324C340.967 473.486 340.869 473.634 340.746 473.759C340.622 473.883 340.475 473.982 340.313 474.049C340.151 474.117 339.977 474.152 339.802 474.152Z" fill="#263238"/>
<path d="M335.222 449.828H334.312V454.416H335.222V449.828Z" fill="#263238"/>
<path d="M321.379 468.171C322.849 468.171 324.041 466.979 324.041 465.509C324.041 464.039 322.849 462.847 321.379 462.847C319.909 462.847 318.717 464.039 318.717 465.509C318.717 466.979 319.909 468.171 321.379 468.171Z" fill="#CADDFF"/>
<path d="M348.295 467.987C349.765 467.987 350.956 466.795 350.956 465.325C350.956 463.855 349.765 462.664 348.295 462.664C346.825 462.664 345.633 463.855 345.633 465.325C345.633 466.795 346.825 467.987 348.295 467.987Z" fill="#CADDFF"/>
<path d="M335.161 453.452C335.161 453.452 346.001 453.321 347.717 462.707C349.433 472.093 340.266 472.277 337.63 472.452C336.44 472.531 333.883 472.54 331.624 472.505C326.624 472.417 323.096 471.445 321.896 466.814C321.752 466.269 321.661 465.712 321.625 465.15C321.309 460.072 324.742 453.198 335.161 453.452Z" fill="#CADDFF"/>
<path d="M327.298 467.751L343.059 467.996C343.852 468.008 344.617 467.705 345.186 467.153C345.756 466.602 346.083 465.847 346.097 465.054C346.106 464.262 345.801 463.498 345.248 462.93C344.695 462.362 343.939 462.036 343.146 462.025L327.386 461.771C326.593 461.759 325.828 462.062 325.258 462.614C324.689 463.165 324.361 463.92 324.347 464.713C324.342 465.106 324.413 465.497 324.559 465.862C324.704 466.228 324.919 466.561 325.194 466.843C325.468 467.125 325.794 467.351 326.156 467.506C326.517 467.662 326.905 467.745 327.298 467.751Z" fill="#263238"/>
<path d="M339.784 464.73C339.805 464.855 339.851 464.974 339.918 465.081C339.986 465.188 340.074 465.281 340.177 465.354C340.28 465.427 340.397 465.48 340.52 465.508C340.644 465.536 340.771 465.539 340.896 465.518C341.021 465.497 341.14 465.451 341.247 465.384C341.354 465.316 341.447 465.228 341.52 465.125C341.594 465.022 341.646 464.905 341.674 464.782C341.702 464.658 341.705 464.531 341.684 464.406C341.671 464.273 341.63 464.144 341.563 464.027C341.497 463.911 341.408 463.809 341.3 463.729C341.192 463.65 341.069 463.593 340.939 463.563C340.808 463.534 340.673 463.532 340.541 463.557C340.41 463.583 340.285 463.636 340.175 463.713C340.065 463.789 339.972 463.888 339.903 464.002C339.833 464.117 339.788 464.244 339.771 464.377C339.753 464.51 339.764 464.645 339.802 464.774L339.784 464.73Z" fill="white"/>
<path d="M328.778 464.555C328.814 464.742 328.905 464.914 329.04 465.05C329.174 465.185 329.345 465.277 329.532 465.315C329.718 465.353 329.912 465.335 330.088 465.263C330.264 465.191 330.415 465.068 330.522 464.91C330.628 464.752 330.686 464.566 330.687 464.376C330.687 464.185 330.632 463.999 330.527 463.84C330.421 463.681 330.272 463.557 330.096 463.483C329.92 463.409 329.727 463.39 329.54 463.426C329.416 463.45 329.297 463.498 329.192 463.568C329.086 463.638 328.996 463.728 328.925 463.833C328.854 463.938 328.805 464.056 328.78 464.179C328.754 464.303 328.754 464.431 328.778 464.555Z" fill="white"/>
<path d="M336.264 449.731C336.264 450.027 336.176 450.317 336.012 450.563C335.847 450.809 335.613 451.001 335.34 451.114C335.066 451.228 334.765 451.257 334.475 451.2C334.184 451.142 333.917 450.999 333.708 450.79C333.499 450.58 333.356 450.314 333.298 450.023C333.241 449.733 333.27 449.432 333.384 449.158C333.497 448.885 333.689 448.651 333.935 448.486C334.181 448.322 334.471 448.234 334.767 448.234C335.164 448.234 335.545 448.392 335.826 448.672C336.106 448.953 336.264 449.334 336.264 449.731Z" fill="#CADDFF"/>
<path d="M337.026 464.283C337.026 464.283 337.087 464.362 337.122 464.52C337.15 464.744 337.129 464.97 337.061 465.185C336.963 465.517 336.782 465.818 336.536 466.061C336.232 466.364 335.833 466.553 335.406 466.595C334.979 466.63 334.553 466.519 334.198 466.28C333.917 466.089 333.686 465.834 333.524 465.536C333.421 465.334 333.361 465.113 333.349 464.888C333.349 464.73 333.349 464.642 333.401 464.642C333.454 464.642 333.489 464.975 333.778 465.378C333.943 465.611 334.155 465.807 334.399 465.956C334.694 466.124 335.032 466.203 335.371 466.183C335.697 466.142 336.003 466.001 336.247 465.781C336.464 465.594 336.64 465.364 336.763 465.107C336.991 464.634 336.956 464.292 337.026 464.283Z" fill="white"/>
<path d="M347.699 462.401C347.699 462.401 347.699 462.488 347.778 462.637C347.813 462.729 347.843 462.822 347.866 462.917C347.866 463.023 347.927 463.145 347.953 463.285C348.019 463.612 348.066 463.942 348.093 464.275C348.124 464.683 348.124 465.092 348.093 465.5C348.058 465.908 347.991 466.312 347.892 466.709C347.811 467.034 347.705 467.353 347.577 467.663C347.533 467.783 347.484 467.899 347.428 468.013C347.391 468.104 347.347 468.192 347.296 468.276L347.174 468.486C347.197 468.407 347.229 468.33 347.27 468.259C347.27 468.189 347.34 468.101 347.384 467.996C347.428 467.891 347.48 467.777 347.524 467.646C347.643 467.335 347.739 467.016 347.813 466.691C347.907 466.299 347.974 465.902 348.014 465.5C348.04 465.095 348.04 464.689 348.014 464.283C347.993 463.954 347.952 463.627 347.892 463.303C347.873 463.176 347.847 463.05 347.813 462.926C347.813 462.812 347.769 462.725 347.752 462.646C347.722 462.568 347.704 462.485 347.699 462.401Z" fill="#263238"/>
<path d="M322.018 462.462C321.981 462.538 321.952 462.617 321.931 462.699C321.931 462.769 321.878 462.865 321.843 462.97C321.808 463.075 321.782 463.207 321.756 463.347C321.689 463.673 321.645 464.004 321.624 464.336C321.594 464.744 321.594 465.154 321.624 465.562C321.66 465.969 321.727 466.373 321.826 466.77C321.907 467.096 322.012 467.415 322.141 467.725C322.185 467.856 322.246 467.97 322.29 468.075C322.334 468.18 322.386 468.268 322.421 468.338L322.544 468.548C322.523 468.468 322.49 468.391 322.447 468.32C322.447 468.25 322.377 468.162 322.334 468.057C322.29 467.952 322.237 467.839 322.194 467.698C322.076 467.39 321.979 467.074 321.905 466.753C321.811 466.358 321.743 465.957 321.703 465.553C321.677 465.151 321.677 464.747 321.703 464.345C321.725 464.013 321.766 463.683 321.826 463.355C321.844 463.231 321.871 463.109 321.905 462.988C321.905 462.874 321.948 462.778 321.966 462.708C321.983 462.638 322.018 462.462 322.018 462.462Z" fill="#263238"/>
<path d="M324.356 479.396C324.356 479.396 327.578 476.252 334.311 476.252C341.045 476.252 344.494 479.396 344.494 479.396C341.456 481.229 337.974 482.198 334.425 482.198C330.876 482.198 327.395 481.229 324.356 479.396Z" fill="#CADDFF"/>
<path d="M226.982 482.548H293.912C294.702 482.549 295.485 482.395 296.215 482.093C296.946 481.791 297.609 481.348 298.168 480.789C298.727 480.23 299.17 479.567 299.472 478.836C299.774 478.106 299.928 477.323 299.927 476.533V457.112L307.309 450.563H226.982C226.192 450.563 225.41 450.719 224.68 451.021C223.95 451.323 223.287 451.766 222.729 452.325C222.17 452.883 221.727 453.547 221.425 454.276C221.122 455.006 220.967 455.788 220.967 456.578V476.533C220.966 477.323 221.12 478.106 221.422 478.836C221.724 479.567 222.167 480.23 222.726 480.789C223.285 481.348 223.948 481.791 224.679 482.093C225.409 482.395 226.192 482.549 226.982 482.548Z" fill="#DAE0E8"/>
<path d="M226.982 512.922H293.912C294.703 512.922 295.486 512.766 296.216 512.464C296.946 512.161 297.61 511.717 298.169 511.157C298.727 510.598 299.17 509.934 299.472 509.203C299.774 508.472 299.928 507.689 299.927 506.898V500.463L307.309 493.913H226.982C226.192 493.913 225.41 494.069 224.68 494.371C223.95 494.674 223.287 495.117 222.729 495.675C222.17 496.234 221.727 496.897 221.425 497.627C221.122 498.356 220.967 499.139 220.967 499.929V506.933C220.974 508.524 221.611 510.047 222.738 511.17C223.865 512.292 225.391 512.922 226.982 512.922Z" fill="#DAE0E8"/>
<path d="M290.9 460.028C290.9 460.159 277.118 460.256 260.114 460.256C243.11 460.256 229.329 460.159 229.329 460.028C229.329 459.897 243.11 459.8 260.114 459.8C277.118 459.8 290.9 459.932 290.9 460.028Z" fill="white"/>
<path d="M290.9 465.281C290.9 465.404 277.118 465.509 260.114 465.509C243.11 465.509 229.329 465.404 229.329 465.281C229.329 465.159 243.11 465.054 260.114 465.054C277.118 465.054 290.9 465.133 290.9 465.281Z" fill="white"/>
<path d="M290.9 470.456C290.9 470.579 277.118 470.684 260.114 470.684C243.11 470.684 229.329 470.579 229.329 470.456C229.329 470.334 243.11 470.229 260.114 470.229C277.118 470.229 290.9 470.325 290.9 470.456Z" fill="white"/>
<path d="M290.9 475.657C290.9 475.78 277.118 475.885 260.114 475.885C243.11 475.885 229.329 475.78 229.329 475.657C229.329 475.535 243.11 475.43 260.114 475.43C277.118 475.43 290.9 475.526 290.9 475.657Z" fill="white"/>
<path d="M291.11 503.693C291.11 503.816 277.468 503.921 260.648 503.921C243.828 503.921 230.178 503.816 230.178 503.693C230.178 503.571 243.819 503.466 260.648 503.466C277.477 503.466 291.11 503.562 291.11 503.693Z" fill="white"/>
<path d="M67.1342 491.015C68.3136 491.299 69.4233 491.819 70.3969 492.542C71.3704 493.266 72.1876 494.179 72.7993 495.227C74.0096 497.336 74.7251 499.692 74.892 502.118C75.3385 506.776 73.7187 511.915 71.7048 516.127C67.1605 513.588 65.0503 507.94 64.1572 505.007C62.7476 500.375 63.0102 491.138 67.1342 490.998" fill="#455A64"/>
<path d="M77.7468 522.712C77.2042 521.471 76.9994 520.109 77.1532 518.763C77.307 517.418 77.8138 516.137 78.6224 515.05C79.4546 513.981 80.492 513.088 81.6739 512.425C82.8557 511.762 84.1581 511.342 85.5045 511.189C86.1088 511.058 86.7342 511.058 87.3383 511.19C87.9425 511.321 88.5115 511.581 89.0069 511.951C89.4096 512.378 89.6902 512.906 89.8196 513.479C89.949 514.052 89.9223 514.649 89.7424 515.208C89.3704 516.322 88.7121 517.318 87.8336 518.097C84.9529 520.882 81.6519 523.044 77.6593 522.712" fill="#455A64"/>
<path d="M75.7853 537.71C75.7336 537.392 75.713 537.069 75.724 536.747C75.724 536.064 75.724 535.18 75.6539 534.12C75.4755 531.217 75.7713 528.304 76.5295 525.496C77.3436 522.68 78.8942 520.132 81.0213 518.115C81.6726 517.515 82.3927 516.995 83.1665 516.565C83.373 516.447 83.5864 516.342 83.8057 516.25C83.8781 516.205 83.9584 516.176 84.0421 516.162C83.0222 516.775 82.066 517.487 81.1876 518.29C79.1324 520.313 77.6258 522.826 76.8097 525.592C76.0563 528.37 75.7228 531.244 75.8203 534.12C75.8203 535.232 75.8203 536.126 75.8203 536.747C75.8322 537.069 75.8205 537.391 75.7853 537.71Z" fill="#263238"/>
<path d="M67.5548 498.073C67.6109 498.2 67.6548 498.332 67.6862 498.467C67.7737 498.765 67.8788 499.15 68.0014 499.623C68.2728 500.63 68.6493 502.092 69.0871 503.904C69.9627 507.529 71.136 512.555 72.2918 518.124C73.4475 523.693 74.3757 528.771 74.9973 532.449C75.3038 534.287 75.5402 535.776 75.6978 536.827C75.7679 537.317 75.8204 537.702 75.8642 538.017C75.8781 538.157 75.8781 538.298 75.8642 538.438C75.8189 538.303 75.7838 538.166 75.7591 538.026C75.6978 537.72 75.6278 537.334 75.5314 536.844C75.3301 535.785 75.0586 534.305 74.7259 532.51C74.0429 528.841 73.0798 523.754 71.924 518.212C70.7682 512.669 69.6475 507.617 68.8244 503.983C68.4129 502.232 68.0802 500.735 67.8438 499.675C67.7387 499.194 67.6511 498.8 67.5899 498.502C67.5616 498.361 67.5498 498.217 67.5548 498.073Z" fill="#263238"/>
<path d="M71.7052 526.888C70.6522 524.235 68.9837 521.87 66.8372 519.989C64.6906 518.107 62.1276 516.763 59.3594 516.066C57.9497 515.725 56.1986 515.681 55.3405 516.854C54.4824 518.028 55.0866 519.691 55.8833 520.908C57.5868 523.411 59.9911 525.355 62.7948 526.496C65.5985 527.638 68.6768 527.927 71.6439 527.326" fill="#455A64"/>
<path d="M60.9003 520.207C61.1968 520.244 61.4896 520.306 61.7759 520.391C62.1225 520.472 62.4644 520.571 62.8003 520.689C63.1856 520.829 63.6759 520.952 64.1225 521.17C64.569 521.389 65.1381 521.599 65.6723 521.897C66.2586 522.194 66.8259 522.528 67.3709 522.895C68.6263 523.728 69.781 524.704 70.812 525.802C71.8229 526.916 72.7042 528.141 73.4387 529.453C73.7624 530.021 74.0547 530.605 74.3143 531.205C74.5386 531.731 74.7344 532.269 74.901 532.816C75.0761 533.306 75.1461 533.779 75.2512 534.182C75.3351 534.528 75.3994 534.879 75.4438 535.232C75.4974 535.521 75.5267 535.814 75.5314 536.108C75.4526 536.108 75.3125 534.83 74.6558 532.86C74.4824 532.327 74.2807 531.804 74.0516 531.292C73.792 530.693 73.4997 530.108 73.176 529.541C72.4333 528.258 71.5525 527.06 70.5493 525.969C69.5318 524.894 68.4049 523.929 67.187 523.088C66.6091 522.72 66.0663 522.361 65.5234 522.09C65.0329 521.811 64.5272 521.559 64.0086 521.337C62.1436 520.566 60.874 520.277 60.9003 520.207Z" fill="#263238"/>
<path d="M118.726 243.634L115.486 233.521C120.094 226.044 121.739 217.113 120.096 208.485C118.454 199.857 113.643 192.155 106.61 186.894C99.5772 181.632 90.8306 179.192 82.0897 180.052C73.3488 180.912 65.2458 185.011 59.3735 191.543C53.5013 198.074 50.2846 206.566 50.3556 215.349C50.4267 224.132 53.7805 232.57 59.7577 239.006C65.7349 245.441 73.9032 249.408 82.6569 250.127C91.4106 250.846 100.117 248.264 107.063 242.89L118.726 243.634Z" fill="#FAFAFA"/>
<path d="M118.726 243.634H117.991L115.767 243.52L107.011 243.039C106.998 243.039 106.984 243.036 106.972 243.031C106.96 243.025 106.949 243.018 106.94 243.008C106.931 242.998 106.924 242.986 106.919 242.973C106.915 242.961 106.913 242.947 106.915 242.934C106.911 242.917 106.911 242.899 106.915 242.881L107.055 243.021C100.971 247.774 93.489 250.387 85.7692 250.455C83.8195 250.445 81.8733 250.29 79.9466 249.991C70.9941 248.59 62.9306 243.78 57.4439 236.568C54.3882 232.509 52.2358 227.842 51.131 222.883C49.9303 217.61 49.9783 212.129 51.2711 206.877C51.4374 206.212 51.6125 205.537 51.7876 204.872C51.9628 204.207 52.2517 203.559 52.4794 202.902C52.7012 202.238 52.9584 201.586 53.2499 200.949C53.5476 200.319 53.854 199.689 54.1255 199.049C54.4268 198.41 54.772 197.793 55.1587 197.202L56.2707 195.381L57.549 193.629L58.197 192.754C58.4159 192.474 58.6698 192.22 58.9062 191.948C62.6926 187.595 67.496 184.244 72.8893 182.194C78.0237 180.238 83.5371 179.48 89.0089 179.979C94.1505 180.49 99.1161 182.129 103.552 184.777C111.436 189.46 117.187 197.028 119.584 205.879C120.091 207.775 120.454 209.707 120.67 211.658C120.81 213.481 120.843 215.312 120.766 217.139C120.431 222.963 118.643 228.61 115.565 233.565V233.486C116.599 236.778 117.387 239.318 117.93 241.051C118.192 241.927 118.385 242.531 118.525 242.978L118.718 243.626C118.718 243.626 118.63 243.389 118.481 242.951L117.842 241.016C117.282 239.265 116.45 236.796 115.382 233.548C115.372 233.522 115.372 233.494 115.382 233.469C118.401 228.524 120.143 222.907 120.451 217.121C120.518 215.311 120.478 213.498 120.329 211.693C120.11 209.759 119.744 207.845 119.234 205.967C117.356 199.153 113.461 193.067 108.06 188.509C102.659 183.951 96.0058 181.133 88.9739 180.426C83.571 179.931 78.1266 180.677 73.0557 182.606C67.7443 184.638 63.0144 187.946 59.2827 192.237C59.055 192.509 58.8011 192.754 58.5822 193.034L57.943 193.91L56.6822 195.6L55.5965 197.403C55.2112 197.992 54.8661 198.607 54.5633 199.242C54.2656 199.864 53.9679 200.494 53.6877 201.116C53.402 201.744 53.1507 202.387 52.9347 203.042C52.707 203.69 52.4356 204.329 52.243 204.986C52.0503 205.643 51.9015 206.308 51.7351 206.965C50.4655 212.135 50.4116 217.53 51.5775 222.725C53.0947 229.547 56.6262 235.757 61.7141 240.548C66.8021 245.339 73.212 248.492 80.1129 249.597C82.0221 249.897 83.9506 250.058 85.883 250.079C87.6869 250.071 89.4874 249.922 91.2679 249.632C97.0048 248.697 102.42 246.354 107.029 242.811C107.038 242.802 107.048 242.794 107.06 242.789C107.072 242.784 107.085 242.781 107.099 242.781C107.112 242.781 107.125 242.784 107.137 242.789C107.149 242.794 107.16 242.802 107.169 242.811C107.181 242.829 107.188 242.851 107.188 242.873C107.188 242.895 107.181 242.916 107.169 242.934L107.099 242.776L115.749 243.372L117.991 243.529L118.726 243.634Z" fill="#263238"/>
<path d="M75.6825 215.125C75.6825 215.83 75.4735 216.519 75.0819 217.105C74.6903 217.691 74.1337 218.148 73.4826 218.418C72.8314 218.687 72.1149 218.758 71.4236 218.62C70.7323 218.483 70.0973 218.143 69.5989 217.645C69.1006 217.147 68.7612 216.512 68.6237 215.82C68.4861 215.129 68.5567 214.413 68.8264 213.761C69.0962 213.11 69.5529 212.554 70.139 212.162C70.725 211.771 71.414 211.562 72.1188 211.562C73.0633 211.564 73.9683 211.94 74.6361 212.608C75.304 213.276 75.6802 214.181 75.6825 215.125Z" fill="#263238"/>
<path d="M89.9544 215.125C89.9544 215.83 89.7454 216.519 89.3539 217.105C88.9623 217.691 88.4057 218.148 87.7545 218.418C87.1034 218.687 86.3868 218.758 85.6956 218.62C85.0043 218.483 84.3693 218.143 83.8709 217.645C83.3725 217.147 83.0331 216.512 82.8956 215.82C82.7581 215.129 82.8287 214.413 83.0984 213.761C83.3681 213.11 83.8249 212.554 84.4109 212.162C84.997 211.771 85.686 211.562 86.3908 211.562C87.3352 211.564 88.2403 211.94 88.9081 212.608C89.5759 213.276 89.9521 214.181 89.9544 215.125Z" fill="#263238"/>
<path d="M104.192 213.348C104.543 213.958 104.706 214.659 104.659 215.362C104.612 216.064 104.358 216.738 103.929 217.296C103.5 217.855 102.916 218.274 102.249 218.5C101.582 218.726 100.863 218.75 100.182 218.568C99.5019 218.386 98.8907 218.006 98.4259 217.477C97.9611 216.948 97.6635 216.293 97.5706 215.595C97.4778 214.897 97.5939 214.187 97.9044 213.555C98.2148 212.923 98.7056 212.397 99.3147 212.043C99.7204 211.808 100.169 211.655 100.634 211.593C101.098 211.531 101.571 211.562 102.024 211.683C102.477 211.804 102.902 212.013 103.274 212.299C103.646 212.585 103.958 212.941 104.192 213.348Z" fill="#263238"/>
<path d="M75.6105 402.608L38.7308 398.79L23.1103 363.338L10.9746 366.499C10.9746 366.499 19.9406 403.965 29.9749 409.77C40.0091 415.575 74.2884 416.617 74.2884 416.617L75.6105 402.608Z" fill="#CADDFF"/>
<path d="M95.216 420.64C101.217 413.888 100.608 403.55 93.8563 397.549C87.1045 391.548 76.7664 392.157 70.7655 398.909C64.7646 405.661 65.3733 415.999 72.1252 422C78.877 428.001 89.2152 427.392 95.216 420.64Z" fill="#263238"/>
<path d="M82.9916 426.144C79.2015 426.144 75.5286 424.83 72.5988 422.425C69.669 420.021 67.6636 416.675 66.9242 412.958C66.1848 409.24 66.7572 405.382 68.5438 402.039C70.3305 398.697 73.2209 396.077 76.7225 394.626C80.2241 393.176 84.1203 392.985 87.7472 394.085C91.3741 395.185 94.5074 397.509 96.613 400.66C98.7187 403.812 99.6665 407.596 99.295 411.367C98.9235 415.139 97.2557 418.666 94.5756 421.346C93.0579 422.872 91.2525 424.081 89.2642 424.905C87.2758 425.729 85.1438 426.15 82.9916 426.144ZM82.9916 393.432C79.2117 393.428 75.5473 394.735 72.6229 397.13C69.6985 399.525 67.6949 402.86 66.9536 406.566C66.2123 410.273 66.7791 414.122 68.5574 417.457C70.3357 420.793 73.2155 423.408 76.7062 424.858C80.1968 426.309 84.0824 426.504 87.7007 425.41C91.3191 424.317 94.4464 422.003 96.5498 418.862C98.6533 415.722 99.6027 411.949 99.2363 408.187C98.8699 404.425 97.2105 400.906 94.5406 398.23C93.0284 396.706 91.2291 395.498 89.2467 394.674C87.2643 393.851 85.1383 393.428 82.9916 393.432Z" fill="#263238"/>
<path d="M35.4244 412.571C42.0121 410.989 46.0704 404.367 44.4888 397.779C42.9073 391.192 36.2848 387.133 29.6971 388.715C23.1094 390.297 19.0512 396.919 20.6327 403.507C22.2143 410.094 28.8368 414.153 35.4244 412.571Z" fill="#263238"/>
<path d="M23.2458 366.204C27.161 362.289 27.161 355.941 23.2458 352.026C19.3306 348.111 12.9828 348.111 9.0676 352.026C5.15241 355.941 5.15241 362.289 9.0676 366.204C12.9828 370.119 19.3306 370.119 23.2458 366.204Z" fill="#263238"/>
<path d="M31.7829 353.69L23.5278 360.661L20.5507 357.135L28.8058 350.164C29.2404 349.797 29.8031 349.618 30.3701 349.666C30.937 349.713 31.4617 349.984 31.8288 350.419L32.0322 350.66C32.2153 350.875 32.3541 351.124 32.4407 351.393C32.5273 351.662 32.56 351.945 32.5368 352.227C32.5136 352.508 32.4351 352.782 32.3057 353.033C32.1764 353.284 31.9987 353.508 31.7829 353.69Z" fill="#263238"/>
<path d="M21.2974 340.923V351.43C21.2974 351.511 21.2651 351.589 21.2076 351.647C21.1501 351.704 21.0722 351.736 20.9909 351.736H16.9982C16.917 351.736 16.839 351.704 16.7815 351.647C16.7241 351.589 16.6918 351.511 16.6918 351.43V340.923C16.6918 340.354 16.9178 339.808 17.3201 339.406C17.7224 339.004 18.268 338.778 18.837 338.778H19.1522C19.7211 338.778 20.2668 339.004 20.6691 339.406C21.0714 339.808 21.2974 340.354 21.2974 340.923Z" fill="#263238"/>
<path d="M13.8629 340.963L16.1567 351.216C16.1744 351.296 16.1599 351.379 16.1164 351.447C16.0729 351.516 16.0038 351.564 15.9245 351.582L12.0282 352.454C11.9488 352.472 11.8657 352.457 11.7971 352.414C11.7285 352.37 11.6799 352.301 11.6622 352.222L9.36836 341.968C9.24415 341.413 9.34559 340.831 9.65036 340.351C9.95513 339.87 10.4383 339.53 10.9935 339.406L11.3011 339.337C11.8563 339.213 12.4381 339.315 12.9185 339.619C13.399 339.924 13.7386 340.407 13.8629 340.963Z" fill="#263238"/>
<path d="M5.86508 343.532L11.1186 352.631C11.1592 352.702 11.1702 352.786 11.1492 352.864C11.1282 352.943 11.0768 353.009 11.0064 353.05L7.54867 355.046C7.47828 355.087 7.39463 355.098 7.31613 355.077C7.23762 355.056 7.17068 355.005 7.13004 354.934L1.87651 345.835C1.59204 345.342 1.51495 344.757 1.6622 344.207C1.80946 343.658 2.16899 343.189 2.66171 342.905L2.93469 342.747C3.42741 342.462 4.01295 342.385 4.5625 342.533C5.11205 342.68 5.58061 343.039 5.86508 343.532Z" fill="#263238"/>
<path d="M235.894 494.449L246.933 489.754L215.08 414.86L204.042 419.555L235.894 494.449Z" fill="#CADDFF"/>
<path d="M216.663 422.017C222.502 415.124 221.648 404.803 214.755 398.964C207.863 393.125 197.542 393.979 191.703 400.872C185.864 407.764 186.718 418.085 193.611 423.924C200.503 429.763 210.824 428.909 216.663 422.017Z" fill="#263238"/>
<path d="M204.217 427.86C201.65 427.861 199.12 427.26 196.829 426.105C194.537 424.949 192.549 423.272 191.025 421.208C189.5 419.145 188.481 416.751 188.05 414.222C187.619 411.692 187.788 409.097 188.543 406.644C189.439 403.752 191.119 401.164 193.397 399.169C195.675 397.174 198.461 395.85 201.446 395.344C204.432 394.837 207.499 395.169 210.307 396.301C213.116 397.433 215.555 399.322 217.354 401.757C219.153 404.193 220.242 407.08 220.499 410.097C220.756 413.114 220.171 416.143 218.81 418.848C217.449 421.552 215.364 423.827 212.788 425.418C210.212 427.009 207.244 427.854 204.217 427.86ZM204.217 395.131C201.194 395.134 198.231 395.975 195.658 397.562C193.085 399.148 191.002 401.418 189.642 404.117C188.282 406.817 187.697 409.841 187.953 412.853C188.209 415.865 189.296 418.747 191.092 421.178C192.888 423.609 195.324 425.494 198.128 426.624C200.932 427.753 203.994 428.083 206.974 427.576C209.954 427.069 212.735 425.745 215.007 423.751C217.28 421.758 218.955 419.173 219.846 416.285C221.118 412.145 220.695 407.671 218.671 403.842C216.647 400.014 213.187 397.146 209.05 395.866C207.468 395.376 205.82 395.128 204.164 395.131H204.217Z" fill="#263238"/>
<path d="M237.3 460.348C239.114 453.82 235.292 447.058 228.765 445.244C222.237 443.43 215.475 447.251 213.661 453.779C211.847 460.306 215.669 467.068 222.196 468.882C228.724 470.696 235.486 466.875 237.3 460.348Z" fill="#263238"/>
<path d="M243.977 505.271C249.514 505.271 254.003 500.782 254.003 495.245C254.003 489.708 249.514 485.22 243.977 485.22C238.44 485.22 233.952 489.708 233.952 495.245C233.952 500.782 238.44 505.271 243.977 505.271Z" fill="#263238"/>
<path d="M230.864 505.342L236.478 496.13L240.419 498.532L234.805 507.743C234.509 508.229 234.032 508.577 233.479 508.711C232.926 508.846 232.342 508.755 231.857 508.459L231.587 508.295C231.346 508.149 231.135 507.956 230.968 507.729C230.8 507.501 230.68 507.243 230.613 506.968C230.545 506.694 230.533 506.409 230.576 506.13C230.62 505.851 230.717 505.583 230.864 505.342Z" fill="#263238"/>
<path d="M244.842 514.127L241.515 504.16C241.489 504.083 241.495 503.999 241.532 503.927C241.568 503.854 241.632 503.799 241.709 503.773L245.496 502.509C245.573 502.483 245.657 502.489 245.73 502.525C245.803 502.561 245.858 502.625 245.884 502.702L249.211 512.669C249.297 512.937 249.329 513.22 249.306 513.5C249.282 513.781 249.204 514.054 249.075 514.305C248.946 514.555 248.769 514.778 248.554 514.96C248.339 515.142 248.09 515.28 247.822 515.366L247.523 515.466C246.99 515.637 246.411 515.592 245.91 515.342C245.409 515.092 245.026 514.656 244.842 514.127Z" fill="#263238"/>
<path d="M251.889 511.738L246.467 502.738C246.446 502.704 246.432 502.666 246.426 502.626C246.42 502.586 246.422 502.545 246.432 502.506C246.442 502.467 246.459 502.431 246.483 502.398C246.507 502.366 246.537 502.338 246.571 502.318L249.991 500.257C250.026 500.236 250.064 500.223 250.104 500.217C250.143 500.211 250.184 500.212 250.223 500.222C250.262 500.232 250.299 500.249 250.331 500.273C250.364 500.297 250.391 500.327 250.412 500.361L255.834 509.361C256.128 509.848 256.216 510.432 256.079 510.985C255.942 511.537 255.591 512.012 255.104 512.306L254.834 512.468C254.347 512.762 253.763 512.85 253.21 512.713C252.658 512.576 252.183 512.225 251.889 511.738Z" fill="#263238"/>
<path d="M258.658 506.777L250.794 499.809C250.733 499.755 250.696 499.679 250.691 499.598C250.686 499.517 250.713 499.437 250.767 499.376L253.409 496.394C253.463 496.334 253.539 496.297 253.62 496.292C253.701 496.287 253.781 496.314 253.842 496.368L261.706 503.336C262.132 503.713 262.391 504.244 262.425 504.812C262.459 505.38 262.267 505.938 261.889 506.364L261.68 506.6C261.302 507.023 260.772 507.279 260.206 507.313C259.639 507.346 259.083 507.153 258.658 506.777Z" fill="#263238"/>
<path d="M78.1318 392.749C78.1318 392.749 79.3139 507.573 143.748 509.815C208.183 512.056 210.889 393.572 210.889 392.749C210.889 392.749 203.28 375.631 144.51 376.296C85.7407 376.962 78.1318 392.749 78.1318 392.749Z" fill="#CADDFF"/>
<path d="M114.311 372.54H168.773C172.327 372.54 175.208 369.659 175.208 366.105V365.168C175.208 361.614 172.327 358.732 168.773 358.732H114.311C110.757 358.732 107.876 361.614 107.876 365.168V366.105C107.876 369.659 110.757 372.54 114.311 372.54Z" fill="#263238"/>
<path d="M139.196 270.438H143.897V246.666H139.196V270.438Z" fill="#263238"/>
<path d="M213.44 341.209C220.864 339.444 225.452 331.996 223.687 324.572C221.923 317.148 214.474 312.56 207.05 314.324C199.626 316.089 195.038 323.538 196.803 330.962C198.567 338.386 206.016 342.973 213.44 341.209Z" fill="#CADDFF"/>
<path d="M73.8299 340.312C81.2717 338.624 85.936 331.223 84.248 323.781C82.5601 316.339 75.1589 311.675 67.7172 313.363C60.2754 315.051 55.6111 322.452 57.2991 329.894C58.9871 337.335 66.3882 342 73.8299 340.312Z" fill="#CADDFF"/>
<path d="M138.81 265.281C138.81 265.281 82.6323 264.607 73.7539 313.298C64.8754 361.989 112.367 362.865 126.035 363.784C132.226 364.205 145.482 364.248 157.18 364.038C183.08 363.592 201.38 358.583 207.605 334.557C208.346 331.74 208.813 328.858 208.997 325.95C210.635 299.578 192.834 263.985 138.81 265.281Z" fill="#CADDFF"/>
<path d="M179.56 339.391L97.9464 340.66C95.9101 340.696 93.8867 340.33 91.992 339.583C90.0973 338.836 88.3685 337.723 86.9046 336.307C85.4407 334.891 84.2704 333.2 83.4607 331.332C82.651 329.463 82.2178 327.453 82.1859 325.416C82.1511 323.38 82.5182 321.356 83.2661 319.461C84.0141 317.566 85.1282 315.838 86.5449 314.374C87.9615 312.91 89.6528 311.74 91.522 310.93C93.3913 310.121 95.4018 309.688 97.4386 309.656L179.052 308.386C181.089 308.349 183.113 308.714 185.008 309.461C186.903 310.207 188.632 311.321 190.097 312.737C191.561 314.153 192.731 315.844 193.54 317.713C194.35 319.583 194.782 321.593 194.813 323.63C194.849 325.667 194.482 327.691 193.735 329.587C192.987 331.482 191.873 333.211 190.456 334.675C189.039 336.139 187.348 337.309 185.478 338.118C183.608 338.928 181.597 339.36 179.56 339.391Z" fill="#263238"/>
<path d="M114.906 323.726C114.717 324.691 114.245 325.578 113.551 326.275C112.857 326.972 111.972 327.448 111.008 327.642C110.044 327.836 109.044 327.74 108.134 327.366C107.225 326.991 106.446 326.356 105.898 325.539C105.35 324.723 105.056 323.762 105.053 322.779C105.051 321.795 105.34 320.833 105.884 320.014C106.429 319.195 107.204 318.555 108.111 318.177C109.019 317.798 110.019 317.697 110.984 317.886C111.625 318.012 112.235 318.263 112.779 318.624C113.323 318.986 113.791 319.451 114.155 319.993C114.519 320.536 114.773 321.144 114.902 321.785C115.031 322.425 115.032 323.085 114.906 323.726Z" fill="white"/>
<path d="M171.899 322.816C171.711 323.781 171.24 324.67 170.547 325.368C169.854 326.066 168.969 326.543 168.005 326.739C167.04 326.934 166.04 326.839 165.129 326.465C164.219 326.092 163.44 325.456 162.891 324.64C162.342 323.824 162.047 322.863 162.044 321.879C162.041 320.895 162.33 319.932 162.875 319.112C163.419 318.293 164.194 317.653 165.102 317.274C166.011 316.895 167.011 316.794 167.976 316.984C169.269 317.238 170.408 317.995 171.144 319.088C171.879 320.182 172.151 321.522 171.899 322.816Z" fill="white"/>
<path d="M163.694 438.349C163.374 442.731 161.762 446.919 159.062 450.385C156.362 453.851 152.695 456.438 148.524 457.819C144.354 459.201 139.868 459.314 135.632 458.146C131.397 456.978 127.604 454.58 124.731 451.256C121.859 447.932 120.037 443.83 119.495 439.471C118.954 435.111 119.717 430.688 121.689 426.762C123.66 422.836 126.752 419.583 130.573 417.414C134.393 415.245 138.771 414.258 143.153 414.577C149.028 415.007 154.493 417.753 158.345 422.211C162.197 426.669 164.121 432.474 163.694 438.349Z" fill="#263238"/>
<path d="M157.679 437.912C157.446 441.105 156.27 444.158 154.302 446.683C152.333 449.209 149.66 451.094 146.62 452.1C143.58 453.106 140.31 453.188 137.224 452.336C134.137 451.483 131.373 449.735 129.28 447.312C127.187 444.888 125.86 441.898 125.466 438.721C125.072 435.543 125.63 432.32 127.068 429.459C128.506 426.598 130.76 424.228 133.546 422.648C136.331 421.068 139.522 420.35 142.716 420.584C144.836 420.738 146.906 421.309 148.806 422.263C150.706 423.218 152.399 424.537 153.789 426.146C155.178 427.756 156.237 429.623 156.905 431.642C157.573 433.661 157.836 435.791 157.679 437.912Z" fill="white"/>
<path d="M149.878 440.854C149.754 439.969 149.704 439.076 149.729 438.183C149.685 436.511 149.65 434.12 149.65 431.178L149.825 431.502L141.498 426.643H141.962L133.557 431.362C133.329 431.748 133.863 430.846 133.811 430.942V432.185V433.437C133.811 434.26 133.811 435.084 133.767 435.889C133.767 437.5 133.706 439.059 133.679 440.565L133.452 440.162L141.682 445.188H141.315C143.88 443.804 145.999 442.701 147.444 441.948C148.221 441.506 149.032 441.125 149.869 440.81C149.216 441.342 148.512 441.808 147.768 442.202C146.349 443.078 144.265 444.312 141.639 445.827L141.455 445.932L141.271 445.827L132.935 440.967L132.708 440.836V440.556C132.708 439.05 132.725 437.491 132.76 435.88C132.76 435.075 132.76 434.26 132.76 433.429V432.185V430.977C132.708 431.073 133.242 430.18 133.014 430.557L141.446 425.881L141.691 425.75L141.919 425.89L150.14 430.916L150.324 431.03V431.24C150.228 434.269 150.132 436.703 150.044 438.358C150.067 439.193 150.011 440.029 149.878 440.854Z" fill="#CADDFF"/>
<path d="M147.031 251.664C150.057 248.638 150.057 243.731 147.031 240.705C144.005 237.679 139.098 237.679 136.072 240.705C133.046 243.731 133.046 248.638 136.072 251.664C139.098 254.69 144.005 254.69 147.031 251.664Z" fill="#CADDFF"/>
<path d="M129.17 321.432C129.538 321.476 129.354 323.184 130.44 325.521C131.055 326.863 131.95 328.057 133.066 329.024C134.374 330.175 136.003 330.899 137.733 331.099C139.473 331.211 141.206 330.796 142.706 329.908C143.976 329.17 145.075 328.17 145.929 326.975C147.417 324.9 147.548 323.157 147.916 323.184C148.065 323.184 148.214 323.621 148.214 324.444C148.181 325.617 147.881 326.767 147.338 327.807C146.523 329.378 145.317 330.714 143.836 331.686C142.006 332.975 139.776 333.572 137.546 333.368C135.316 333.164 133.232 332.174 131.665 330.574C130.387 329.351 129.446 327.819 128.933 326.126C128.568 324.996 128.473 323.796 128.653 322.623C128.802 321.809 129.03 321.406 129.17 321.432Z" fill="white"/>
<path d="M203.972 344.119C203.884 344.119 204.891 342.543 205.863 339.784C207.072 336.172 207.836 332.426 208.139 328.629C208.49 324.846 208.578 321.042 208.402 317.247C208.341 315.785 208.271 314.62 208.201 313.744C208.142 313.321 208.127 312.893 208.157 312.466C208.269 312.879 208.342 313.301 208.376 313.727C208.498 314.541 208.621 315.723 208.726 317.229C209.001 321.056 208.957 324.898 208.595 328.717C208.287 332.55 207.471 336.324 206.169 339.942C205.757 341.033 205.26 342.09 204.681 343.103C204.474 343.461 204.237 343.801 203.972 344.119Z" fill="#263238"/>
<path d="M73.8591 311.669C73.8095 312.095 73.7186 312.514 73.5877 312.922C73.4738 313.316 73.3513 313.797 73.2374 314.375C73.1236 314.953 72.9485 315.583 72.8434 316.31C72.5364 317.998 72.3318 319.702 72.2305 321.415C72.1127 323.51 72.142 325.61 72.3181 327.701C72.5137 329.789 72.8531 331.86 73.3337 333.901C73.7358 335.57 74.2387 337.213 74.8398 338.821C75.0762 339.513 75.3476 340.117 75.5665 340.66C75.7854 341.203 75.9955 341.658 76.1707 342.026C76.3703 342.404 76.5344 342.8 76.661 343.208C76.4118 342.861 76.1949 342.492 76.0131 342.105C75.7655 341.667 75.5405 341.217 75.3388 340.756C75.0937 340.231 74.796 339.627 74.5421 338.935C73.892 337.331 73.3537 335.684 72.931 334.006C72.4186 331.946 72.0615 329.85 71.8628 327.736C71.6843 325.625 71.6668 323.503 71.8102 321.388C71.9323 319.661 72.1722 317.944 72.5282 316.249C72.6595 315.522 72.8434 314.883 72.9923 314.314C73.1411 313.745 73.2812 313.263 73.4126 312.869C73.5286 312.458 73.678 312.057 73.8591 311.669Z" fill="#263238"/>
<path d="M77.8345 392.653L78.1672 392.749L79.1479 393.082L82.8779 394.395L85.5747 395.358C86.5641 395.691 87.6586 396.006 88.8231 396.365C91.1609 397.057 93.7964 397.959 96.791 398.659L101.458 399.859C103.086 400.27 104.803 400.577 106.571 400.962C110.074 401.767 113.917 402.319 117.954 402.967C126.683 404.165 135.481 404.793 144.292 404.85C153.103 404.798 161.901 404.169 170.629 402.967C174.639 402.319 178.457 401.776 182.012 400.962C183.763 400.585 185.514 400.279 187.125 399.867L191.801 398.668C194.787 397.967 197.422 397.066 199.76 396.374C200.925 396.015 202.019 395.7 203.009 395.367L205.705 394.404L209.435 393.09L210.416 392.758C210.526 392.714 210.641 392.682 210.758 392.661L210.434 392.801L209.47 393.178L205.767 394.57L203.009 395.603C202.028 395.945 200.933 396.269 199.769 396.645C197.431 397.363 194.804 398.283 191.81 399.009L187.134 400.235C185.514 400.655 183.789 400.971 182.021 401.365C178.518 402.188 174.666 402.748 170.638 403.414C161.891 404.641 153.072 405.281 144.239 405.331C135.409 405.275 126.593 404.632 117.849 403.405C113.83 402.748 109.969 402.179 106.466 401.356C104.715 400.962 102.964 400.647 101.353 400.226L96.6771 399.001C93.6826 398.274 91.0558 397.354 88.718 396.637C87.5535 396.26 86.4678 395.936 85.4784 395.595L82.7903 394.588L79.0866 393.195L78.1234 392.819C78.022 392.773 77.9253 392.717 77.8345 392.653Z" fill="#263238"/>
<g opacity="0.3">
<path d="M78.1318 392.749C78.1318 392.749 85.7407 376.988 144.51 376.297C203.28 375.605 210.889 392.749 210.889 392.749C210.889 392.749 151.576 421.985 78.1318 392.749Z" fill="black"/>
</g>
<path d="M131.692 268.923C131.625 268.929 131.557 268.929 131.49 268.923L130.903 268.984C130.378 269.037 129.608 269.054 128.618 269.168C125.826 269.439 123.056 269.898 120.326 270.543C106.207 273.776 93.7535 282.052 85.3028 293.816C81.2201 299.469 78.1289 305.776 76.1617 312.466C75.8553 313.412 75.6889 314.165 75.54 314.664L75.3737 315.242C75.3579 315.308 75.3344 315.373 75.3036 315.434C75.292 315.368 75.292 315.299 75.3036 315.233C75.3036 315.075 75.3737 314.883 75.4262 314.646C75.5488 314.138 75.6801 313.377 75.9603 312.413C76.6911 309.693 77.6278 307.032 78.7622 304.454C82.5048 295.887 88.2024 288.315 95.3984 282.346C102.625 276.422 111.138 272.272 120.256 270.228C123.002 269.604 125.792 269.191 128.601 268.993C129.599 268.905 130.352 268.914 130.895 268.888H131.49C131.63 268.905 131.692 268.914 131.692 268.923Z" fill="white"/>
<path d="M76.7309 336.326C76.38 335.784 76.1087 335.194 75.9253 334.575C74.8867 331.649 74.4027 328.555 74.4981 325.451C74.4731 324.807 74.55 324.163 74.7258 323.542C74.8659 323.542 74.6732 326.467 75.2336 330.004C75.794 333.542 76.8622 336.274 76.7309 336.326Z" fill="white"/>
<path d="M61.9946 331.799C61.9946 331.799 61.7932 331.659 61.5218 331.326C61.1349 330.855 60.8029 330.341 60.5324 329.794C59.5974 327.984 59.2396 325.931 59.5073 323.911C59.775 321.892 60.6553 320.003 62.0297 318.499C62.4322 318.038 62.8877 317.627 63.3868 317.273C63.5582 317.129 63.7539 317.016 63.9647 316.94C64.0172 317.01 63.2292 317.545 62.2748 318.692C61.0222 320.192 60.2208 322.016 59.9635 323.954C59.7062 325.891 60.0037 327.861 60.8214 329.636C61.4343 331.029 62.0559 331.747 61.9946 331.799Z" fill="white"/>
<path d="M142.05 240.782C141.367 240.707 140.678 240.692 139.992 240.738C139.176 240.81 138.386 241.067 137.685 241.492C136.983 241.916 136.388 242.495 135.945 243.185C135.502 243.874 135.223 244.657 135.129 245.471C135.036 246.285 135.13 247.11 135.404 247.883C135.641 248.523 135.934 249.142 136.28 249.73C136.28 249.73 136.105 249.625 135.86 249.345C135.523 248.94 135.257 248.481 135.072 247.988C134.737 247.17 134.605 246.284 134.686 245.405C134.767 244.525 135.059 243.678 135.536 242.935C136.014 242.192 136.663 241.575 137.43 241.136C138.196 240.697 139.057 240.45 139.94 240.414C140.464 240.378 140.991 240.428 141.498 240.563C141.892 240.624 142.05 240.756 142.05 240.782Z" fill="white"/>
<path d="M218.366 321.178C218.27 321.283 216.913 319.979 214.864 318.998C212.815 318.017 210.95 317.728 210.967 317.588C212.395 317.553 213.806 317.897 215.056 318.586C216.373 319.137 217.516 320.032 218.366 321.178Z" fill="white"/>
<path d="M98.2703 474.468C98.2304 474.415 98.1952 474.36 98.1653 474.301L97.8763 473.785C97.6136 473.286 97.2634 472.62 96.8081 471.771C96.5804 471.333 96.3353 470.843 96.0551 470.317L95.232 468.566C94.6366 467.297 93.9712 465.852 93.3145 464.188C92.9818 463.374 92.6315 462.516 92.2638 461.631C91.896 460.747 91.5808 459.784 91.2218 458.812C90.4688 456.877 89.8297 454.749 89.0854 452.543C87.7107 448.077 86.3623 443.13 85.1803 437.877C83.9982 432.623 83.1402 427.554 82.4397 422.939C81.7392 418.325 81.2839 414.183 81.0037 410.628C80.8374 408.877 80.7323 407.284 80.6447 405.883C80.5572 404.482 80.4784 403.256 80.4521 402.293C80.4258 401.33 80.3996 400.585 80.3733 400.025V399.438C80.3638 399.372 80.3638 399.304 80.3733 399.237C80.3834 399.304 80.3834 399.372 80.3733 399.438L80.4258 400.025C80.4258 400.577 80.5222 401.338 80.5835 402.284C80.6447 403.23 80.7323 404.473 80.8549 405.865C80.9775 407.257 81.0913 408.851 81.2839 410.602C81.5991 414.105 82.1595 418.272 82.8162 422.86C83.4729 427.449 84.4273 432.492 85.5831 437.745C86.7388 442.999 88.096 447.937 89.4356 452.394C90.1799 454.6 90.8016 456.719 91.5371 458.654C91.8873 459.635 92.22 460.572 92.5527 461.474L93.5684 464.048C94.1988 465.685 94.8468 467.139 95.4247 468.426L96.2127 470.177C96.4666 470.711 96.7118 471.202 96.9307 471.648L97.9113 473.697L98.1565 474.231C98.2096 474.302 98.2482 474.382 98.2703 474.468Z" fill="white"/>
<path d="M64.0088 403.081C61.8725 403.161 59.7333 403.085 57.6082 402.853C55.4731 402.778 53.346 402.553 51.2427 402.179C53.3789 402.098 55.5182 402.174 57.6432 402.406C59.7783 402.48 61.9055 402.706 64.0088 403.081Z" fill="white"/>
<path d="M31.0691 384.387C29.8272 382.578 28.7125 380.685 27.7331 378.722C26.623 376.831 25.6458 374.865 24.8086 372.838C26.0466 374.651 27.1583 376.546 28.1358 378.512C29.2516 380.398 30.2318 382.361 31.0691 384.387Z" fill="white"/>
<path d="M129.354 502.074C129.009 502.068 128.666 502.027 128.329 501.952C127.403 501.787 126.488 501.565 125.589 501.286C124.254 500.88 122.949 500.38 121.684 499.789C120.143 499.046 118.662 498.186 117.253 497.215C115.861 496.22 114.549 495.116 113.331 493.914C112.344 492.925 111.431 491.866 110.599 490.744C110.029 489.996 109.511 489.209 109.049 488.389C108.86 488.101 108.704 487.793 108.585 487.47C108.655 487.426 109.39 488.695 110.853 490.552C111.712 491.631 112.639 492.654 113.628 493.616C116.052 495.971 118.833 497.927 121.868 499.413C123.107 500.012 124.382 500.535 125.685 500.98C127.927 501.733 129.371 501.987 129.354 502.074Z" fill="white"/>
<path d="M142.786 461.57C142.583 461.605 142.378 461.626 142.173 461.631C141.59 461.681 141.006 461.698 140.422 461.684C138.244 461.636 136.084 461.285 134.004 460.642C132.566 460.194 131.166 459.632 129.818 458.961C128.273 458.166 126.807 457.225 125.44 456.15C122.275 453.719 119.781 450.523 118.191 446.862C116.601 443.201 115.968 439.196 116.352 435.224C116.494 433.499 116.802 431.793 117.271 430.128C117.691 428.683 118.233 427.277 118.891 425.925C119.841 423.963 121.061 422.145 122.516 420.522C122.906 420.079 123.321 419.658 123.759 419.262C123.904 419.117 124.059 418.982 124.223 418.859C124.223 418.859 123.645 419.481 122.647 420.61C121.246 422.258 120.068 424.083 119.145 426.039C117.768 428.921 116.948 432.037 116.728 435.224C116.373 439.126 117.005 443.054 118.566 446.649C120.126 450.243 122.566 453.386 125.659 455.791C126.985 456.858 128.41 457.797 129.915 458.593C131.233 459.289 132.606 459.874 134.021 460.344C136.071 461.009 138.199 461.4 140.352 461.509C141.936 461.57 142.786 461.518 142.786 461.57Z" fill="white"/>
<path d="M36.7776 392.618C36.7776 392.688 36.1034 392.364 35.0265 392.11C33.5853 391.794 32.0915 391.809 30.6569 392.154C29.2224 392.498 27.8845 393.162 26.7434 394.097C25.8678 394.824 25.4475 395.402 25.3862 395.358C25.6265 394.779 25.9982 394.263 26.472 393.852C27.6084 392.81 28.9921 392.074 30.4921 391.716C31.9922 391.357 33.5589 391.387 35.044 391.803C35.6768 391.938 36.2701 392.216 36.7776 392.618Z" fill="white"/>
<path d="M166.076 305.558C166.076 305.681 155.324 305.786 142.068 305.786C128.811 305.786 118.05 305.681 118.05 305.558C118.05 305.435 128.803 305.33 142.068 305.33C155.333 305.33 166.076 305.418 166.076 305.558Z" fill="white"/>
<path d="M125.098 360.308C124.967 360.345 124.832 360.366 124.695 360.369L123.522 360.474C123.014 360.518 122.393 360.553 121.666 360.571C120.939 360.588 120.116 360.623 119.206 360.571C117.376 360.571 115.204 360.439 112.796 360.186C110.19 359.882 107.604 359.435 105.047 358.846C102.497 358.234 99.983 357.48 97.5172 356.587C95.5082 355.851 93.5384 355.012 91.6157 354.074C90.7402 353.689 90.066 353.286 89.4268 352.944C88.7876 352.603 88.2447 352.296 87.8069 352.069L86.8 351.456C86.6806 351.39 86.569 351.31 86.4673 351.219C86.4673 351.219 86.6074 351.219 86.8438 351.377L87.8945 351.911C88.341 352.156 88.8927 352.445 89.5406 352.787C90.1885 353.128 90.924 353.478 91.7558 353.846C93.4019 354.617 95.407 355.44 97.6661 356.254C102.576 358.014 107.669 359.213 112.849 359.827C115.23 360.107 117.393 360.264 119.206 360.308C120.081 360.361 120.957 360.308 121.666 360.308C122.375 360.308 123.006 360.308 123.513 360.308H124.687C124.823 360.285 124.962 360.285 125.098 360.308Z" fill="white"/>
<path d="M194.996 399.762C194.932 399.805 194.861 399.837 194.786 399.859L194.156 400.095L191.722 400.971C190.662 401.356 189.366 401.802 187.834 402.249C186.302 402.695 184.577 403.273 182.624 403.764L179.577 404.569C178.518 404.841 177.397 405.068 176.25 405.34C173.956 405.891 171.469 406.329 168.86 406.828C157.495 408.808 145.945 409.515 134.423 408.938C131.797 408.772 129.249 408.641 126.902 408.369C125.729 408.247 124.59 408.159 123.505 408.01L120.379 407.581C118.383 407.345 116.596 406.986 115.029 406.706C113.462 406.425 112.105 406.163 111.01 405.909L108.488 405.348L107.832 405.191C107.756 405.178 107.682 405.155 107.613 405.121C107.691 405.114 107.771 405.114 107.849 405.121L108.506 405.235L111.045 405.716C112.148 405.935 113.497 406.189 115.073 406.425C116.649 406.662 118.426 407.003 120.423 407.222L123.54 407.616C124.625 407.756 125.764 407.835 126.937 407.949C129.275 408.203 131.797 408.317 134.441 408.474C139.738 408.693 145.561 408.702 151.672 408.343C157.784 407.984 163.554 407.222 168.781 406.364C171.408 405.883 173.877 405.489 176.171 404.928C177.318 404.665 178.439 404.447 179.499 404.184L182.546 403.405C184.498 402.941 186.223 402.398 187.755 401.96C189.288 401.522 190.601 401.084 191.66 400.76L194.121 399.972L194.769 399.78L194.996 399.762Z" fill="white"/>
</svg>
