<svg width="182" height="14" viewBox="0 0 182 14" fill="none" xmlns="http://www.w3.org/2000/svg">
<path d="M18.617 3.311V8.151C18.617 8.91367 18.7967 9.47833 19.156 9.845C19.5227 10.2117 20.0213 10.395 20.652 10.395C21.2827 10.395 21.774 10.2153 22.126 9.856C22.4853 9.48933 22.665 8.921 22.665 8.151V3.311H23.435V8.14C23.435 9.11533 23.1747 9.84867 22.654 10.34C22.1407 10.8313 21.4697 11.077 20.641 11.077C19.8123 11.077 19.1377 10.8313 18.617 10.34C18.1037 9.84867 17.847 9.11533 17.847 8.14V3.311H18.617ZM27.9685 4.884C28.6871 4.884 29.2738 5.10767 29.7285 5.555C30.1831 5.995 30.4105 6.63667 30.4105 7.48V11H29.6515V7.568C29.6515 6.91533 29.4865 6.41667 29.1565 6.072C28.8338 5.72733 28.3901 5.555 27.8255 5.555C27.2461 5.555 26.7841 5.73833 26.4395 6.105C26.0948 6.47167 25.9225 7.01067 25.9225 7.722V11H25.1525V4.994H25.9225V6.017C26.1131 5.65033 26.3881 5.37167 26.7475 5.181C27.1068 4.983 27.5138 4.884 27.9685 4.884ZM32.8834 2.86V11H32.1134V2.86H32.8834ZM35.0121 3.861C34.8581 3.861 34.7261 3.806 34.6161 3.696C34.5061 3.586 34.4511 3.45033 34.4511 3.289C34.4511 3.12767 34.5061 2.99567 34.6161 2.893C34.7261 2.783 34.8581 2.728 35.0121 2.728C35.1661 2.728 35.2981 2.783 35.4081 2.893C35.5181 2.99567 35.5731 3.12767 35.5731 3.289C35.5731 3.45033 35.5181 3.586 35.4081 3.696C35.2981 3.806 35.1661 3.861 35.0121 3.861ZM35.3971 4.994V11H34.6271V4.994H35.3971ZM44.2907 4.884C44.9947 4.884 45.5667 5.10767 46.0067 5.555C46.4541 5.995 46.6777 6.63667 46.6777 7.48V11H45.9187V7.568C45.9187 6.91533 45.7611 6.41667 45.4457 6.072C45.1304 5.72733 44.7014 5.555 44.1587 5.555C43.5941 5.555 43.1431 5.742 42.8057 6.116C42.4684 6.49 42.2997 7.03267 42.2997 7.744V11H41.5407V7.568C41.5407 6.91533 41.3831 6.41667 41.0677 6.072C40.7524 5.72733 40.3197 5.555 39.7697 5.555C39.2051 5.555 38.7541 5.742 38.4167 6.116C38.0794 6.49 37.9107 7.03267 37.9107 7.744V11H37.1407V4.994H37.9107V6.028C38.1014 5.654 38.3727 5.37167 38.7247 5.181C39.0767 4.983 39.4691 4.884 39.9017 4.884C40.4224 4.884 40.8771 5.00867 41.2657 5.258C41.6617 5.50733 41.9477 5.874 42.1237 6.358C42.2851 5.88133 42.5601 5.51833 42.9487 5.269C43.3447 5.01233 43.7921 4.884 44.2907 4.884ZM48.7728 3.861C48.6188 3.861 48.4868 3.806 48.3768 3.696C48.2668 3.586 48.2118 3.45033 48.2118 3.289C48.2118 3.12767 48.2668 2.99567 48.3768 2.893C48.4868 2.783 48.6188 2.728 48.7728 2.728C48.9268 2.728 49.0588 2.783 49.1688 2.893C49.2788 2.99567 49.3338 3.12767 49.3338 3.289C49.3338 3.45033 49.2788 3.586 49.1688 3.696C49.0588 3.806 48.9268 3.861 48.7728 3.861ZM49.1578 4.994V11H48.3878V4.994H49.1578ZM51.9025 5.643V9.372C51.9025 9.73867 51.9722 9.99167 52.1115 10.131C52.2508 10.2703 52.4965 10.34 52.8485 10.34H53.5525V11H52.7275C52.1848 11 51.7815 10.8753 51.5175 10.626C51.2535 10.3693 51.1215 9.95133 51.1215 9.372V5.643H50.2855V4.994H51.1215V3.487H51.9025V4.994H53.5525V5.643H51.9025ZM60.2564 7.689C60.2564 7.953 60.249 8.15467 60.2344 8.294H55.2514C55.2734 8.74867 55.3834 9.13733 55.5814 9.46C55.7794 9.78267 56.0397 10.0283 56.3624 10.197C56.685 10.3583 57.037 10.439 57.4184 10.439C57.917 10.439 58.335 10.318 58.6724 10.076C59.017 9.834 59.2444 9.50767 59.3544 9.097H60.1684C60.0217 9.68367 59.7064 10.164 59.2224 10.538C58.7457 10.9047 58.1444 11.088 57.4184 11.088C56.8537 11.088 56.3477 10.9633 55.9004 10.714C55.453 10.4573 55.101 10.098 54.8444 9.636C54.595 9.16667 54.4704 8.62033 54.4704 7.997C54.4704 7.37367 54.595 6.82733 54.8444 6.358C55.0937 5.88867 55.442 5.52933 55.8894 5.28C56.3367 5.03067 56.8464 4.906 57.4184 4.906C57.9904 4.906 58.489 5.03067 58.9144 5.28C59.347 5.52933 59.677 5.86667 59.9044 6.292C60.139 6.71 60.2564 7.17567 60.2564 7.689ZM59.4754 7.667C59.4827 7.21967 59.391 6.83833 59.2004 6.523C59.017 6.20767 58.764 5.96933 58.4414 5.808C58.1187 5.64667 57.7667 5.566 57.3854 5.566C56.8134 5.566 56.3257 5.74933 55.9224 6.116C55.519 6.48267 55.2954 6.99967 55.2514 7.667H59.4754ZM61.3132 7.986C61.3132 7.37 61.4378 6.831 61.6872 6.369C61.9365 5.89967 62.2775 5.54033 62.7102 5.291C63.1502 5.03433 63.6452 4.906 64.1952 4.906C64.7232 4.906 65.1998 5.03433 65.6252 5.291C66.0505 5.54767 66.3622 5.88133 66.5602 6.292V2.86H67.3302V11H66.5602V9.658C66.3768 10.076 66.0762 10.4207 65.6582 10.692C65.2402 10.956 64.7488 11.088 64.1842 11.088C63.6342 11.088 63.1392 10.9597 62.6992 10.703C62.2665 10.4463 61.9255 10.0833 61.6762 9.614C61.4342 9.14467 61.3132 8.602 61.3132 7.986ZM66.5602 7.997C66.5602 7.513 66.4612 7.08767 66.2632 6.721C66.0652 6.35433 65.7938 6.072 65.4492 5.874C65.1118 5.676 64.7378 5.577 64.3272 5.577C63.9018 5.577 63.5205 5.67233 63.1832 5.863C62.8458 6.05367 62.5782 6.33233 62.3802 6.699C62.1895 7.05833 62.0942 7.48733 62.0942 7.986C62.0942 8.47733 62.1895 8.91 62.3802 9.284C62.5782 9.65067 62.8458 9.933 63.1832 10.131C63.5205 10.3217 63.9018 10.417 64.3272 10.417C64.7378 10.417 65.1118 10.318 65.4492 10.12C65.7938 9.922 66.0652 9.63967 66.2632 9.273C66.4612 8.90633 66.5602 8.481 66.5602 7.997ZM74.9226 4.884C75.6412 4.884 76.2279 5.10767 76.6826 5.555C77.1372 5.995 77.3646 6.63667 77.3646 7.48V11H76.6056V7.568C76.6056 6.91533 76.4406 6.41667 76.1106 6.072C75.7879 5.72733 75.3442 5.555 74.7796 5.555C74.2002 5.555 73.7382 5.73833 73.3936 6.105C73.0489 6.47167 72.8766 7.01067 72.8766 7.722V11H72.1066V4.994H72.8766V6.017C73.0672 5.65033 73.3422 5.37167 73.7016 5.181C74.0609 4.983 74.4679 4.884 74.9226 4.884ZM81.6965 11.088C81.1318 11.088 80.6222 10.9633 80.1675 10.714C79.7202 10.4573 79.3645 10.098 79.1005 9.636C78.8438 9.16667 78.7155 8.62033 78.7155 7.997C78.7155 7.37367 78.8475 6.831 79.1115 6.369C79.3755 5.89967 79.7348 5.54033 80.1895 5.291C80.6442 5.03433 81.1538 4.906 81.7185 4.906C82.2832 4.906 82.7928 5.03433 83.2475 5.291C83.7095 5.54033 84.0688 5.89967 84.3255 6.369C84.5895 6.831 84.7215 7.37367 84.7215 7.997C84.7215 8.613 84.5895 9.15567 84.3255 9.625C84.0615 10.0943 83.6985 10.4573 83.2365 10.714C82.7745 10.9633 82.2612 11.088 81.6965 11.088ZM81.6965 10.417C82.0925 10.417 82.4592 10.329 82.7965 10.153C83.1338 9.96967 83.4052 9.69833 83.6105 9.339C83.8232 8.97233 83.9295 8.525 83.9295 7.997C83.9295 7.469 83.8268 7.02533 83.6215 6.666C83.4162 6.29933 83.1448 6.028 82.8075 5.852C82.4702 5.66867 82.1035 5.577 81.7075 5.577C81.3115 5.577 80.9448 5.66867 80.6075 5.852C80.2702 6.028 79.9988 6.29933 79.7935 6.666C79.5955 7.02533 79.4965 7.469 79.4965 7.997C79.4965 8.525 79.5955 8.97233 79.7935 9.339C79.9988 9.69833 80.2665 9.96967 80.5965 10.153C80.9338 10.329 81.3005 10.417 81.6965 10.417ZM86.2571 11.055C86.0958 11.055 85.9601 11 85.8501 10.89C85.7475 10.78 85.6961 10.6443 85.6961 10.483C85.6961 10.3217 85.7475 10.1897 85.8501 10.087C85.9601 9.977 86.0958 9.922 86.2571 9.922C86.4111 9.922 86.5395 9.977 86.6421 10.087C86.7521 10.1897 86.8071 10.3217 86.8071 10.483C86.8071 10.6443 86.7521 10.78 86.6421 10.89C86.5395 11 86.4111 11.055 86.2571 11.055ZM93.7707 11.088C93.2061 11.088 92.6964 10.9633 92.2417 10.714C91.7944 10.4573 91.4387 10.098 91.1747 9.636C90.9181 9.16667 90.7897 8.62033 90.7897 7.997C90.7897 7.37367 90.9217 6.831 91.1857 6.369C91.4497 5.89967 91.8091 5.54033 92.2637 5.291C92.7184 5.03433 93.2281 4.906 93.7927 4.906C94.3574 4.906 94.8671 5.03433 95.3217 5.291C95.7837 5.54033 96.1431 5.89967 96.3997 6.369C96.6637 6.831 96.7957 7.37367 96.7957 7.997C96.7957 8.613 96.6637 9.15567 96.3997 9.625C96.1357 10.0943 95.7727 10.4573 95.3107 10.714C94.8487 10.9633 94.3354 11.088 93.7707 11.088ZM93.7707 10.417C94.1667 10.417 94.5334 10.329 94.8707 10.153C95.2081 9.96967 95.4794 9.69833 95.6847 9.339C95.8974 8.97233 96.0037 8.525 96.0037 7.997C96.0037 7.469 95.9011 7.02533 95.6957 6.666C95.4904 6.29933 95.2191 6.028 94.8817 5.852C94.5444 5.66867 94.1777 5.577 93.7817 5.577C93.3857 5.577 93.0191 5.66867 92.6817 5.852C92.3444 6.028 92.0731 6.29933 91.8677 6.666C91.6697 7.02533 91.5707 7.469 91.5707 7.997C91.5707 8.525 91.6697 8.97233 91.8677 9.339C92.0731 9.69833 92.3407 9.96967 92.6707 10.153C93.0081 10.329 93.3747 10.417 93.7707 10.417ZM100.564 5.643H99.1673V11H98.3973V5.643H97.5613V4.994H98.3973V4.576C98.3973 3.92333 98.5623 3.443 98.8923 3.135C99.2297 2.827 99.7723 2.673 100.52 2.673V3.333C100.022 3.333 99.6697 3.42833 99.4643 3.619C99.2663 3.80967 99.1673 4.12867 99.1673 4.576V4.994H100.564V5.643ZM111.945 4.884C112.649 4.884 113.221 5.10767 113.661 5.555C114.108 5.995 114.332 6.63667 114.332 7.48V11H113.573V7.568C113.573 6.91533 113.415 6.41667 113.1 6.072C112.785 5.72733 112.356 5.555 111.813 5.555C111.248 5.555 110.797 5.742 110.46 6.116C110.123 6.49 109.954 7.03267 109.954 7.744V11H109.195V7.568C109.195 6.91533 109.037 6.41667 108.722 6.072C108.407 5.72733 107.974 5.555 107.424 5.555C106.859 5.555 106.408 5.742 106.071 6.116C105.734 6.49 105.565 7.03267 105.565 7.744V11H104.795V4.994H105.565V6.028C105.756 5.654 106.027 5.37167 106.379 5.181C106.731 4.983 107.123 4.884 107.556 4.884C108.077 4.884 108.531 5.00867 108.92 5.258C109.316 5.50733 109.602 5.874 109.778 6.358C109.939 5.88133 110.214 5.51833 110.603 5.269C110.999 5.01233 111.446 4.884 111.945 4.884ZM118.671 11.088C118.106 11.088 117.597 10.9633 117.142 10.714C116.695 10.4573 116.339 10.098 116.075 9.636C115.818 9.16667 115.69 8.62033 115.69 7.997C115.69 7.37367 115.822 6.831 116.086 6.369C116.35 5.89967 116.709 5.54033 117.164 5.291C117.619 5.03433 118.128 4.906 118.693 4.906C119.258 4.906 119.767 5.03433 120.222 5.291C120.684 5.54033 121.043 5.89967 121.3 6.369C121.564 6.831 121.696 7.37367 121.696 7.997C121.696 8.613 121.564 9.15567 121.3 9.625C121.036 10.0943 120.673 10.4573 120.211 10.714C119.749 10.9633 119.236 11.088 118.671 11.088ZM118.671 10.417C119.067 10.417 119.434 10.329 119.771 10.153C120.108 9.96967 120.38 9.69833 120.585 9.339C120.798 8.97233 120.904 8.525 120.904 7.997C120.904 7.469 120.801 7.02533 120.596 6.666C120.391 6.29933 120.119 6.028 119.782 5.852C119.445 5.66867 119.078 5.577 118.682 5.577C118.286 5.577 117.919 5.66867 117.582 5.852C117.245 6.028 116.973 6.29933 116.768 6.666C116.57 7.02533 116.471 7.469 116.471 7.997C116.471 8.525 116.57 8.97233 116.768 9.339C116.973 9.69833 117.241 9.96967 117.571 10.153C117.908 10.329 118.275 10.417 118.671 10.417ZM122.748 7.986C122.748 7.37 122.872 6.831 123.122 6.369C123.371 5.89967 123.712 5.54033 124.145 5.291C124.585 5.03433 125.08 4.906 125.63 4.906C126.158 4.906 126.634 5.03433 127.06 5.291C127.485 5.54767 127.797 5.88133 127.995 6.292V2.86H128.765V11H127.995V9.658C127.811 10.076 127.511 10.4207 127.093 10.692C126.675 10.956 126.183 11.088 125.619 11.088C125.069 11.088 124.574 10.9597 124.134 10.703C123.701 10.4463 123.36 10.0833 123.111 9.614C122.869 9.14467 122.748 8.602 122.748 7.986ZM127.995 7.997C127.995 7.513 127.896 7.08767 127.698 6.721C127.5 6.35433 127.228 6.072 126.884 5.874C126.546 5.676 126.172 5.577 125.762 5.577C125.336 5.577 124.955 5.67233 124.618 5.863C124.28 6.05367 124.013 6.33233 123.815 6.699C123.624 7.05833 123.529 7.48733 123.529 7.986C123.529 8.47733 123.624 8.91 123.815 9.284C124.013 9.65067 124.28 9.933 124.618 10.131C124.955 10.3217 125.336 10.417 125.762 10.417C126.172 10.417 126.546 10.318 126.884 10.12C127.228 9.922 127.5 9.63967 127.698 9.273C127.896 8.90633 127.995 8.481 127.995 7.997ZM135.957 7.689C135.957 7.953 135.949 8.15467 135.935 8.294H130.952C130.974 8.74867 131.084 9.13733 131.282 9.46C131.48 9.78267 131.74 10.0283 132.063 10.197C132.385 10.3583 132.737 10.439 133.119 10.439C133.617 10.439 134.035 10.318 134.373 10.076C134.717 9.834 134.945 9.50767 135.055 9.097H135.869C135.722 9.68367 135.407 10.164 134.923 10.538C134.446 10.9047 133.845 11.088 133.119 11.088C132.554 11.088 132.048 10.9633 131.601 10.714C131.153 10.4573 130.801 10.098 130.545 9.636C130.295 9.16667 130.171 8.62033 130.171 7.997C130.171 7.37367 130.295 6.82733 130.545 6.358C130.794 5.88867 131.142 5.52933 131.59 5.28C132.037 5.03067 132.547 4.906 133.119 4.906C133.691 4.906 134.189 5.03067 134.615 5.28C135.047 5.52933 135.377 5.86667 135.605 6.292C135.839 6.71 135.957 7.17567 135.957 7.689ZM135.176 7.667C135.183 7.21967 135.091 6.83833 134.901 6.523C134.717 6.20767 134.464 5.96933 134.142 5.808C133.819 5.64667 133.467 5.566 133.086 5.566C132.514 5.566 132.026 5.74933 131.623 6.116C131.219 6.48267 130.996 6.99967 130.952 7.667H135.176ZM138.135 2.86V11H137.365V2.86H138.135ZM141.947 11.088C141.258 11.088 140.693 10.9303 140.253 10.615C139.82 10.2923 139.578 9.856 139.527 9.306H140.319C140.356 9.64333 140.513 9.91833 140.792 10.131C141.078 10.3363 141.459 10.439 141.936 10.439C142.354 10.439 142.68 10.34 142.915 10.142C143.157 9.944 143.278 9.69833 143.278 9.405C143.278 9.19967 143.212 9.031 143.08 8.899C142.948 8.767 142.779 8.66433 142.574 8.591C142.376 8.51033 142.105 8.426 141.76 8.338C141.313 8.22067 140.95 8.10333 140.671 7.986C140.392 7.86867 140.154 7.69633 139.956 7.469C139.765 7.23433 139.67 6.92267 139.67 6.534C139.67 6.24067 139.758 5.96933 139.934 5.72C140.11 5.47067 140.359 5.27267 140.682 5.126C141.005 4.97933 141.371 4.906 141.782 4.906C142.427 4.906 142.948 5.071 143.344 5.401C143.74 5.72367 143.953 6.171 143.982 6.743H143.212C143.19 6.391 143.051 6.10867 142.794 5.896C142.545 5.676 142.2 5.566 141.76 5.566C141.371 5.566 141.056 5.65767 140.814 5.841C140.572 6.02433 140.451 6.25167 140.451 6.523C140.451 6.75767 140.521 6.952 140.66 7.106C140.807 7.25267 140.986 7.37 141.199 7.458C141.412 7.53867 141.698 7.63033 142.057 7.733C142.49 7.85033 142.834 7.964 143.091 8.074C143.348 8.184 143.568 8.34533 143.751 8.558C143.934 8.77067 144.03 9.053 144.037 9.405C144.037 9.72767 143.949 10.0173 143.773 10.274C143.597 10.5233 143.351 10.7213 143.036 10.868C142.721 11.0147 142.358 11.088 141.947 11.088Z" fill="black"/>
<path d="M1 7.76471L3.35294 10.1176L9 4" stroke="#0BC41E" stroke-width="1.5" stroke-linecap="round" stroke-linejoin="round"/>
</svg>
