<svg width="60" height="60" viewBox="0 0 60 60" fill="none" xmlns="http://www.w3.org/2000/svg">
<g id="Group 2407">
<g id="Group 2406">
<g id="Group 2405">
<path id="Vector" d="M30 38.75C32.3206 38.75 34.5462 37.8281 36.1872 36.1872C37.8281 34.5462 38.75 32.3206 38.75 30C38.75 27.6794 37.8281 25.4538 36.1872 23.8128C34.5462 22.1719 32.3206 21.25 30 21.25H29.0278V25.1389H30.9722V23.2722C34.2681 23.7486 36.8056 26.5681 36.8056 30C36.8056 33.7625 33.7625 36.8056 30 36.8056C26.2375 36.8056 23.1944 33.7625 23.1944 30C23.1944 28.3667 23.7681 26.8694 24.7306 25.7028L30 30.9722L31.3708 29.6014L24.7597 22.9903V23.0097C22.6306 24.6042 21.25 27.1319 21.25 30C21.25 34.8319 25.1583 38.75 30 38.75Z" fill="url(#paint0_linear_521_13701)"/>
<path id="Vector_2" d="M29.9996 35.8331C30.5365 35.8331 30.9718 35.3978 30.9718 34.8609C30.9718 34.324 30.5365 33.8887 29.9996 33.8887C29.4626 33.8887 29.0273 34.324 29.0273 34.8609C29.0273 35.3978 29.4626 35.8331 29.9996 35.8331Z" fill="url(#paint1_linear_521_13701)"/>
<path id="Vector_3" d="M34.8589 30.9708C35.3959 30.9708 35.8312 30.5355 35.8312 29.9986C35.8312 29.4616 35.3959 29.0264 34.8589 29.0264C34.322 29.0264 33.8867 29.4616 33.8867 29.9986C33.8867 30.5355 34.322 30.9708 34.8589 30.9708Z" fill="url(#paint2_linear_521_13701)"/>
<path id="Vector_4" d="M25.1363 30.9708C25.6732 30.9708 26.1085 30.5355 26.1085 29.9986C26.1085 29.4616 25.6732 29.0264 25.1363 29.0264C24.5993 29.0264 24.1641 29.4616 24.1641 29.9986C24.1641 30.5355 24.5993 30.9708 25.1363 30.9708Z" fill="url(#paint3_linear_521_13701)"/>
</g>
<path id="Vector_5" d="M31.8869 12.501C32.4014 12.501 32.8616 12.8212 33.0349 13.3007L34.2704 16.7254C34.7131 16.8357 35.0929 16.9459 35.4149 17.0614C35.7666 17.1874 36.2199 17.3782 36.7799 17.6389L39.6568 16.1164C39.8916 15.992 40.1605 15.9471 40.423 15.9884C40.6855 16.0298 40.9276 16.1551 41.1128 16.3457L43.6433 18.9619C43.9793 19.3101 44.0738 19.8194 43.8848 20.2639L42.5355 23.4261C42.7595 23.8373 42.938 24.1891 43.0745 24.4831C43.2215 24.8033 43.4035 25.2443 43.6205 25.8131L46.7652 27.1606C47.2377 27.3618 47.53 27.8343 47.4985 28.34L47.2675 31.9712C47.2517 32.2071 47.167 32.4332 47.0239 32.6214C46.8808 32.8096 46.6856 32.9517 46.4625 33.03L43.484 34.0887C43.3983 34.5 43.309 34.8517 43.2145 35.1492C43.0621 35.6087 42.8881 36.0606 42.693 36.5037L44.1893 39.8111C44.2949 40.0435 44.3233 40.3036 44.2704 40.5533C44.2175 40.8031 44.086 41.0293 43.8953 41.1989L41.0498 43.7399C40.8624 43.9065 40.6286 44.0119 40.3796 44.0419C40.1306 44.0719 39.8785 44.0252 39.6568 43.9079L36.7239 42.3539C36.265 42.5968 35.7916 42.8113 35.3064 42.9961L34.0254 43.4756L32.8879 46.6256C32.8036 46.8562 32.6516 47.0561 32.4517 47.1988C32.2518 47.3415 32.0135 47.4205 31.7679 47.4253L28.4429 47.5006C28.1909 47.5072 27.943 47.4355 27.7333 47.2954C27.5237 47.1553 27.3626 46.9537 27.2722 46.7183L25.9317 43.1711C25.4744 43.0148 25.0215 42.8456 24.5737 42.6636C24.2075 42.5051 23.8468 42.3341 23.4923 42.1509L20.1673 43.5719C19.9482 43.6653 19.7067 43.6931 19.4721 43.6518C19.2375 43.6104 19.02 43.5018 18.8461 43.3391L16.3856 41.0309C16.2024 40.8598 16.0777 40.6354 16.029 40.3895C15.9803 40.1436 16.0102 39.8886 16.1143 39.6607L17.5441 36.5457C17.3539 36.1767 17.1776 35.8008 17.0156 35.4187C16.8264 34.951 16.6513 34.4777 16.4906 33.9995L13.3581 33.0457C13.1035 32.9688 12.8814 32.8099 12.7264 32.5938C12.5713 32.3776 12.492 32.1164 12.5006 31.8505L12.6231 28.4888C12.6319 28.2694 12.7004 28.0567 12.8213 27.8735C12.9422 27.6902 13.1109 27.5436 13.3091 27.4493L16.5956 25.8708C16.7478 25.3126 16.8808 24.8786 16.9981 24.5618C17.1632 24.1388 17.3465 23.7231 17.5476 23.3158L16.1231 20.3059C16.015 20.0773 15.9822 19.8203 16.0293 19.5719C16.0765 19.3235 16.2012 19.0964 16.3856 18.9234L18.8426 16.6029C19.0148 16.4405 19.2303 16.3313 19.4632 16.2884C19.696 16.2456 19.9363 16.2709 20.1551 16.3614L23.4765 17.7334C23.844 17.4884 24.1765 17.2907 24.4775 17.1314C24.8362 16.9407 25.3157 16.7412 25.9195 16.5259L27.0745 13.3042C27.1599 13.0684 27.3159 12.8648 27.5214 12.721C27.7269 12.5772 27.9717 12.5004 28.2225 12.501H31.8869ZM31.0294 14.9107H29.0817L28.023 17.8752C27.9607 18.048 27.86 18.2045 27.7284 18.3327C27.5968 18.4609 27.4379 18.5576 27.2635 18.6154C26.5005 18.8692 25.9492 19.0879 25.6272 19.2576C25.286 19.4379 24.8502 19.7126 24.3323 20.0801C24.1627 20.1991 23.9659 20.2734 23.76 20.296C23.5541 20.3186 23.3459 20.2889 23.1545 20.2096L19.9521 18.8884L18.7043 20.0679L20.0046 22.8154C20.0824 22.9788 20.1219 23.1579 20.1201 23.3389C20.1183 23.52 20.0752 23.6982 19.9941 23.8601C19.6441 24.5618 19.4078 25.0798 19.2888 25.3983C19.1063 25.9285 18.9487 26.4669 18.8163 27.0118C18.7723 27.1823 18.6916 27.3412 18.5798 27.4772C18.4679 27.6133 18.3277 27.7232 18.1688 27.7993L15.0364 29.3025L14.9734 31.0175L17.8083 31.8785C18.1846 31.9922 18.4821 32.281 18.6063 32.652C18.8863 33.492 19.1103 34.1115 19.2713 34.5C19.4846 34.993 19.7206 35.4759 19.9783 35.9472C20.0655 36.1093 20.1139 36.2895 20.1197 36.4735C20.1254 36.6575 20.0884 36.8404 20.0116 37.0077L18.6973 39.8741L19.9416 41.0431L23.06 39.7097C23.228 39.6379 23.4098 39.6044 23.5924 39.6117C23.7749 39.6189 23.9535 39.6667 24.1153 39.7516C24.754 40.0876 25.23 40.3204 25.531 40.4481C25.8372 40.5759 26.4235 40.7894 27.274 41.0799C27.4428 41.1375 27.5968 41.2317 27.7251 41.3557C27.8534 41.4798 27.9527 41.6306 28.016 41.7974L29.2549 45.0716L30.8754 45.0366L31.9202 42.1421C31.9799 41.977 32.0749 41.8268 32.1985 41.702C32.3221 41.5772 32.4713 41.4807 32.6359 41.4194L34.4506 40.7404C34.9091 40.5706 35.4656 40.3029 36.1149 39.9354C36.2945 39.8344 36.4967 39.7803 36.7028 39.7778C36.9089 39.7754 37.1123 39.8247 37.2943 39.9214L40.0541 41.3826L41.6063 39.9984L40.2483 37.0007C40.1786 36.8468 40.1423 36.6798 40.142 36.5109C40.1417 36.3419 40.1774 36.1748 40.2466 36.0207C40.5651 35.3085 40.7803 34.7712 40.8888 34.4282C40.9956 34.0922 41.1058 33.6075 41.2125 32.9845C41.2493 32.7729 41.3418 32.5749 41.4805 32.4109C41.6192 32.247 41.7992 32.123 42.0018 32.0517L44.8858 31.028L45.0117 29.033L42.1768 27.8185C42.0259 27.7543 41.8895 27.66 41.7761 27.5415C41.6627 27.423 41.5746 27.2827 41.517 27.1291C41.3149 26.5712 41.0942 26.0203 40.8556 25.4771C40.6296 25.0041 40.3844 24.5406 40.1206 24.0876C40.0292 23.9276 39.9761 23.7485 39.9654 23.5645C39.9548 23.3805 39.9869 23.1966 40.0593 23.0271L41.328 20.0521L39.9911 18.6697L37.3871 20.0486C37.2171 20.1388 37.0283 20.1878 36.8359 20.1918C36.6435 20.1957 36.4529 20.1545 36.2794 20.0714C35.7266 19.7966 35.1614 19.5478 34.5854 19.3259C34.0942 19.161 33.5934 19.0265 33.0856 18.9234C32.8842 18.8807 32.6969 18.7874 32.5414 18.6524C32.3859 18.5174 32.2673 18.3451 32.1967 18.1517L31.0277 14.909L31.0294 14.9107Z" fill="url(#paint4_linear_521_13701)"/>
</g>
<circle id="Ellipse 65" cx="30" cy="30" r="28.25" stroke="url(#paint5_linear_521_13701)" stroke-width="3.5"/>
</g>
<defs>
<linearGradient id="paint0_linear_521_13701" x1="30" y1="21.25" x2="30" y2="38.75" gradientUnits="userSpaceOnUse">
<stop stop-color="#2F80EC"/>
<stop offset="1" stop-color="#1ADDF9"/>
</linearGradient>
<linearGradient id="paint1_linear_521_13701" x1="29.9996" y1="33.8887" x2="29.9996" y2="35.8331" gradientUnits="userSpaceOnUse">
<stop stop-color="#2F80EC"/>
<stop offset="1" stop-color="#1ADDF9"/>
</linearGradient>
<linearGradient id="paint2_linear_521_13701" x1="34.8589" y1="29.0264" x2="34.8589" y2="30.9708" gradientUnits="userSpaceOnUse">
<stop stop-color="#2F80EC"/>
<stop offset="1" stop-color="#1ADDF9"/>
</linearGradient>
<linearGradient id="paint3_linear_521_13701" x1="25.1363" y1="29.0264" x2="25.1363" y2="30.9708" gradientUnits="userSpaceOnUse">
<stop stop-color="#2F80EC"/>
<stop offset="1" stop-color="#1ADDF9"/>
</linearGradient>
<linearGradient id="paint4_linear_521_13701" x1="30.0004" y1="12.501" x2="30.0004" y2="47.501" gradientUnits="userSpaceOnUse">
<stop stop-color="#2F80EC"/>
<stop offset="1" stop-color="#1ADDF9"/>
</linearGradient>
<linearGradient id="paint5_linear_521_13701" x1="30" y1="0" x2="30" y2="60" gradientUnits="userSpaceOnUse">
<stop stop-color="#2F80EC"/>
<stop offset="1" stop-color="#1ADDF9"/>
</linearGradient>
</defs>
</svg>
