<svg width="60" height="60" viewBox="0 0 60 60" fill="none" xmlns="http://www.w3.org/2000/svg">
<g id="Group 2404">
<path id="Vector" d="M39.3502 53.4367C39.5569 53.23 39.8067 53.1308 40.0995 53.1391C40.3922 53.1473 40.642 53.2551 40.8487 53.4625L43.768 56.3818V44.8596C43.768 44.5668 43.8672 44.3212 44.0656 44.1228C44.264 43.9243 44.5093 43.8255 44.8014 43.8262C45.0942 43.8262 45.3398 43.9254 45.5382 44.1238C45.7366 44.3222 45.8354 44.5675 45.8348 44.8596V56.3818L48.7799 53.4367C48.9866 53.23 49.2322 53.1267 49.5167 53.1267C49.8012 53.1267 50.0465 53.23 50.2525 53.4367C50.4592 53.6434 50.5625 53.889 50.5625 54.1735C50.5625 54.458 50.4592 54.7033 50.2525 54.9093L45.5247 59.637C45.4214 59.7403 45.3094 59.8137 45.1889 59.8571C45.0683 59.9005 44.9391 59.9219 44.8014 59.9212C44.6636 59.9212 44.5344 59.8995 44.4138 59.8561C44.2933 59.8127 44.1813 59.7397 44.078 59.637L39.3244 54.8834C39.135 54.694 39.0402 54.4573 39.0402 54.1735C39.0402 53.8897 39.1436 53.644 39.3502 53.4367Z" fill="url(#paint0_linear_521_13687)"/>
<path id="Vector_2" d="M11.6979 9.65153C11.9046 9.44485 12.1543 9.34564 12.4471 9.35391C12.7399 9.36218 12.9896 9.46999 13.1963 9.67736L16.1156 12.5967L16.1156 1.07441C16.1156 0.781614 16.2148 0.536012 16.4132 0.337602C16.6117 0.139191 16.8569 0.0403303 17.149 0.0410192C17.4418 0.0410192 17.6874 0.140225 17.8858 0.338635C18.0842 0.537045 18.1831 0.782303 18.1824 1.07441L18.1824 12.5967L21.1276 9.65153C21.3342 9.44485 21.5798 9.34151 21.8644 9.34151C22.1489 9.34151 22.3942 9.44485 22.6001 9.65153C22.8068 9.8582 22.9102 10.1038 22.9102 10.3883C22.9102 10.6729 22.8068 10.9181 22.6001 11.1241L17.8724 15.8519C17.7691 15.9552 17.6571 16.0286 17.5365 16.072C17.416 16.1154 17.2868 16.1367 17.149 16.136C17.0112 16.136 16.8821 16.1143 16.7615 16.0709C16.6409 16.0275 16.529 15.9545 16.4256 15.8519L11.6721 11.0983C11.4826 10.9088 11.3879 10.6722 11.3879 10.3883C11.3879 10.1045 11.4912 9.85889 11.6979 9.65153Z" fill="url(#paint1_linear_521_13687)"/>
<path id="Vector_3" d="M29.9268 18.4775C27.6629 18.4775 25.4499 19.1489 23.5675 20.4066C21.6852 21.6643 20.2181 23.452 19.3518 25.5435C18.4854 27.6351 18.2588 29.9365 18.7004 32.1569C19.1421 34.3773 20.2322 36.4168 21.833 38.0176C23.4338 39.6184 25.4733 40.7085 27.6937 41.1502C29.9141 41.5919 32.2155 41.3652 34.3071 40.4988C36.3986 39.6325 38.1863 38.1654 39.444 36.2831C40.7018 34.4007 41.3731 32.1877 41.3731 29.9238C41.3695 26.8892 40.1624 23.9798 38.0166 21.834C35.8708 19.6882 32.9614 18.4811 29.9268 18.4775ZM29.9268 40.0235C27.9292 40.0235 25.9766 39.4312 24.3157 38.3214C22.6548 37.2116 21.3603 35.6343 20.5959 33.7888C19.8315 31.9433 19.6315 29.9126 20.0212 27.9535C20.4109 25.9943 21.3728 24.1948 22.7852 22.7823C24.1977 21.3698 25.9973 20.4079 27.9564 20.0182C29.9156 19.6285 31.9463 19.8285 33.7917 20.593C35.6372 21.3574 37.2146 22.6519 38.3243 24.3128C39.4341 25.9736 40.0264 27.9263 40.0264 29.9238C40.0235 32.6015 38.9585 35.1687 37.065 37.0621C35.1716 38.9555 32.6045 40.0205 29.9268 40.0235ZM34.1911 32.1682C34.1911 32.942 33.8837 33.6842 33.3365 34.2313C32.7893 34.7785 32.0472 35.0859 31.2734 35.0859H30.6001V36.2081C30.6001 36.3867 30.5291 36.5579 30.4029 36.6842C30.2766 36.8105 30.1053 36.8814 29.9268 36.8814C29.7482 36.8814 29.5769 36.8105 29.4507 36.6842C29.3244 36.5579 29.2535 36.3867 29.2535 36.2081V35.0859H27.2335C27.055 35.0859 26.8837 35.015 26.7574 34.8887C26.6312 34.7624 26.5602 34.5912 26.5602 34.4126C26.5602 34.234 26.6312 34.0627 26.7574 33.9365C26.8837 33.8102 27.055 33.7393 27.2335 33.7393H31.2734C31.6901 33.7393 32.0897 33.5737 32.3843 33.2791C32.6789 32.9845 32.8445 32.5849 32.8445 32.1682C32.8445 31.7515 32.6789 31.3519 32.3843 31.0573C32.0897 30.7627 31.6901 30.5971 31.2734 30.5971H28.5801C27.8063 30.5971 27.0642 30.2897 26.517 29.7426C25.9699 29.1954 25.6625 28.4533 25.6625 27.6795C25.6625 26.9056 25.9699 26.1635 26.517 25.6164C27.0642 25.0692 27.8063 24.7618 28.5801 24.7618H29.2535V23.6396C29.2535 23.461 29.3244 23.2898 29.4507 23.1635C29.5769 23.0372 29.7482 22.9663 29.9268 22.9663C30.1053 22.9663 30.2766 23.0372 30.4029 23.1635C30.5291 23.2898 30.6001 23.461 30.6001 23.6396V24.7618H32.62C32.7986 24.7618 32.9699 24.8327 33.0961 24.959C33.2224 25.0853 33.2933 25.2565 33.2933 25.4351C33.2933 25.6137 33.2224 25.7849 33.0961 25.9112C32.9699 26.0375 32.7986 26.1084 32.62 26.1084H28.5801C28.1635 26.1084 27.7639 26.2739 27.4692 26.5686C27.1746 26.8632 27.0091 27.2628 27.0091 27.6795C27.0091 28.0961 27.1746 28.4957 27.4692 28.7904C27.7639 29.085 28.1635 29.2505 28.5801 29.2505H31.2734C32.0472 29.2505 32.7893 29.5579 33.3365 30.1051C33.8837 30.6523 34.1911 31.3944 34.1911 32.1682Z" fill="url(#paint2_linear_521_13687)" stroke="url(#paint3_linear_521_13687)" stroke-width="0.6"/>
<path id="Ellipse 66" d="M37.4424 55.1367C37.6678 55.8979 37.2339 56.7017 36.462 56.8872C31.2706 58.1348 25.8176 57.8549 20.7656 56.0651C15.261 54.1148 10.5152 50.472 7.20818 45.6588C3.9012 40.8455 2.20289 35.1089 2.35665 29.2711C2.49778 23.9132 4.19229 18.7226 7.21882 14.3241C7.66885 13.67 8.57468 13.5533 9.20447 14.0367C9.83425 14.5201 9.94912 15.4204 9.50304 16.0771C6.84401 19.9919 5.35582 24.5959 5.23069 29.3468C5.09291 34.5776 6.61465 39.7179 9.57782 44.0307C12.541 48.3436 16.7934 51.6076 21.7257 53.3551C26.2053 54.9422 31.0369 55.2043 35.6449 54.1262C36.4179 53.9453 37.217 54.3754 37.4424 55.1367Z" fill="url(#paint4_linear_521_13687)"/>
<path id="Ellipse 67" d="M22.5615 4.86331C22.3361 4.10205 22.77 3.29835 23.5419 3.11283C28.7333 1.86521 34.1863 2.14506 39.2383 3.93494C44.7429 5.88516 49.4887 9.52795 52.7957 14.3412C56.1027 19.1545 57.801 24.8911 57.6473 30.7289C57.5061 36.0868 55.8116 41.2774 52.7851 45.6759C52.3351 46.33 51.4292 46.4467 50.7994 45.9633C50.1697 45.4799 50.0548 44.5796 50.5009 43.9229C53.1599 40.0081 54.6481 35.4041 54.7732 30.6532C54.911 25.4224 53.3893 20.2821 50.4261 15.9693C47.4629 11.6564 43.2105 8.39237 38.2782 6.64491C33.7986 5.05782 28.9671 4.79573 24.359 5.8738C23.586 6.05466 22.7869 5.62457 22.5615 4.86331Z" fill="url(#paint5_linear_521_13687)"/>
</g>
<defs>
<linearGradient id="paint0_linear_521_13687" x1="50.5625" y1="51.8737" x2="39.0402" y2="51.8737" gradientUnits="userSpaceOnUse">
<stop stop-color="#2F80EC"/>
<stop offset="1" stop-color="#1ADDF9"/>
</linearGradient>
<linearGradient id="paint1_linear_521_13687" x1="22.9102" y1="8.08853" x2="11.3879" y2="8.08853" gradientUnits="userSpaceOnUse">
<stop stop-color="#2F80EC"/>
<stop offset="1" stop-color="#1ADDF9"/>
</linearGradient>
<linearGradient id="paint2_linear_521_13687" x1="29.9268" y1="18.4775" x2="29.9268" y2="41.3701" gradientUnits="userSpaceOnUse">
<stop stop-color="#2F80EC"/>
<stop offset="1" stop-color="#1ADDF9"/>
</linearGradient>
<linearGradient id="paint3_linear_521_13687" x1="29.9268" y1="18.4775" x2="29.9268" y2="41.3701" gradientUnits="userSpaceOnUse">
<stop stop-color="#2F80EC"/>
<stop offset="1" stop-color="#1ADDF9"/>
</linearGradient>
<linearGradient id="paint4_linear_521_13687" x1="57.5448" y1="32.4544" x2="2.45628" y2="27.544" gradientUnits="userSpaceOnUse">
<stop stop-color="#2F80EC"/>
<stop offset="1" stop-color="#1ADDF9"/>
</linearGradient>
<linearGradient id="paint5_linear_521_13687" x1="2.45913" y1="27.5456" x2="57.5476" y2="32.456" gradientUnits="userSpaceOnUse">
<stop stop-color="#2F80EC"/>
<stop offset="1" stop-color="#1ADDF9"/>
</linearGradient>
</defs>
</svg>
