<svg width="49" height="40" viewBox="0 0 49 40" fill="none" xmlns="http://www.w3.org/2000/svg">
<g id="Group">
<path id="Vector" d="M38 38L46.604 29.396C46.8572 29.1431 46.9997 28.7999 47 28.442V16.625C47 15.7299 46.6444 14.8714 46.0115 14.2385C45.3785 13.6056 44.5201 13.25 43.625 13.25C42.7299 13.25 41.8715 13.6056 41.2385 14.2385C40.6056 14.8714 40.25 15.7299 40.25 16.625V26.75" stroke="white" stroke-width="3" stroke-linecap="round" stroke-linejoin="round"/>
<path id="Vector_2" d="M38 29L39.9305 27.0695C40.0319 26.9682 40.1124 26.8479 40.1672 26.7155C40.222 26.583 40.2502 26.4411 40.25 26.2977C40.2497 26.0954 40.1931 25.8972 40.0866 25.7251C39.9802 25.5531 39.8279 25.414 39.647 25.3235L38.6502 24.8263C37.8058 24.404 36.8499 24.2581 35.918 24.4091C34.986 24.5601 34.1251 25.0005 33.4572 25.6678L31.4435 27.6815C30.5995 28.5252 30.1253 29.6696 30.125 30.863V38M11 38L2.396 29.396C2.14275 29.1431 2.00032 28.7999 2 28.442V16.625C2 15.7299 2.35558 14.8714 2.98851 14.2385C3.62145 13.6056 4.47989 13.25 5.375 13.25C6.27011 13.25 7.12855 13.6056 7.76149 14.2385C8.39442 14.8714 8.75 15.7299 8.75 16.625V26.75" stroke="white" stroke-width="3" stroke-linecap="round" stroke-linejoin="round"/>
<path id="Vector_3" d="M11 29L9.0695 27.0695C8.96818 26.9681 8.88781 26.8478 8.83299 26.7154C8.77817 26.583 8.74997 26.4411 8.75 26.2977C8.75 25.886 8.984 25.5103 9.353 25.3235L10.3497 24.8263C11.1942 24.404 12.1501 24.2581 13.082 24.4091C14.014 24.5601 14.8749 25.0005 15.5428 25.6678L17.5565 27.6815C18.4005 28.5252 18.8747 29.6696 18.875 30.863V38M28.2507 20H20.7493V14.7507H15.5V7.24925H20.7493V2H28.2507V7.24925H33.5V14.7507H28.2507V20Z" stroke="white" stroke-width="3" stroke-linecap="round" stroke-linejoin="round"/>
</g>
</svg>
