<svg width="63" height="40" viewBox="0 0 63 40" fill="none" xmlns="http://www.w3.org/2000/svg">
<g id="Group 2630">
<g id="Group">
<path id="Vector" d="M38.0869 34.4888H46.7796V16.2255C46.7796 15.9461 46.6686 15.6781 46.471 15.4805C46.2734 15.2829 46.0054 15.1719 45.7259 15.1719H22.1943M30.3601 34.4888H26.7602C26.6218 34.4888 26.4848 34.4616 26.3569 34.4086C26.2291 34.3557 26.113 34.2781 26.0151 34.1802C25.9173 34.0824 25.8397 33.9662 25.7867 33.8384C25.7338 33.7106 25.7065 33.5736 25.7065 33.4352V24.8304" stroke="white" stroke-width="3" stroke-linecap="round"/>
<path id="Vector_2" d="M23.9512 20.4375H30.9755" stroke="white" stroke-width="3" stroke-linecap="round" stroke-linejoin="round"/>
<path id="Vector_3" d="M46.7793 20.4375H56.631C56.8346 20.4375 57.0339 20.4966 57.2047 20.6076C57.3755 20.7185 57.5105 20.8766 57.5933 21.0627L60.7367 28.1362C60.7966 28.2705 60.8277 28.4159 60.828 28.5629V33.4325C60.828 33.5709 60.8007 33.7079 60.7478 33.8358C60.6948 33.9636 60.6172 34.0798 60.5194 34.1776C60.4216 34.2754 60.3054 34.353 60.1776 34.406C60.0497 34.459 59.9127 34.4862 59.7743 34.4862H56.4378M46.7793 34.4862H48.5354" stroke="white" stroke-width="3" stroke-linecap="round"/>
<path id="Vector_4" d="M34.4878 38.0009C35.4192 38.0009 36.3126 37.6309 36.9712 36.9722C37.6299 36.3136 37.9999 35.4202 37.9999 34.4887C37.9999 33.5573 37.6299 32.6639 36.9712 32.0053C36.3126 31.3466 35.4192 30.9766 34.4878 30.9766C33.5563 30.9766 32.6629 31.3466 32.0043 32.0053C31.3456 32.6639 30.9756 33.5573 30.9756 34.4887C30.9756 35.4202 31.3456 36.3136 32.0043 36.9722C32.6629 37.6309 33.5563 38.0009 34.4878 38.0009ZM52.0486 38.0009C52.9801 38.0009 53.8735 37.6309 54.5321 36.9722C55.1908 36.3136 55.5608 35.4202 55.5608 34.4887C55.5608 33.5573 55.1908 32.6639 54.5321 32.0053C53.8735 31.3466 52.9801 30.9766 52.0486 30.9766C51.1171 30.9766 50.2238 31.3466 49.5652 32.0053C48.9065 32.6639 48.5365 33.5573 48.5365 34.4887C48.5365 35.4202 48.9065 36.3136 49.5652 36.9722C50.2238 37.6309 51.1171 38.0009 52.0486 38.0009Z" stroke="white" stroke-width="3" stroke-miterlimit="1.5" stroke-linecap="round" stroke-linejoin="round"/>
</g>
<g id="Vector_5">
<path d="M14.9141 30.9718V30.4597H15.4262V30.9718H14.9141ZM18.4262 25.7036V25.1914H18.9384V25.7036H18.4262ZM21.9384 30.9718V30.4597H22.4506V30.9718H21.9384Z" stroke="white" stroke-width="3"/>
<path d="M14.9141 30.9718V30.4597H15.4262V30.9718H14.9141ZM18.4262 25.7036V25.1914H18.9384V25.7036H18.4262ZM21.9384 30.9718V30.4597H22.4506V30.9718H21.9384Z" stroke="white" stroke-width="3"/>
</g>
<path id="Vector 1" d="M35.3657 9.02435L19.0709 2.16339C18.8227 2.05891 18.5429 2.05891 18.2948 2.16339L2.61194 8.76669C2.24113 8.92282 2 9.28598 2 9.68832V30.8535C2 31.4058 2.44772 31.8535 3 31.8535H8.02435C8.57664 31.8535 9.02435 31.4058 9.02435 30.8535V15.1707" stroke="white" stroke-width="3" stroke-linecap="round"/>
</g>
</svg>
