<svg width="37" height="40" viewBox="0 0 37 40" fill="none" xmlns="http://www.w3.org/2000/svg">
<g id="Group">
<g id="Group 2631">
<path id="Vector" d="M13.5441 27.2008C13.2199 27.2008 12.9444 27.0872 12.7178 26.86C12.4911 26.6328 12.3775 26.3573 12.3769 26.0336C12.3769 25.7094 12.4906 25.4337 12.7178 25.2065C12.945 24.9793 13.2202 24.866 13.5433 24.8665H14.7883L12.8041 18.3693C12.454 18.1748 12.1653 17.8895 11.9381 17.5134C11.7109 17.1373 11.5981 16.7353 11.5996 16.3073C11.5996 15.6589 11.8266 15.1078 12.2805 14.6539C12.7344 14.2 13.2853 13.973 13.9332 13.973C14.4389 13.973 14.8897 14.1191 15.2855 14.4111C15.6813 14.7031 15.9565 15.0759 16.1111 15.5292H18.601V14.7511C18.601 14.5307 18.6757 14.3457 18.8251 14.1963C18.9745 14.0469 19.1594 13.9725 19.3799 13.973C19.4966 13.973 19.6102 13.999 19.7207 14.0508C19.8312 14.1027 19.9251 14.1805 20.0024 14.2843L21.3251 13.0393C21.4418 12.9226 21.5814 12.8479 21.7438 12.8152C21.9061 12.7825 22.0648 12.8054 22.22 12.8837L25.2546 14.2843C25.4102 14.3621 25.5173 14.4757 25.5759 14.6251C25.6345 14.7745 25.6312 14.9202 25.5658 15.0624C25.488 15.218 25.3744 15.3186 25.225 15.3643C25.0756 15.4099 24.9298 15.4001 24.7877 15.3347L21.9865 14.0508L20.158 15.7627V16.852L21.9865 18.5249L24.7877 17.2411C24.9303 17.1762 25.0795 17.1697 25.2351 17.2216C25.3907 17.2735 25.501 17.3707 25.5658 17.5134C25.6436 17.669 25.6501 17.8182 25.5852 17.9608C25.5204 18.1035 25.4102 18.2137 25.2546 18.2915L22.22 19.731C22.0643 19.8088 21.9053 19.8314 21.743 19.7987C21.5806 19.766 21.4413 19.6916 21.3251 19.5754L20.0024 18.3304C19.9245 18.4082 19.8307 18.4795 19.7207 18.5444C19.6107 18.6092 19.4971 18.6416 19.3799 18.6416C19.1594 18.6416 18.9747 18.5672 18.8259 18.4183C18.677 18.2695 18.6023 18.0845 18.6018 17.8635V17.0854H16.1118C16.0729 17.1892 16.0307 17.2865 15.985 17.3772C15.9394 17.468 15.8779 17.5653 15.8006 17.669L19.6911 24.8665H21.3251C21.6493 24.8665 21.9251 24.9801 22.1523 25.2073C22.3795 25.4345 22.4928 25.7099 22.4923 26.0336C22.4923 26.3578 22.3787 26.6335 22.1515 26.8607C21.9243 27.088 21.6491 27.2013 21.3259 27.2008H13.5441ZM13.9332 17.0854C14.1536 17.0854 14.3385 17.0107 14.4879 16.8613C14.6373 16.712 14.7118 16.5273 14.7113 16.3073C14.7113 16.0869 14.6368 15.9019 14.4879 15.7526C14.3391 15.6032 14.1541 15.5287 13.9332 15.5292C13.7127 15.5292 13.528 15.6039 13.3791 15.7533C13.2303 15.9027 13.1553 16.0874 13.1543 16.3073C13.1543 16.5278 13.229 16.7127 13.3784 16.8621C13.5278 17.0115 13.7132 17.086 13.9332 17.0854Z" fill="white"/>
<path id="Vector_2" d="M13.6251 6.84615L14.8158 3.77231C15.0166 3.25187 15.37 2.80421 15.8295 2.48797C16.289 2.17173 16.8334 2.00165 17.3912 2H19.662C20.2198 2.00165 20.7642 2.17173 21.2237 2.48797C21.6832 2.80421 22.0365 3.25187 22.2374 3.77231L23.4281 6.84615L27.4712 9.17231L30.7389 8.67385C31.283 8.59999 31.8368 8.68956 32.3299 8.93117C32.823 9.17278 33.2331 9.55553 33.5081 10.0308L34.6158 11.9692C34.8997 12.452 35.0304 13.0096 34.9909 13.5682C34.9513 14.1269 34.7433 14.6605 34.3943 15.0985L32.3728 17.6738V22.3262L34.4497 24.9015C34.7987 25.3395 35.0067 25.8731 35.0463 26.4318C35.0858 26.9904 34.9551 27.548 34.6712 28.0308L33.5635 29.9692C33.2885 30.4445 32.8783 30.8272 32.3853 31.0688C31.8922 31.3104 31.3384 31.4 30.7943 31.3262L27.5266 30.8277L23.4835 33.1538L22.2927 36.2277C22.0919 36.7481 21.7386 37.1958 21.2791 37.512C20.8195 37.8283 20.2752 37.9984 19.7174 38H17.3912C16.8334 37.9984 16.289 37.8283 15.8295 37.512C15.37 37.1958 15.0166 36.7481 14.8158 36.2277L13.6251 33.1538L9.58198 30.8277L6.31429 31.3262C5.77018 31.4 5.2164 31.3104 4.72332 31.0688C4.23023 30.8272 3.82011 30.4445 3.54506 29.9692L2.43737 28.0308C2.15352 27.548 2.02275 26.9904 2.0623 26.4318C2.10185 25.8731 2.30987 25.3395 2.6589 24.9015L4.68044 22.3262V17.6738L2.60352 15.0985C2.25449 14.6605 2.04647 14.1269 2.00692 13.5682C1.96736 13.0096 2.09814 12.452 2.38198 11.9692L3.48967 10.0308C3.76472 9.55553 4.17485 9.17278 4.66793 8.93117C5.16102 8.68956 5.7148 8.59999 6.2589 8.67385L9.5266 9.17231L13.6251 6.84615Z" stroke="white" stroke-width="3" stroke-linecap="round" stroke-linejoin="round"/>
</g>
</g>
</svg>
