<svg width="48" height="36" viewBox="0 0 48 36" fill="none" xmlns="http://www.w3.org/2000/svg">
<path id="Vector" d="M41.9787 0.590591C41.4723 0.262956 40.8931 0.064744 40.2921 0.0133776C39.6911 -0.0379888 39.0867 0.0590636 38.532 0.296003L20.356 7.45448C19.9257 7.62961 19.4655 7.71965 19.0009 7.71961H7.36469C6.38807 7.71961 5.45145 8.10757 4.76088 8.79814C4.0703 9.48871 3.68234 10.4253 3.68234 11.4019V11.6965H0V20.5342H3.68234V20.9171C3.70542 21.8783 4.10354 22.7924 4.79163 23.464C5.47972 24.1356 6.40319 24.5114 7.36469 24.5111L11.7835 33.879C12.0827 34.5098 12.5538 35.0435 13.1426 35.4186C13.7314 35.7938 14.4142 35.9953 15.1123 36H16.9682C17.9397 35.9922 18.8688 35.6008 19.553 34.9111C20.2372 34.2214 20.6212 33.2892 20.6211 32.3177V24.8646L38.532 32.0231C38.9726 32.1984 39.4424 32.2884 39.9166 32.2882C40.6522 32.2763 41.3686 32.0512 41.9787 31.6401C42.4632 31.313 42.8629 30.8751 43.1446 30.3629C43.4264 29.8506 43.5821 29.2786 43.5989 28.6942V3.62484C43.5962 3.0254 43.4473 2.43569 43.1649 1.90691C42.8825 1.37813 42.4753 0.926274 41.9787 0.590591ZM16.9388 11.4019V20.9171H7.36469V11.4019H16.9388ZM16.9388 32.3177H15.0829L11.4595 24.5111H16.9388V32.3177ZM21.7111 21.359C21.3613 21.1803 20.9966 21.0324 20.6211 20.9171V11.1957C20.993 11.119 21.3577 11.0106 21.7111 10.8717L39.9166 3.62484V28.6059L21.7111 21.359ZM43.6873 12.433V19.7977C44.6639 19.7977 45.6006 19.4097 46.2911 18.7192C46.9817 18.0286 47.3697 17.092 47.3697 16.1153C47.3697 15.1387 46.9817 14.2021 46.2911 13.5115C45.6006 12.821 44.6639 12.433 43.6873 12.433Z" fill="white"/>
</svg>
