<svg width="140" height="113" viewBox="0 0 140 113" fill="none" xmlns="http://www.w3.org/2000/svg">
<path d="M128.399 93.1445H4.94287V99.6559H128.399V93.1445Z" fill="#F0F0F0"/>
<path opacity="0.5" d="M128.399 93.1445H4.94287V99.6559H128.399V93.1445Z" fill="white"/>
<path d="M34.0548 23.1072C33.4509 23.3605 32.8581 23.6553 32.2789 23.9903C32.5955 23.6933 32.912 23.384 33.2286 23.0706C34.6379 21.6134 35.9793 20.0506 37.2456 18.3905C35.7596 20.2464 34.1729 21.964 32.4973 23.5305C32.7283 23.0146 32.9314 22.4788 33.1051 21.927C33.4217 20.9137 33.4786 19.8922 32.7284 19.351C31.8009 18.6836 30.6803 19.6806 30.9747 21.3858C31.1544 22.3378 31.5045 23.2227 31.9972 23.97C30.9037 24.9431 29.7617 25.8227 28.5784 26.603L28.4676 26.6763C28.7177 26.1193 28.9388 25.5414 29.1292 24.9467C29.4268 23.9374 29.5027 22.9119 28.7493 22.3747C27.8218 21.7032 26.7012 22.7043 26.9988 24.4095C27.1754 25.3487 27.5177 26.2231 27.9991 26.9652C26.5778 27.8646 25.109 28.6297 23.6465 29.4599L23.4344 29.582C23.7198 29.1879 23.9852 28.7706 24.2289 28.3326C24.7038 27.4373 24.9602 26.4687 24.3271 25.7158C23.5483 24.788 22.2726 25.4228 22.2536 27.1809C22.2545 28.1512 22.43 29.1081 22.7665 29.9767C21.3979 30.7988 20.0976 31.7968 18.8855 32.9557L18.8475 32.9964C19.0115 32.6623 19.1615 32.3172 19.297 31.9627C19.6547 30.9819 19.7877 29.9726 19.0659 29.3581C18.9193 29.2285 18.7517 29.1432 18.5757 29.1089C18.3997 29.0745 18.22 29.0918 18.05 29.1596C17.88 29.2273 17.7241 29.3437 17.5941 29.5001C17.4642 29.6564 17.3634 29.8486 17.2996 30.0622C17.2044 29.8713 17.0753 29.7123 16.9229 29.5982C16.198 29.0611 15.4857 29.643 14.8748 30.4651C14.7165 30.6808 14.5582 30.9127 14.4221 31.1406C14.8934 29.459 15.4858 27.8377 16.1916 26.2978C16.8638 26.6752 17.5886 26.8732 18.322 26.8797C19.7655 26.8797 20.3733 25.3333 19.6642 24.3729C19.0881 23.5956 18.2777 23.8927 17.5117 24.4624C17.2594 24.6515 17.0153 24.858 16.7804 25.081C17.5142 23.6601 18.347 22.3279 19.2685 21.1009C19.8724 21.7288 20.574 22.1826 21.3261 22.4317C22.7285 22.8753 23.6085 21.5689 23.102 20.4172C22.6905 19.4812 21.8358 19.5178 20.9969 19.8312C20.5954 19.9856 20.202 20.1732 19.8193 20.3928C20.2024 19.9126 20.5981 19.4527 21.0001 18.9969C21.5256 18.419 22.07 17.8615 22.624 17.3162C23.2196 17.9272 23.9089 18.3696 24.6468 18.6144C26.0491 19.058 26.9291 17.7516 26.4227 16.5999C26.0111 15.6639 25.1564 15.7005 24.3144 16.0139C24.1181 16.0872 23.9187 16.1767 23.7256 16.2703C24.4569 15.5988 25.1976 14.9436 25.9415 14.2925L26.6284 13.6861C27.2474 14.3526 27.9741 14.8336 28.7557 15.0942C30.158 15.5378 31.0412 14.2314 30.5347 13.0797C30.12 12.1437 29.2685 12.1803 28.4264 12.4937C28.0951 12.6239 27.7691 12.7745 27.4483 12.9454L27.8725 12.5385C28.132 12.2984 28.3916 12.0542 28.6449 11.7978C28.9614 11.4926 29.2621 11.1548 29.5692 10.8292C29.7465 10.6502 29.9142 10.4589 30.082 10.2635C30.7035 10.9372 31.4348 11.4226 32.2219 11.6838C33.6243 12.1274 34.5043 10.8211 33.9978 9.66939C33.5863 8.73338 32.7316 8.77 31.8927 9.08336C31.4223 9.27023 30.9613 9.49448 30.5125 9.75485C31.0855 9.07115 31.6395 8.35897 32.1649 7.6183C32.1998 7.5654 32.2314 7.5125 32.2694 7.46366C32.4942 7.14216 32.7157 6.81659 32.931 6.47881C33.1463 6.14103 33.4248 5.69745 33.6591 5.29049C34.621 3.66725 35.4129 1.88852 36.0142 0C35.384 1.86609 34.5655 3.61748 33.5799 5.2091C32.6051 6.80736 31.5168 8.28557 30.3289 9.62462L30.1991 9.76705C30.469 9.1763 30.708 8.56316 30.9146 7.93166C31.2153 6.9224 31.2881 5.89686 30.5347 5.35967C29.6104 4.68819 28.4866 5.68931 28.7841 7.39447C28.9753 8.40418 29.3569 9.33783 29.8953 10.113L29.6167 10.4223L29.3001 10.7722C29.1165 10.9635 28.9266 11.1467 28.7367 11.3298C28.6354 11.4275 28.5372 11.5292 28.4201 11.6269C28.151 11.8833 27.8788 12.1315 27.6034 12.3757L27.2077 12.7216L26.7582 13.1286C27.0209 12.552 27.2515 11.9523 27.4483 11.3339C27.749 10.3205 27.8218 9.29905 27.0716 8.76186C26.1441 8.09038 25.0203 9.0915 25.3179 10.7967C25.5014 11.7761 25.8651 12.6847 26.3783 13.446L26.0618 13.7227L24.8304 14.7605L24.5866 14.9639L23.8997 15.554L23.6022 15.8104C23.2856 16.0912 22.969 16.3761 22.6525 16.6691C22.9068 16.0834 23.129 15.4756 23.3173 14.85C23.6338 13.8407 23.6908 12.8152 22.9406 12.278C22.0131 11.6065 20.8924 12.6076 21.19 14.3128C21.3759 15.3054 21.7476 16.2246 22.2726 16.9906C21.7345 17.4993 21.2027 18.0202 20.6899 18.5655C20.3132 18.9725 19.9428 19.3795 19.5788 19.819C19.7373 19.4418 19.879 19.0532 20.0029 18.6551C20.3005 17.6417 20.3765 16.6203 19.6231 16.0831C18.6956 15.4116 17.575 16.4127 17.8725 18.1179C18.0492 19.0571 18.3914 19.9315 18.8728 20.6736C17.8476 21.9834 16.9242 23.4186 16.1156 24.9589C16.2074 24.5147 16.2772 24.0634 16.3246 23.6078C16.4259 22.5334 16.3056 21.5241 15.473 21.2311C14.4474 20.8689 13.5484 22.1875 14.1593 23.7584C14.5108 24.6231 15.0136 25.3712 15.6282 25.9437C14.8307 27.6182 14.1648 29.3904 13.6402 31.2342C13.6265 30.8486 13.5969 30.4641 13.5516 30.0825C13.4091 29.0122 13.0736 28.0884 12.2094 28.1088C11.1457 28.1373 10.5728 29.7366 11.5066 31.0145C12.0046 31.682 12.6125 32.1979 13.2857 32.5243C12.9256 33.9477 12.6328 35.3978 12.4088 36.8666C12.3708 37.0985 12.3423 37.3305 12.3075 37.5625C12.2695 37.6072 12.2315 37.652 12.1967 37.7008C12.1587 37.5014 12.1144 37.2939 12.0638 37.1026C11.7978 36.0771 11.3547 35.2265 10.5031 35.4218C9.45851 35.6579 9.08181 37.3427 10.1581 38.4293C10.7051 38.9661 11.3356 39.345 12.0068 39.5403C12.0068 39.581 12.0321 39.6176 12.0479 39.6583C11.9308 40.7612 11.8422 41.8722 11.7884 42.9873C11.7472 43.8012 11.725 44.6517 11.7124 45.486C10.807 45.486 10.1676 46.7638 10.7912 48.1475C11.0544 48.7212 11.3916 49.2332 11.7884 49.6614C11.8643 51.2282 11.9846 52.795 12.1461 54.3496C12.018 54.1974 11.8614 54.0907 11.6915 54.04C11.5217 53.9894 11.3445 53.9965 11.1774 54.0606C10.6076 54.2601 10.3512 54.8502 10.2594 55.5745C10.0566 55.8443 9.94316 56.2046 9.94284 56.5797C9.51866 55.7658 9.11663 54.9519 8.72727 54.0932C9.32164 53.5075 9.81436 52.7687 10.1739 51.9241C10.8545 50.2963 10.0853 48.8678 9.09447 49.2137C8.28409 49.4986 8.10682 50.5567 8.14481 51.6921C8.15747 52.1228 8.18918 52.5521 8.23978 52.9781L7.82193 52.034C7.47372 51.2201 7.18882 50.4061 6.84694 49.5922C6.76463 49.3928 6.69183 49.1853 6.62535 48.9818C7.29226 48.5498 7.88195 47.9442 8.3569 47.2034C9.26541 45.7627 8.71777 44.1796 7.69214 44.2814C6.85643 44.3668 6.52405 45.3639 6.38477 46.4871C6.33049 46.9768 6.29667 47.47 6.28347 47.9644L5.98591 47.0813C5.35215 45.0779 4.83061 43.0189 4.4253 40.9199C5.18017 40.576 5.86582 40.0199 6.43225 39.292C7.44839 37.9694 7.02737 36.3294 5.99857 36.2968C5.16287 36.2724 4.75451 37.2206 4.5266 38.3316C4.41489 38.9214 4.33137 39.5194 4.27652 40.1222C4.05493 38.9176 3.865 37.6968 3.70672 36.4596C3.59909 35.7027 3.52945 34.9335 3.45664 34.1684C4.26802 33.9617 5.03223 33.5205 5.69151 32.8783C6.83111 31.7389 6.58103 30.0296 5.56173 29.8384C4.73552 29.6715 4.23537 30.5465 3.89982 31.6005C3.70336 32.2653 3.53845 32.9448 3.40599 33.6353C3.34268 32.7481 3.26987 31.8569 3.23822 30.9656C3.14326 29.1255 3.14326 27.2793 3.23822 25.4391C3.09371 27.2778 3.04401 29.1267 3.08944 30.9738C3.08944 31.8243 3.14642 32.6708 3.18757 33.5213C3.00673 32.9431 2.79519 32.3815 2.55446 31.8406C2.12395 30.9087 1.54782 30.2128 0.750103 30.6197C-0.234381 31.1406 -0.319851 32.8906 0.914711 33.6556C1.6388 34.0833 2.43308 34.2774 3.22872 34.2213C3.2857 34.9823 3.33635 35.7393 3.42499 36.4922C3.54844 37.713 3.70672 38.8851 3.89349 40.0693C3.69092 39.6156 3.46569 39.1793 3.21923 38.763C2.69691 37.9125 2.05747 37.3102 1.3199 37.8595C0.398727 38.5392 0.487363 40.3013 1.7884 40.8426C2.5246 41.1366 3.30435 41.2036 4.06443 41.0379C4.42558 43.1598 4.90049 45.2471 5.48575 47.2848L5.67252 47.8952C5.50504 47.6101 5.32427 47.3383 5.13121 47.0813C4.54559 46.2999 3.865 45.7831 3.15908 46.4301C2.29489 47.2441 2.52597 48.9533 3.8555 49.3358C4.58926 49.5268 5.3473 49.499 6.07138 49.2544C6.13786 49.462 6.20433 49.6614 6.28347 49.873C6.60003 50.7114 6.88176 51.57 7.21414 52.3921L7.48954 53.1043C7.32493 52.9212 7.15399 52.7462 6.97672 52.5834C6.28664 51.9607 5.53957 51.6189 4.94445 52.4206C4.21004 53.4095 4.68487 55.0536 6.05239 55.1065C6.76433 55.1279 7.47118 54.9472 8.12265 54.5775C8.51518 55.4891 8.9172 56.3885 9.35405 57.2716C9.51549 57.6093 9.6706 57.943 9.8542 58.2768C9.60586 57.9848 9.34367 57.713 9.06915 57.4628C8.37906 56.8402 7.63199 56.4983 7.0337 57.3C6.30246 58.289 6.7773 59.9331 8.14481 59.986C8.92641 59.9981 9.69901 59.7707 10.3987 59.3226C10.6266 59.7296 10.8608 60.1366 11.1014 60.5435C10.5918 61.3045 10.7595 62.5783 11.7947 63.1603C12.2974 63.4297 12.8333 63.5826 13.3775 63.612C13.4408 63.6771 13.5041 63.7422 13.5737 63.8033L13.6054 63.8358C14.2596 66.9776 15.0351 70.0732 15.932 73.1227C16.3119 74.4209 16.7203 75.7069 17.1413 76.9847H13.3426V96.2421H24.9507V76.9685H18.7715C18.2429 75.4831 17.7332 73.9814 17.2584 72.4634C16.4828 69.9728 15.7801 67.4415 15.1691 64.8736C15.2731 64.9129 15.3788 64.9442 15.4857 64.9672C15.6263 65.0038 15.7705 65.0121 15.9131 64.9916L15.7484 63.6527H15.6376C15.5716 63.6407 15.5061 63.6244 15.4414 63.6039C15.2952 63.55 15.1523 63.482 15.014 63.4004L14.8494 63.3027C15.4604 63.029 16.0277 62.6154 16.524 62.0818C17.6224 60.861 17.3122 59.1924 16.2866 59.05C15.4572 58.932 14.9887 59.8354 14.7038 60.9057C14.6183 61.2109 14.5487 61.5284 14.4886 61.8377C14.4284 61.5528 14.3683 61.2679 14.3113 60.983C14.1435 60.1406 13.9947 59.2901 13.8428 58.4395C14.5058 58.1737 15.122 57.7437 15.6566 57.1739C16.7551 55.953 16.4417 54.2885 15.4192 54.1461C14.5867 54.0281 14.1214 54.9315 13.8365 56.0018C13.751 56.3111 13.6782 56.6326 13.6149 56.9501C13.5199 56.3315 13.4281 55.7088 13.3426 55.0862C13.2825 54.6263 13.2255 54.1624 13.1717 53.6984C13.1527 53.0392 13.1432 52.3799 13.1495 51.7166C13.1495 51.3544 13.1495 50.9922 13.1749 50.63C13.7955 50.8821 14.4464 50.9882 15.0963 50.9433C16.5398 50.8212 17.0716 49.2341 16.3182 48.3347C15.7041 47.5981 14.9096 47.9644 14.172 48.5911C13.8412 48.88 13.5241 49.1939 13.2223 49.5312C13.3112 47.9823 13.4943 46.4447 13.77 44.9325C13.9315 44.0418 14.1334 43.164 14.3746 42.3036C15.0365 42.5969 15.7363 42.7226 16.4354 42.6739C17.8789 42.5559 18.4107 40.9687 17.6573 40.0653C17.0463 39.3327 16.2486 39.6949 15.511 40.3257C15.2536 40.5532 15.0063 40.7991 14.7703 41.0623C15.0486 40.2205 15.3723 39.4046 15.7389 38.6206C16.466 37.0388 17.3778 35.61 18.4423 34.3841C18.994 35.0383 19.6465 35.5361 20.3575 35.8451C21.7313 36.423 22.6841 35.2021 22.2568 34.0056C21.8991 33.033 21.0571 32.9882 20.1897 33.2202C19.8555 33.312 19.5257 33.4288 19.2021 33.5702L19.2242 33.5458C20.4054 32.3609 21.6783 31.3353 23.0229 30.4854C23.4972 31.2838 24.0996 31.9417 24.7892 32.4144C26.0744 33.265 27.1666 32.2557 26.8817 30.986C26.6506 29.9523 25.8244 29.7366 24.9412 29.7651C24.5943 29.7893 24.2487 29.8382 23.906 29.9116C25.3337 29.0448 26.7899 28.2268 28.1954 27.2704H28.227C28.8563 27.9688 29.6028 28.4703 30.4081 28.7355C31.8104 29.1831 32.6904 27.8727 32.1839 26.7007C31.7724 25.7647 30.9177 25.8054 30.0789 26.1147C29.8414 26.2042 29.604 26.3141 29.3729 26.428C30.3116 25.7267 31.2213 24.9633 32.0985 24.1409L32.1713 24.2426V24.1897C32.8068 24.8943 33.5594 25.4025 34.3713 25.6751C35.7705 26.1187 36.6537 24.8124 36.1472 23.6403C35.7483 22.7572 34.9063 22.7939 34.0548 23.1072ZM11.9213 59.9819C11.6332 59.5505 11.361 59.0988 11.0951 58.643C11.1584 58.5698 11.228 58.4884 11.2977 58.3988C11.6933 58.5573 12.1027 58.6516 12.5164 58.6797V58.7651L12.7095 58.7122C12.8108 59.3552 12.9153 59.9941 13.0261 60.6331C12.8974 60.4166 12.7294 60.244 12.5368 60.1305C12.3442 60.017 12.1328 59.9659 11.9213 59.9819ZM12.9533 44.6599C12.8551 45.1401 12.7728 45.6203 12.6937 46.1046L12.6462 46.0191C12.6462 45.0261 12.6578 44.0359 12.681 43.0483C12.7032 42.3565 12.7412 41.6687 12.7887 40.9769C13.0491 41.3179 13.3354 41.6247 13.6434 41.8925C13.3754 42.7982 13.1461 43.722 12.9564 44.6599H12.9533ZM14.2511 40.1019C14.2701 39.9228 14.286 39.7397 14.2923 39.5606V39.288C14.4063 39.2432 14.5234 39.1903 14.6373 39.1293C14.5107 39.4508 14.3778 39.7763 14.2543 40.1019H14.2511ZM15.9004 36.6631C15.8457 36.5021 15.7662 36.357 15.6666 36.2367C15.567 36.1164 15.4495 36.0233 15.3211 35.9631C14.5392 35.5561 13.9061 36.2887 13.4028 37.2247L13.3775 37.2695H13.3268C13.2737 37.254 13.2197 37.2445 13.1654 37.241C13.1616 37.1838 13.1692 37.1264 13.1875 37.0741C13.3879 35.604 13.6586 34.1511 13.9979 32.7237C14.7246 32.8423 15.4624 32.7689 16.1663 32.508C16.6012 32.3612 16.9794 32.0153 17.2299 31.5354C17.3692 32.3559 17.6351 33.1322 18.0118 33.8184C17.233 34.67 16.5264 35.6248 15.9036 36.6671L15.9004 36.6631Z" fill="#2F80EC"/>
<path opacity="0.3" d="M34.0548 23.1072C33.4509 23.3605 32.8581 23.6553 32.2789 23.9903C32.5955 23.6933 32.912 23.384 33.2286 23.0706C34.6379 21.6134 35.9793 20.0506 37.2456 18.3906C35.7596 20.2464 34.1729 21.964 32.4973 23.5305C32.7283 23.0146 32.9314 22.4788 33.1051 21.927C33.4217 20.9137 33.4786 19.8922 32.7284 19.351C31.8009 18.6836 30.6803 19.6806 30.9747 21.3858C31.1544 22.3378 31.5045 23.2227 31.9972 23.97C30.9037 24.9431 29.7617 25.8227 28.5784 26.603L28.4676 26.6763C28.7177 26.1193 28.9388 25.5415 29.1292 24.9467C29.4268 23.9374 29.5027 22.9119 28.7493 22.3747C27.8218 21.7032 26.7012 22.7043 26.9988 24.4095C27.1754 25.3487 27.5177 26.2231 27.9991 26.9652C26.5778 27.8646 25.109 28.6297 23.6465 29.4599L23.4344 29.582C23.7198 29.1879 23.9852 28.7706 24.2289 28.3326C24.7038 27.4373 24.9602 26.4687 24.3271 25.7158C23.5483 24.788 22.2726 25.4228 22.2536 27.1809C22.2545 28.1512 22.43 29.1081 22.7664 29.9767C21.3979 30.7988 20.0976 31.7968 18.8855 32.9557L18.8475 32.9964C19.0115 32.6623 19.1615 32.3172 19.297 31.9627C19.6547 30.9819 19.7877 29.9726 19.0659 29.3581C18.9193 29.2285 18.7517 29.1433 18.5757 29.1089C18.3997 29.0745 18.22 29.0918 18.05 29.1596C17.88 29.2273 17.7241 29.3437 17.5941 29.5001C17.4642 29.6564 17.3634 29.8486 17.2996 30.0622C17.2044 29.8713 17.0753 29.7123 16.9229 29.5982C16.198 29.0611 15.4857 29.643 14.8748 30.4651C14.7165 30.6808 14.5582 30.9127 14.4221 31.1406C14.8934 29.459 15.4858 27.8377 16.1916 26.2978C16.8638 26.6752 17.5886 26.8732 18.322 26.8797C19.7655 26.8797 20.3733 25.3333 19.6642 24.3729C19.0881 23.5956 18.2777 23.8927 17.5117 24.4624C17.2594 24.6515 17.0153 24.858 16.7804 25.081C17.5142 23.6601 18.347 22.3279 19.2685 21.1009C19.8724 21.7288 20.574 22.1826 21.3261 22.4317C22.7285 22.8753 23.6085 21.5689 23.102 20.4172C22.6905 19.4812 21.8358 19.5178 20.9969 19.8312C20.5954 19.9856 20.202 20.1732 19.8193 20.3928C20.2024 19.9126 20.5981 19.4527 21.0001 18.9969C21.5256 18.419 22.07 17.8615 22.624 17.3162C23.2196 17.9272 23.9089 18.3696 24.6468 18.6144C26.0491 19.058 26.9291 17.7516 26.4227 16.5999C26.0111 15.6639 25.1564 15.7005 24.3144 16.0139C24.1181 16.0872 23.9187 16.1767 23.7256 16.2703C24.4568 15.5988 25.1976 14.9436 25.9415 14.2925L26.6284 13.6861C27.2474 14.3526 27.9741 14.8336 28.7557 15.0942C30.158 15.5378 31.0412 14.2314 30.5347 13.0797C30.12 12.1437 29.2685 12.1803 28.4264 12.4937C28.0951 12.6239 27.7691 12.7745 27.4483 12.9454L27.8725 12.5385C28.132 12.2984 28.3916 12.0542 28.6449 11.7978C28.9614 11.4926 29.2621 11.1548 29.5692 10.8292C29.7465 10.6502 29.9142 10.4589 30.082 10.2635C30.7035 10.9372 31.4348 11.4226 32.2219 11.6838C33.6243 12.1274 34.5043 10.8211 33.9978 9.66939C33.5863 8.73338 32.7316 8.77 31.8927 9.08336C31.4223 9.27023 30.9613 9.49448 30.5125 9.75485C31.0855 9.07115 31.6395 8.35897 32.1649 7.6183C32.1998 7.5654 32.2314 7.5125 32.2694 7.46366C32.4942 7.14216 32.7157 6.81659 32.931 6.47881C33.1463 6.14103 33.4248 5.69745 33.6591 5.29049C34.621 3.66725 35.4129 1.88853 36.0142 0C35.384 1.86609 34.5655 3.61748 33.5799 5.2091C32.6051 6.80736 31.5168 8.28557 30.3289 9.62462L30.1991 9.76705C30.469 9.1763 30.708 8.56316 30.9146 7.93166C31.2153 6.9224 31.2881 5.89686 30.5347 5.35967C29.6104 4.68819 28.4866 5.68931 28.7841 7.39447C28.9753 8.40418 29.3569 9.33784 29.8953 10.113L29.6167 10.4223L29.3001 10.7722C29.1165 10.9635 28.9266 11.1467 28.7367 11.3298C28.6354 11.4275 28.5372 11.5292 28.4201 11.6269C28.151 11.8833 27.8788 12.1315 27.6034 12.3757L27.2077 12.7216L26.7582 13.1286C27.0209 12.552 27.2515 11.9523 27.4483 11.3339C27.749 10.3205 27.8218 9.29905 27.0716 8.76186C26.1441 8.09038 25.0203 9.0915 25.3179 10.7967C25.5014 11.7761 25.865 12.6847 26.3783 13.446L26.0618 13.7227L24.8304 14.7605L24.5866 14.9639L23.8997 15.554L23.6022 15.8104C23.2856 16.0912 22.969 16.3761 22.6525 16.6691C22.9068 16.0834 23.129 15.4756 23.3173 14.85C23.6338 13.8407 23.6908 12.8152 22.9406 12.278C22.0131 11.6065 20.8924 12.6076 21.19 14.3128C21.3759 15.3054 21.7476 16.2246 22.2726 16.9906C21.7345 17.4993 21.2027 18.0202 20.6899 18.5655C20.3132 18.9725 19.9428 19.3795 19.5788 19.819C19.7373 19.4418 19.879 19.0532 20.0029 18.6551C20.3005 17.6417 20.3765 16.6203 19.6231 16.0831C18.6956 15.4116 17.575 16.4127 17.8725 18.1179C18.0492 19.0571 18.3914 19.9315 18.8728 20.6736C17.8476 21.9834 16.9242 23.4186 16.1156 24.9589C16.2074 24.5147 16.2772 24.0634 16.3246 23.6078C16.4259 22.5334 16.3056 21.5241 15.473 21.2311C14.4474 20.8689 13.5484 22.1875 14.1593 23.7584C14.5108 24.6231 15.0136 25.3712 15.6282 25.9437C14.8307 27.6182 14.1648 29.3904 13.6402 31.2342C13.6265 30.8486 13.5969 30.4641 13.5516 30.0825C13.4091 29.0122 13.0736 28.0884 12.2094 28.1088C11.1457 28.1373 10.5728 29.7366 11.5066 31.0145C12.0046 31.682 12.6125 32.1979 13.2857 32.5243C12.9256 33.9477 12.6328 35.3978 12.4088 36.8666C12.3708 37.0985 12.3423 37.3305 12.3075 37.5625C12.2695 37.6072 12.2315 37.652 12.1967 37.7008C12.1587 37.5014 12.1144 37.2939 12.0638 37.1026C11.7978 36.0771 11.3547 35.2265 10.5031 35.4218C9.45851 35.6579 9.08181 37.3427 10.1581 38.4293C10.7051 38.9661 11.3356 39.345 12.0068 39.5403C12.0068 39.581 12.0321 39.6176 12.0479 39.6583C11.9308 40.7612 11.8422 41.8722 11.7884 42.9873C11.7472 43.8012 11.725 44.6517 11.7124 45.486C10.807 45.486 10.1676 46.7638 10.7912 48.1475C11.0544 48.7212 11.3916 49.2332 11.7884 49.6614C11.8643 51.2282 11.9846 52.795 12.1461 54.3496C12.018 54.1974 11.8614 54.0907 11.6915 54.04C11.5217 53.9894 11.3445 53.9965 11.1774 54.0606C10.6076 54.2601 10.3512 54.8502 10.2594 55.5745C10.0566 55.8443 9.94316 56.2046 9.94284 56.5797C9.51866 55.7658 9.11663 54.9519 8.72727 54.0932C9.32164 53.5075 9.81436 52.7687 10.1739 51.9241C10.8545 50.2963 10.0853 48.8678 9.09447 49.2137C8.28409 49.4986 8.10682 50.5567 8.14481 51.6921C8.15747 52.1228 8.18918 52.5521 8.23978 52.9781L7.82193 52.034C7.47372 51.2201 7.18882 50.4061 6.84694 49.5922C6.76463 49.3928 6.69182 49.1853 6.62535 48.9818C7.29226 48.5498 7.88195 47.9442 8.3569 47.2034C9.26541 45.7627 8.71777 44.1796 7.69214 44.2814C6.85643 44.3668 6.52405 45.3639 6.38477 46.4871C6.33049 46.9768 6.29667 47.47 6.28347 47.9644L5.98591 47.0813C5.35215 45.0779 4.83061 43.0189 4.4253 40.9199C5.18017 40.576 5.86582 40.0199 6.43225 39.292C7.44839 37.9694 7.02737 36.3294 5.99857 36.2968C5.16287 36.2724 4.75451 37.2206 4.5266 38.3316C4.41489 38.9214 4.33137 39.5194 4.27652 40.1222C4.05493 38.9176 3.865 37.6968 3.70672 36.4596C3.59909 35.7027 3.52945 34.9335 3.45664 34.1684C4.26802 33.9617 5.03223 33.5205 5.69151 32.8783C6.83111 31.7389 6.58103 30.0296 5.56173 29.8384C4.73552 29.6715 4.23537 30.5465 3.89982 31.6005C3.70336 32.2653 3.53845 32.9448 3.40599 33.6353C3.34268 32.7481 3.26987 31.8569 3.23822 30.9656C3.14326 29.1255 3.14326 27.2793 3.23822 25.4391C3.09371 27.2778 3.04401 29.1267 3.08944 30.9738C3.08944 31.8243 3.14642 32.6708 3.18757 33.5213C3.00673 32.9431 2.79519 32.3815 2.55446 31.8406C2.12395 30.9087 1.54782 30.2128 0.750103 30.6197C-0.234381 31.1406 -0.319851 32.8906 0.914711 33.6556C1.6388 34.0833 2.43308 34.2774 3.22872 34.2213C3.2857 34.9823 3.33635 35.7393 3.42499 36.4922C3.54844 37.713 3.70672 38.8851 3.89349 40.0693C3.69091 39.6156 3.46569 39.1793 3.21923 38.763C2.69691 37.9125 2.05747 37.3102 1.3199 37.8596C0.398727 38.5392 0.487363 40.3013 1.7884 40.8426C2.5246 41.1366 3.30435 41.2036 4.06443 41.0379C4.42558 43.1598 4.90049 45.2471 5.48575 47.2848L5.67252 47.8952C5.50504 47.6101 5.32427 47.3383 5.13121 47.0813C4.54559 46.2999 3.865 45.7831 3.15908 46.4301C2.29489 47.2441 2.52597 48.9533 3.8555 49.3358C4.58926 49.5268 5.3473 49.499 6.07138 49.2544C6.13786 49.462 6.20433 49.6614 6.28347 49.873C6.60003 50.7114 6.88176 51.57 7.21414 52.3921L7.48954 53.1043C7.32493 52.9212 7.15399 52.7462 6.97672 52.5834C6.28664 51.9607 5.53957 51.6189 4.94445 52.4206C4.21004 53.4095 4.68487 55.0536 6.05239 55.1065C6.76433 55.1279 7.47118 54.9472 8.12265 54.5775C8.51518 55.4891 8.9172 56.3885 9.35405 57.2716C9.51549 57.6093 9.6706 57.9431 9.8542 58.2768C9.60586 57.9848 9.34367 57.713 9.06915 57.4628C8.37906 56.8402 7.63199 56.4983 7.0337 57.3001C6.30246 58.289 6.7773 59.9331 8.14481 59.986C8.92641 59.9981 9.69901 59.7707 10.3987 59.3226C10.6266 59.7296 10.8608 60.1366 11.1014 60.5435C10.5918 61.3046 10.7595 62.5783 11.7947 63.1603C12.2974 63.4297 12.8333 63.5826 13.3775 63.612C13.4408 63.6771 13.5041 63.7422 13.5737 63.8033L13.6054 63.8358C14.2596 66.9776 15.0351 70.0732 15.932 73.1227C16.3119 74.4209 16.7203 75.7069 17.1413 76.9847H13.3426V96.2421H24.9507V76.9685H18.7715C18.2429 75.4831 17.7332 73.9814 17.2584 72.4634C16.4828 69.9728 15.7801 67.4415 15.1691 64.8736C15.2731 64.9129 15.3788 64.9442 15.4857 64.9672C15.6263 65.0038 15.7705 65.0121 15.9131 64.9916L15.7484 63.6527H15.6376C15.5716 63.6407 15.5061 63.6244 15.4414 63.6039C15.2952 63.55 15.1523 63.482 15.014 63.4004L14.8494 63.3027C15.4604 63.029 16.0277 62.6154 16.524 62.0818C17.6224 60.861 17.3122 59.1924 16.2866 59.05C15.4572 58.932 14.9887 59.8354 14.7038 60.9057C14.6183 61.2109 14.5487 61.5284 14.4886 61.8377C14.4284 61.5528 14.3683 61.2679 14.3113 60.983C14.1435 60.1406 13.9947 59.2901 13.8428 58.4395C14.5058 58.1737 15.122 57.7437 15.6566 57.1739C16.7551 55.953 16.4417 54.2885 15.4192 54.1461C14.5867 54.0281 14.1214 54.9315 13.8365 56.0019C13.751 56.3111 13.6782 56.6326 13.6149 56.9501C13.5199 56.3315 13.4281 55.7088 13.3426 55.0862C13.2825 54.6263 13.2255 54.1624 13.1717 53.6985C13.1527 53.0392 13.1432 52.3799 13.1495 51.7166C13.1495 51.3544 13.1495 50.9922 13.1749 50.63C13.7955 50.8821 14.4464 50.9882 15.0963 50.9433C16.5398 50.8212 17.0716 49.2341 16.3182 48.3347C15.7041 47.5981 14.9096 47.9644 14.172 48.5911C13.8412 48.88 13.5241 49.1939 13.2223 49.5312C13.3112 47.9823 13.4943 46.4447 13.77 44.9325C13.9315 44.0418 14.1334 43.164 14.3746 42.3036C15.0365 42.5969 15.7363 42.7226 16.4354 42.6739C17.8789 42.5559 18.4107 40.9687 17.6573 40.0653C17.0463 39.3327 16.2486 39.6949 15.511 40.3257C15.2536 40.5532 15.0063 40.7991 14.7703 41.0623C15.0486 40.2205 15.3723 39.4046 15.7389 38.6206C16.466 37.0388 17.3778 35.61 18.4423 34.3841C18.994 35.0383 19.6465 35.5361 20.3575 35.8451C21.7313 36.423 22.6841 35.2021 22.2568 34.0056C21.8991 33.033 21.0571 32.9882 20.1897 33.2202C19.8555 33.312 19.5257 33.4288 19.2021 33.5702L19.2242 33.5458C20.4054 32.3609 21.6783 31.3353 23.0229 30.4854C23.4972 31.2838 24.0996 31.9417 24.7892 32.4144C26.0744 33.265 27.1666 32.2557 26.8817 30.986C26.6506 29.9523 25.8244 29.7366 24.9412 29.7651C24.5943 29.7893 24.2487 29.8382 23.906 29.9116C25.3337 29.0448 26.7899 28.2268 28.1954 27.2704H28.227C28.8563 27.9688 29.6028 28.4703 30.4081 28.7355C31.8104 29.1831 32.6904 27.8727 32.1839 26.7007C31.7724 25.7647 30.9177 25.8054 30.0789 26.1147C29.8414 26.2042 29.604 26.3141 29.3729 26.428C30.3116 25.7267 31.2213 24.9633 32.0985 24.1409L32.1713 24.2426V24.1897C32.8068 24.8943 33.5594 25.4025 34.3713 25.6751C35.7705 26.1187 36.6537 24.8124 36.1472 23.6403C35.7483 22.7572 34.9063 22.7939 34.0548 23.1072ZM11.9213 59.9819C11.6332 59.5505 11.361 59.0988 11.0951 58.643C11.1584 58.5698 11.228 58.4884 11.2977 58.3988C11.6933 58.5573 12.1027 58.6516 12.5164 58.6797V58.7651L12.7095 58.7122C12.8108 59.3552 12.9153 59.9941 13.0261 60.6331C12.8974 60.4166 12.7294 60.244 12.5368 60.1305C12.3442 60.017 12.1328 59.9659 11.9213 59.9819ZM12.9533 44.6599C12.8551 45.1401 12.7728 45.6203 12.6937 46.1046L12.6462 46.0191C12.6462 45.0261 12.6578 44.0359 12.681 43.0483C12.7032 42.3565 12.7412 41.6687 12.7887 40.9769C13.0491 41.3179 13.3354 41.6247 13.6434 41.8925C13.3754 42.7982 13.1461 43.722 12.9564 44.6599H12.9533ZM14.2511 40.1019C14.2701 39.9228 14.286 39.7397 14.2923 39.5606V39.288C14.4063 39.2432 14.5234 39.1903 14.6373 39.1293C14.5107 39.4508 14.3778 39.7763 14.2543 40.1019H14.2511ZM15.9004 36.6631C15.8457 36.5021 15.7662 36.357 15.6666 36.2367C15.567 36.1164 15.4495 36.0233 15.3211 35.9631C14.5392 35.5562 13.9061 36.2887 13.4028 37.2247L13.3775 37.2695H13.3268C13.2737 37.254 13.2197 37.2445 13.1654 37.241C13.1616 37.1838 13.1692 37.1264 13.1875 37.0741C13.3879 35.604 13.6586 34.1511 13.9979 32.7237C14.7246 32.8423 15.4624 32.7689 16.1663 32.508C16.6012 32.3612 16.9794 32.0153 17.2299 31.5354C17.3692 32.3559 17.6351 33.1322 18.0118 33.8184C17.233 34.67 16.5264 35.6248 15.9036 36.6671L15.9004 36.6631Z" fill="white"/>
<path d="M112.108 78.4829C112.108 78.4829 110.576 74.0837 110.208 73.6319C109.841 73.1802 106.907 71.8128 106.093 68.3414C105.28 64.8701 103.735 55.6036 107.629 56.21C111.522 56.8163 110.576 66.5223 111.991 66.2171C113.406 65.9119 110.813 50.4515 113.289 48.3108C115.764 46.1702 119.775 48.1603 119.303 56.3483C118.831 64.5364 117.888 69.2327 118.714 68.781C119.54 68.3292 121.899 66.6566 121.899 70.1443C121.899 73.6319 119.658 76.0574 118.36 76.208C117.062 76.3586 116.46 76.5132 116.46 76.5132V78.784L112.108 78.4829Z" fill="#2E353A" stroke="#2E353A" stroke-linecap="round" stroke-linejoin="round"/>
<path d="M110.862 69.9652C109.972 68.8827 109.156 67.8328 108.779 66.8683C108.032 64.9433 107.468 59.543 107.468 59.543" stroke="white" stroke-width="0.5" stroke-linecap="round" stroke-linejoin="round"/>
<path d="M106.143 62.1758C106.731 65.3297 106.814 67.7064 108.593 70.4737C109.542 71.9713 112.056 73.241 112.338 74.5637C112.59 76.1551 112.779 77.7619 112.904 79.378L114.31 79.5001C114.31 79.5001 114.595 76.3665 113.791 74.1323" stroke="white" stroke-width="0.5" stroke-linecap="round" stroke-linejoin="round"/>
<path d="M106.533 57.1172C106.533 57.1172 105.482 58.1549 105.855 60.7107" stroke="white" stroke-width="0.5" stroke-linecap="round" stroke-linejoin="round"/>
<path d="M113.267 66.4219L112.71 67.5817" stroke="white" stroke-width="0.5" stroke-linecap="round" stroke-linejoin="round"/>
<path d="M113.459 66.0234L113.266 66.4263" stroke="white" stroke-width="0.5" stroke-linecap="round" stroke-linejoin="round"/>
<path d="M115.332 48.6922C115.332 48.6922 113.179 48.5742 113.179 51.2194C113.179 53.4536 113.711 61.0801 113.597 64.5677" stroke="white" stroke-width="0.5" stroke-linecap="round" stroke-linejoin="round"/>
<path d="M117.017 70.3645C116.966 71.272 116.934 71.915 116.934 72.1592C116.934 73.4818 119.552 68.4274 120.771 68.3093C120.771 68.3093 121.987 68.1873 121.518 71.0767C121.348 72.1493 120.953 73.1417 120.376 73.9471C119.799 74.7524 119.062 75.3401 118.245 75.6468C117.213 76.009 116.371 75.4067 116.184 76.009C116.035 76.717 115.941 77.4422 115.902 78.1741" stroke="white" stroke-width="0.5" stroke-linecap="round" stroke-linejoin="round"/>
<path d="M117.627 51.2031C117.79 52.0758 117.866 52.9714 117.855 53.8687C117.855 56.6849 117.437 63.3265 117.159 67.8112" stroke="white" stroke-width="0.5" stroke-linecap="round" stroke-linejoin="round"/>
<path d="M116.545 48.9375C116.827 49.1446 117.054 49.453 117.201 49.8247" stroke="white" stroke-width="0.5" stroke-linecap="round" stroke-linejoin="round"/>
<path d="M115.025 69.6328L114.958 71.3176" stroke="white" stroke-width="0.5" stroke-linecap="round" stroke-linejoin="round"/>
<path d="M115.516 50.375C115.516 50.375 114.955 50.6151 115.142 53.1423C115.297 55.23 115.142 64.7082 115.069 67.9435" stroke="white" stroke-width="0.5" stroke-linecap="round" stroke-linejoin="round"/>
<path d="M121.415 69.0273C120.612 70.9587 119.326 72.4857 117.765 73.3615C115.232 74.6841 115.144 74.0818 115.144 75.3963C115.144 76.7108 115.049 79.1281 115.049 79.1281" stroke="white" stroke-width="0.5" stroke-linecap="round" stroke-linejoin="round"/>
<path d="M117.903 96.2247H109.724L107.973 80.9922H119.654L117.903 96.2247Z" fill="#2F80EC" stroke="#2E353A" stroke-linecap="round" stroke-linejoin="round"/>
<path d="M120.658 78.6016H106.97V82.6793H120.658V78.6016Z" fill="#2F80EC" stroke="#2E353A" stroke-linecap="round" stroke-linejoin="round"/>
<path d="M72.9918 85.9765V77.707H54.0492V85.9765C54.0461 88.6701 53.3369 91.2838 52.0359 93.3954L51.2065 94.7383H75.8345L75.0051 93.3954C73.7041 91.2838 72.9949 88.6701 72.9918 85.9765Z" fill="white" stroke="#2E353A" stroke-linecap="round" stroke-linejoin="round"/>
<path d="M52.8843 91.7675H74.1567C73.393 89.9952 72.9922 88.0025 72.9918 85.9765V77.707H54.0492V85.9765C54.0488 88.0025 53.648 89.9952 52.8843 91.7675Z" fill="#2F80EC"/>
<path d="M98.9018 6.90234H28.136C26.6535 6.90234 25.4517 8.44742 25.4517 10.3534V76.8629C25.4517 78.7689 26.6535 80.3139 28.136 80.3139H98.9018C100.384 80.3139 101.586 78.7689 101.586 76.8629V10.3534C101.586 8.44742 100.384 6.90234 98.9018 6.90234Z" fill="#2E353A" stroke="#2E353A" stroke-linecap="round" stroke-linejoin="round"/>
<path d="M25.4517 68.9023H101.589V76.8584C101.589 77.7737 101.306 78.6515 100.803 79.2987C100.3 79.9459 99.6169 80.3094 98.9049 80.3094H28.1392C27.4273 80.3094 26.7445 79.9459 26.2411 79.2987C25.7376 78.6515 25.4548 77.7737 25.4548 76.8584V68.9023H25.4517Z" fill="white" stroke="#2E353A" stroke-linecap="round" stroke-linejoin="round"/>
<path d="M97.7592 11.4727H29.2822V63.3357H97.7592V11.4727Z" fill="white" stroke="#2E353A" stroke-linecap="round" stroke-linejoin="round"/>
<path d="M64.9277 74.6077C64.9277 74.2503 64.8453 73.901 64.6908 73.6038C64.5364 73.3067 64.3169 73.0751 64.0601 72.9383C63.8032 72.8016 63.5206 72.7658 63.248 72.8355C62.9754 72.9052 62.7249 73.0773 62.5284 73.33C62.3318 73.5827 62.1979 73.9047 62.1437 74.2552C62.0895 74.6057 62.1173 74.969 62.2237 75.2992C62.3301 75.6293 62.5102 75.9115 62.7413 76.1101C62.9725 76.3086 63.2442 76.4146 63.5222 76.4146C63.895 76.4146 64.2525 76.2242 64.516 75.8854C64.7796 75.5465 64.9277 75.0869 64.9277 74.6077Z" fill="#2E353A" stroke="#2E353A" stroke-linecap="round" stroke-linejoin="round"/>
<path d="M75.8376 94.75H51.2065V96.2273H75.8376V94.75Z" fill="white" stroke="#2E353A" stroke-linecap="round" stroke-linejoin="round"/>
<path d="M97.1156 15.1289H29.8193V19.6747H97.1156V15.1289Z" fill="white" stroke="#2E353A" stroke-linecap="round" stroke-linejoin="round"/>
<path d="M40.9241 19.6752L40.1168 16.8672H29.8193V19.6752V23.3989V61.1282H97.1156V19.6752H40.9241Z" fill="url(#paint0_linear_3013_88988)" stroke="#2E353A" stroke-linecap="round" stroke-linejoin="round"/>
<path d="M75.0726 62.2109H73.2212V62.2324H75.0726V62.2109Z" fill="#EBEBEB"/>
<path d="M68.4394 62.4453H67.9536V62.4668H68.4394V62.4453Z" fill="#EBEBEB"/>
<path d="M73.1655 61.4102H72.0928V61.4316H73.1655V61.4102Z" fill="#EBEBEB"/>
<path d="M55.2697 61.5547H52.8555V61.5762H55.2697V61.5547Z" fill="#EBEBEB"/>
<path d="M56.1224 61.5547H55.7686V61.5762H56.1224V61.5547Z" fill="#EBEBEB"/>
<path d="M62.5086 61.918H57.272V61.9394H62.5086V61.918Z" fill="#EBEBEB"/>
<path d="M63.1712 56.9674H52.3777C52.2932 56.9672 52.2121 56.9151 52.1524 56.8226C52.0926 56.7301 52.0591 56.6047 52.0591 56.474V33.0203C52.0598 32.8904 52.0937 32.7661 52.1534 32.6745C52.213 32.583 52.2936 32.5315 52.3777 32.5312H63.1712C63.2559 32.5312 63.3371 32.5832 63.3969 32.6758C63.4568 32.7683 63.4904 32.8938 63.4904 33.0246V56.474C63.4904 56.6049 63.4568 56.7304 63.3969 56.8229C63.3371 56.9154 63.2559 56.9674 63.1712 56.9674ZM52.3777 32.5485C52.2969 32.5488 52.2194 32.5986 52.1623 32.687C52.1051 32.7755 52.0731 32.8953 52.0731 33.0203V56.474C52.0731 56.599 52.1051 56.7189 52.1623 56.8073C52.2194 56.8958 52.2969 56.9456 52.3777 56.9458H63.1712C63.2521 56.9456 63.3297 56.8958 63.3869 56.8074C63.4441 56.719 63.4763 56.5991 63.4764 56.474V33.0203C63.4763 32.8953 63.4441 32.7754 63.3869 32.687C63.3297 32.5985 63.2521 32.5488 63.1712 32.5485H52.3777Z" fill="#EBEBEB"/>
<path d="M75.2646 56.9674H64.4705C64.3859 56.9672 64.3048 56.9151 64.245 56.8227C64.1852 56.7302 64.1515 56.6048 64.1514 56.474V33.0203C64.1522 32.8903 64.1862 32.766 64.246 32.6745C64.3057 32.5829 64.3864 32.5315 64.4705 32.5312H75.2646C75.3486 32.5317 75.4291 32.5833 75.4886 32.6748C75.5482 32.7664 75.582 32.8905 75.5827 33.0203V56.474C75.5827 56.6046 75.5492 56.7298 75.4896 56.8223C75.43 56.9148 75.3491 56.967 75.2646 56.9674ZM64.4705 32.5485C64.3896 32.5488 64.3121 32.5985 64.2549 32.687C64.1977 32.7754 64.1655 32.8953 64.1653 33.0203V56.474C64.1655 56.5991 64.1977 56.719 64.2549 56.8074C64.3121 56.8958 64.3896 56.9456 64.4705 56.9458H75.2646C75.3455 56.9456 75.4231 56.8958 75.4803 56.8074C75.5375 56.719 75.5697 56.5991 75.5699 56.474V33.0203C75.5697 32.8953 75.5375 32.7754 75.4803 32.687C75.4231 32.5985 75.3455 32.5488 75.2646 32.5485H64.4705Z" fill="#EBEBEB"/>
<path d="M77.8733 60.8164H49.9238V60.8379H77.8733V60.8164Z" fill="#EBEBEB"/>
<path d="M69.3398 53.2704C72.3449 48.6251 72.3449 41.0937 69.3398 36.4484C66.3347 31.8031 61.4624 31.8031 58.4573 36.4484C55.4522 41.0937 55.4522 48.6251 58.4573 53.2704C61.4624 57.9156 66.3347 57.9156 69.3398 53.2704Z" fill="#E6E6E6"/>
<path d="M64.9284 33.8255L65.8983 34.7251V36.1586C65.8983 36.1586 65.1627 36.003 64.9284 35.3809C64.9284 35.3809 65.1291 35.2495 64.5601 34.7251C63.991 34.2006 64.1252 33.5663 64.9284 33.8255Z" fill="#FAFAFA"/>
<path d="M64.392 45.207L63.833 45.6209C63.833 45.6209 63.6653 46.1212 63.6994 46.1039C63.7335 46.0867 63.577 47.1408 63.6099 47.1555C63.6429 47.1702 63.2868 47.6213 63.2868 47.6213L63.1191 48.259V49.0003L63.9246 50.6896L64.5133 51.2081L64.0001 55.5518L64.212 55.6728L66.8884 52.6381L67.0667 51.8976L67.8588 51.4146L68.2825 49.708L68.7621 48.8439C68.7621 48.8439 68.8069 47.9799 68.7621 47.9997C68.7174 48.0196 68.5056 48.1371 68.5056 48.1371L68.1042 47.6714C68.1042 47.6714 67.2568 47.4303 67.2098 47.4986C67.1629 47.5668 67.0321 46.6967 67.0321 46.6967L66.2495 46.3606L65.435 45.5328L64.8442 45.7056L64.392 45.207Z" fill="#FAFAFA"/>
<path d="M62.875 43.0703H63.306L63.9208 43.5672L65.0657 44.0104L65.1216 44.1521L63.9868 44.1245L64.197 43.9214L64.0293 43.7555L63.572 43.7391L63.6279 43.6527L63.155 43.2786C63.155 43.2786 62.8588 43.1697 62.8476 43.2215L62.7246 43.2449L62.875 43.0703Z" fill="#FAFAFA"/>
<path d="M63.7624 44.1573L63.6579 44L63.4868 44.013L63.5578 44.1573H63.7624Z" fill="#FAFAFA"/>
<path d="M66.47 33.8242H66.3364L67.2895 34.7073L67.4404 34.9588L68.3773 35.7935L68.559 36.1572L68.7093 36.9591L69.2124 37.5795L68.9782 37.8387L69.5137 38.8756H69.6976L69.7647 38.4617L69.3628 37.1656L69.9218 37.6478C69.9218 37.6478 68.7261 34.7747 66.47 33.8242Z" fill="#FAFAFA"/>
<path d="M70.391 38.5854H70.2462L70.0048 38.0938L69.7471 39.1808C69.7471 39.1808 69.9064 40.4484 69.9187 40.5261C69.931 40.6039 69.8471 40.7854 69.8471 40.7854L69.9187 42.1817L70.1037 42.6716L70.2457 43.8606L70.8762 45.2051L71.3894 44.0749L71.4727 44.3523C71.4727 44.3523 71.5571 41.4818 70.391 38.5854Z" fill="#FAFAFA"/>
<path d="M66.6359 34.9609H66.4688V35.2772L66.6359 35.4327H66.7868V35.1968L66.6359 34.9609Z" fill="#FAFAFA"/>
<path d="M67.6562 35.5859L67.9072 35.9998L67.9738 36.3472L68.2247 36.7239L68.3254 36.4915L68.5093 36.7239V36.4656L68.3757 36.1554L67.6562 35.5859Z" fill="#FAFAFA"/>
<path d="M65.8986 38.3288C65.8986 38.3288 64.7247 39.0011 64.292 39.415C63.8594 39.8289 63.9276 40.7111 63.9276 40.7111L63.2216 41.3272L63.3893 42.517L63.2216 42.6717L62.9538 41.6884C62.9538 41.6884 62.017 41.4819 61.6257 41.5855C61.2344 41.6892 61.1472 42.8817 61.1472 42.8817L61.3825 43.8624L61.918 43.9142L61.9851 43.3457L62.5536 43.3967L62.1858 44.4828L62.8566 44.6383L62.922 45.4013L63.5927 46.1902C63.5927 46.1902 63.7263 46.4495 63.5927 46.5523C63.4591 46.6551 60.2802 43.7077 59.9789 42.9836C59.6776 42.2595 59.2902 40.2678 59.5937 38.8715C59.8386 37.7369 60.2925 36.6888 60.4367 36.0027L60.4417 35.9794C60.4462 35.9608 60.4498 35.9418 60.4523 35.9224C60.4931 35.6528 60.3545 35.4817 60.2461 35.4342C60.1292 35.3823 59.9107 35.5897 59.9107 35.5897H59.4819L59.9252 35.1983L60.1097 34.8976L60.2265 34.736L60.6614 34.4517L60.6452 34.2443C61.1131 33.8304 61.4647 33.7656 61.4647 33.7656L61.1466 34.1406H61.482L61.5502 34.7248H62.221C62.221 34.7248 62.0533 34.6565 62.4552 34.3143C62.8571 33.9721 64.1584 33.8252 64.1584 33.8252L63.7571 34.7248L64.6246 35.4843L64.524 36.0528L63.9253 35.7936V35.4843L63.5542 35.1386L63.5206 35.7435L63.387 36.0027L63.2193 35.7962L62.7476 36.5203L63.586 37.7845L63.7235 36.1583L64.9282 36.5722L65.8986 38.3288Z" fill="#FAFAFA"/>
<path d="M55.7282 38.347C55.9148 37.1246 55.425 35.8997 54.6342 35.6112C53.8434 35.3226 53.051 36.0797 52.8643 37.3022C52.6777 38.5246 53.1675 39.7495 53.9583 40.038C54.7491 40.3266 55.5415 39.5695 55.7282 38.347Z" fill="#FAFAFA"/>
<path d="M55.0883 39.6219C55.5549 39.3231 55.7765 38.4962 55.5832 37.7749C55.3899 37.0536 54.855 36.711 54.3884 37.0098C53.9217 37.3086 53.7001 38.1355 53.8934 38.8568C54.0867 39.5781 54.6217 39.9206 55.0883 39.6219Z" fill="#EBEBEB"/>
<path d="M54.8792 39.0719C55.1021 39.0719 55.2828 38.7926 55.2828 38.4481C55.2828 38.1035 55.1021 37.8242 54.8792 37.8242C54.6563 37.8242 54.4756 38.1035 54.4756 38.4481C54.4756 38.7926 54.6563 39.0719 54.8792 39.0719Z" fill="#E0E0E0"/>
<path d="M54.9239 37.413C54.9239 37.514 54.9045 37.6127 54.8682 37.6967C54.8319 37.7807 54.7803 37.8462 54.72 37.8848C54.6596 37.9235 54.5932 37.9336 54.5291 37.9139C54.465 37.8942 54.4061 37.8455 54.3599 37.7741C54.3137 37.7027 54.2823 37.6117 54.2695 37.5126C54.2568 37.4136 54.2633 37.3109 54.2883 37.2176C54.3133 37.1243 54.3557 37.0445 54.41 36.9884C54.4643 36.9323 54.5282 36.9023 54.5935 36.9023C54.6812 36.9023 54.7652 36.9561 54.8271 37.0519C54.8891 37.1477 54.9239 37.2776 54.9239 37.413Z" fill="white"/>
<path d="M70.8784 35.735L72.5492 33.7969L72.8533 34.9003L71.178 36.8177L70.8784 35.735Z" fill="#F5F5F5"/>
<path d="M70.8742 35.7341C70.8759 35.7373 70.878 35.7398 70.8805 35.7411C70.883 35.7425 70.8856 35.7428 70.8882 35.7419C70.8897 35.7424 70.8912 35.7424 70.8927 35.7419L71.0704 35.5363L71.1342 35.7704L70.9525 35.9804C70.9497 35.9837 70.9479 35.9885 70.9474 35.9938C70.9468 35.9991 70.9477 36.0045 70.9497 36.0089C70.9513 36.0121 70.9535 36.0145 70.956 36.0159C70.9584 36.0173 70.9611 36.0176 70.9637 36.0167H70.9681L71.1448 35.8128L71.2085 36.0478L71.028 36.2543C71.0256 36.2583 71.0242 36.2636 71.0242 36.269C71.0242 36.2745 71.0256 36.2797 71.028 36.2837C71.0295 36.287 71.0317 36.2895 71.0342 36.2907C71.0367 36.292 71.0394 36.2919 71.0419 36.2906C71.0419 36.2906 71.0447 36.2906 71.0464 36.2906L71.2214 36.0798L71.2845 36.3139L71.1062 36.5187C71.1039 36.5217 71.1023 36.5257 71.1017 36.5302C71.101 36.5347 71.1014 36.5394 71.1027 36.5436C71.104 36.5478 71.1061 36.5511 71.1088 36.5532C71.1114 36.5553 71.1145 36.5559 71.1174 36.555C71.1188 36.5558 71.1204 36.5558 71.1219 36.555L71.2952 36.3563L71.3589 36.5913L71.1817 36.7935C71.1789 36.7968 71.1771 36.8016 71.1765 36.8069C71.176 36.8122 71.1769 36.8176 71.1789 36.822C71.1804 36.8254 71.1826 36.828 71.1851 36.8293C71.1876 36.8307 71.1903 36.8309 71.1929 36.8298C71.1943 36.8303 71.1959 36.8303 71.1973 36.8298L72.0995 35.799L72.2946 36.1973C72.2962 36.2005 72.2984 36.2029 72.3009 36.2043C72.3034 36.2057 72.306 36.2059 72.3086 36.2051C72.3101 36.2055 72.3116 36.2055 72.3131 36.2051C72.3145 36.2035 72.3157 36.2016 72.3166 36.1993C72.3176 36.197 72.3182 36.1944 72.3184 36.1917C72.3187 36.1891 72.3186 36.1864 72.3182 36.1837C72.3177 36.1811 72.3169 36.1787 72.3159 36.1766L72.1208 35.7782L72.8631 34.9306C72.866 34.9273 72.868 34.9225 72.8685 34.9171C72.8691 34.9116 72.8683 34.9061 72.8662 34.9016C72.8641 34.8971 72.861 34.8941 72.8575 34.8932C72.854 34.8923 72.8504 34.8936 72.8475 34.8969L72.6647 35.106L72.5976 34.8606L72.7865 34.6437C72.7883 34.6424 72.7899 34.6404 72.7911 34.6381C72.7923 34.6357 72.7932 34.6329 72.7937 34.63C72.7942 34.627 72.7942 34.624 72.7938 34.621C72.7934 34.618 72.7926 34.6152 72.7915 34.6127C72.7903 34.6103 72.7888 34.6083 72.7871 34.6068C72.7853 34.6054 72.7834 34.6045 72.7815 34.6043C72.7795 34.6041 72.7775 34.6046 72.7757 34.6058C72.7739 34.6069 72.7722 34.6086 72.7709 34.6108L72.5887 34.8191L72.5238 34.5823L72.7105 34.368C72.712 34.3664 72.7132 34.3644 72.7141 34.362C72.715 34.3596 72.7157 34.357 72.7159 34.3543C72.7162 34.3515 72.7161 34.3487 72.7156 34.3461C72.7152 34.3434 72.7144 34.3409 72.7133 34.3387C72.7108 34.3352 72.7075 34.3333 72.7041 34.3333C72.7007 34.3333 72.6974 34.3352 72.6949 34.3387L72.5132 34.5478L72.4483 34.3101L72.6345 34.0959C72.6363 34.0945 72.6378 34.0926 72.6391 34.0902C72.6403 34.0879 72.6412 34.0851 72.6417 34.0822C72.6421 34.0792 72.6422 34.0761 72.6418 34.0732C72.6414 34.0702 72.6406 34.0674 72.6394 34.0649C72.6383 34.0625 72.6368 34.0604 72.635 34.059C72.6333 34.0575 72.6314 34.0567 72.6294 34.0565C72.6275 34.0563 72.6255 34.0568 72.6237 34.0579C72.6218 34.0591 72.6202 34.0608 72.6188 34.063L72.4377 34.2713L72.3729 34.0345L72.5585 33.8202C72.5599 33.8186 72.5611 33.8165 72.5621 33.8142C72.563 33.8118 72.5636 33.8092 72.5639 33.8064C72.5641 33.8037 72.564 33.8009 72.5636 33.7982C72.5631 33.7955 72.5623 33.793 72.5613 33.7908C72.5588 33.7872 72.5555 33.7852 72.552 33.7852C72.5486 33.7852 72.5453 33.7872 72.5428 33.7908L72.3578 33.9965C72.356 33.9952 72.3541 33.9945 72.3522 33.9945C72.3503 33.9945 72.3484 33.9952 72.3466 33.9965C72.3439 33.9985 72.3417 34.0017 72.3403 34.0057C72.3389 34.0098 72.3384 34.0144 72.3388 34.019L72.1018 34.2929C72.1001 34.2916 72.0983 34.2909 72.0965 34.2909C72.0946 34.2909 72.0928 34.2916 72.0912 34.2929C72.0884 34.2947 72.0862 34.2979 72.0847 34.302C72.0833 34.3061 72.0828 34.3108 72.0833 34.3153L71.8463 34.5892C71.8429 34.5871 71.8391 34.5871 71.8357 34.5892C71.8331 34.5911 71.8309 34.5942 71.8295 34.598C71.8281 34.6019 71.8275 34.6064 71.8279 34.6108L71.5903 34.8856C71.5887 34.8843 71.5868 34.8837 71.585 34.8837C71.5831 34.8837 71.5813 34.8843 71.5797 34.8856C71.5771 34.8873 71.5749 34.8902 71.5735 34.894C71.5721 34.8977 71.5715 34.9021 71.5718 34.9064L71.3332 35.1768C71.3316 35.1758 71.3299 35.1752 71.3281 35.1752C71.3264 35.1752 71.3247 35.1758 71.3231 35.1768C71.3205 35.1785 71.3183 35.1814 71.3169 35.1852C71.3155 35.1889 71.3149 35.1933 71.3153 35.1976L71.0777 35.4723C71.0744 35.4706 71.0709 35.4706 71.0676 35.4723C71.0651 35.474 71.0629 35.4769 71.0615 35.4807C71.0601 35.4844 71.0595 35.4888 71.0598 35.4931L70.8759 35.7056C70.8746 35.7073 70.8734 35.7094 70.8726 35.7117C70.8718 35.7141 70.8713 35.7167 70.8711 35.7193C70.871 35.722 70.8712 35.7247 70.8717 35.7272C70.8722 35.7298 70.8731 35.7321 70.8742 35.7341ZM71.5612 35.9934L71.4969 35.7583L71.7317 35.4888L71.7954 35.7246L71.5612 35.9934ZM71.8061 35.7635L71.8703 35.9994L71.6356 36.2673L71.5713 36.0323L71.8061 35.7635ZM72.0738 35.4058L72.0095 35.169L72.2438 34.9003L72.3086 35.1371L72.0738 35.4058ZM72.3192 35.1751L72.3841 35.4118L72.1493 35.6806L72.0844 35.4447L72.3192 35.1751ZM71.7429 35.4248L71.6786 35.1898L71.9128 34.9193L71.9771 35.1561L71.7429 35.4248ZM71.6686 35.1518L71.6043 34.9167L71.8363 34.6463L71.9005 34.8822L71.6686 35.1518ZM71.8603 34.6212L72.0939 34.3508L72.1588 34.5875L71.924 34.8606L71.8603 34.6212ZM72.1694 34.6264L72.2331 34.8606L71.9989 35.1293L71.9346 34.8934L72.1694 34.6264ZM72.0526 35.4326L71.99 35.5043L71.8922 35.3064L71.9877 35.1967L72.0526 35.4326ZM71.9687 35.5285L71.8178 35.7013L71.7535 35.4654L71.8709 35.3306L71.9687 35.5285ZM71.4863 35.7246L71.4226 35.4896L71.6568 35.22L71.7211 35.4551L71.4863 35.7246ZM71.412 35.4507L71.3483 35.2157L71.5819 34.9452L71.6462 35.1811L71.412 35.4507ZM72.4142 34.2963L72.18 34.5659L72.1157 34.3257L72.35 34.0552L72.4142 34.2963ZM72.4897 34.572L72.2555 34.8416L72.1907 34.6013L72.4249 34.3317L72.4897 34.572ZM72.5629 34.8441L72.3282 35.1129L72.2639 34.877L72.4981 34.6074L72.5629 34.8441ZM72.6384 35.1207L72.4036 35.3885L72.3393 35.1518L72.5741 34.883L72.6384 35.1207ZM72.1001 35.735L72.0039 35.5371L72.0598 35.4715L72.1241 35.7074L72.1001 35.735ZM72.0789 35.7601L71.8922 35.9752L71.8279 35.7402L71.9838 35.5613L72.0789 35.7601ZM71.3153 36.3295L71.5495 36.0608L71.6127 36.2941L71.3779 36.5628L71.3153 36.3295ZM71.2409 36.0565L71.4751 35.7869L71.5389 36.0219L71.3047 36.2906L71.2409 36.0565ZM71.1655 35.7808L71.3997 35.5112L71.4634 35.7462L71.2292 36.0158L71.1655 35.7808ZM71.0911 35.5078L71.3253 35.2373L71.3891 35.4723L71.1548 35.7419L71.0911 35.5078Z" fill="#E6E6E6"/>
<path d="M73.344 37.2419C73.5415 36.6589 73.396 35.9388 73.0189 35.6334C72.6418 35.328 72.1759 35.553 71.9783 36.1359C71.7808 36.7188 71.9263 37.439 72.3034 37.7444C72.6805 38.0498 73.1464 37.8248 73.344 37.2419Z" fill="#FAFAFA"/>
<path d="M72.8429 37.1741C72.9473 36.7983 72.835 36.3628 72.5919 36.2013C72.3488 36.0398 72.0671 36.2135 71.9626 36.5892C71.8581 36.9649 71.9705 37.4005 72.2136 37.562C72.4566 37.7235 72.7384 37.5498 72.8429 37.1741Z" fill="#EBEBEB"/>
<path d="M72.4426 37.195C72.5385 37.0923 72.5625 36.8889 72.4961 36.7405C72.4296 36.5922 72.298 36.5552 72.2021 36.6579C72.1061 36.7605 72.0822 36.964 72.1486 37.1123C72.215 37.2606 72.3466 37.2976 72.4426 37.195Z" fill="#E0E0E0"/>
<path d="M72.3617 36.3874C72.3555 36.4395 72.3595 36.4933 72.3731 36.542C72.3867 36.5907 72.4093 36.632 72.4381 36.6608C72.4669 36.6896 72.5006 36.7045 72.5349 36.7037C72.5692 36.7028 72.6025 36.6863 72.6307 36.6561C72.659 36.626 72.6807 36.5836 72.6933 36.5343C72.7059 36.485 72.7088 36.431 72.7015 36.3792C72.6943 36.3273 72.6772 36.28 72.6526 36.2432C72.6279 36.2064 72.5967 36.1817 72.563 36.1722C72.5178 36.1596 72.4713 36.1752 72.4336 36.2155C72.3959 36.2559 72.37 36.3177 72.3617 36.3874Z" fill="white"/>
<path d="M73.224 37.9242H73.2285C73.2313 37.9209 73.2331 37.9161 73.2336 37.9108C73.2342 37.9054 73.2333 37.9 73.2313 37.8956L72.9826 37.3884C72.9803 37.3851 72.9773 37.3831 72.9742 37.3828C72.971 37.3826 72.9679 37.384 72.9654 37.3869C72.9629 37.3897 72.9611 37.3939 72.9604 37.3986C72.9596 37.4033 72.9599 37.4083 72.9613 37.4126L73.2101 37.9198C73.2119 37.9224 73.2142 37.9242 73.2167 37.925C73.2191 37.9257 73.2217 37.9254 73.224 37.9242Z" fill="#E0E0E0"/>
<path d="M74.0661 36.6289L74.3785 37.7004L72.7032 39.6575L72.3857 38.5826L74.0661 36.6289Z" fill="#F5F5F5"/>
<path d="M72.3886 38.5746C72.3903 38.5778 72.3924 38.5803 72.3949 38.5816C72.3974 38.583 72.4 38.5833 72.4026 38.5824H72.4071L72.5809 38.3802L72.6486 38.6092L72.4669 38.82C72.4641 38.8235 72.4622 38.8284 72.4617 38.8339C72.4612 38.8393 72.462 38.8449 72.4641 38.8494C72.4656 38.8527 72.4678 38.8552 72.4703 38.8565C72.4729 38.8577 72.4756 38.8577 72.4781 38.8563C72.4797 38.857 72.4814 38.857 72.4831 38.8563L72.6603 38.6507L72.7279 38.8797L72.5424 39.0948C72.54 39.0988 72.5386 39.1041 72.5386 39.1095C72.5386 39.115 72.54 39.1202 72.5424 39.1242C72.5439 39.1275 72.5461 39.13 72.5486 39.1312C72.5511 39.1325 72.5538 39.1324 72.5563 39.1311C72.5563 39.1311 72.5563 39.1311 72.5608 39.1311L72.7414 38.922L72.809 39.151L72.6184 39.3592C72.6161 39.3622 72.6145 39.3662 72.6138 39.3707C72.6132 39.3752 72.6136 39.3799 72.6148 39.3841C72.6161 39.3883 72.6183 39.3916 72.6209 39.3937C72.6236 39.3958 72.6266 39.3964 72.6296 39.3955H72.634L72.8185 39.1821L72.8817 39.3964C72.8825 39.3988 72.8836 39.401 72.8849 39.4028C72.8862 39.4046 72.8878 39.4059 72.8895 39.4068L72.6938 39.634C72.6911 39.6373 72.6892 39.6421 72.6887 39.6474C72.6882 39.6527 72.689 39.6581 72.691 39.6625C72.6927 39.6657 72.6948 39.6681 72.6973 39.6695C72.6998 39.6709 72.7024 39.6712 72.705 39.6703H72.71L74.3809 37.7313C74.3832 37.7275 74.3845 37.7224 74.3845 37.7171C74.3845 37.7117 74.3832 37.7066 74.3809 37.7028C74.3783 37.6993 74.375 37.6974 74.3716 37.6974C74.3683 37.6974 74.365 37.6993 74.3624 37.7028L74.1835 37.9007L74.1165 37.6751L74.3043 37.4565C74.3057 37.455 74.3069 37.453 74.3079 37.4507C74.3088 37.4484 74.3094 37.4459 74.3096 37.4432C74.3099 37.4405 74.3098 37.4378 74.3094 37.4352C74.3089 37.4326 74.3082 37.4301 74.3071 37.428C74.3046 37.4244 74.3013 37.4223 74.2979 37.4223C74.2944 37.4223 74.2911 37.4244 74.2886 37.428L74.1053 37.6406L74.0376 37.4116L74.2288 37.1895C74.2303 37.1879 74.2315 37.1859 74.2324 37.1835C74.2334 37.1811 74.234 37.1785 74.2342 37.1758C74.2345 37.173 74.2344 37.1702 74.2339 37.1675C74.2335 37.1649 74.2327 37.1624 74.2316 37.1602C74.2291 37.1565 74.2258 37.1545 74.2224 37.1545C74.219 37.1545 74.2157 37.1565 74.2132 37.1602L74.027 37.3649L73.9599 37.1368L74.155 36.9113C74.1574 36.9074 74.1587 36.9023 74.1587 36.897C74.1587 36.8917 74.1574 36.8866 74.155 36.8828C74.1538 36.8809 74.1524 36.8794 74.1508 36.8783C74.1492 36.8773 74.1475 36.8768 74.1458 36.8768C74.1441 36.8768 74.1424 36.8773 74.1408 36.8783C74.1392 36.8794 74.1378 36.8809 74.1366 36.8828L73.9465 37.1031L73.8789 36.8741L74.0768 36.6443C74.0789 36.6408 74.0802 36.6362 74.0804 36.6313C74.0806 36.6265 74.0797 36.6217 74.0778 36.6178C74.0759 36.6139 74.0732 36.6111 74.0702 36.61C74.0672 36.6088 74.0639 36.6093 74.0611 36.6115L72.3903 38.5505C72.3883 38.5536 72.3871 38.5577 72.3868 38.5621C72.3865 38.5665 72.3871 38.5709 72.3886 38.5746ZM73.2607 38.2549L73.1925 38.026L73.4267 37.7546L73.4943 37.9845L73.2607 38.2549ZM73.5055 38.0225L73.5731 38.2515L73.3395 38.5228L73.2718 38.2938L73.5055 38.0225ZM73.1813 37.9879L73.1136 37.759L73.3473 37.4876L73.4149 37.7166L73.1813 37.9879ZM73.3691 37.4626L73.6028 37.1913L73.6704 37.4202L73.4367 37.6916L73.3691 37.4626ZM73.6816 37.4626L73.7498 37.6924L73.5161 37.9629L73.4479 37.7339L73.6816 37.4626ZM73.7609 37.7304L73.8286 37.9594L73.5949 38.229L73.5273 38L73.7609 37.7304ZM73.8398 37.9974L73.9041 38.2143C73.9053 38.2185 73.9075 38.2219 73.9102 38.2238L73.6732 38.4986C73.6735 38.4966 73.6735 38.4946 73.6732 38.4926L73.6067 38.2688L73.8398 37.9974ZM73.6547 38.5159L73.4177 38.7907C73.418 38.7887 73.418 38.7866 73.4177 38.7846L73.3512 38.5608L73.5849 38.2895L73.6492 38.5055C73.6502 38.5098 73.6522 38.5134 73.6547 38.5159ZM73.401 38.8114L73.1634 39.087C73.1639 39.0848 73.1639 39.0824 73.1634 39.0801L73.0974 38.8572L73.3311 38.5859L73.3954 38.801C73.3958 38.8033 73.3965 38.8053 73.3975 38.8071C73.3984 38.8089 73.3996 38.8103 73.401 38.8114ZM73.0851 38.8192L73.0175 38.5902L73.25 38.3154L73.3177 38.5444L73.0851 38.8192ZM73.0063 38.5513L72.9381 38.3223L73.1723 38.051L73.24 38.2809L73.0063 38.5513ZM72.9269 38.2843L72.8582 38.0562L73.0918 37.7849L73.1595 38.0139L72.9269 38.2843ZM73.927 37.1239L73.6933 37.3952L73.6246 37.1662L73.8582 36.8949L73.927 37.1239ZM74.0063 37.3917L73.7727 37.6622L73.7045 37.4332L73.9381 37.1619L74.0063 37.3917ZM74.0852 37.6587L73.8482 37.93L73.7805 37.7011L74.0142 37.4297L74.0852 37.6587ZM74.1662 37.9231L73.9303 38.1979C73.9303 38.1979 73.9303 38.1979 73.9303 38.1927L73.8638 37.9681L74.0975 37.6967L74.1617 37.9136C74.1624 37.9172 74.1635 37.9204 74.1651 37.9231H74.1662ZM72.842 39.1536L73.0762 38.8823L73.1394 39.0974C73.1409 39.1021 73.1435 39.1058 73.1466 39.1078L72.909 39.3834C72.9093 39.3809 72.9093 39.3782 72.909 39.3757L72.842 39.1536ZM72.7632 38.8866L72.9968 38.6153L73.0644 38.8442L72.8308 39.1156L72.7632 38.8866ZM72.6843 38.6187L72.918 38.3474L72.9856 38.5772L72.752 38.8477L72.6843 38.6187ZM72.605 38.3517L72.8386 38.0804L72.9063 38.3094L72.6726 38.5807L72.605 38.3517Z" fill="#E6E6E6"/>
<path d="M80.5885 108.025C93.7226 108.025 104.37 107.069 104.37 105.89C104.37 104.71 93.7226 103.754 80.5885 103.754C67.4544 103.754 56.8071 104.71 56.8071 105.89C56.8071 107.069 67.4544 108.025 80.5885 108.025Z" fill="#F5F5F5"/>
<path d="M77.2525 58.4991V52.8013C77.2525 52.6581 77.2008 52.5208 77.1087 52.4195C77.0167 52.3182 76.8918 52.2614 76.7616 52.2614H71.4554L69.5615 50.6504C69.4992 50.5984 69.423 50.5702 69.3447 50.5703C69.2971 50.5702 69.2499 50.5804 69.2058 50.6004C69.1617 50.6204 69.1217 50.6497 69.0879 50.6868C69.0542 50.7238 69.0274 50.7678 69.0092 50.8162C68.9909 50.8647 68.9815 50.9166 68.9815 50.969V52.2614H68.6862C68.556 52.2614 68.4311 52.3182 68.3391 52.4195C68.247 52.5208 68.1953 52.6581 68.1953 52.8013V58.4973C68.1966 58.6395 68.2489 58.7755 68.3408 58.8756C68.4327 58.9757 68.5568 59.0318 68.6862 59.0318H76.7665C76.8947 59.0304 77.0174 58.9739 77.1082 58.8744C77.199 58.7748 77.2508 58.6401 77.2525 58.4991Z" fill="#263238"/>
<path opacity="0.9" d="M76.7624 52.2639H71.4538L69.9755 51.0039C69.0363 52.6194 68.4636 54.5993 68.1953 56.6314V58.498C68.1966 58.6402 68.2489 58.7762 68.3408 58.8763C68.4327 58.9764 68.5568 59.0326 68.6862 59.0325H76.7665C76.8952 59.0311 77.0181 58.9742 77.109 58.8741C77.1999 58.774 77.2514 58.6386 77.2525 58.4971V52.7993C77.2514 52.6571 77.1993 52.521 77.1076 52.4207C77.0158 52.3205 76.8918 52.2641 76.7624 52.2639Z" fill="#FFD3B6"/>
<path d="M71.8194 59.0347L71.8464 57.2617C71.6176 57.876 71.344 58.4689 71.0283 59.0347H71.8194Z" fill="#EA863E"/>
<path d="M68.1969 53.6722C69.0208 52.9522 70.1293 52.3898 71.6272 52.2692H71.4554L69.5615 50.6582C69.4992 50.6062 69.423 50.5781 69.3447 50.5781C69.2971 50.578 69.2499 50.5882 69.2058 50.6082C69.1617 50.6282 69.1217 50.6575 69.0879 50.6946C69.0542 50.7316 69.0274 50.7756 69.0092 50.824C68.9909 50.8725 68.9815 50.9244 68.9815 50.9768V52.2692H68.6862C68.556 52.2692 68.4311 52.3261 68.3391 52.4273C68.247 52.5286 68.1953 52.6659 68.1953 52.8092L68.1969 53.6722Z" fill="#263238"/>
<path d="M69.403 56.1796C69.3212 56.6349 69.4766 57.0471 69.7433 57.1029C70.01 57.1587 70.2931 56.841 70.3724 56.3919C70.4444 56.0059 70.3414 55.6522 70.145 55.519C70.1302 55.5089 70.1146 55.5001 70.0984 55.4929L69.2173 54.9961C69.2173 54.9961 69.3899 55.4578 69.6885 55.5937C69.5375 55.7492 69.4372 55.9551 69.403 56.1796Z" fill="#263238"/>
<path d="M69.0856 53.8333C69.1214 53.8315 69.1564 53.8207 69.1878 53.8018C69.4591 53.6236 69.7651 53.5188 70.0804 53.4961C70.3957 53.4734 70.7114 53.5335 71.0015 53.6713C71.0491 53.6995 71.1049 53.7059 71.1567 53.689C71.2085 53.6721 71.2521 53.6334 71.2781 53.5813C71.302 53.5273 71.3059 53.4652 71.289 53.408C71.272 53.3509 71.2356 53.3033 71.1873 53.2753C70.8371 53.104 70.4548 53.0272 70.0722 53.0512C69.6896 53.0751 69.3177 53.1991 68.9874 53.413C68.9457 53.4361 68.9126 53.4742 68.8934 53.521C68.8743 53.5678 68.8703 53.6204 68.8822 53.6701C68.8941 53.7197 68.9211 53.7633 68.9587 53.7937C68.9963 53.824 69.0422 53.8393 69.0888 53.8369L69.0856 53.8333Z" fill="#263238"/>
<path d="M74.3325 56.5946C74.1829 56.7517 74.0829 56.9573 74.047 57.1814C73.9652 57.6376 74.1092 58.0489 74.3816 58.1047C74.6541 58.1605 74.9371 57.8428 75.0165 57.3937C75.0844 57.0077 74.9837 56.654 74.7899 56.5208L74.7457 56.4965L73.8638 55.9961C73.8638 55.9961 74.0331 56.4587 74.3325 56.5946Z" fill="#263238"/>
<path d="M74.4234 53.9258C74.3689 53.9274 74.3171 53.9524 74.279 53.9954C74.241 54.0385 74.2197 54.0961 74.2197 54.1562C74.2223 54.2155 74.2459 54.2713 74.2856 54.3115C74.3252 54.3518 74.3777 54.3732 74.4316 54.3713C75.0705 54.4055 75.9214 54.9256 76.2715 55.5142C76.2929 55.5468 76.3209 55.5733 76.3533 55.5916C76.3943 55.6162 76.4416 55.6246 76.4875 55.6155C76.5334 55.6063 76.5751 55.5802 76.6057 55.5415C76.6362 55.5027 76.6538 55.4536 76.6556 55.4023C76.6573 55.351 76.643 55.3007 76.6151 55.2595C76.1823 54.5504 75.2006 53.9573 74.4234 53.9258Z" fill="#263238"/>
<path d="M72.4521 59.4414H71.4312V59.5096H72.4521V59.4414Z" fill="#3D77FA"/>
<path d="M70.7976 59.5108H68.4906C68.2925 59.5104 68.1026 59.4235 67.9626 59.2693C67.8226 59.1151 67.7439 58.9062 67.7437 58.6883V57.8711H67.805V58.6883C67.805 58.8884 67.8772 59.0803 68.0058 59.2219C68.1343 59.3634 68.3087 59.4431 68.4906 59.4433H70.7976V59.5108Z" fill="#3D77FA"/>
<path d="M56.1627 25.5352H55.1816V25.6386H56.1627V25.5352Z" fill="#3D77FA"/>
<path d="M59.7065 28.0677H59.6476V26.8049C59.6474 26.4959 59.5778 26.1997 59.4542 25.9811C59.3305 25.7626 59.1629 25.6397 58.988 25.6393H56.772V25.5352H58.988C59.1785 25.5355 59.3612 25.6694 59.4959 25.9075C59.6306 26.1455 59.7063 26.4683 59.7065 26.8049V28.0677Z" fill="#3D77FA"/>
<path d="M54.7258 35.0372L58.8498 35.6234L59.1753 34.3328C59.1753 34.3328 59.2358 34.0953 59.327 33.6785V27.0699C59.3255 26.8505 59.2752 26.641 59.1869 26.4868C59.0986 26.3326 58.9795 26.2461 58.8553 26.2461H52.0342C52.4823 29.1163 53.3391 32.4532 54.7258 35.0372Z" fill="#263238"/>
<path d="M59.3275 35.8638V32.1934C59.22 30.1548 58.9515 28.1529 58.5296 26.2461H51.0937C50.9686 26.2461 50.8487 26.3339 50.7602 26.4902C50.6718 26.6466 50.6221 26.8586 50.6221 27.0796V35.8707C50.6221 36.0918 50.6718 36.3038 50.7602 36.4601C50.8487 36.6164 50.9686 36.7043 51.0937 36.7043H56.1941L58.0163 39.1813C58.0762 39.2616 58.1494 39.305 58.2246 39.3049C58.2704 39.3051 58.3158 39.2893 58.3581 39.2585C58.4005 39.2276 58.4389 39.1823 58.4714 39.1251C58.5038 39.068 58.5295 39.0001 58.5471 38.9253C58.5646 38.8506 58.5736 38.7704 58.5736 38.6895V36.6945H58.8574C58.982 36.6938 59.1013 36.606 59.1894 36.4504C59.2775 36.2948 59.3271 36.0839 59.3275 35.8638Z" fill="#FCCAC8"/>
<path d="M53.1622 33.5242C53.1386 34.2189 53.3249 34.8121 53.5835 34.8385C53.8422 34.8648 54.0686 34.3258 54.0921 33.6256C54.1157 32.9255 53.9278 32.3462 53.6692 32.3212C53.4106 32.2961 53.185 32.8324 53.1622 33.5242Z" fill="#263238"/>
<path d="M58.1191 32.8055C57.8605 32.7805 57.6349 33.3182 57.6105 34.0183C57.5861 34.7185 57.7748 35.2978 58.0334 35.3242C58.2921 35.3506 58.5185 34.8116 58.5405 34.1197C58.5625 33.4279 58.3778 32.8319 58.1191 32.8055Z" fill="#263238"/>
<path d="M56.6982 37.3765C56.4052 36.3149 56.1551 35.2179 55.9499 34.0938L55.8618 36.6958H56.1991L56.6982 37.3765Z" fill="#EA817E"/>
<path d="M51.7448 30.0946C51.7824 30.1112 51.8218 30.1108 51.8593 30.0933C51.8969 30.0758 51.9313 30.0418 51.9594 29.9946C52.1423 29.5949 52.3763 29.2776 52.6421 29.0687C52.9079 28.8598 53.1979 28.7653 53.4884 28.7929C53.5442 28.7896 53.5977 28.7514 53.6391 28.6851C53.6805 28.6187 53.7072 28.5285 53.7145 28.4305C53.7218 28.3326 53.7091 28.2332 53.6788 28.1502C53.6484 28.0672 53.6024 28.006 53.5489 27.9774C53.1822 27.9353 52.8151 28.0473 52.4776 28.3042C52.1401 28.5612 51.8418 28.9557 51.6072 29.4555C51.569 29.5399 51.5503 29.6466 51.5549 29.7543C51.5594 29.862 51.5868 29.9627 51.6316 30.0362C51.6668 30.0686 51.7052 30.0885 51.7448 30.0946Z" fill="#263238"/>
<path d="M59.2813 30.781C59.292 30.8266 59.3072 30.8685 59.3262 30.9047V29.3015C59.0169 28.6601 58.6027 28.2039 58.1407 27.9956C58.0804 27.9752 58.0181 27.9979 57.9673 28.0587C57.9165 28.1195 57.8814 28.2135 57.8699 28.32C57.8583 28.4265 57.8711 28.5367 57.9056 28.6265C57.94 28.7162 57.9932 28.7781 58.0534 28.7986C58.3317 28.936 58.5877 29.187 58.801 29.5313C59.0143 29.8757 59.1788 30.3037 59.2813 30.781Z" fill="#263238"/>
<path d="M80.994 55.5929C81.0758 55.8603 81.1974 56.1033 81.3517 56.3075C81.5059 56.5117 81.6898 56.6729 81.8922 56.7816C82.2083 56.9514 82.6308 56.9145 83.1176 57.2763C84.2172 58.0921 86.9619 57.3649 88.9512 57.6454C90.9405 57.926 93.6208 55.0207 93.6208 55.0207L101.514 55.5929V45.2562C101.514 45.2562 93.2767 45.7103 91.4916 44.8021C89.7066 43.894 87.7173 41.9964 86.8248 42.085C85.9323 42.1736 78.5879 43.2627 78.5879 43.2627L80.9913 55.5929H80.994Z" fill="white" stroke="#2E353A" stroke-linecap="round" stroke-linejoin="round"/>
<path d="M78.9517 13.9148C77.3221 14.1529 75.7825 15.0232 74.5277 16.4157C73.2729 17.8082 72.3592 19.6605 71.9022 21.7382C71.4452 23.8159 71.4655 26.0257 71.9603 28.0882C72.4552 30.1508 73.4025 31.9734 74.6824 33.3255C75.9623 34.6777 77.5173 35.4987 79.1509 35.6848C80.7844 35.8708 82.4231 35.4135 83.8597 34.3707C85.2963 33.3279 86.4663 31.7465 87.2217 29.8263C87.9771 27.9062 88.2839 25.7336 88.1035 23.5833C87.9845 22.1552 87.6532 20.7721 87.1287 19.5131C86.6041 18.254 85.8967 17.1438 85.0467 16.2458C84.1967 15.3478 83.2209 14.6797 82.1751 14.2798C81.1292 13.8798 80.0339 13.7558 78.9517 13.9148ZM80.5969 33.5102C79.2896 33.7019 77.9686 33.3777 76.8009 32.5787C75.6332 31.7797 74.6713 30.5418 74.0369 29.0216C73.4024 27.5013 73.1239 25.7669 73.2364 24.0377C73.349 22.3085 73.8477 20.6622 74.6694 19.307C75.4911 17.9518 76.5989 16.9485 77.8527 16.424C79.1065 15.8995 80.4501 15.8773 81.7135 16.3604C82.9768 16.8434 84.1033 17.8099 84.9504 19.1376C85.7974 20.4653 86.3271 22.0947 86.4724 23.8196C86.5689 24.9649 86.4934 26.1241 86.2503 27.231C86.0073 28.3378 85.6013 29.3707 85.0557 30.2706C84.5101 31.1704 83.8356 31.9197 83.0705 32.4755C82.3055 33.0314 81.4649 33.383 80.5969 33.5102Z" fill="white" stroke="#2E353A" stroke-linecap="round" stroke-linejoin="round"/>
<path d="M78.9068 13.2926C77.2771 13.5306 75.7376 14.4009 74.4828 15.7935C73.228 17.186 72.3143 19.0383 71.8573 21.116C71.4003 23.1937 71.4205 25.4035 71.9154 27.466C72.4103 29.5286 73.3575 31.3512 74.6375 32.7033C75.9174 34.0555 77.4724 34.8765 79.106 35.0626C80.7395 35.2486 82.3782 34.7913 83.8148 33.7485C85.2514 32.7057 86.4213 31.1243 87.1767 29.2041C87.9321 27.284 88.239 25.1114 88.0586 22.9611C87.816 20.0781 86.7157 17.4402 84.9996 15.6272C83.2835 13.8142 81.092 12.9745 78.9068 13.2926ZM80.552 32.888C79.2447 33.0797 77.9236 32.7555 76.756 31.9565C75.5883 31.1575 74.6264 29.9196 73.992 28.3993C73.3575 26.8791 73.0789 25.1447 73.1915 23.4155C73.3041 21.6863 73.8028 20.04 74.6244 18.6848C75.4461 17.3296 76.5539 16.3263 77.8078 15.8018C79.0616 15.2773 80.4052 15.2551 81.6685 15.7382C82.9319 16.2212 84.0584 17.1877 84.9054 18.5154C85.7525 19.8431 86.2822 21.4725 86.4275 23.1974C86.5239 24.3427 86.4485 25.5019 86.2054 26.6088C85.9623 27.7156 85.5564 28.7485 85.0108 29.6483C84.4652 30.5482 83.7906 31.2975 83.0256 31.8533C82.2605 32.4092 81.42 32.7608 80.552 32.888Z" fill="white" stroke="#2E353A" stroke-linecap="round" stroke-linejoin="round"/>
<path d="M81.0035 35.2436L80.6114 35.3009C80.1691 35.3656 79.8503 35.8911 79.8992 36.4747L80.5356 44.0554C80.5846 44.639 80.9828 45.0597 81.4252 44.9951L81.8173 44.9378C82.2596 44.8731 82.5784 44.3476 82.5294 43.764L81.8931 36.1833C81.8441 35.5997 81.4459 35.179 81.0035 35.2436Z" fill="#2F80EC" stroke="#2E353A" stroke-linecap="round" stroke-linejoin="round"/>
<path d="M80.8777 41.5699L81.7171 41.4517C82.078 41.4008 82.4397 41.5396 82.7235 41.8382C83.0074 42.1367 83.1907 42.5709 83.2335 43.0465L84.4898 58.0384C84.5408 58.6513 84.4053 59.2658 84.1131 59.747C83.8209 60.2281 83.3958 60.5364 82.9314 60.6041H82.8754C82.6453 60.638 82.4125 60.6116 82.1902 60.5265C81.9678 60.4415 81.7604 60.2993 81.5798 60.1083C81.3992 59.9173 81.2489 59.6812 81.1375 59.4134C81.0262 59.1456 80.956 58.8515 80.9309 58.5479L79.6746 43.5597C79.6544 43.3223 79.6699 43.0821 79.7201 42.8526C79.7704 42.6231 79.8544 42.409 79.9675 42.2225C80.0805 42.0359 80.2203 41.8806 80.3789 41.7655C80.5375 41.6503 80.7118 41.5776 80.8917 41.5514L80.8777 41.5699Z" fill="#2E353A" stroke="#2E353A" stroke-linecap="round" stroke-linejoin="round"/>
<path d="M82.0975 54.0586C82.0975 54.0586 80.1082 54.1546 79.8284 54.6086C79.5486 55.0627 79.599 56.6428 80.1389 56.8237C81.5155 57.2999 84.4421 57.023 84.5568 56.6981C84.6715 56.3733 84.9065 54.4831 84.3022 54.2801C83.5726 54.1326 82.8356 54.0585 82.0975 54.0586Z" fill="white" stroke="#2E353A" stroke-linecap="round" stroke-linejoin="round"/>
<path d="M81.5227 50.4005C81.5227 50.4005 79.2089 50.2861 78.848 50.8361C78.487 51.3862 78.4171 53.4424 79.027 53.7525C80.5826 54.5389 84.0828 54.2325 84.2423 53.8264C84.4017 53.4203 84.7487 51.3123 84.0632 50.9727C83.3777 50.6331 81.5227 50.4005 81.5227 50.4005Z" fill="white" stroke="#2E353A" stroke-linecap="round" stroke-linejoin="round"/>
<path d="M81.1894 46.2612C81.1894 46.2612 78.7161 46.1357 78.33 46.7263C77.9439 47.317 77.8683 49.5098 78.5202 49.8421C80.199 50.6838 83.8362 50.6838 84.0069 50.2482C84.1775 49.8126 84.6364 47.2358 83.9033 46.8703C83.1703 46.5048 81.1894 46.2612 81.1894 46.2612Z" fill="white" stroke="#2E353A" stroke-linecap="round" stroke-linejoin="round"/>
<path d="M79.7642 42.3972C79.7642 42.3972 77.2909 42.2754 76.9048 42.8624C76.5187 43.4493 76.4264 45.7123 77.095 45.9781C77.7637 46.2439 82.411 46.8198 82.5817 46.3879C82.7523 45.956 83.2112 43.3718 82.4781 43.0063C81.7451 42.6408 79.7642 42.3972 79.7642 42.3972Z" fill="white" stroke="#2E353A" stroke-linecap="round" stroke-linejoin="round"/>
<path d="M87.8641 53.251C87.4201 53.0899 86.9994 52.8329 86.619 52.4905C84.6297 50.6779 84.6969 46.5137 84.6969 46.5137L84.2184 46.3328C83.8232 46.1344 83.4527 45.8594 83.1189 45.5169C83.2791 46.3771 83.3728 47.2566 83.3987 48.1417C83.3915 48.6282 83.2474 49.0937 82.9946 49.4478C82.7417 49.8019 82.3981 50.0193 82.0305 50.0577C81.4122 50.15 81.138 50.2386 80.9309 49.1532C80.7239 48.0679 79.6971 43.7191 79.6271 43.0841C79.5656 42.5082 80.2986 41.4819 81.4653 41.2383C83.2588 41.4302 85.027 42.0911 86.8344 42.0911C87.4633 42.1689 88.066 42.4616 88.5831 42.9401" fill="white"/>
<path d="M87.8641 53.251C87.4201 53.0899 86.9994 52.8329 86.619 52.4905C84.6297 50.6779 84.6969 46.5137 84.6969 46.5137L84.2184 46.3328C83.8232 46.1344 83.4527 45.8594 83.1189 45.5169C83.2791 46.3771 83.3728 47.2566 83.3987 48.1417C83.3915 48.6282 83.2474 49.0937 82.9946 49.4478C82.7417 49.8019 82.3981 50.0193 82.0305 50.0577C81.4122 50.15 81.138 50.2386 80.9309 49.1532C80.7239 48.0679 79.6971 43.7191 79.6271 43.0841C79.5656 42.5082 80.2986 41.4819 81.4653 41.2383C83.2588 41.4302 85.027 42.0911 86.8344 42.0911C87.4633 42.1689 88.066 42.4616 88.5831 42.9401" stroke="#2E353A" stroke-linecap="round" stroke-linejoin="round"/>
<path d="M89.7543 53.4805C89.5362 53.4962 89.3177 53.4962 89.0996 53.4805H89.7543Z" fill="white"/>
<path d="M89.7543 53.4805C89.5362 53.4962 89.3177 53.4962 89.0996 53.4805" stroke="#2E353A" stroke-linecap="round" stroke-linejoin="round"/>
<path d="M91.2177 53.125C90.7426 53.3234 90.2514 53.4473 89.7544 53.4942L91.2177 53.125Z" fill="white"/>
<path d="M91.2177 53.125C90.7426 53.3234 90.2514 53.4473 89.7544 53.4942" stroke="#2E353A" stroke-linecap="round" stroke-linejoin="round"/>
<path d="M93.6875 51.9492H96.158" stroke="#2E353A" stroke-linecap="round" stroke-linejoin="round"/>
<path d="M93.8955 52.8516H94.9251" stroke="#2E353A" stroke-linecap="round" stroke-linejoin="round"/>
<path d="M84.6958 46.5157C84.6958 46.5157 86.0612 46.5157 86.9565 45.4414" stroke="#2E353A" stroke-linecap="round" stroke-linejoin="round"/>
<path d="M83.0857 45.3964C83.0464 44.9047 82.9686 44.4197 82.8535 43.9492" stroke="#2E353A" stroke-linecap="round" stroke-linejoin="round"/>
<path d="M80.9103 48.6798C80.9103 48.6798 80.6501 47.7274 80.9662 47.3841C81.2824 47.0407 82.1217 46.546 82.2672 46.9263C82.4127 47.3065 82.7289 49.0601 82.6421 49.4034L82.5554 49.7467" stroke="#2E353A" stroke-width="0.5" stroke-linecap="round" stroke-linejoin="round"/>
<path d="M118.835 60.2254H95.1787V44.8828H118.835" fill="#2F80EC"/>
<path d="M118.835 60.2254H95.1787V44.8828H118.835" stroke="#2E353A" stroke-linecap="round" stroke-linejoin="round"/>
<path d="M96.9149 59.1997C97.2085 59.1997 97.4465 58.8857 97.4465 58.4983C97.4465 58.1109 97.2085 57.7969 96.9149 57.7969C96.6213 57.7969 96.3833 58.1109 96.3833 58.4983C96.3833 58.8857 96.6213 59.1997 96.9149 59.1997Z" fill="white" stroke="#2E353A" stroke-linecap="round" stroke-linejoin="round"/>
<path d="M56.5615 13.5254V10.2656" stroke="#2E353A" stroke-linecap="round" stroke-linejoin="round"/>
<path d="M47.6155 85.8668C47.5342 86.1345 47.4127 86.3778 47.2584 86.5821C47.104 86.7863 46.92 86.9474 46.7174 87.0555C46.4012 87.229 45.9815 87.1884 45.4919 87.5502C44.3951 88.366 41.6504 87.6424 39.6583 87.9193C37.6663 88.1962 34.9915 85.2945 34.9915 85.2945L27.0903 85.8668V75.5301C27.0903 75.5301 35.3273 75.9841 37.1123 75.0797C38.8973 74.1752 40.8866 72.2703 41.7791 72.3626C42.6716 72.4549 50.016 73.5402 50.016 73.5402L47.6155 85.8668Z" fill="white" stroke="#2E353A" stroke-linecap="round" stroke-linejoin="round"/>
<path d="M49.6436 44.2112C51.2732 44.4492 52.8128 45.3195 54.0676 46.7121C55.3224 48.1046 56.2361 49.9569 56.6931 52.0346C57.1501 54.1123 57.1298 56.3221 56.635 58.3846C56.1401 60.4472 55.1928 62.2697 53.9129 63.6219C52.633 64.9741 51.0779 65.7951 49.4444 65.9812C47.8108 66.1672 46.1722 65.7099 44.7356 64.6671C43.299 63.6243 42.129 62.0429 41.3736 60.1227C40.6182 58.2026 40.3113 56.03 40.4917 53.8797C40.7337 50.9973 41.8335 48.3597 43.5492 46.5472C45.265 44.7347 47.4562 43.8957 49.6408 44.2149L49.6436 44.2112ZM47.9984 63.8066C49.3062 63.9989 50.6278 63.6752 51.7962 62.8764C52.9645 62.0776 53.9271 60.8397 54.5622 59.3191C55.1974 57.7985 55.4765 56.0635 55.3643 54.3336C55.2522 52.6037 54.7538 50.9565 53.9321 49.6003C53.1105 48.2441 52.0025 47.2399 50.7483 46.7145C49.4942 46.1892 48.1501 46.1663 46.8861 46.6489C45.622 47.1314 44.4948 48.0977 43.647 49.4255C42.7992 50.7533 42.2688 52.3831 42.1229 54.1086C41.928 56.4225 42.4375 58.7439 43.5392 60.5624C44.641 62.3809 46.2449 63.5478 47.9984 63.8066Z" fill="white" stroke="#2E353A" stroke-linecap="round" stroke-linejoin="round"/>
<path d="M49.6943 43.5825C51.3232 43.8212 52.8619 44.6918 54.1159 46.0843C55.3698 47.4768 56.2827 49.3287 56.739 51.4057C57.1954 53.4827 57.1747 55.6915 56.6797 57.7531C56.1847 59.8146 55.2375 61.6361 53.9579 62.9874C52.6784 64.3387 51.1239 65.1591 49.491 65.3447C47.8581 65.5304 46.2202 65.073 44.7842 64.0305C43.3483 62.988 42.1789 61.4071 41.4239 59.4877C40.6689 57.5683 40.3622 55.3966 40.5425 53.2473C40.6623 51.8197 40.994 50.4372 41.5188 49.1788C42.0436 47.9204 42.7511 46.8108 43.601 45.9133C44.4509 45.0158 45.4264 44.348 46.4719 43.9481C47.5174 43.5481 48.6124 43.4239 49.6943 43.5825ZM48.0492 63.1779C49.357 63.3701 50.6786 63.0464 51.8469 62.2476C53.0153 61.4489 53.9779 60.2109 54.613 58.6903C55.2481 57.1697 55.5272 55.4347 55.4151 53.7048C55.3029 51.9749 54.8045 50.3277 53.9829 48.9715C53.1613 47.6154 52.0533 46.6111 50.7991 46.0858C49.5449 45.5604 48.2008 45.5376 46.9368 46.0201C45.6728 46.5027 44.5456 47.469 43.6978 48.7968C42.8499 50.1246 42.3195 51.7543 42.1737 53.4798C41.9796 55.7928 42.4895 58.1127 43.5912 59.9298C44.693 61.747 46.2964 62.9126 48.0492 63.1705V63.1779Z" fill="white" stroke="#2E353A" stroke-linecap="round" stroke-linejoin="round"/>
<path d="M46.706 66.472L46.0697 74.0526C46.0207 74.6363 46.3395 75.1618 46.7818 75.2264L47.1739 75.2837C47.6163 75.3484 48.0145 74.9276 48.0635 74.344L48.6998 66.7634C48.7488 66.1797 48.43 65.6542 47.9877 65.5896L47.5956 65.5323C47.1532 65.4676 46.755 65.8884 46.706 66.472Z" fill="#2F80EC" stroke="#2E353A" stroke-linecap="round" stroke-linejoin="round"/>
<path d="M45.732 90.912H45.676C45.4447 90.8786 45.2207 90.785 45.017 90.6367C44.8132 90.4885 44.6337 90.2885 44.4888 90.0482C44.344 89.808 44.2366 89.5323 44.1728 89.237C44.1091 88.9417 44.0903 88.6327 44.1176 88.3278L45.3738 73.3396C45.3933 73.1019 45.4482 72.8716 45.5353 72.6619C45.6225 72.4522 45.7401 72.2673 45.8815 72.1178C46.0229 71.9682 46.1853 71.857 46.3594 71.7905C46.5335 71.7239 46.7158 71.7034 46.8959 71.7301L47.7352 71.8519C48.0988 71.9048 48.4316 72.1461 48.6604 72.5227C48.8891 72.8993 48.9951 73.3804 48.9551 73.8602L47.6989 88.8668C47.6728 89.1716 47.6014 89.4667 47.4888 89.735C47.3763 90.0034 47.2247 90.2398 47.0428 90.4308C46.8609 90.6218 46.6522 90.7636 46.4287 90.8481C46.2052 90.9325 45.9713 90.958 45.7404 90.9231L45.732 90.912Z" fill="#2E353A" stroke="#2E353A" stroke-linecap="round" stroke-linejoin="round"/>
<path d="M46.4962 84.3516C46.4962 84.3516 48.4827 84.4512 48.7625 84.9016C49.0423 85.352 48.9919 86.9357 48.4519 87.1166C47.0782 87.5965 44.1488 87.316 44.0369 86.9911C43.925 86.6662 43.6844 84.7761 44.2915 84.5731C45.0211 84.4255 45.7581 84.3515 46.4962 84.3516Z" fill="white" stroke="#2E353A" stroke-linecap="round" stroke-linejoin="round"/>
<path d="M47.0784 80.7021C47.0784 80.7021 49.3923 80.5839 49.7532 81.134C50.1141 81.6841 50.1869 83.7403 49.5741 84.0504C48.0185 84.8367 44.5184 84.5303 44.3617 84.1242C44.205 83.7182 43.8553 81.6102 44.5408 81.2706C45.2262 80.931 47.0784 80.7021 47.0784 80.7021Z" fill="white" stroke="#2E353A" stroke-linecap="round" stroke-linejoin="round"/>
<path d="M47.4173 76.5535C47.4173 76.5535 49.8906 76.4316 50.2767 77.0186C50.6628 77.6056 50.7384 79.8058 50.0865 80.1344C48.4078 80.9798 44.7705 80.9761 44.5999 80.5441C44.4292 80.1122 43.9703 77.5281 44.7034 77.1626C45.4364 76.7971 47.4173 76.5535 47.4173 76.5535Z" fill="white" stroke="#2E353A" stroke-linecap="round" stroke-linejoin="round"/>
<path d="M48.8402 72.687C48.8402 72.687 51.3135 72.5615 51.6997 73.1485C52.0858 73.7355 52.1781 76.0022 51.5066 76.268C50.8351 76.5338 46.1907 77.106 46.02 76.6741C45.8493 76.2421 45.3933 73.658 46.1263 73.2962C46.8593 72.9344 48.8402 72.687 48.8402 72.687Z" fill="white" stroke="#2E353A" stroke-linecap="round" stroke-linejoin="round"/>
<path d="M39.2212 83.7907C40.1969 83.8413 41.1603 83.489 41.9771 82.7828C43.9692 80.9702 43.8992 76.806 43.8992 76.806L44.3805 76.6251C44.7753 76.4281 45.1451 76.153 45.4772 75.8093C45.317 76.6695 45.2233 77.5489 45.1974 78.434C45.208 78.9192 45.3542 79.3821 45.6077 79.7337C45.8613 80.0853 46.2045 80.3009 46.5712 80.3389C47.1895 80.4275 47.4637 80.5198 47.6707 79.4308C47.8778 78.3417 48.9046 73.9966 48.9746 73.3654C49.0445 72.7341 48.3031 71.7595 47.1364 71.5195C45.3429 71.7152 43.5719 72.376 41.7673 72.376C41.1379 72.4535 40.5345 72.7447 40.0158 73.2214" fill="white"/>
<path d="M39.2212 83.7907C40.1969 83.8413 41.1603 83.489 41.9771 82.7828C43.9692 80.9702 43.8992 76.806 43.8992 76.806L44.3805 76.6251C44.7753 76.4281 45.1451 76.153 45.4772 75.8093C45.317 76.6695 45.2233 77.5489 45.1974 78.434C45.208 78.9192 45.3542 79.3821 45.6077 79.7337C45.8613 80.0853 46.2045 80.3009 46.5712 80.3389C47.1895 80.4275 47.4637 80.5198 47.6707 79.4308C47.8778 78.3417 48.9046 73.9966 48.9746 73.3654C49.0445 72.7341 48.3031 71.7595 47.1364 71.5195C45.3429 71.7152 43.5719 72.376 41.7673 72.376C41.1379 72.4535 40.5345 72.7447 40.0158 73.2214" stroke="#2E353A" stroke-linecap="round" stroke-linejoin="round"/>
<path d="M37.3872 83.4141C37.7784 83.5727 38.1804 83.6802 38.5875 83.7352L37.3872 83.4141Z" fill="white"/>
<path d="M37.3872 83.4141C37.7784 83.5727 38.1804 83.6802 38.5875 83.7352" stroke="#2E353A" stroke-linecap="round" stroke-linejoin="round"/>
<path d="M34.9129 82.2383H32.4424" stroke="#2E353A" stroke-linecap="round" stroke-linejoin="round"/>
<path d="M34.7088 83.1445H33.6792" stroke="#2E353A" stroke-linecap="round" stroke-linejoin="round"/>
<path d="M43.9062 76.8047C43.9062 76.8047 42.5408 76.8047 41.6455 75.7305" stroke="#2E353A" stroke-linecap="round" stroke-linejoin="round"/>
<path d="M45.5176 75.6893C45.556 75.1978 45.6329 74.7128 45.747 74.2422" stroke="#2E353A" stroke-linecap="round" stroke-linejoin="round"/>
<path d="M47.6831 78.9689C47.6831 78.9689 47.9433 78.0164 47.6244 77.6731C47.3054 77.3298 46.4688 76.8351 46.3262 77.2154C46.1835 77.5956 45.8645 79.3528 45.9512 79.6925L46.038 80.0358" stroke="#2E353A" stroke-width="0.5" stroke-linecap="round" stroke-linejoin="round"/>
<path d="M9.76611 90.5221H33.4221V75.1758H9.76611" fill="#2F80EC"/>
<path d="M9.76611 90.5221H33.4221V75.1758H9.76611" stroke="#2E353A" stroke-linecap="round" stroke-linejoin="round"/>
<path d="M31.1553 88.7874C31.1553 88.9261 31.1865 89.0617 31.2449 89.177C31.3033 89.2924 31.3863 89.3823 31.4834 89.4354C31.5806 89.4885 31.6875 89.5024 31.7906 89.4753C31.8937 89.4482 31.9884 89.3814 32.0628 89.2833C32.1371 89.1852 32.1877 89.0603 32.2082 88.9242C32.2288 88.7881 32.2182 88.6471 32.178 88.5189C32.1378 88.3908 32.0696 88.2812 31.9822 88.2042C31.8948 88.1271 31.792 88.0859 31.6869 88.0859C31.5459 88.0859 31.4107 88.1598 31.311 88.2914C31.2113 88.4229 31.1553 88.6013 31.1553 88.7874Z" fill="white" stroke="#2E353A" stroke-linecap="round" stroke-linejoin="round"/>
<defs>
<linearGradient id="paint0_linear_3013_88988" x1="63.4675" y1="16.8672" x2="63.4675" y2="61.1282" gradientUnits="userSpaceOnUse">
<stop stop-color="#2F80EC"/>
<stop offset="1" stop-color="#1ADDF9"/>
</linearGradient>
</defs>
</svg>
