<?xml version="1.0" encoding="UTF-8"?>
<svg xmlns="http://www.w3.org/2000/svg" xmlns:xlink="http://www.w3.org/1999/xlink" width="72px" height="72px" viewBox="0 0 72 72" version="1.1">
<g id="surface1">
<path style=" stroke:none;fill-rule:nonzero;fill:rgb(18.431373%,50.196078%,92.54902%);fill-opacity:1;" d="M 14.738281 30.234375 C 14.738281 17.152344 12.003906 6.546875 8.632812 6.546875 L 8.632812 42.078125 C 8.632812 55.160156 11.367188 65.765625 14.738281 65.765625 Z M 14.738281 30.234375 "/>
<path style=" stroke:none;fill-rule:nonzero;fill:rgb(18.431373%,50.196078%,92.54902%);fill-opacity:1;" d="M 1.707031 35.519531 C 1.527344 26.074219 2.472656 7.136719 7.707031 6.96875 C 8.070312 16.0625 7.378906 34.503906 1.707031 35.519531 Z M 1.707031 35.519531 "/>
<path style=" stroke:none;fill-rule:nonzero;fill:rgb(18.431373%,50.196078%,92.54902%);fill-opacity:1;" d="M 20.945312 60.394531 C 20.691406 60.394531 20.492188 60.125 20.34375 59.59375 C 20.207031 59.019531 20.140625 58.242188 20.140625 57.269531 L 20.140625 30.875 C 20.140625 27.109375 20.34375 23.851562 20.757812 21.105469 C 21.167969 18.355469 21.753906 16.25 22.519531 14.789062 C 23.296875 13.28125 24.210938 12.527344 25.261719 12.527344 C 26.316406 12.527344 27.222656 13.28125 27.988281 14.789062 C 28.765625 16.25 29.359375 18.355469 29.769531 21.105469 C 30.183594 23.851562 30.386719 27.109375 30.386719 30.875 L 30.386719 57.269531 C 30.386719 58.242188 30.3125 59.019531 30.164062 59.59375 C 30.027344 60.125 29.832031 60.394531 29.582031 60.394531 C 29.332031 60.394531 29.132812 60.125 28.984375 59.59375 C 28.835938 59.019531 28.761719 58.242188 28.761719 57.269531 L 28.761719 30.675781 C 28.761719 26.554688 28.453125 23.363281 27.835938 21.105469 C 27.230469 18.84375 26.371094 17.714844 25.261719 17.714844 C 24.167969 17.714844 23.308594 18.867188 22.691406 21.171875 C 22.074219 23.429688 21.765625 26.597656 21.765625 30.675781 L 21.765625 57.269531 C 21.765625 58.242188 21.691406 59.019531 21.542969 59.59375 C 21.394531 60.125 21.195312 60.394531 20.945312 60.394531 Z M 20.945312 60.394531 "/>
<path style=" stroke:none;fill-rule:nonzero;fill:rgb(18.431373%,50.196078%,92.54902%);fill-opacity:1;" d="M 35.828125 60.394531 C 34.722656 60.394531 33.839844 59.417969 33.191406 57.46875 C 32.550781 55.515625 32.230469 52.878906 32.230469 49.554688 C 32.230469 46.234375 32.566406 43.597656 33.242188 41.644531 C 33.925781 39.695312 34.859375 38.71875 36.035156 38.71875 C 36.652344 38.71875 37.199219 39.03125 37.679688 39.652344 C 38.171875 40.273438 38.566406 41.113281 38.863281 42.175781 L 38.863281 38.855469 C 38.863281 36.460938 38.664062 34.644531 38.261719 33.402344 C 37.875 32.117188 37.296875 31.476562 36.53125 31.476562 C 35.515625 31.476562 34.636719 32.382812 33.890625 34.199219 C 33.675781 34.6875 33.488281 34.929688 33.328125 34.929688 C 33.179688 34.929688 33.03125 34.6875 32.882812 34.199219 C 32.753906 33.710938 32.691406 33.136719 32.691406 32.472656 C 32.691406 31.71875 32.789062 31.03125 32.984375 30.410156 C 33.394531 29.214844 33.914062 28.261719 34.542969 27.550781 C 35.171875 26.84375 35.828125 26.488281 36.515625 26.488281 C 37.761719 26.488281 38.730469 27.597656 39.429688 29.8125 C 40.125 31.984375 40.472656 35.042969 40.472656 38.988281 L 40.472656 57.402344 C 40.472656 58.375 40.40625 59.128906 40.269531 59.660156 C 40.140625 60.148438 39.953125 60.394531 39.703125 60.394531 C 39.449219 60.394531 39.257812 60.148438 39.121094 59.660156 C 38.984375 59.128906 38.914062 58.421875 38.914062 57.535156 L 38.914062 55.671875 C 38.226562 58.820312 37.199219 60.394531 35.828125 60.394531 Z M 36.101562 55.671875 C 36.9375 55.671875 37.605469 55.097656 38.109375 53.945312 C 38.621094 52.746094 38.878906 51.195312 38.878906 49.289062 C 38.878906 47.429688 38.632812 45.988281 38.144531 44.96875 C 37.664062 43.90625 36.996094 43.375 36.136719 43.375 C 35.394531 43.375 34.824219 43.90625 34.421875 44.96875 C 34.023438 46.035156 33.824219 47.5625 33.824219 49.554688 C 33.824219 51.507812 34.019531 53.011719 34.40625 54.078125 C 34.804688 55.140625 35.371094 55.671875 36.101562 55.671875 Z M 36.101562 55.671875 "/>
<path style=" stroke:none;fill-rule:nonzero;fill:rgb(18.431373%,50.196078%,92.54902%);fill-opacity:1;" d="M 46.296875 60.394531 C 45.117188 60.394531 44.285156 57.644531 43.792969 52.148438 L 41.769531 30.210938 C 41.738281 29.855469 41.71875 29.546875 41.71875 29.28125 C 41.71875 28.703125 41.769531 28.195312 41.875 27.75 C 41.976562 27.265625 42.113281 26.910156 42.285156 26.6875 C 42.386719 26.554688 42.492188 26.488281 42.59375 26.488281 C 42.765625 26.488281 42.914062 26.667969 43.039062 27.019531 C 43.164062 27.332031 43.25 27.773438 43.296875 28.351562 L 45.371094 50.886719 C 45.519531 52.527344 45.660156 53.679688 45.800781 54.34375 C 45.9375 55.007812 46.101562 55.339844 46.296875 55.339844 C 46.488281 55.339844 46.65625 55.03125 46.792969 54.410156 C 46.929688 53.746094 47.074219 52.613281 47.222656 51.019531 L 49.296875 28.351562 C 49.351562 27.773438 49.4375 27.332031 49.550781 27.019531 C 49.679688 26.710938 49.828125 26.554688 49.996094 26.554688 C 50.261719 26.554688 50.472656 26.84375 50.632812 27.417969 C 50.792969 27.953125 50.871094 28.59375 50.871094 29.347656 C 50.871094 29.746094 50.859375 30.035156 50.835938 30.210938 L 48.796875 52.28125 C 48.535156 55.03125 48.199219 57.070312 47.785156 58.398438 C 47.386719 59.726562 46.890625 60.394531 46.296875 60.394531 Z M 46.296875 60.394531 "/>
<path style=" stroke:none;fill-rule:nonzero;fill:rgb(18.431373%,50.196078%,92.54902%);fill-opacity:1;" d="M 55.175781 60.394531 C 54.070312 60.394531 53.1875 59.417969 52.539062 57.46875 C 51.898438 55.515625 51.578125 52.878906 51.578125 49.554688 C 51.578125 46.234375 51.914062 43.597656 52.589844 41.644531 C 53.273438 39.695312 54.207031 38.71875 55.382812 38.71875 C 56 38.71875 56.546875 39.03125 57.027344 39.652344 C 57.519531 40.273438 57.914062 41.113281 58.210938 42.175781 L 58.210938 38.855469 C 58.210938 36.460938 58.011719 34.644531 57.609375 33.402344 C 57.222656 32.117188 56.644531 31.476562 55.878906 31.476562 C 54.863281 31.476562 53.984375 32.382812 53.242188 34.199219 C 53.023438 34.6875 52.835938 34.929688 52.675781 34.929688 C 52.527344 34.929688 52.378906 34.6875 52.230469 34.199219 C 52.105469 33.710938 52.039062 33.136719 52.039062 32.472656 C 52.039062 31.71875 52.136719 31.03125 52.332031 30.410156 C 52.742188 29.214844 53.261719 28.261719 53.890625 27.550781 C 54.519531 26.84375 55.175781 26.488281 55.863281 26.488281 C 57.109375 26.488281 58.078125 27.597656 58.777344 29.8125 C 59.472656 31.984375 59.820312 35.042969 59.820312 38.988281 L 59.820312 57.402344 C 59.820312 58.375 59.753906 59.128906 59.617188 59.660156 C 59.492188 60.148438 59.300781 60.394531 59.050781 60.394531 C 58.800781 60.394531 58.605469 60.148438 58.46875 59.660156 C 58.332031 59.128906 58.261719 58.421875 58.261719 57.535156 L 58.261719 55.671875 C 57.578125 58.820312 56.546875 60.394531 55.175781 60.394531 Z M 55.453125 55.671875 C 56.285156 55.671875 56.953125 55.097656 57.457031 53.945312 C 57.972656 52.746094 58.226562 51.195312 58.226562 49.289062 C 58.226562 47.429688 57.980469 45.988281 57.492188 44.96875 C 57.011719 43.90625 56.34375 43.375 55.484375 43.375 C 54.742188 43.375 54.171875 43.90625 53.773438 44.96875 C 53.371094 46.035156 53.171875 47.5625 53.171875 49.554688 C 53.171875 51.507812 53.367188 53.011719 53.753906 54.078125 C 54.15625 55.140625 54.71875 55.671875 55.453125 55.671875 Z M 55.453125 55.671875 "/>
<path style=" stroke:none;fill-rule:nonzero;fill:rgb(18.431373%,50.196078%,92.54902%);fill-opacity:1;" d="M 62.652344 60.394531 C 62.398438 60.394531 62.207031 60.125 62.070312 59.59375 C 61.941406 59.019531 61.878906 58.242188 61.878906 57.269531 L 61.878906 29.613281 C 61.878906 27.53125 62.136719 26.488281 62.652344 26.488281 C 62.890625 26.488281 63.078125 26.777344 63.21875 27.351562 C 63.355469 27.886719 63.421875 28.636719 63.421875 29.613281 L 63.421875 32.871094 C 64.269531 28.617188 65.417969 26.488281 66.867188 26.488281 C 67.964844 26.488281 68.808594 27.730469 69.402344 30.210938 C 70.007812 32.648438 70.3125 36.105469 70.3125 40.582031 L 70.3125 57.269531 C 70.3125 58.242188 70.238281 59.019531 70.089844 59.59375 C 69.953125 60.125 69.765625 60.394531 69.523438 60.394531 C 69.273438 60.394531 69.078125 60.125 68.941406 59.59375 C 68.804688 59.019531 68.734375 58.242188 68.734375 57.269531 L 68.734375 40.582031 C 68.734375 37.613281 68.554688 35.375 68.1875 33.867188 C 67.832031 32.359375 67.300781 31.609375 66.59375 31.609375 C 65.632812 31.609375 64.867188 32.714844 64.296875 34.929688 C 63.738281 37.101562 63.457031 40.050781 63.457031 43.773438 L 63.457031 57.269531 C 63.457031 58.242188 63.382812 59.019531 63.234375 59.59375 C 63.097656 60.125 62.902344 60.394531 62.652344 60.394531 Z M 62.652344 60.394531 "/>
</g>
</svg>
