<svg width="125" height="125" viewBox="0 0 125 125" fill="none" xmlns="http://www.w3.org/2000/svg">
<path d="M20 2H105C114.941 2 123 10.0589 123 20V105C123 114.941 114.941 123 105 123H20C10.0589 123 2 114.941 2 105V20C2 10.0589 10.0589 2 20 2Z" stroke="#2F80EC" stroke-width="4"/>
<rect x="94.5" y="31.5" width="3" height="62" rx="1.5" fill="#2F80EC" stroke="#2F80EC" stroke-width="3"/>
<rect x="34.5554" y="32.9697" width="3" height="85.4275" rx="1.5" transform="rotate(-45 34.5554 32.9697)" fill="#2F80EC" stroke="#2F80EC" stroke-width="3"/>
<rect x="33.1213" y="56.5355" width="3" height="53.8534" rx="1.5" transform="rotate(-45 33.1213 56.5355)" fill="#2F80EC" stroke="#2F80EC" stroke-width="3"/>
<rect x="33.3762" y="80.7905" width="3" height="19.5517" rx="1.5" transform="rotate(-45 33.3762 80.7905)" fill="#2F80EC" stroke="#2F80EC" stroke-width="3"/>
<rect x="70.5" y="33.5" width="3" height="27" rx="1.5" transform="rotate(-90 70.5 33.5)" fill="#2F80EC" stroke="#2F80EC" stroke-width="3"/>
<circle cx="30" cy="26" r="3" fill="#2F80EC"/>
<circle cx="78" cy="99" r="3" fill="#2F80EC"/>
<circle cx="29" cy="74" r="3" fill="#2F80EC"/>
<circle cx="32" cy="95" r="3" fill="#2F80EC"/>
</svg>
