<svg width="512" height="132" viewBox="0 0 512 132" fill="none" xmlns="http://www.w3.org/2000/svg">
<path d="M104.816 55.4271C104.816 31.443 85.3729 12 61.3888 12V77.1406C61.3888 101.125 80.8318 120.568 104.816 120.568V55.4271Z" fill="#2F80EC"/>
<path d="M12.1462 65.1204C10.8537 47.8013 17.5746 13.0855 54.7978 12.7753C57.3827 29.4482 52.4713 63.2593 12.1462 65.1204Z" fill="#2F80EC"/>
<path d="M148.939 110.72C147.152 110.72 145.73 110.232 144.674 109.257C143.699 108.201 143.211 106.779 143.211 104.991V56.6066C143.211 49.7003 144.674 43.7284 147.599 38.6908C150.524 33.6533 154.708 29.7939 160.152 27.1126C165.677 24.3501 172.177 22.9688 179.652 22.9688C187.127 22.9688 193.586 24.3501 199.03 27.1126C204.555 29.7939 208.78 33.6533 211.705 38.6908C214.63 43.7284 216.093 49.7003 216.093 56.6066V104.991C216.093 106.779 215.565 108.201 214.509 109.257C213.534 110.232 212.152 110.72 210.365 110.72C208.577 110.72 207.155 110.232 206.099 109.257C205.043 108.201 204.515 106.779 204.515 104.991V56.241C204.515 48.6847 202.321 42.8346 197.933 38.6908C193.627 34.547 187.533 32.4752 179.652 32.4752C171.852 32.4752 165.758 34.5877 161.371 38.8127C156.983 42.9565 154.789 48.7659 154.789 56.241V104.991C154.789 106.779 154.261 108.201 153.205 109.257C152.149 110.232 150.727 110.72 148.939 110.72Z" fill="#2F80EC"/>
<path d="M254.785 110.72C246.903 110.72 240.647 108.932 236.016 105.357C231.466 101.782 229.191 96.9475 229.191 90.8537C229.191 84.7599 231.588 79.9255 236.381 76.3505C241.256 72.7755 247.878 70.9879 256.247 70.9879C260.635 70.9879 264.535 71.5567 267.947 72.6942C271.441 73.8317 274.244 75.3755 276.357 77.3255V71.2317C276.357 66.8442 274.935 63.5129 272.091 61.2379C269.329 58.8816 265.225 57.7035 259.782 57.7035C252.55 57.7035 246.294 59.3691 241.013 62.7004C239.469 63.5941 238.128 64.041 236.991 64.041C235.935 64.041 234.878 63.5941 233.822 62.7004C232.928 61.8066 232.481 60.7504 232.481 59.5316C232.481 58.1503 233.172 56.891 234.553 55.7535C237.478 53.5597 241.175 51.8128 245.644 50.5128C250.113 49.2128 254.785 48.5628 259.66 48.5628C268.516 48.5628 275.422 50.594 280.379 54.6566C285.335 58.6379 287.813 64.2441 287.813 71.4755V105.235C287.813 107.023 287.326 108.404 286.351 109.379C285.457 110.273 284.116 110.72 282.329 110.72C280.541 110.72 279.16 110.273 278.185 109.379C277.21 108.404 276.722 107.104 276.722 105.479V102.066C271.847 107.835 264.535 110.72 254.785 110.72ZM256.735 102.066C262.666 102.066 267.419 101.01 270.994 98.8975C274.65 96.7038 276.479 93.86 276.479 90.3662C276.479 86.9537 274.732 84.3131 271.238 82.4443C267.825 80.4943 263.072 79.5193 256.978 79.5193C251.697 79.5193 247.635 80.4943 244.791 82.4443C241.947 84.3943 240.525 87.1975 240.525 90.8537C240.525 94.4288 241.906 97.1913 244.669 99.1413C247.513 101.091 251.535 102.066 256.735 102.066Z" fill="#2F80EC"/>
<path d="M329.216 110.72C320.847 110.72 314.916 105.682 311.422 95.6069L297.04 55.3878C296.797 54.7378 296.675 54.1691 296.675 53.6816C296.675 52.6253 297.04 51.6909 297.772 50.8784C298.503 49.9847 299.478 49.3347 300.697 48.9284C301.428 48.6847 302.159 48.5628 302.89 48.5628C304.109 48.5628 305.165 48.8878 306.059 49.5378C306.953 50.1065 307.562 50.919 307.887 51.9753L322.634 93.2913C323.691 96.2975 324.706 98.41 325.681 99.6288C326.656 100.848 327.834 101.457 329.216 101.457C330.597 101.457 331.775 100.888 332.75 99.7507C333.725 98.5319 334.741 96.46 335.797 93.535L350.544 51.9753C350.95 50.919 351.56 50.1065 352.372 49.5378C353.266 48.969 354.322 48.6847 355.541 48.6847C357.41 48.6847 358.913 49.2128 360.05 50.269C361.188 51.244 361.757 52.4222 361.757 53.8034C361.757 54.5347 361.675 55.0628 361.513 55.3878L347.01 95.8506C345.141 100.888 342.744 104.626 339.819 107.063C336.975 109.501 333.441 110.72 329.216 110.72Z" fill="#2F80EC"/>
<path d="M392.371 110.72C384.49 110.72 378.234 108.932 373.602 105.357C369.052 101.782 366.777 96.9475 366.777 90.8537C366.777 84.7599 369.174 79.9255 373.968 76.3505C378.843 72.7755 385.465 70.9879 393.834 70.9879C398.221 70.9879 402.121 71.5567 405.534 72.6942C409.028 73.8317 411.831 75.3755 413.943 77.3255V71.2317C413.943 66.8442 412.521 63.5129 409.678 61.2379C406.915 58.8816 402.812 57.7035 397.368 57.7035C390.137 57.7035 383.881 59.3691 378.599 62.7004C377.055 63.5941 375.715 64.041 374.577 64.041C373.521 64.041 372.465 63.5941 371.409 62.7004C370.515 61.8066 370.068 60.7504 370.068 59.5316C370.068 58.1503 370.759 56.891 372.14 55.7535C375.065 53.5597 378.762 51.8128 383.23 50.5128C387.699 49.2128 392.371 48.5628 397.246 48.5628C406.103 48.5628 413.009 50.594 417.965 54.6566C422.921 58.6379 425.4 64.2441 425.4 71.4755V105.235C425.4 107.023 424.912 108.404 423.937 109.379C423.043 110.273 421.703 110.72 419.915 110.72C418.128 110.72 416.746 110.273 415.771 109.379C414.796 108.404 414.309 107.104 414.309 105.479V102.066C409.434 107.835 402.121 110.72 392.371 110.72ZM394.321 102.066C400.252 102.066 405.006 101.01 408.581 98.8975C412.237 96.7038 414.065 93.86 414.065 90.3662C414.065 86.9537 412.318 84.3131 408.824 82.4443C405.412 80.4943 400.659 79.5193 394.565 79.5193C389.284 79.5193 385.221 80.4943 382.377 82.4443C379.534 84.3943 378.112 87.1975 378.112 90.8537C378.112 94.4288 379.493 97.1913 382.255 99.1413C385.099 101.091 389.121 102.066 394.321 102.066Z" fill="#2F80EC"/>
<path d="M445.521 110.72C443.734 110.72 442.353 110.232 441.378 109.257C440.484 108.201 440.037 106.779 440.037 104.991V54.2909C440.037 50.4722 441.865 48.5628 445.521 48.5628C447.228 48.5628 448.568 49.0909 449.543 50.1472C450.518 51.1222 451.006 52.5034 451.006 54.2909V60.2629C457.018 52.4628 465.184 48.5628 475.503 48.5628C483.303 48.5628 489.316 50.8378 493.541 55.3878C497.847 59.8566 500 66.1942 500 74.4005V104.991C500 106.779 499.472 108.201 498.416 109.257C497.441 110.232 496.1 110.72 494.394 110.72C492.606 110.72 491.225 110.232 490.25 109.257C489.275 108.201 488.787 106.779 488.787 104.991V74.4005C488.787 68.9567 487.487 64.8535 484.887 62.091C482.369 59.3285 478.59 57.9472 473.553 57.9472C466.728 57.9472 461.284 59.9785 457.222 64.041C453.24 68.0223 451.25 73.4255 451.25 80.2505V104.991C451.25 106.779 450.721 108.201 449.665 109.257C448.69 110.232 447.309 110.72 445.521 110.72Z" fill="#2F80EC"/>
</svg>
