<?xml version="1.0" encoding="UTF-8"?>
<svg xmlns="http://www.w3.org/2000/svg" xmlns:xlink="http://www.w3.org/1999/xlink" width="96px" height="96px" viewBox="0 0 96 96" version="1.1">
<g id="surface1">
<path style=" stroke:none;fill-rule:nonzero;fill:rgb(18.431373%,50.196078%,92.54902%);fill-opacity:1;" d="M 19.652344 40.3125 C 19.652344 22.867188 16.007812 8.726562 11.511719 8.726562 L 11.511719 56.101562 C 11.511719 73.546875 15.15625 87.6875 19.652344 87.6875 Z M 19.652344 40.3125 "/>
<path style=" stroke:none;fill-rule:nonzero;fill:rgb(18.431373%,50.196078%,92.54902%);fill-opacity:1;" d="M 2.277344 47.359375 C 2.035156 34.765625 3.296875 9.515625 10.273438 9.292969 C 10.757812 21.417969 9.839844 46.007812 2.277344 47.359375 Z M 2.277344 47.359375 "/>
<path style=" stroke:none;fill-rule:nonzero;fill:rgb(18.431373%,50.196078%,92.54902%);fill-opacity:1;" d="M 27.925781 80.523438 C 27.589844 80.523438 27.324219 80.167969 27.125 79.460938 C 26.945312 78.691406 26.851562 77.65625 26.851562 76.355469 L 26.851562 41.167969 C 26.851562 36.144531 27.125 31.800781 27.675781 28.140625 C 28.222656 24.476562 29.007812 21.667969 30.027344 19.71875 C 31.0625 17.710938 32.28125 16.703125 33.683594 16.703125 C 35.085938 16.703125 36.296875 17.710938 37.316406 19.71875 C 38.355469 21.667969 39.144531 24.476562 39.695312 28.140625 C 40.242188 31.800781 40.515625 36.144531 40.515625 41.167969 L 40.515625 76.355469 C 40.515625 77.65625 40.417969 78.691406 40.21875 79.460938 C 40.039062 80.167969 39.777344 80.523438 39.445312 80.523438 C 39.109375 80.523438 38.839844 80.167969 38.644531 79.460938 C 38.445312 78.691406 38.347656 77.65625 38.347656 76.355469 L 38.347656 40.902344 C 38.347656 35.40625 37.933594 31.152344 37.113281 28.140625 C 36.304688 25.125 35.164062 23.617188 33.683594 23.617188 C 32.222656 23.617188 31.078125 25.15625 30.257812 28.226562 C 29.433594 31.242188 29.023438 35.464844 29.023438 40.902344 L 29.023438 76.355469 C 29.023438 77.65625 28.925781 78.691406 28.726562 79.460938 C 28.527344 80.167969 28.261719 80.523438 27.925781 80.523438 Z M 27.925781 80.523438 "/>
<path style=" stroke:none;fill-rule:nonzero;fill:rgb(18.431373%,50.196078%,92.54902%);fill-opacity:1;" d="M 47.773438 80.523438 C 46.292969 80.523438 45.121094 79.222656 44.253906 76.625 C 43.398438 74.023438 42.972656 70.507812 42.972656 66.074219 C 42.972656 61.644531 43.421875 58.128906 44.320312 55.527344 C 45.234375 52.925781 46.476562 51.628906 48.046875 51.628906 C 48.867188 51.628906 49.601562 52.042969 50.238281 52.867188 C 50.894531 53.695312 51.421875 54.820312 51.816406 56.238281 L 51.816406 51.804688 C 51.816406 48.613281 51.550781 46.191406 51.015625 44.535156 C 50.5 42.824219 49.730469 41.964844 48.710938 41.964844 C 47.351562 41.964844 46.179688 43.175781 45.191406 45.601562 C 44.902344 46.25 44.648438 46.574219 44.4375 46.574219 C 44.238281 46.574219 44.039062 46.25 43.839844 45.601562 C 43.675781 44.949219 43.589844 44.183594 43.589844 43.296875 C 43.589844 42.292969 43.71875 41.375 43.980469 40.546875 C 44.527344 38.953125 45.21875 37.683594 46.058594 36.738281 C 46.894531 35.792969 47.773438 35.320312 48.6875 35.320312 C 50.347656 35.320312 51.640625 36.796875 52.570312 39.75 C 53.5 42.644531 53.964844 46.722656 53.964844 51.980469 L 53.964844 76.535156 C 53.964844 77.835938 53.875 78.839844 53.691406 79.546875 C 53.523438 80.199219 53.273438 80.523438 52.9375 80.523438 C 52.601562 80.523438 52.34375 80.199219 52.160156 79.546875 C 51.976562 78.839844 51.886719 77.894531 51.886719 76.710938 L 51.886719 74.230469 C 50.972656 78.425781 49.601562 80.523438 47.773438 80.523438 Z M 48.136719 74.230469 C 49.25 74.230469 50.140625 73.460938 50.8125 71.925781 C 51.496094 70.328125 51.839844 68.261719 51.839844 65.722656 C 51.839844 63.238281 51.511719 61.320312 50.855469 59.960938 C 50.21875 58.542969 49.324219 57.832031 48.183594 57.832031 C 47.191406 57.832031 46.429688 58.542969 45.898438 59.960938 C 45.363281 61.378906 45.097656 63.417969 45.097656 66.074219 C 45.097656 68.675781 45.355469 70.683594 45.875 72.101562 C 46.410156 73.519531 47.164062 74.230469 48.136719 74.230469 Z M 48.136719 74.230469 "/>
<path style=" stroke:none;fill-rule:nonzero;fill:rgb(18.431373%,50.196078%,92.54902%);fill-opacity:1;" d="M 61.726562 80.523438 C 60.160156 80.523438 59.046875 76.859375 58.390625 69.53125 L 55.695312 40.28125 C 55.648438 39.808594 55.625 39.394531 55.625 39.042969 C 55.625 38.273438 55.695312 37.59375 55.832031 37.003906 C 55.96875 36.351562 56.152344 35.878906 56.378906 35.585938 C 56.519531 35.40625 56.65625 35.320312 56.792969 35.320312 C 57.019531 35.320312 57.21875 35.554688 57.386719 36.027344 C 57.554688 36.441406 57.667969 37.03125 57.730469 37.800781 L 60.492188 67.847656 C 60.691406 70.035156 60.882812 71.570312 61.066406 72.457031 C 61.246094 73.34375 61.46875 73.785156 61.726562 73.785156 C 61.988281 73.785156 62.207031 73.375 62.390625 72.546875 C 62.574219 71.660156 62.765625 70.152344 62.960938 68.027344 L 65.726562 37.800781 C 65.804688 37.03125 65.917969 36.441406 66.070312 36.027344 C 66.238281 35.613281 66.433594 35.40625 66.664062 35.40625 C 67.015625 35.40625 67.296875 35.792969 67.507812 36.558594 C 67.722656 37.269531 67.828125 38.125 67.828125 39.128906 C 67.828125 39.660156 67.8125 40.046875 67.785156 40.28125 L 65.0625 69.710938 C 64.714844 73.375 64.265625 76.089844 63.714844 77.863281 C 63.183594 79.636719 62.519531 80.523438 61.726562 80.523438 Z M 61.726562 80.523438 "/>
<path style=" stroke:none;fill-rule:nonzero;fill:rgb(18.431373%,50.196078%,92.54902%);fill-opacity:1;" d="M 73.570312 80.523438 C 72.09375 80.523438 70.917969 79.222656 70.050781 76.625 C 69.195312 74.023438 68.769531 70.507812 68.769531 66.074219 C 68.769531 61.644531 69.21875 58.128906 70.117188 55.527344 C 71.03125 52.925781 72.273438 51.628906 73.84375 51.628906 C 74.667969 51.628906 75.398438 52.042969 76.039062 52.867188 C 76.691406 53.695312 77.21875 54.820312 77.613281 56.238281 L 77.613281 51.804688 C 77.613281 48.613281 77.347656 46.191406 76.816406 44.535156 C 76.296875 42.824219 75.527344 41.964844 74.507812 41.964844 C 73.152344 41.964844 71.976562 43.175781 70.988281 45.601562 C 70.699219 46.25 70.445312 46.574219 70.234375 46.574219 C 70.035156 46.574219 69.835938 46.25 69.640625 45.601562 C 69.472656 44.949219 69.386719 44.183594 69.386719 43.296875 C 69.386719 42.292969 69.515625 41.375 69.777344 40.546875 C 70.324219 38.953125 71.019531 37.683594 71.855469 36.738281 C 72.695312 35.792969 73.570312 35.320312 74.484375 35.320312 C 76.144531 35.320312 77.4375 36.796875 78.367188 39.75 C 79.296875 42.644531 79.761719 46.722656 79.761719 51.980469 L 79.761719 76.535156 C 79.761719 77.835938 79.671875 78.839844 79.488281 79.546875 C 79.320312 80.199219 79.070312 80.523438 78.734375 80.523438 C 78.398438 80.523438 78.140625 80.199219 77.957031 79.546875 C 77.773438 78.839844 77.683594 77.894531 77.683594 76.710938 L 77.683594 74.230469 C 76.769531 78.425781 75.398438 80.523438 73.570312 80.523438 Z M 73.933594 74.230469 C 75.046875 74.230469 75.9375 73.460938 76.609375 71.925781 C 77.292969 70.328125 77.636719 68.261719 77.636719 65.722656 C 77.636719 63.238281 77.308594 61.320312 76.65625 59.960938 C 76.015625 58.542969 75.125 57.832031 73.980469 57.832031 C 72.992188 57.832031 72.230469 58.542969 71.695312 59.960938 C 71.164062 61.378906 70.894531 63.417969 70.894531 66.074219 C 70.894531 68.675781 71.15625 70.683594 71.671875 72.101562 C 72.207031 73.519531 72.960938 74.230469 73.933594 74.230469 Z M 73.933594 74.230469 "/>
<path style=" stroke:none;fill-rule:nonzero;fill:rgb(18.431373%,50.196078%,92.54902%);fill-opacity:1;" d="M 83.535156 80.523438 C 83.199219 80.523438 82.941406 80.167969 82.757812 79.460938 C 82.589844 78.691406 82.507812 77.65625 82.507812 76.355469 L 82.507812 39.484375 C 82.507812 36.707031 82.851562 35.320312 83.535156 35.320312 C 83.855469 35.320312 84.105469 35.703125 84.289062 36.46875 C 84.472656 37.179688 84.5625 38.183594 84.5625 39.484375 L 84.5625 43.828125 C 85.691406 38.15625 87.222656 35.320312 89.15625 35.320312 C 90.621094 35.320312 91.746094 36.972656 92.539062 40.28125 C 93.347656 43.53125 93.75 48.140625 93.75 54.109375 L 93.75 76.355469 C 93.75 77.65625 93.652344 78.691406 93.453125 79.460938 C 93.269531 80.167969 93.019531 80.523438 92.699219 80.523438 C 92.363281 80.523438 92.105469 80.167969 91.921875 79.460938 C 91.738281 78.691406 91.648438 77.65625 91.648438 76.355469 L 91.648438 54.109375 C 91.648438 50.148438 91.402344 47.167969 90.917969 45.15625 C 90.445312 43.148438 89.734375 42.144531 88.792969 42.144531 C 87.511719 42.144531 86.492188 43.621094 85.730469 46.574219 C 84.984375 49.472656 84.609375 53.398438 84.609375 58.363281 L 84.609375 76.355469 C 84.609375 77.65625 84.511719 78.691406 84.3125 79.460938 C 84.128906 80.167969 83.871094 80.523438 83.535156 80.523438 Z M 83.535156 80.523438 "/>
</g>
</svg>
