<?xml version="1.0" encoding="UTF-8"?>
<svg xmlns="http://www.w3.org/2000/svg" xmlns:xlink="http://www.w3.org/1999/xlink" width="48px" height="48px" viewBox="0 0 48 48" version="1.1">
<g id="surface1">
<path style=" stroke:none;fill-rule:nonzero;fill:rgb(18.431373%,50.196078%,92.54902%);fill-opacity:1;" d="M 9.828125 20.15625 C 9.828125 11.433594 8.003906 4.363281 5.753906 4.363281 L 5.753906 28.050781 C 5.753906 36.773438 7.578125 43.84375 9.828125 43.84375 Z M 9.828125 20.15625 "/>
<path style=" stroke:none;fill-rule:nonzero;fill:rgb(18.431373%,50.196078%,92.54902%);fill-opacity:1;" d="M 1.140625 23.679688 C 1.015625 17.382812 1.648438 4.757812 5.136719 4.644531 C 5.378906 10.707031 4.917969 23.003906 1.140625 23.679688 Z M 1.140625 23.679688 "/>
<path style=" stroke:none;fill-rule:nonzero;fill:rgb(18.431373%,50.196078%,92.54902%);fill-opacity:1;" d="M 13.964844 40.261719 C 13.796875 40.261719 13.664062 40.085938 13.5625 39.730469 C 13.472656 39.347656 13.425781 38.828125 13.425781 38.179688 L 13.425781 20.585938 C 13.425781 18.074219 13.5625 15.902344 13.835938 14.070312 C 14.113281 12.238281 14.503906 10.835938 15.015625 9.859375 C 15.53125 8.855469 16.140625 8.351562 16.84375 8.351562 C 17.542969 8.351562 18.148438 8.855469 18.660156 9.859375 C 19.175781 10.835938 19.574219 12.238281 19.847656 14.070312 C 20.121094 15.902344 20.257812 18.074219 20.257812 20.585938 L 20.257812 38.179688 C 20.257812 38.828125 20.210938 39.347656 20.109375 39.730469 C 20.019531 40.085938 19.890625 40.261719 19.722656 40.261719 C 19.554688 40.261719 19.421875 40.085938 19.320312 39.730469 C 19.222656 39.347656 19.171875 38.828125 19.171875 38.179688 L 19.171875 20.453125 C 19.171875 17.703125 18.96875 15.578125 18.554688 14.070312 C 18.152344 12.5625 17.582031 11.808594 16.84375 11.808594 C 16.109375 11.808594 15.539062 12.578125 15.128906 14.113281 C 14.71875 15.621094 14.511719 17.734375 14.511719 20.453125 L 14.511719 38.179688 C 14.511719 38.828125 14.460938 39.347656 14.363281 39.730469 C 14.265625 40.085938 14.128906 40.261719 13.964844 40.261719 Z M 13.964844 40.261719 "/>
<path style=" stroke:none;fill-rule:nonzero;fill:rgb(18.431373%,50.196078%,92.54902%);fill-opacity:1;" d="M 23.886719 40.261719 C 23.148438 40.261719 22.5625 39.613281 22.125 38.3125 C 21.699219 37.011719 21.488281 35.253906 21.488281 33.039062 C 21.488281 30.820312 21.710938 29.0625 22.160156 27.765625 C 22.617188 26.464844 23.238281 25.8125 24.023438 25.8125 C 24.433594 25.8125 24.800781 26.019531 25.121094 26.433594 C 25.449219 26.847656 25.710938 27.410156 25.910156 28.117188 L 25.910156 25.902344 C 25.910156 24.308594 25.773438 23.09375 25.507812 22.269531 C 25.25 21.410156 24.863281 20.984375 24.355469 20.984375 C 23.675781 20.984375 23.089844 21.589844 22.59375 22.800781 C 22.449219 23.125 22.324219 23.289062 22.21875 23.289062 C 22.117188 23.289062 22.019531 23.125 21.921875 22.800781 C 21.835938 22.476562 21.796875 22.089844 21.796875 21.648438 C 21.796875 21.144531 21.859375 20.6875 21.988281 20.273438 C 22.261719 19.476562 22.609375 18.839844 23.027344 18.367188 C 23.449219 17.894531 23.886719 17.660156 24.34375 17.660156 C 25.171875 17.660156 25.820312 18.398438 26.285156 19.875 C 26.75 21.324219 26.984375 23.363281 26.984375 25.992188 L 26.984375 38.265625 C 26.984375 38.917969 26.9375 39.417969 26.84375 39.773438 C 26.761719 40.097656 26.636719 40.261719 26.46875 40.261719 C 26.300781 40.261719 26.171875 40.097656 26.078125 39.773438 C 25.988281 39.417969 25.941406 38.945312 25.941406 38.355469 L 25.941406 37.113281 C 25.484375 39.210938 24.800781 40.261719 23.886719 40.261719 Z M 24.070312 37.113281 C 24.625 37.113281 25.070312 36.730469 25.40625 35.960938 C 25.75 35.164062 25.917969 34.132812 25.917969 32.859375 C 25.917969 31.621094 25.757812 30.660156 25.429688 29.980469 C 25.109375 29.269531 24.664062 28.917969 24.089844 28.917969 C 23.597656 28.917969 23.214844 29.269531 22.949219 29.980469 C 22.683594 30.6875 22.550781 31.707031 22.550781 33.039062 C 22.550781 34.335938 22.679688 35.34375 22.9375 36.050781 C 23.203125 36.761719 23.582031 37.113281 24.070312 37.113281 Z M 24.070312 37.113281 "/>
<path style=" stroke:none;fill-rule:nonzero;fill:rgb(18.431373%,50.196078%,92.54902%);fill-opacity:1;" d="M 30.863281 40.261719 C 30.078125 40.261719 29.523438 38.429688 29.195312 34.765625 L 27.847656 20.140625 C 27.824219 19.90625 27.8125 19.699219 27.8125 19.519531 C 27.8125 19.136719 27.847656 18.796875 27.917969 18.5 C 27.984375 18.175781 28.074219 17.941406 28.191406 17.792969 C 28.257812 17.703125 28.328125 17.660156 28.394531 17.660156 C 28.511719 17.660156 28.609375 17.777344 28.691406 18.015625 C 28.777344 18.21875 28.832031 18.515625 28.863281 18.898438 L 30.246094 33.925781 C 30.347656 35.015625 30.441406 35.785156 30.53125 36.230469 C 30.625 36.671875 30.734375 36.894531 30.863281 36.894531 C 30.992188 36.894531 31.105469 36.6875 31.195312 36.273438 C 31.285156 35.828125 31.382812 35.078125 31.480469 34.011719 L 32.863281 18.898438 C 32.902344 18.515625 32.957031 18.21875 33.035156 18.015625 C 33.117188 17.808594 33.21875 17.703125 33.332031 17.703125 C 33.507812 17.703125 33.648438 17.894531 33.753906 18.28125 C 33.863281 18.632812 33.914062 19.0625 33.914062 19.566406 C 33.914062 19.832031 33.90625 20.023438 33.890625 20.140625 L 32.53125 34.855469 C 32.355469 36.6875 32.132812 38.046875 31.859375 38.933594 C 31.589844 39.820312 31.261719 40.261719 30.863281 40.261719 Z M 30.863281 40.261719 "/>
<path style=" stroke:none;fill-rule:nonzero;fill:rgb(18.431373%,50.196078%,92.54902%);fill-opacity:1;" d="M 36.785156 40.261719 C 36.046875 40.261719 35.460938 39.613281 35.023438 38.3125 C 34.597656 37.011719 34.386719 35.253906 34.386719 33.039062 C 34.386719 30.820312 34.609375 29.0625 35.058594 27.765625 C 35.515625 26.464844 36.136719 25.8125 36.921875 25.8125 C 37.332031 25.8125 37.699219 26.019531 38.019531 26.433594 C 38.347656 26.847656 38.609375 27.410156 38.808594 28.117188 L 38.808594 25.902344 C 38.808594 24.308594 38.675781 23.09375 38.40625 22.269531 C 38.148438 21.410156 37.761719 20.984375 37.253906 20.984375 C 36.574219 20.984375 35.988281 21.589844 35.492188 22.800781 C 35.347656 23.125 35.222656 23.289062 35.117188 23.289062 C 35.019531 23.289062 34.917969 23.125 34.820312 22.800781 C 34.734375 22.476562 34.695312 22.089844 34.695312 21.648438 C 34.695312 21.144531 34.757812 20.6875 34.886719 20.273438 C 35.164062 19.476562 35.507812 18.839844 35.929688 18.367188 C 36.347656 17.894531 36.785156 17.660156 37.242188 17.660156 C 38.070312 17.660156 38.71875 18.398438 39.183594 19.875 C 39.648438 21.324219 39.882812 23.363281 39.882812 25.992188 L 39.882812 38.265625 C 39.882812 38.917969 39.835938 39.417969 39.742188 39.773438 C 39.660156 40.097656 39.535156 40.261719 39.367188 40.261719 C 39.199219 40.261719 39.070312 40.097656 38.980469 39.773438 C 38.886719 39.417969 38.839844 38.945312 38.839844 38.355469 L 38.839844 37.113281 C 38.382812 39.210938 37.699219 40.261719 36.785156 40.261719 Z M 36.96875 37.113281 C 37.523438 37.113281 37.96875 36.730469 38.304688 35.960938 C 38.648438 35.164062 38.820312 34.132812 38.820312 32.859375 C 38.820312 31.621094 38.65625 30.660156 38.328125 29.980469 C 38.007812 29.269531 37.5625 28.917969 36.992188 28.917969 C 36.496094 28.917969 36.113281 29.269531 35.847656 29.980469 C 35.582031 30.6875 35.449219 31.707031 35.449219 33.039062 C 35.449219 34.335938 35.578125 35.34375 35.835938 36.050781 C 36.101562 36.761719 36.480469 37.113281 36.96875 37.113281 Z M 36.96875 37.113281 "/>
<path style=" stroke:none;fill-rule:nonzero;fill:rgb(18.431373%,50.196078%,92.54902%);fill-opacity:1;" d="M 41.769531 40.261719 C 41.601562 40.261719 41.46875 40.085938 41.378906 39.730469 C 41.296875 39.347656 41.253906 38.828125 41.253906 38.179688 L 41.253906 19.742188 C 41.253906 18.355469 41.425781 17.660156 41.769531 17.660156 C 41.925781 17.660156 42.054688 17.851562 42.144531 18.234375 C 42.234375 18.589844 42.28125 19.09375 42.28125 19.742188 L 42.28125 21.914062 C 42.84375 19.078125 43.609375 17.660156 44.578125 17.660156 C 45.308594 17.660156 45.875 18.488281 46.269531 20.140625 C 46.671875 21.765625 46.875 24.070312 46.875 27.054688 L 46.875 38.179688 C 46.875 38.828125 46.824219 39.347656 46.726562 39.730469 C 46.636719 40.085938 46.507812 40.261719 46.347656 40.261719 C 46.183594 40.261719 46.050781 40.085938 45.960938 39.730469 C 45.871094 39.347656 45.824219 38.828125 45.824219 38.179688 L 45.824219 27.054688 C 45.824219 25.074219 45.703125 23.582031 45.457031 22.578125 C 45.222656 21.574219 44.867188 21.070312 44.394531 21.070312 C 43.753906 21.070312 43.246094 21.808594 42.863281 23.289062 C 42.492188 24.734375 42.304688 26.699219 42.304688 29.183594 L 42.304688 38.179688 C 42.304688 38.828125 42.253906 39.347656 42.15625 39.730469 C 42.066406 40.085938 41.933594 40.261719 41.769531 40.261719 Z M 41.769531 40.261719 "/>
</g>
</svg>
