<svg width="43" height="41" viewBox="0 0 43 41" fill="none" xmlns="http://www.w3.org/2000/svg">
<path d="M43 10.25V8.88333H39.4167V6.83333C39.4153 6.65217 39.3408 6.47847 39.2088 6.34817L36.3422 3.61483C36.2055 3.48897 36.0233 3.41802 35.8333 3.41667H33.6833V0H32.25V3.41667H30.1V0H28.6667V3.41667H26.5167V0H25.0833V3.41667H22.9333V0H21.5V3.41667H19.35V0H17.9167V3.41667H15.7667V0H14.3333V3.41667H12.1833V0H10.75V3.41667H8.6V0H7.16667V3.41667H4.3C4.10993 3.41667 3.92764 3.48866 3.79324 3.61681C3.65884 3.74496 3.58333 3.91877 3.58333 4.1V8.2H0V9.56667H3.58333V11.6167H0V12.9833H3.58333V15.0333H0V16.4H3.58333V18.45H0V19.8167H3.58333V21.8667H0V23.2333H3.58333V25.2833H0V26.65H3.58333V28.7H0V30.0667H3.58333V32.1167H0V33.4833H3.58333V36.9C3.58333 37.0812 3.65884 37.255 3.79324 37.3832C3.92764 37.5113 4.10993 37.5833 4.3 37.5833H7.88333V41H9.31667V37.5833H11.4667V41H12.9V37.5833H15.05V41H16.4833V37.5833H18.6333V41H20.0667V37.5833H22.2167V41H23.65V37.5833H25.8V41H27.2333V37.5833H29.3833V41H30.8167V37.5833H32.9667V41H34.4V37.5833H38.7C38.8901 37.5833 39.0724 37.5113 39.2068 37.3832C39.3412 37.255 39.4167 37.0812 39.4167 36.9V34.1667H43V32.8H39.4167V30.75H43V29.3833H39.4167V27.3333H43V25.9667H39.4167V23.9167H43V22.55H39.4167V20.5H43V19.1333H39.4167V17.0833H43V15.7167H39.4167V13.6667H43V12.3H39.4167V10.25H43ZM35.8333 33.4833C35.8333 33.6646 35.7578 33.8384 35.6234 33.9665C35.489 34.0947 35.3067 34.1667 35.1167 34.1667H7.88333C7.69326 34.1667 7.51097 34.0947 7.37657 33.9665C7.24217 33.8384 7.16667 33.6646 7.16667 33.4833V7.51667C7.16667 7.33544 7.24217 7.16163 7.37657 7.03348C7.51097 6.90533 7.69326 6.83333 7.88333 6.83333H35.1167C35.3067 6.83333 35.489 6.90533 35.6234 7.03348C35.7578 7.16163 35.8333 7.33544 35.8333 7.51667V33.4833Z" fill="#5c7eee"/>
<path d="M9 8V33H34V8H9ZM30.5278 28.8333C30.0369 28.8343 29.5616 28.6614 29.1859 28.3455C28.8103 28.0295 28.5586 27.5908 28.4754 27.1071C28.3922 26.6233 28.483 26.1257 28.7315 25.7025C28.98 25.2792 29.3704 24.9575 29.8333 24.7944V21.1944H27.8972L22.1944 23.7292V27.5722C22.6578 27.736 23.0483 28.0584 23.297 28.4823C23.5456 28.9062 23.6364 29.4043 23.5533 29.8887C23.4702 30.3731 23.2186 30.8125 22.8428 31.1292C22.4671 31.446 21.9914 31.6197 21.5 31.6197C21.0086 31.6197 20.5329 31.446 20.1572 31.1292C19.7814 30.8125 19.5298 30.3731 19.4467 29.8887C19.3636 29.4043 19.4544 28.9062 19.703 28.4823C19.9517 28.0584 20.3422 27.736 20.8056 27.5722V23.7292L15.1028 21.1944H13.1667V24.7944C13.63 24.9583 14.0205 25.2806 14.2692 25.7045C14.5179 26.1284 14.6087 26.6266 14.5256 27.1109C14.4424 27.5953 14.1908 28.0347 13.815 28.3515C13.4393 28.6682 12.9637 28.842 12.4722 28.842C11.9808 28.842 11.5051 28.6682 11.1294 28.3515C10.7537 28.0347 10.502 27.5953 10.4189 27.1109C10.3358 26.6266 10.4266 26.1284 10.6753 25.7045C10.9239 25.2806 11.3144 24.9583 11.7778 24.7944V20.5C11.7778 20.3158 11.8509 20.1392 11.9812 20.009C12.1114 19.8787 12.288 19.8056 12.4722 19.8056H15.1028L20.8056 17.2708V13.5556H18.0278C17.8436 13.5556 17.667 13.4824 17.5367 13.3522C17.4065 13.2219 17.3333 13.0453 17.3333 12.8611V10.0833C17.3333 9.89916 17.4065 9.72252 17.5367 9.59229C17.667 9.46205 17.8436 9.38889 18.0278 9.38889H24.9722C25.1564 9.38889 25.333 9.46205 25.4633 9.59229C25.5935 9.72252 25.6667 9.89916 25.6667 10.0833V12.8611C25.6667 13.0453 25.5935 13.2219 25.4633 13.3522C25.333 13.4824 25.1564 13.5556 24.9722 13.5556H22.1944V17.2708L27.8972 19.8056H30.5278C30.712 19.8056 30.8886 19.8787 31.0188 20.009C31.1491 20.1392 31.2222 20.3158 31.2222 20.5V24.7944C31.6852 24.9575 32.0755 25.2792 32.3241 25.7025C32.5726 26.1257 32.6633 26.6233 32.5801 27.1071C32.497 27.5908 32.2453 28.0295 31.8696 28.3455C31.494 28.6614 31.0186 28.8343 30.5278 28.8333V28.8333Z" fill="#5c7eee"/>
</svg>
