<svg width="28" height="34" viewBox="0 0 28 34" fill="none" xmlns="http://www.w3.org/2000/svg">
<path d="M16.3956 13.2877V14.1447C16.3956 14.359 16.589 14.5018 16.7823 14.5018H20.8425V16.7159C20.8425 16.9302 21.0359 17.073 21.2292 17.073H22.1186C22.3506 17.073 22.5053 16.8945 22.5053 16.7159V11.8235L25.8695 9.89514C26.1015 9.75229 26.2562 9.50232 26.2562 9.21663V7.10968C27.4549 6.71686 28.267 5.57412 27.9189 4.25281C27.6869 3.39575 26.9522 2.71724 26.0242 2.50298C24.3227 2.11016 22.776 3.32433 22.776 4.82419C22.776 5.8598 23.5107 6.75258 24.5161 7.07397V8.7881L21.1519 10.7165C20.9199 10.8593 20.7652 11.1093 20.7652 11.395V12.9306H16.7823C16.5503 12.9306 16.3956 13.1091 16.3956 13.2877ZM25.4441 4.03855C25.9468 4.03855 26.3335 4.43137 26.3335 4.8599C26.3335 5.32414 25.9082 5.68125 25.4441 5.68125C24.9414 5.68125 24.5547 5.28843 24.5547 4.8599C24.5547 4.39566 24.9414 4.03855 25.4441 4.03855Z" fill="#4C7ECD"/>
<path d="M1.77876 7.10968V9.21663C1.77876 9.50232 1.93344 9.75229 2.16545 9.89514L5.52964 11.8235V16.6802C5.52964 16.8945 5.72298 17.0373 5.91633 17.0373H6.80571C7.03772 17.0373 7.1924 16.8588 7.1924 16.6802V14.5018H11.2526C11.4846 14.5018 11.6393 14.3233 11.6393 14.1447V13.3234C11.6393 13.1091 11.446 12.9663 11.2526 12.9663H7.23106V11.4307C7.23106 11.145 7.07639 10.895 6.84438 10.7522L3.48019 8.7881V7.10968C4.67892 6.71686 5.49097 5.57412 5.14295 4.25281C4.91094 3.39575 4.17623 2.71724 3.24818 2.50298C1.54675 2.11016 0 3.32433 0 4.82419C0 5.93122 0.734707 6.78829 1.77876 7.10968ZM2.62948 4.03855C3.13217 4.03855 3.55753 4.43137 3.55753 4.8599C3.55753 5.32414 3.13217 5.68125 2.62948 5.68125C2.12678 5.68125 1.7401 5.28843 1.7401 4.8599C1.70143 4.39566 2.12678 4.03855 2.62948 4.03855Z" fill="#5c7eee"/>
<path d="M9.31917 4.68134V9.18092C9.31917 9.4666 9.47384 9.71658 9.70586 9.85942L13.186 11.8235V16.6802C13.186 16.8945 13.3794 17.0373 13.5727 17.0373H14.4621C14.6941 17.0373 14.8488 16.8588 14.8488 16.6802V11.8235L18.213 9.89513C18.445 9.75229 18.5997 9.50231 18.5997 9.21663V4.68134C19.7984 4.28852 20.6105 3.14577 20.2624 1.82447C20.0304 0.967405 19.2957 0.288897 18.3677 0.074632C16.7436 -0.282477 15.1968 0.931694 15.1968 2.43155C15.1968 3.46717 15.9315 4.35994 16.9369 4.68134V8.7881L14.0368 10.4665L11.0206 8.75238V4.68134C12.2193 4.28852 13.0314 3.14577 12.6834 1.82447C12.4513 0.967405 11.7166 0.288897 10.7886 0.074632C9.08716 -0.318188 7.54041 0.895983 7.54041 2.39584C7.54041 3.50288 8.27511 4.35994 9.31917 4.68134ZM17.7876 1.6102C18.2903 1.6102 18.677 2.00302 18.677 2.43155C18.677 2.86008 18.2517 3.2529 17.7876 3.2529C17.2849 3.2529 16.8983 2.86008 16.8983 2.43155C16.8983 2.00302 17.3236 1.6102 17.7876 1.6102ZM10.1699 1.6102C10.6726 1.6102 11.0593 2.00302 11.0593 2.43155C11.0593 2.86008 10.6339 3.2529 10.1699 3.2529C9.66719 3.2529 9.2805 2.86008 9.2805 2.43155C9.2805 2.00302 9.66719 1.6102 10.1699 1.6102Z" fill="#5c7eee"/>
<path d="M26.7588 11.645C26.2948 11.645 25.9081 12.0021 25.9081 12.4307C25.9081 13.1449 25.5987 13.8234 25.0574 14.3233C24.7867 14.609 24.7093 15.0018 24.98 15.3232C25.3281 15.8232 25.5601 16.3946 25.5601 16.9659C25.5601 17.5016 25.3667 18.0016 25.096 18.4658H3.01616C2.70681 18.0373 2.55213 17.5016 2.55213 16.9659C2.55213 16.3589 2.74548 15.7875 3.13216 15.3232C3.36418 15.0018 3.32551 14.609 3.01616 14.3233C2.47479 13.8234 2.16544 13.1449 2.16544 12.4307C2.16544 12.0021 1.77876 11.645 1.31473 11.645C0.850705 11.645 0.502686 12.0021 0.502686 12.4307C0.502686 13.3591 0.812036 14.2162 1.39207 14.9661C1.04405 15.5732 0.889373 16.2874 0.889373 16.9659C0.889373 17.5016 1.04405 18.0373 1.23739 18.5372C0.928042 19.5371 0.773367 20.6085 0.773367 21.7155C0.773367 28.5006 6.72836 34.0001 14.0754 34.0001C21.4225 34.0001 27.3775 28.5006 27.3775 21.7155C27.3775 20.6085 27.2228 19.5728 26.9135 18.5372C27.1068 18.0373 27.2615 17.5373 27.2615 16.9659C27.2615 16.2517 27.0681 15.5732 26.7588 14.9661C27.3388 14.2519 27.6482 13.3591 27.6482 12.4307C27.5708 12.0021 27.2228 11.645 26.7588 11.645ZM8.08177 23.0368C8.08177 22.144 8.85514 21.4298 9.82186 21.4298C10.7886 21.4298 11.562 22.144 11.562 23.0368C11.562 23.9296 10.7886 24.6438 9.82186 24.6438C8.85514 24.6438 8.08177 23.9296 8.08177 23.0368ZM17.5943 28.0363C17.0529 29.3933 15.5835 30.3218 14.0368 30.3218C12.4513 30.3218 11.0206 29.3933 10.4792 28.0006C10.3246 27.5721 10.5566 27.0721 11.0206 26.9293C11.4846 26.7864 12.026 27.0007 12.1807 27.4292C12.4513 28.1435 13.186 28.6077 14.0368 28.6077C14.8488 28.6077 15.6222 28.1078 15.8929 27.3935C16.0862 26.965 16.5889 26.7507 17.0529 26.8936C17.5556 27.1078 17.7876 27.5721 17.5943 28.0363ZM18.2517 24.6438C17.2849 24.6438 16.5116 23.9296 16.5116 23.0368C16.5116 22.144 17.2849 21.4298 18.2517 21.4298C19.2184 21.4298 19.9918 22.144 19.9918 23.0368C19.9918 23.9296 19.2184 24.6438 18.2517 24.6438Z" fill="#5c7eee"/>
</svg>
