<svg width="38" height="40" viewBox="0 0 38 40" fill="none" xmlns="http://www.w3.org/2000/svg">
<path d="M31.2231 4.48179C29.9345 3.70009 28.4375 3.38629 26.9627 3.58877C25.488 3.79125 24.1175 4.49877 23.0625 5.60224L18.2726 10.6629L27.8702 20.7656L32.6778 15.705C33.7261 14.5945 34.3983 13.1518 34.5906 11.5995C34.783 10.0471 34.4849 8.47123 33.7422 7.11485L37.9999 2.63305L35.4808 0L31.2231 4.48179Z" fill="#5c7eee"/>
<path d="M2.51914 40L6.77684 35.5182C8.06285 36.3093 9.56201 36.6285 11.039 36.4257C12.516 36.2229 13.8872 35.5096 14.9374 34.3977L19.7274 29.3371L17.9533 27.4696L22.0159 23.1933L19.5145 20.5602L15.4519 24.8366L14.4052 23.7348L18.4678 19.4584L15.9664 16.8254L11.9038 21.1018L10.1298 19.2343L5.32213 24.2764C4.27383 25.3868 3.60169 26.8295 3.40933 28.3819C3.21697 29.9342 3.51509 31.5101 4.2577 32.8665L0 37.3483L2.51914 40Z" fill="#5c7eee"/>
</svg>
