<svg width="39" height="38" viewBox="0 0 39 38" fill="none" xmlns="http://www.w3.org/2000/svg">
<g id="Group 2628">
<path id="Vector" d="M14.0048 36.9978C15.5251 36.9978 16.7576 35.7653 16.7576 34.245C16.7576 32.7247 15.5251 31.4922 14.0048 31.4922C12.4844 31.4922 11.252 32.7247 11.252 34.245C11.252 35.7653 12.4844 36.9978 14.0048 36.9978Z" fill="white" stroke="white"/>
<path id="Vector_2" d="M30.7294 37.0017C32.2497 37.0017 33.4822 35.7692 33.4822 34.2489C33.4822 32.7286 32.2497 31.4961 30.7294 31.4961C29.209 31.4961 27.9766 32.7286 27.9766 34.2489C27.9766 35.7692 29.209 37.0017 30.7294 37.0017Z" fill="white" stroke="white"/>
<path id="Vector_3" d="M38.1682 4.41875C38.0544 4.2784 37.9108 4.16502 37.748 4.08675C37.5851 4.00848 37.4069 3.96726 37.2262 3.96607H11.7535L12.5487 6.41301H35.6234L32.3567 21.0947H14.0047L8.41339 3.39104C8.35291 3.20318 8.24789 3.03275 8.10728 2.89427C7.96667 2.75579 7.79465 2.65338 7.6059 2.59578L2.58966 1.0542C2.43542 1.00681 2.27335 0.990254 2.11271 1.00549C1.95208 1.02073 1.79601 1.06745 1.65343 1.143C1.36548 1.29559 1.14993 1.55631 1.05421 1.86781C0.958483 2.17932 0.990425 2.51609 1.14301 2.80405C1.29559 3.092 1.55631 3.30755 1.86781 3.40327L6.26008 4.74909L11.8758 22.4894L9.86932 24.1289L9.71027 24.2879C9.21395 24.8599 8.93263 25.587 8.91476 26.3441C8.8969 27.1012 9.14361 27.8408 9.61239 28.4355C9.94586 28.841 10.3696 29.1629 10.8497 29.3753C11.3299 29.5878 11.853 29.6849 12.3774 29.659H32.7972C33.1217 29.659 33.4329 29.5301 33.6623 29.3006C33.8918 29.0712 34.0207 28.76 34.0207 28.4355C34.0207 28.111 33.8918 27.7998 33.6623 27.5704C33.4329 27.3409 33.1217 27.212 32.7972 27.212H12.1817C12.0408 27.2072 11.9035 27.1662 11.7831 27.0928C11.6628 27.0195 11.5633 26.9163 11.4945 26.7933C11.4256 26.6703 11.3896 26.5316 11.3899 26.3907C11.3903 26.2497 11.427 26.1112 11.4965 25.9886L14.4451 23.5416H33.3355C33.6183 23.5485 33.8948 23.4572 34.1179 23.2832C34.3409 23.1092 34.4968 22.8633 34.559 22.5873L38.4374 5.4587C38.4746 5.2763 38.4697 5.08782 38.423 4.90761C38.3764 4.72739 38.2892 4.56019 38.1682 4.41875Z" fill="white" stroke="white"/>
</g>
</svg>
