<svg width="39" height="36" viewBox="0 0 39 36" fill="none" xmlns="http://www.w3.org/2000/svg">
<g id="Group 2632">
<g id="Group">
<path id="Vector" d="M12.7784 15.4288C13.619 15.0684 14.0083 14.0948 13.648 13.2542C13.2876 12.4135 12.3139 12.0242 11.4733 12.3846C10.6327 12.745 10.2433 13.7186 10.6037 14.5592C10.9641 15.3999 11.9377 15.7892 12.7784 15.4288Z" stroke="white" stroke-width="2" stroke-linecap="round" stroke-linejoin="round"/>
<path id="Vector_2" d="M7.79232 11.7193C8.00387 11.1695 8.3234 10.6675 8.73206 10.2432C9.14072 9.81878 9.63023 9.48055 10.1717 9.24841C10.7132 9.01628 11.2957 8.89494 11.8849 8.89156C12.474 8.88819 13.0578 9.00284 13.602 9.22875M4.42912 10.8366C4.83143 9.82196 5.43035 8.89689 6.19144 8.11457C6.95254 7.33224 7.86079 6.70811 8.86396 6.27805C9.86712 5.848 10.9454 5.62051 12.0368 5.60868C13.1282 5.59684 14.2112 5.80089 15.2234 6.20909" stroke="white" stroke-width="2" stroke-linecap="round" stroke-linejoin="round"/>
<path id="Vector_3" d="M1.34161 9.60412C1.90791 8.18687 2.7479 6.89509 3.81359 5.80257C4.87929 4.71005 6.1498 3.83821 7.55254 3.23686C8.95527 2.63551 10.4628 2.31644 11.9888 2.29787C13.5149 2.2793 15.0297 2.56159 16.4467 3.12863" stroke="white" stroke-width="2" stroke-linecap="round" stroke-linejoin="round"/>
</g>
<path id="Vector_4" d="M19.3245 2.83398V4.98751H21.4781V2.83398H19.3245ZM22.7702 2.83398V4.98751H24.9237V2.83398H22.7702ZM26.2158 2.83398V4.98751H28.3693V2.83398H26.2158ZM19.3245 6.27962V9.58169H21.4781V6.27962H19.3245ZM22.7702 6.27962V9.58169H24.9237V6.27962H22.7702ZM26.2158 6.27962V9.58169H28.3693V6.27962H26.2158ZM19.3245 10.8738V14.1759H21.4781V10.8738H19.3245ZM22.7702 10.8738V14.1759H24.9237V10.8738H22.7702ZM26.2158 10.8738V14.1759H28.3693V10.8738H26.2158ZM38.7063 11.341L31.9585 15.1969V16.473H38.7063V11.341ZM19.3245 15.468V18.7701H21.4781V15.468H19.3245ZM22.7702 15.468V18.7701H24.9237V15.468H22.7702ZM26.2158 15.468V18.7701H28.3693V15.468H26.2158ZM31.9585 17.7651V25.6613H38.7063V17.7651H31.9585ZM6.54697 19.4161V21.0672H7.83908V19.4161H6.54697ZM19.3245 20.0622V23.3642H21.4781V20.0622H19.3245ZM22.7702 20.0622V23.3642H24.9237V20.0622H22.7702ZM26.2158 20.0622V23.3642H28.3693V20.0622H26.2158ZM6.44374 22.3593L5.94126 23.3642H16.4845L15.9821 22.3593H6.44374ZM5.54199 24.6564V35.9982H7.19303V34.3472H9.49012V35.9982H12.9358V34.3472H15.2328V35.9982H16.8839V24.6564H5.54199ZM19.3245 24.6564V27.9584H21.4781V24.6564H19.3245ZM22.7702 24.6564V27.9584H24.9237V24.6564H22.7702ZM26.2158 24.6564V27.9584H28.3693V24.6564H26.2158ZM7.19303 26.3074H9.49012V27.4559H7.19303V26.3074ZM12.9358 26.3074H15.2328V27.4559H12.9358V26.3074ZM31.9585 26.9534V35.9982H34.1839V34.3472H36.4809V35.9982H38.7063V26.9534H31.9585ZM7.19303 28.6045H9.49012V29.753H7.19303V28.6045ZM12.9358 28.6045H15.2328V29.753H12.9358V28.6045ZM19.3245 29.2505V32.5526H21.4781V29.2505H19.3245ZM22.7702 29.2505V32.5526H24.9237V29.2505H22.7702ZM26.2158 29.2505V32.5526H28.3693V29.2505H26.2158ZM7.19303 30.9016H9.49012V32.0501H7.19303V30.9016ZM12.9358 30.9016H15.2328V32.0501H12.9358V30.9016ZM19.3245 33.8447V35.9982H21.4781V33.8447H19.3245ZM22.7702 33.8447V35.9982H24.9237V33.8447H22.7702ZM26.2158 33.8447V35.9982H28.3693V33.8447H26.2158Z" fill="white"/>
</g>
</svg>
