<?xml version="1.0" encoding="UTF-8"?>
<svg xmlns="http://www.w3.org/2000/svg" xmlns:xlink="http://www.w3.org/1999/xlink" width="144px" height="144px" viewBox="0 0 144 144" version="1.1">
<g id="surface1">
<path style=" stroke:none;fill-rule:nonzero;fill:rgb(18.431373%,50.196078%,92.54902%);fill-opacity:1;" d="M 29.480469 60.464844 C 29.480469 34.300781 24.011719 13.089844 17.265625 13.089844 L 17.265625 84.152344 C 17.265625 110.316406 22.734375 131.527344 29.480469 131.527344 Z M 29.480469 60.464844 "/>
<path style=" stroke:none;fill-rule:nonzero;fill:rgb(18.431373%,50.196078%,92.54902%);fill-opacity:1;" d="M 3.417969 71.039062 C 3.050781 52.148438 4.941406 14.273438 15.410156 13.9375 C 16.140625 32.125 14.757812 69.011719 3.417969 71.039062 Z M 3.417969 71.039062 "/>
<path style=" stroke:none;fill-rule:nonzero;fill:rgb(18.431373%,50.196078%,92.54902%);fill-opacity:1;" d="M 41.890625 120.785156 C 41.386719 120.785156 40.988281 120.253906 40.691406 119.191406 C 40.414062 118.039062 40.277344 116.484375 40.277344 114.535156 L 40.277344 61.753906 C 40.277344 54.21875 40.691406 47.703125 41.511719 42.207031 C 42.335938 36.710938 43.511719 32.503906 45.042969 29.578125 C 46.597656 26.5625 48.425781 25.058594 50.527344 25.058594 C 52.628906 25.058594 54.445312 26.5625 55.976562 29.578125 C 57.53125 32.503906 58.71875 36.710938 59.542969 42.207031 C 60.363281 47.703125 60.777344 54.21875 60.777344 61.753906 L 60.777344 114.535156 C 60.777344 116.484375 60.628906 118.039062 60.332031 119.191406 C 60.054688 120.253906 59.667969 120.785156 59.164062 120.785156 C 58.664062 120.785156 58.261719 120.253906 57.964844 119.191406 C 57.667969 118.039062 57.519531 116.484375 57.519531 114.535156 L 57.519531 61.355469 C 57.519531 53.109375 56.902344 46.730469 55.667969 42.207031 C 54.457031 37.6875 52.742188 35.425781 50.527344 35.425781 C 48.332031 35.425781 46.621094 37.730469 45.386719 42.339844 C 44.152344 46.863281 43.535156 53.199219 43.535156 61.355469 L 43.535156 114.535156 C 43.535156 116.484375 43.386719 118.039062 43.089844 119.191406 C 42.792969 120.253906 42.390625 120.785156 41.890625 120.785156 Z M 41.890625 120.785156 "/>
<path style=" stroke:none;fill-rule:nonzero;fill:rgb(18.431373%,50.196078%,92.54902%);fill-opacity:1;" d="M 71.660156 120.785156 C 69.441406 120.785156 67.683594 118.835938 66.378906 114.933594 C 65.101562 111.035156 64.460938 105.761719 64.460938 99.113281 C 64.460938 92.464844 65.132812 87.191406 66.480469 83.292969 C 67.851562 79.390625 69.714844 77.441406 72.070312 77.441406 C 73.304688 77.441406 74.402344 78.0625 75.359375 79.304688 C 76.34375 80.542969 77.132812 82.226562 77.726562 84.355469 L 77.726562 77.707031 C 77.726562 72.921875 77.324219 69.285156 76.527344 66.804688 C 75.75 64.234375 74.59375 62.949219 73.0625 62.949219 C 71.03125 62.949219 69.269531 64.765625 67.785156 68.402344 C 67.351562 69.375 66.972656 69.863281 66.652344 69.863281 C 66.355469 69.863281 66.058594 69.375 65.761719 68.402344 C 65.511719 67.425781 65.386719 66.273438 65.386719 64.945312 C 65.386719 63.4375 65.578125 62.0625 65.96875 60.820312 C 66.789062 58.429688 67.832031 56.523438 69.085938 55.105469 C 70.34375 53.6875 71.660156 52.976562 73.03125 52.976562 C 75.519531 52.976562 77.460938 55.195312 78.855469 59.625 C 80.25 63.96875 80.949219 70.085938 80.949219 77.972656 L 80.949219 114.800781 C 80.949219 116.753906 80.808594 118.257812 80.535156 119.324219 C 80.285156 120.296875 79.90625 120.785156 79.40625 120.785156 C 78.902344 120.785156 78.515625 120.296875 78.238281 119.324219 C 77.964844 118.257812 77.828125 116.839844 77.828125 115.066406 L 77.828125 111.34375 C 76.457031 117.636719 74.402344 120.785156 71.660156 120.785156 Z M 72.207031 111.34375 C 73.875 111.34375 75.210938 110.191406 76.21875 107.886719 C 77.246094 105.496094 77.757812 102.394531 77.757812 98.582031 C 77.757812 94.859375 77.269531 91.976562 76.285156 89.9375 C 75.324219 87.8125 73.988281 86.75 72.273438 86.75 C 70.789062 86.75 69.648438 87.8125 68.847656 89.9375 C 68.046875 92.066406 67.648438 95.125 67.648438 99.113281 C 67.648438 103.011719 68.035156 106.027344 68.8125 108.152344 C 69.613281 110.28125 70.746094 111.34375 72.207031 111.34375 Z M 72.207031 111.34375 "/>
<path style=" stroke:none;fill-rule:nonzero;fill:rgb(18.431373%,50.196078%,92.54902%);fill-opacity:1;" d="M 92.59375 120.785156 C 90.238281 120.785156 88.570312 115.289062 87.585938 104.296875 L 83.542969 60.421875 C 83.472656 59.714844 83.441406 59.09375 83.441406 58.5625 C 83.441406 57.410156 83.542969 56.390625 83.75 55.503906 C 83.953125 54.527344 84.226562 53.820312 84.570312 53.375 C 84.777344 53.109375 84.980469 52.976562 85.1875 52.976562 C 85.53125 52.976562 85.828125 53.332031 86.078125 54.042969 C 86.332031 54.660156 86.5 55.546875 86.59375 56.699219 L 90.742188 101.773438 C 91.039062 105.050781 91.324219 107.355469 91.597656 108.6875 C 91.871094 110.015625 92.203125 110.679688 92.59375 110.679688 C 92.980469 110.679688 93.3125 110.058594 93.585938 108.820312 C 93.859375 107.488281 94.144531 105.230469 94.441406 102.039062 L 98.589844 56.699219 C 98.703125 55.546875 98.875 54.660156 99.105469 54.042969 C 99.355469 53.421875 99.652344 53.109375 99.996094 53.109375 C 100.523438 53.109375 100.945312 53.6875 101.265625 54.839844 C 101.585938 55.902344 101.746094 57.1875 101.746094 58.695312 C 101.746094 59.492188 101.722656 60.070312 101.675781 60.421875 L 97.597656 104.5625 C 97.070312 110.058594 96.398438 114.136719 95.574219 116.796875 C 94.773438 119.457031 93.78125 120.785156 92.59375 120.785156 Z M 92.59375 120.785156 "/>
<path style=" stroke:none;fill-rule:nonzero;fill:rgb(18.431373%,50.196078%,92.54902%);fill-opacity:1;" d="M 110.355469 120.785156 C 108.136719 120.785156 106.378906 118.835938 105.074219 114.933594 C 103.796875 111.035156 103.15625 105.761719 103.15625 99.113281 C 103.15625 92.464844 103.832031 87.191406 105.179688 83.292969 C 106.550781 79.390625 108.410156 77.441406 110.765625 77.441406 C 112 77.441406 113.097656 78.0625 114.054688 79.304688 C 115.039062 80.542969 115.828125 82.226562 116.421875 84.355469 L 116.421875 77.707031 C 116.421875 72.921875 116.023438 69.285156 115.222656 66.804688 C 114.445312 64.234375 113.289062 62.949219 111.757812 62.949219 C 109.726562 62.949219 107.964844 64.765625 106.480469 68.402344 C 106.046875 69.375 105.667969 69.863281 105.351562 69.863281 C 105.054688 69.863281 104.753906 69.375 104.457031 68.402344 C 104.207031 67.425781 104.082031 66.273438 104.082031 64.945312 C 104.082031 63.4375 104.277344 62.0625 104.664062 60.820312 C 105.488281 58.429688 106.527344 56.523438 107.785156 55.105469 C 109.039062 53.6875 110.355469 52.976562 111.726562 52.976562 C 114.214844 52.976562 116.160156 55.195312 117.550781 59.625 C 118.945312 63.96875 119.644531 70.085938 119.644531 77.972656 L 119.644531 114.800781 C 119.644531 116.753906 119.507812 118.257812 119.230469 119.324219 C 118.980469 120.296875 118.605469 120.785156 118.101562 120.785156 C 117.597656 120.785156 117.210938 120.296875 116.9375 119.324219 C 116.660156 118.257812 116.523438 116.839844 116.523438 115.066406 L 116.523438 111.34375 C 115.152344 117.636719 113.097656 120.785156 110.355469 120.785156 Z M 110.902344 111.34375 C 112.570312 111.34375 113.90625 110.191406 114.914062 107.886719 C 115.941406 105.496094 116.457031 102.394531 116.457031 98.582031 C 116.457031 94.859375 115.964844 91.976562 114.980469 89.9375 C 114.023438 87.8125 112.683594 86.75 110.972656 86.75 C 109.484375 86.75 108.34375 87.8125 107.542969 89.9375 C 106.742188 92.066406 106.34375 95.125 106.34375 99.113281 C 106.34375 103.011719 106.730469 106.027344 107.507812 108.152344 C 108.308594 110.28125 109.441406 111.34375 110.902344 111.34375 Z M 110.902344 111.34375 "/>
<path style=" stroke:none;fill-rule:nonzero;fill:rgb(18.431373%,50.196078%,92.54902%);fill-opacity:1;" d="M 125.304688 120.785156 C 124.800781 120.785156 124.410156 120.253906 124.136719 119.191406 C 123.886719 118.039062 123.761719 116.484375 123.761719 114.535156 L 123.761719 59.226562 C 123.761719 55.0625 124.273438 52.976562 125.304688 52.976562 C 125.78125 52.976562 126.160156 53.554688 126.433594 54.707031 C 126.707031 55.769531 126.84375 57.277344 126.84375 59.226562 L 126.84375 65.742188 C 128.535156 57.230469 130.832031 52.976562 133.734375 52.976562 C 135.929688 52.976562 137.621094 55.460938 138.808594 60.421875 C 140.019531 65.296875 140.625 72.210938 140.625 81.164062 L 140.625 114.535156 C 140.625 116.484375 140.476562 118.039062 140.179688 119.191406 C 139.90625 120.253906 139.527344 120.785156 139.046875 120.785156 C 138.546875 120.785156 138.15625 120.253906 137.882812 119.191406 C 137.609375 118.039062 137.472656 116.484375 137.472656 114.535156 L 137.472656 81.164062 C 137.472656 75.226562 137.105469 70.75 136.375 67.734375 C 135.667969 64.722656 134.601562 63.214844 133.1875 63.214844 C 131.265625 63.214844 129.734375 65.429688 128.59375 69.863281 C 127.472656 74.207031 126.914062 80.101562 126.914062 87.546875 L 126.914062 114.535156 C 126.914062 116.484375 126.765625 118.039062 126.46875 119.191406 C 126.195312 120.253906 125.804688 120.785156 125.304688 120.785156 Z M 125.304688 120.785156 "/>
</g>
</svg>
