<?xml version="1.0" encoding="UTF-8"?>
<svg xmlns="http://www.w3.org/2000/svg" xmlns:xlink="http://www.w3.org/1999/xlink" width="192px" height="192px" viewBox="0 0 192 192" version="1.1">
<g id="surface1">
<path style=" stroke:none;fill-rule:nonzero;fill:rgb(18.431373%,50.196078%,92.54902%);fill-opacity:1;" d="M 39.304688 80.621094 C 39.304688 45.734375 32.015625 17.453125 23.019531 17.453125 L 23.019531 112.203125 C 23.019531 147.089844 30.3125 175.371094 39.304688 175.371094 Z M 39.304688 80.621094 "/>
<path style=" stroke:none;fill-rule:nonzero;fill:rgb(18.431373%,50.196078%,92.54902%);fill-opacity:1;" d="M 4.554688 94.71875 C 4.070312 69.527344 6.589844 19.035156 20.550781 18.582031 C 21.519531 42.832031 19.675781 92.011719 4.554688 94.71875 Z M 4.554688 94.71875 "/>
<path style=" stroke:none;fill-rule:nonzero;fill:rgb(18.431373%,50.196078%,92.54902%);fill-opacity:1;" d="M 55.851562 161.046875 C 55.183594 161.046875 54.648438 160.335938 54.253906 158.917969 C 53.886719 157.382812 53.703125 155.316406 53.703125 152.714844 L 53.703125 82.335938 C 53.703125 72.292969 54.253906 63.605469 55.351562 56.277344 C 56.445312 48.949219 58.015625 43.335938 60.058594 39.4375 C 62.128906 35.417969 64.566406 33.410156 67.371094 33.410156 C 70.171875 33.410156 72.59375 35.417969 74.636719 39.4375 C 76.707031 43.335938 78.292969 48.949219 79.390625 56.277344 C 80.484375 63.605469 81.035156 72.292969 81.035156 82.335938 L 81.035156 152.714844 C 81.035156 155.316406 80.835938 157.382812 80.441406 158.917969 C 80.074219 160.335938 79.558594 161.046875 78.886719 161.046875 C 78.214844 161.046875 77.683594 160.335938 77.289062 158.917969 C 76.890625 157.382812 76.691406 155.316406 76.691406 152.714844 L 76.691406 81.804688 C 76.691406 70.8125 75.871094 62.304688 74.226562 56.277344 C 72.609375 50.25 70.324219 47.238281 67.371094 47.238281 C 64.445312 47.238281 62.160156 50.308594 60.515625 56.453125 C 58.867188 62.480469 58.046875 70.933594 58.046875 81.804688 L 58.046875 152.714844 C 58.046875 155.316406 57.847656 157.382812 57.453125 158.917969 C 57.054688 160.335938 56.523438 161.046875 55.851562 161.046875 Z M 55.851562 161.046875 "/>
<path style=" stroke:none;fill-rule:nonzero;fill:rgb(18.431373%,50.196078%,92.54902%);fill-opacity:1;" d="M 95.542969 161.046875 C 92.589844 161.046875 90.242188 158.445312 88.507812 153.246094 C 86.800781 148.046875 85.945312 141.015625 85.945312 132.152344 C 85.945312 123.289062 86.84375 116.253906 88.644531 111.054688 C 90.472656 105.855469 92.953125 103.253906 96.09375 103.253906 C 97.738281 103.253906 99.199219 104.082031 100.480469 105.738281 C 101.789062 107.390625 102.839844 109.636719 103.632812 112.472656 L 103.632812 103.609375 C 103.632812 97.226562 103.101562 92.382812 102.035156 89.074219 C 101 85.644531 99.460938 83.933594 97.417969 83.933594 C 94.707031 83.933594 92.359375 86.355469 90.378906 91.199219 C 89.800781 92.5 89.296875 93.152344 88.871094 93.152344 C 88.476562 93.152344 88.078125 92.5 87.683594 91.199219 C 87.347656 89.902344 87.179688 88.363281 87.179688 86.589844 C 87.179688 84.582031 87.441406 82.75 87.957031 81.097656 C 89.054688 77.90625 90.441406 75.363281 92.117188 73.472656 C 93.792969 71.582031 95.542969 70.636719 97.371094 70.636719 C 100.695312 70.636719 103.285156 73.589844 105.140625 79.5 C 107 85.292969 107.929688 93.445312 107.929688 103.964844 L 107.929688 153.070312 C 107.929688 155.667969 107.746094 157.679688 107.382812 159.097656 C 107.046875 160.398438 106.542969 161.046875 105.875 161.046875 C 105.203125 161.046875 104.683594 160.398438 104.320312 159.097656 C 103.953125 157.679688 103.769531 155.789062 103.769531 153.425781 L 103.769531 148.460938 C 101.941406 156.851562 99.199219 161.046875 95.542969 161.046875 Z M 96.277344 148.460938 C 98.5 148.460938 100.28125 146.921875 101.621094 143.851562 C 102.992188 140.660156 103.679688 136.523438 103.679688 131.441406 C 103.679688 126.476562 103.023438 122.636719 101.714844 119.917969 C 100.433594 117.082031 98.652344 115.664062 96.367188 115.664062 C 94.386719 115.664062 92.863281 117.082031 91.796875 119.917969 C 90.730469 122.753906 90.195312 126.832031 90.195312 132.152344 C 90.195312 137.351562 90.714844 141.371094 91.75 144.207031 C 92.816406 147.042969 94.324219 148.460938 96.277344 148.460938 Z M 96.277344 148.460938 "/>
<path style=" stroke:none;fill-rule:nonzero;fill:rgb(18.431373%,50.196078%,92.54902%);fill-opacity:1;" d="M 123.457031 161.046875 C 120.316406 161.046875 118.09375 153.71875 116.785156 139.066406 L 111.390625 80.5625 C 111.300781 79.617188 111.253906 78.792969 111.253906 78.082031 C 111.253906 76.546875 111.390625 75.1875 111.664062 74.003906 C 111.9375 72.703125 112.304688 71.757812 112.761719 71.167969 C 113.035156 70.8125 113.308594 70.636719 113.582031 70.636719 C 114.039062 70.636719 114.4375 71.109375 114.773438 72.054688 C 115.105469 72.882812 115.335938 74.0625 115.457031 75.601562 L 120.988281 135.695312 C 121.382812 140.070312 121.765625 143.140625 122.128906 144.914062 C 122.496094 146.6875 122.9375 147.574219 123.457031 147.574219 C 123.972656 147.574219 124.414062 146.746094 124.78125 145.09375 C 125.148438 143.320312 125.527344 140.304688 125.925781 136.050781 L 131.453125 75.601562 C 131.605469 74.0625 131.835938 72.882812 132.140625 72.054688 C 132.476562 71.226562 132.871094 70.8125 133.328125 70.8125 C 134.027344 70.8125 134.59375 71.582031 135.019531 73.117188 C 135.445312 74.535156 135.660156 76.25 135.660156 78.257812 C 135.660156 79.324219 135.628906 80.089844 135.566406 80.5625 L 130.128906 139.417969 C 129.429688 146.746094 128.527344 152.183594 127.433594 155.726562 C 126.367188 159.273438 125.039062 161.046875 123.457031 161.046875 Z M 123.457031 161.046875 "/>
<path style=" stroke:none;fill-rule:nonzero;fill:rgb(18.431373%,50.196078%,92.54902%);fill-opacity:1;" d="M 147.140625 161.046875 C 144.183594 161.046875 141.835938 158.445312 140.101562 153.246094 C 138.394531 148.046875 137.542969 141.015625 137.542969 132.152344 C 137.542969 123.289062 138.441406 116.253906 140.238281 111.054688 C 142.066406 105.855469 144.550781 103.253906 147.6875 103.253906 C 149.332031 103.253906 150.796875 104.082031 152.074219 105.738281 C 153.386719 107.390625 154.4375 109.636719 155.230469 112.472656 L 155.230469 103.609375 C 155.230469 97.226562 154.695312 92.382812 153.628906 89.074219 C 152.59375 85.644531 151.054688 83.933594 149.011719 83.933594 C 146.300781 83.933594 143.957031 86.355469 141.976562 91.199219 C 141.394531 92.5 140.894531 93.152344 140.464844 93.152344 C 140.070312 93.152344 139.675781 92.5 139.277344 91.199219 C 138.941406 89.902344 138.777344 88.363281 138.777344 86.589844 C 138.777344 84.582031 139.035156 82.75 139.550781 81.097656 C 140.648438 77.90625 142.035156 75.363281 143.710938 73.472656 C 145.386719 71.582031 147.140625 70.636719 148.96875 70.636719 C 152.289062 70.636719 154.878906 73.589844 156.738281 79.5 C 158.59375 85.292969 159.523438 93.445312 159.523438 103.964844 L 159.523438 153.070312 C 159.523438 155.667969 159.34375 157.679688 158.976562 159.097656 C 158.640625 160.398438 158.136719 161.046875 157.46875 161.046875 C 156.796875 161.046875 156.28125 160.398438 155.914062 159.097656 C 155.546875 157.679688 155.367188 155.789062 155.367188 153.425781 L 155.367188 148.460938 C 153.539062 156.851562 150.796875 161.046875 147.140625 161.046875 Z M 147.871094 148.460938 C 150.09375 148.460938 151.878906 146.921875 153.21875 143.851562 C 154.589844 140.660156 155.273438 136.523438 155.273438 131.441406 C 155.273438 126.476562 154.621094 122.636719 153.308594 119.917969 C 152.03125 117.082031 150.246094 115.664062 147.960938 115.664062 C 145.980469 115.664062 144.457031 117.082031 143.390625 119.917969 C 142.324219 122.753906 141.792969 126.832031 141.792969 132.152344 C 141.792969 137.351562 142.308594 141.371094 143.34375 144.207031 C 144.414062 147.042969 145.921875 148.460938 147.871094 148.460938 Z M 147.871094 148.460938 "/>
<path style=" stroke:none;fill-rule:nonzero;fill:rgb(18.431373%,50.196078%,92.54902%);fill-opacity:1;" d="M 167.070312 161.046875 C 166.398438 161.046875 165.882812 160.335938 165.515625 158.917969 C 165.179688 157.382812 165.015625 155.316406 165.015625 152.714844 L 165.015625 78.96875 C 165.015625 73.414062 165.699219 70.636719 167.070312 70.636719 C 167.710938 70.636719 168.214844 71.40625 168.578125 72.941406 C 168.945312 74.359375 169.128906 76.367188 169.128906 78.96875 L 169.128906 87.65625 C 171.382812 76.308594 174.445312 70.636719 178.3125 70.636719 C 181.238281 70.636719 183.492188 73.945312 185.078125 80.5625 C 186.691406 87.0625 187.5 96.28125 187.5 108.21875 L 187.5 152.714844 C 187.5 155.316406 187.300781 157.382812 186.90625 158.917969 C 186.539062 160.335938 186.039062 161.046875 185.398438 161.046875 C 184.726562 161.046875 184.210938 160.335938 183.84375 158.917969 C 183.476562 157.382812 183.296875 155.316406 183.296875 152.714844 L 183.296875 108.21875 C 183.296875 100.300781 182.808594 94.332031 181.832031 90.3125 C 180.886719 86.296875 179.472656 84.285156 177.582031 84.285156 C 175.023438 84.285156 172.980469 87.242188 171.457031 93.152344 C 169.964844 98.941406 169.21875 106.800781 169.21875 116.726562 L 169.21875 152.714844 C 169.21875 155.316406 169.019531 157.382812 168.625 158.917969 C 168.257812 160.335938 167.742188 161.046875 167.070312 161.046875 Z M 167.070312 161.046875 "/>
</g>
</svg>
