<?xml version="1.0" encoding="UTF-8"?>
<svg xmlns="http://www.w3.org/2000/svg" xmlns:xlink="http://www.w3.org/1999/xlink" width="128px" height="128px" viewBox="0 0 128 128" version="1.1">
<g id="surface1">
<path style=" stroke:none;fill-rule:nonzero;fill:rgb(18.431373%,50.196078%,92.54902%);fill-opacity:1;" d="M 26.203125 53.746094 C 26.203125 30.488281 21.34375 11.636719 15.347656 11.636719 L 15.347656 74.804688 C 15.347656 98.0625 20.207031 116.914062 26.203125 116.914062 Z M 26.203125 53.746094 "/>
<path style=" stroke:none;fill-rule:nonzero;fill:rgb(18.431373%,50.196078%,92.54902%);fill-opacity:1;" d="M 3.035156 63.148438 C 2.714844 46.351562 4.394531 12.6875 13.699219 12.386719 C 14.34375 28.554688 13.117188 61.34375 3.035156 63.148438 Z M 3.035156 63.148438 "/>
<path style=" stroke:none;fill-rule:nonzero;fill:rgb(18.431373%,50.196078%,92.54902%);fill-opacity:1;" d="M 37.234375 107.363281 C 36.789062 107.363281 36.433594 106.890625 36.167969 105.945312 C 35.925781 104.921875 35.804688 103.542969 35.804688 101.808594 L 35.804688 54.890625 C 35.804688 48.195312 36.167969 42.402344 36.898438 37.519531 C 37.632812 32.632812 38.675781 28.890625 40.039062 26.289062 C 41.417969 23.613281 43.042969 22.273438 44.914062 22.273438 C 46.78125 22.273438 48.398438 23.613281 49.757812 26.289062 C 51.140625 28.890625 52.195312 32.632812 52.925781 37.519531 C 53.65625 42.402344 54.023438 48.195312 54.023438 54.890625 L 54.023438 101.808594 C 54.023438 103.542969 53.890625 104.921875 53.628906 105.945312 C 53.382812 106.890625 53.039062 107.363281 52.589844 107.363281 C 52.144531 107.363281 51.789062 106.890625 51.523438 105.945312 C 51.261719 104.921875 51.128906 103.542969 51.128906 101.808594 L 51.128906 54.535156 C 51.128906 47.210938 50.582031 41.535156 49.484375 37.519531 C 48.40625 33.5 46.882812 31.492188 44.914062 31.492188 C 42.964844 31.492188 41.441406 33.539062 40.34375 37.636719 C 39.246094 41.65625 38.695312 47.289062 38.695312 54.535156 L 38.695312 101.808594 C 38.695312 103.542969 38.566406 104.921875 38.300781 105.945312 C 38.039062 106.890625 37.683594 107.363281 37.234375 107.363281 Z M 37.234375 107.363281 "/>
<path style=" stroke:none;fill-rule:nonzero;fill:rgb(18.431373%,50.196078%,92.54902%);fill-opacity:1;" d="M 63.695312 107.363281 C 61.726562 107.363281 60.160156 105.632812 59.003906 102.164062 C 57.867188 98.699219 57.296875 94.007812 57.296875 88.101562 C 57.296875 82.191406 57.898438 77.503906 59.09375 74.035156 C 60.3125 70.570312 61.96875 68.835938 64.0625 68.835938 C 65.160156 68.835938 66.132812 69.386719 66.988281 70.492188 C 67.859375 71.59375 68.5625 73.089844 69.089844 74.980469 L 69.089844 69.074219 C 69.089844 64.820312 68.734375 61.589844 68.023438 59.382812 C 67.332031 57.097656 66.304688 55.953125 64.945312 55.953125 C 63.136719 55.953125 61.574219 57.570312 60.253906 60.800781 C 59.867188 61.667969 59.53125 62.101562 59.246094 62.101562 C 58.984375 62.101562 58.71875 61.667969 58.457031 60.800781 C 58.230469 59.933594 58.121094 58.910156 58.121094 57.726562 C 58.121094 56.386719 58.292969 55.167969 58.636719 54.0625 C 59.371094 51.9375 60.292969 50.242188 61.410156 48.980469 C 62.527344 47.722656 63.695312 47.089844 64.914062 47.089844 C 67.128906 47.089844 68.855469 49.0625 70.09375 53 C 71.332031 56.859375 71.953125 62.296875 71.953125 69.308594 L 71.953125 102.046875 C 71.953125 103.78125 71.832031 105.117188 71.585938 106.066406 C 71.363281 106.929688 71.027344 107.363281 70.582031 107.363281 C 70.136719 107.363281 69.789062 106.929688 69.546875 106.066406 C 69.300781 105.117188 69.179688 103.859375 69.179688 102.28125 L 69.179688 98.972656 C 67.960938 104.566406 66.132812 107.363281 63.695312 107.363281 Z M 64.183594 98.972656 C 65.667969 98.972656 66.855469 97.949219 67.75 95.902344 C 68.664062 93.773438 69.121094 91.015625 69.121094 87.628906 C 69.121094 84.320312 68.683594 81.757812 67.808594 79.945312 C 66.957031 78.054688 65.769531 77.109375 64.246094 77.109375 C 62.925781 77.109375 61.910156 78.054688 61.199219 79.945312 C 60.488281 81.835938 60.132812 84.554688 60.132812 88.101562 C 60.132812 91.566406 60.476562 94.246094 61.167969 96.136719 C 61.878906 98.027344 62.882812 98.972656 64.183594 98.972656 Z M 64.183594 98.972656 "/>
<path style=" stroke:none;fill-rule:nonzero;fill:rgb(18.431373%,50.196078%,92.54902%);fill-opacity:1;" d="M 82.304688 107.363281 C 80.210938 107.363281 78.730469 102.480469 77.855469 92.710938 L 74.261719 53.710938 C 74.199219 53.078125 74.167969 52.527344 74.167969 52.054688 C 74.167969 51.03125 74.261719 50.125 74.441406 49.335938 C 74.625 48.46875 74.871094 47.839844 75.175781 47.445312 C 75.355469 47.210938 75.539062 47.089844 75.722656 47.089844 C 76.027344 47.089844 76.292969 47.40625 76.515625 48.035156 C 76.738281 48.589844 76.890625 49.375 76.972656 50.398438 L 80.660156 90.464844 C 80.921875 93.378906 81.175781 95.429688 81.421875 96.609375 C 81.664062 97.792969 81.957031 98.382812 82.304688 98.382812 C 82.648438 98.382812 82.945312 97.832031 83.1875 96.726562 C 83.429688 95.546875 83.683594 93.535156 83.949219 90.699219 L 87.636719 50.398438 C 87.738281 49.375 87.890625 48.589844 88.09375 48.035156 C 88.316406 47.484375 88.582031 47.210938 88.886719 47.210938 C 89.351562 47.210938 89.726562 47.722656 90.011719 48.746094 C 90.296875 49.691406 90.4375 50.832031 90.4375 52.171875 C 90.4375 52.882812 90.417969 53.394531 90.378906 53.710938 L 86.753906 92.945312 C 86.285156 97.832031 85.6875 101.457031 84.953125 103.820312 C 84.242188 106.183594 83.359375 107.363281 82.304688 107.363281 Z M 82.304688 107.363281 "/>
<path style=" stroke:none;fill-rule:nonzero;fill:rgb(18.431373%,50.196078%,92.54902%);fill-opacity:1;" d="M 98.09375 107.363281 C 96.121094 107.363281 94.558594 105.632812 93.402344 102.164062 C 92.261719 98.699219 91.695312 94.007812 91.695312 88.101562 C 91.695312 82.191406 92.292969 77.503906 93.492188 74.035156 C 94.710938 70.570312 96.367188 68.835938 98.457031 68.835938 C 99.554688 68.835938 100.53125 69.386719 101.382812 70.492188 C 102.257812 71.59375 102.957031 73.089844 103.484375 74.980469 L 103.484375 69.074219 C 103.484375 64.820312 103.128906 61.589844 102.417969 59.382812 C 101.730469 57.097656 100.703125 55.953125 99.34375 55.953125 C 97.535156 55.953125 95.96875 57.570312 94.648438 60.800781 C 94.265625 61.667969 93.929688 62.101562 93.644531 62.101562 C 93.378906 62.101562 93.117188 61.667969 92.851562 60.800781 C 92.628906 59.933594 92.515625 58.910156 92.515625 57.726562 C 92.515625 56.386719 92.691406 55.167969 93.035156 54.0625 C 93.765625 51.9375 94.691406 50.242188 95.808594 48.980469 C 96.925781 47.722656 98.09375 47.089844 99.3125 47.089844 C 101.527344 47.089844 103.253906 49.0625 104.492188 53 C 105.730469 56.859375 106.351562 62.296875 106.351562 69.308594 L 106.351562 102.046875 C 106.351562 103.78125 106.226562 105.117188 105.984375 106.066406 C 105.761719 106.929688 105.425781 107.363281 104.980469 107.363281 C 104.53125 107.363281 104.1875 106.929688 103.941406 106.066406 C 103.699219 105.117188 103.578125 103.859375 103.578125 102.28125 L 103.578125 98.972656 C 102.359375 104.566406 100.53125 107.363281 98.09375 107.363281 Z M 98.582031 98.972656 C 100.0625 98.972656 101.25 97.949219 102.144531 95.902344 C 103.058594 93.773438 103.515625 91.015625 103.515625 87.628906 C 103.515625 84.320312 103.078125 81.757812 102.207031 79.945312 C 101.351562 78.054688 100.164062 77.109375 98.640625 77.109375 C 97.320312 77.109375 96.304688 78.054688 95.59375 79.945312 C 94.882812 81.835938 94.527344 84.554688 94.527344 88.101562 C 94.527344 91.566406 94.875 94.246094 95.5625 96.136719 C 96.273438 98.027344 97.28125 98.972656 98.582031 98.972656 Z M 98.582031 98.972656 "/>
<path style=" stroke:none;fill-rule:nonzero;fill:rgb(18.431373%,50.196078%,92.54902%);fill-opacity:1;" d="M 111.378906 107.363281 C 110.933594 107.363281 110.589844 106.890625 110.34375 105.945312 C 110.121094 104.921875 110.007812 103.542969 110.007812 101.808594 L 110.007812 52.644531 C 110.007812 48.941406 110.464844 47.089844 111.378906 47.089844 C 111.808594 47.089844 112.140625 47.601562 112.386719 48.628906 C 112.628906 49.574219 112.75 50.914062 112.75 52.644531 L 112.75 58.4375 C 114.253906 50.871094 116.296875 47.089844 118.875 47.089844 C 120.824219 47.089844 122.328125 49.296875 123.386719 53.710938 C 124.460938 58.042969 125 64.1875 125 72.144531 L 125 101.808594 C 125 103.542969 124.867188 104.921875 124.605469 105.945312 C 124.359375 106.890625 124.023438 107.363281 123.597656 107.363281 C 123.152344 107.363281 122.804688 106.890625 122.5625 105.945312 C 122.320312 104.921875 122.195312 103.542969 122.195312 101.808594 L 122.195312 72.144531 C 122.195312 66.867188 121.871094 62.886719 121.222656 60.210938 C 120.59375 57.53125 119.648438 56.191406 118.386719 56.191406 C 116.683594 56.191406 115.320312 58.160156 114.304688 62.101562 C 113.308594 65.960938 112.8125 71.199219 112.8125 77.820312 L 112.8125 101.808594 C 112.8125 103.542969 112.679688 104.921875 112.417969 105.945312 C 112.171875 106.890625 111.828125 107.363281 111.378906 107.363281 Z M 111.378906 107.363281 "/>
</g>
</svg>
